<svg width="18" height="18" viewBox="0 0 18 18" fill="none" xmlns="http://www.w3.org/2000/svg">
<g clip-path="url(#clip0_1_2293)">
<path d="M17.6109 8.37102L14.7199 6.92602L17.6109 5.48002C17.7288 5.42248 17.828 5.33302 17.8975 5.22181C17.9669 5.1106 18.0038 4.98213 18.0038 4.85102C18.0038 4.71991 17.9669 4.59143 17.8975 4.48023C17.828 4.36902 17.7288 4.27955 17.6109 4.22202L9.31394 0.074018C9.21636 0.0249471 9.10866 -0.000610352 8.99944 -0.000610352C8.89022 -0.000610352 8.78251 0.0249471 8.68494 0.074018L0.387938 4.22302C0.270125 4.28055 0.170839 4.37002 0.101389 4.48123C0.0319393 4.59243 -0.00488281 4.72091 -0.00488281 4.85202C-0.00488281 4.98313 0.0319393 5.1116 0.101389 5.22281C0.170839 5.33402 0.270125 5.42348 0.387938 5.48102L3.27894 6.92602L0.387938 8.37102C0.270125 8.42855 0.170839 8.51802 0.101389 8.62923C0.0319393 8.74043 -0.00488281 8.86891 -0.00488281 9.00002C-0.00488281 9.13113 0.0319393 9.2596 0.101389 9.37081C0.170839 9.48202 0.270125 9.57148 0.387938 9.62902L3.27894 11.074L0.387938 12.52C0.270125 12.5776 0.170839 12.667 0.101389 12.7782C0.0319393 12.8894 -0.00488281 13.0179 -0.00488281 13.149C-0.00488281 13.2801 0.0319393 13.4086 0.101389 13.5198C0.170839 13.631 0.270125 13.7205 0.387938 13.778L8.68794 17.926C8.78551 17.9751 8.89322 18.0006 9.00244 18.0006C9.11166 18.0006 9.21936 17.9751 9.31694 17.926L17.6169 13.778C17.7348 13.7205 17.834 13.631 17.9035 13.5198C17.9729 13.4086 18.0098 13.2801 18.0098 13.149C18.0098 13.0179 17.9729 12.8894 17.9035 12.7782C17.834 12.667 17.7348 12.5776 17.6169 12.52L14.7259 11.075L17.6109 9.62902C17.7288 9.57148 17.828 9.48202 17.8975 9.37081C17.9669 9.2596 18.0038 9.13113 18.0038 9.00002C18.0038 8.86891 17.9669 8.74043 17.8975 8.62923C17.828 8.51802 17.7288 8.42855 17.6109 8.37102ZM9.00094 1.48902L15.7259 4.85102L9.00094 8.21402L2.27494 4.85202L9.00094 1.48902ZM15.7259 13.148L9.00094 16.511L2.27494 13.148L4.85094 11.86L8.68494 13.777C8.78251 13.8261 8.89022 13.8516 8.99944 13.8516C9.10866 13.8516 9.21636 13.8261 9.31394 13.777L13.1479 11.86L15.7259 13.148ZM9.00094 12.362L2.27494 9.00002L4.85094 7.71202L8.68494 9.62902C8.78251 9.67809 8.89022 9.70365 8.99944 9.70365C9.10866 9.70365 9.21636 9.67809 9.31394 9.62902L13.1479 7.71202L15.7239 9.00002L9.00094 12.362Z" fill="#131819"/>
</g>
<defs>
<clipPath id="clip0_1_2293">
<rect width="17.999" height="18" fill="white"/>
</clipPath>
</defs>
</svg>
