<svg width="20" height="20" viewBox="0 0 20 20" fill="none" xmlns="http://www.w3.org/2000/svg">
<g clip-path="url(#clip0_1_352)">
<path d="M19.5678 9.30108L16.3556 7.69552L19.5678 6.08885C19.6987 6.02493 19.809 5.92552 19.8862 5.80196C19.9633 5.6784 20.0042 5.53564 20.0042 5.38997C20.0042 5.24429 19.9633 5.10154 19.8862 4.97797C19.809 4.85441 19.6987 4.755 19.5678 4.69108L10.3489 0.0821879C10.2405 0.0276647 10.1208 -0.000732422 9.99945 -0.000732422C9.87809 -0.000732422 9.75842 0.0276647 9.65 0.0821879L0.431112 4.69219C0.300209 4.75612 0.189891 4.85552 0.112724 4.97908C0.0355576 5.10265 -0.00535583 5.2454 -0.00535583 5.39108C-0.00535583 5.53676 0.0355576 5.67951 0.112724 5.80307C0.189891 5.92663 0.300209 6.02604 0.431112 6.08997L3.64333 7.69552L0.431112 9.30108C0.300209 9.365 0.189891 9.46441 0.112724 9.58797C0.0355576 9.71154 -0.00535583 9.85429 -0.00535583 9.99997C-0.00535583 10.1456 0.0355576 10.2884 0.112724 10.412C0.189891 10.5355 0.300209 10.6349 0.431112 10.6989L3.64333 12.3044L0.431112 13.9111C0.300209 13.975 0.189891 14.0744 0.112724 14.198C0.0355576 14.3215 -0.00535583 14.4643 -0.00535583 14.61C-0.00535583 14.7556 0.0355576 14.8984 0.112724 15.022C0.189891 15.1455 0.300209 15.2449 0.431112 15.3089L9.65334 19.9177C9.76175 19.9723 9.88142 20.0007 10.0028 20.0007C10.1241 20.0007 10.2438 19.9723 10.3522 19.9177L19.5744 15.3089C19.7053 15.2449 19.8157 15.1455 19.8928 15.022C19.97 14.8984 20.0109 14.7556 20.0109 14.61C20.0109 14.4643 19.97 14.3215 19.8928 14.198C19.8157 14.0744 19.7053 13.975 19.5744 13.9111L16.3622 12.3055L19.5678 10.6989C19.6987 10.6349 19.809 10.5355 19.8862 10.412C19.9633 10.2884 20.0042 10.1456 20.0042 9.99997C20.0042 9.85429 19.9633 9.71154 19.8862 9.58797C19.809 9.46441 19.6987 9.365 19.5678 9.30108ZM10.0011 1.65441L17.4733 5.38997L10.0011 9.12663L2.52778 5.39108L10.0011 1.65441ZM17.4733 14.6089L10.0011 18.3455L2.52778 14.6089L5.39 13.1777L9.65 15.3077C9.75842 15.3623 9.87809 15.3907 9.99945 15.3907C10.1208 15.3907 10.2405 15.3623 10.3489 15.3077L14.6089 13.1777L17.4733 14.6089ZM10.0011 13.7355L2.52778 9.99997L5.39 8.56885L9.65 10.6989C9.75842 10.7534 9.87809 10.7818 9.99945 10.7818C10.1208 10.7818 10.2405 10.7534 10.3489 10.6989L14.6089 8.56885L17.4711 9.99997L10.0011 13.7355Z" fill="#909090"/>
</g>
<defs>
<clipPath id="clip0_1_352">
<rect width="19.9989" height="20" fill="white"/>
</clipPath>
</defs>
</svg>
