<svg width="15" height="18" viewBox="0 0 15 18" fill="black" xmlns="http://www.w3.org/2000/svg">
<path d="M7.78 0.72003C7.63783 0.58755 7.44978 0.515426 7.25548 0.518855C7.06118 0.522283 6.87579 0.600995 6.73838 0.738408C6.60097 0.875821 6.52226 1.06121 6.51883 1.25551C6.5154 1.44981 6.58752 1.63785 6.72 1.78003L7.94 3.00003H7.5C6.01664 3.00003 4.5666 3.4399 3.33323 4.26401C2.09986 5.08812 1.13856 6.25946 0.570907 7.6299C0.00324965 9.00035 -0.145275 10.5083 0.144114 11.9632C0.433503 13.4181 1.14781 14.7544 2.1967 15.8033C3.2456 16.8522 4.58197 17.5665 6.03683 17.8559C7.49168 18.1453 8.99968 17.9968 10.3701 17.4291C11.7406 16.8615 12.9119 15.9002 13.736 14.6668C14.5601 13.4334 15 11.9834 15 10.5C15 10.3011 14.921 10.1104 14.7803 9.9697C14.6397 9.82905 14.4489 9.75003 14.25 9.75003C14.0511 9.75003 13.8603 9.82905 13.7197 9.9697C13.579 10.1104 13.5 10.3011 13.5 10.5C13.4999 11.6841 13.1495 12.8417 12.4929 13.827C11.8363 14.8124 10.9028 15.5814 9.80997 16.0372C8.71716 16.4931 7.51391 16.6154 6.35172 16.3888C5.18953 16.1622 4.12037 15.5968 3.27887 14.7638C2.43738 13.9307 1.86118 12.8674 1.62282 11.7075C1.38447 10.5477 1.49462 9.34324 1.93941 8.24588C2.38419 7.14852 3.14373 6.20729 4.12237 5.54073C5.101 4.87417 6.25499 4.51207 7.439 4.50003L6.719 5.22003C6.58245 5.36155 6.50694 5.55103 6.50874 5.74768C6.51054 5.94433 6.58951 6.1324 6.72863 6.27139C6.86775 6.41038 7.0559 6.48917 7.25255 6.49079C7.4492 6.4924 7.63862 6.41672 7.78 6.28003L10.03 4.03003C10.1705 3.8894 10.2493 3.69878 10.2493 3.50003C10.2493 3.30128 10.1705 3.11065 10.03 2.97003L7.78 0.72003ZM11.52 6.96003C11.6631 7.09799 11.7456 7.28713 11.7494 7.48589C11.7531 7.68465 11.6778 7.87677 11.54 8.02003L7.69 12.02C7.62004 12.0926 7.53616 12.1504 7.44338 12.1898C7.3506 12.2292 7.25082 12.2495 7.15 12.2495C7.04919 12.2495 6.94941 12.2292 6.85663 12.1898C6.76385 12.1504 6.67997 12.0926 6.61 12.02L4.96 10.306C4.88826 10.2358 4.83133 10.152 4.79259 10.0594C4.75386 9.96676 4.7341 9.86733 4.7345 9.76696C4.7349 9.66658 4.75544 9.56731 4.7949 9.47502C4.83437 9.38273 4.89196 9.29931 4.96426 9.22968C5.03656 9.16006 5.1221 9.10566 5.21582 9.0697C5.30953 9.03374 5.4095 9.01696 5.50982 9.02035C5.61014 9.02374 5.70875 9.04723 5.79982 9.08943C5.89089 9.13163 5.97257 9.19168 6.04 9.26603L7.15 10.418L10.46 6.98003C10.598 6.83689 10.7871 6.75438 10.9859 6.75063C11.1846 6.74688 11.3767 6.8222 11.52 6.96003Z" fill="#909090"/>
</svg>
