<?xml version="1.0" standalone="no"?>
<!DOCTYPE svg PUBLIC "-//W3C//DTD SVG 20010904//EN"
 "http://www.w3.org/TR/2001/REC-SVG-20010904/DTD/svg10.dtd">
<svg version="1.0" xmlns="http://www.w3.org/2000/svg"
 width="1280.000000pt" height="720.000000pt" viewBox="0 0 1280.000000 720.000000"
 preserveAspectRatio="xMidYMid meet">

<g transform="translate(0.000000,720.000000) scale(0.100000,-0.100000)"
fill="#000000" stroke="none">
<path d="M0 3600 l0 -3600 6400 0 6400 0 0 3600 0 3600 -6400 0 -6400 0 0
-3600z m6040 1686 c0 -2 -7 -7 -16 -10 -8 -3 -12 -2 -9 4 6 10 25 14 25 6z
m-135 -81 c-20 -15 -40 -24 -42 -21 -6 5 57 46 71 46 5 0 -8 -11 -29 -25z
m-55 -29 c0 -2 -7 -7 -16 -10 -8 -3 -12 -2 -9 4 6 10 25 14 25 6z m-46 -40
c-5 -14 -9 -15 -15 -4 -7 10 -9 9 -9 -5 0 -10 -4 -16 -9 -13 -13 8 -34 -21
-26 -36 4 -7 0 -5 -8 4 -12 15 -16 16 -33 3 -15 -11 -16 -15 -4 -16 8 -1 19
-1 23 0 5 1 6 -3 2 -9 -4 -7 -12 -7 -25 0 -10 5 -26 7 -34 4 -9 -3 -16 -4 -16
0 0 6 153 96 157 92 2 -2 0 -11 -3 -20z m106 -16 c-35 -24 -54 -31 -30 -11 14
11 30 21 35 21 6 0 3 -5 -5 -10z m37 -47 c-3 -10 -5 -2 -5 17 0 19 2 27 5 18
2 -10 2 -26 0 -35z m-97 17 c0 -5 -13 -16 -30 -25 -26 -13 -29 -14 -24 0 4 8
15 15 26 15 14 0 18 5 14 16 -3 8 -2 12 4 9 6 -3 10 -10 10 -15z m-148 -46
c21 -13 48 -12 48 3 0 15 16 18 25 3 3 -5 -8 -16 -26 -25 -20 -11 -28 -12 -24
-4 5 7 4 10 -2 6 -12 -8 -24 -47 -15 -47 4 0 7 -83 6 -184 l-1 -184 41 -23
c23 -12 81 -47 131 -77 89 -53 90 -53 118 -37 26 16 30 16 46 1 10 -9 27 -16
39 -16 39 0 32 -18 -18 -50 -28 -18 -47 -37 -43 -43 4 -6 0 -8 -9 -4 -14 5
-15 3 -2 -21 8 -15 14 -53 14 -84 l0 -57 100 -56 100 -57 -15 -26 c-30 -56
-26 -56 -130 3 -54 30 -101 55 -106 55 -5 0 -49 -25 -100 -55 -68 -42 -94 -53
-104 -45 -19 16 -41 73 -29 77 5 2 49 27 98 56 l89 52 1 87 2 87 -132 76 -132
76 -136 -78 -136 -78 0 -77 c0 -43 2 -78 5 -78 2 0 57 31 122 69 l118 69 22
-37 c13 -20 23 -38 23 -42 0 -3 -65 -43 -145 -89 -163 -95 -150 -74 -138 -217
l6 -83 125 -70 c69 -39 131 -69 137 -66 6 2 60 36 119 75 59 39 112 71 116 71
14 0 53 -71 44 -79 -5 -4 -60 -40 -121 -80 l-113 -74 0 -201 1 -201 129 -73
130 -73 92 57 c51 31 127 79 170 105 l76 48 26 -39 26 -40 -82 -53 c-46 -29
-111 -70 -145 -91 -35 -22 -63 -40 -63 -42 0 -8 123 -74 138 -74 9 0 89 25
177 54 l160 54 6 193 c9 284 10 515 1 504 -4 -6 -32 -25 -62 -44 -187 -115
-329 -202 -428 -262 l-112 -68 -26 41 c-16 25 -22 43 -16 47 6 3 155 92 331
196 l320 190 2 305 3 305 8 -185 c12 -291 14 -308 27 -324 26 -31 36 2 35 116
-1 61 3 111 8 114 6 4 5 10 -3 15 -11 7 -11 9 1 9 8 0 22 -5 30 -10 13 -8 12
-10 -2 -10 -16 0 -18 -12 -18 -115 l0 -115 193 -2 192 -1 -185 -8 c-191 -8
-259 -15 -180 -18 73 -2 85 -20 15 -22 -89 -3 -32 -9 170 -18 l180 -8 -192 -1
-193 -2 0 -115 0 -115 198 0 197 0 -2 -140 c-1 -77 -5 -145 -8 -151 -4 -6 -4
-13 -1 -16 3 -4 6 -1 6 6 0 7 5 9 12 5 7 -4 8 -3 4 4 -11 19 8 14 45 -11 49
-32 81 -100 76 -159 -8 -97 -83 -163 -184 -162 -181 1 -238 253 -75 333 l32
16 0 93 0 92 -150 0 -150 0 0 -284 0 -284 -229 -77 -230 -76 -290 167 -291
168 0 225 -1 226 -152 85 -152 85 0 299 0 299 152 86 152 86 1 212 c0 116 3
218 6 227 6 15 51 15 76 0z m256 -266 c1 9 7 10 21 2 11 -5 27 -7 35 -4 9 3
16 1 16 -5 0 -6 -19 -11 -45 -11 l-45 0 2 143 2 142 6 -140 c3 -77 7 -134 8
-127z m69 150 c-3 -7 -5 -2 -5 12 0 14 2 19 5 13 2 -7 2 -19 0 -25z m-9 -139
c-7 -4 -13 -7 -14 -6 -1 1 3 27 9 57 l12 55 3 -49 c2 -32 -1 -52 -10 -57z
m202 97 c0 -3 -4 -8 -10 -11 -5 -3 -10 -1 -10 4 0 6 5 11 10 11 6 0 10 -2 10
-4z m67 -2 c-3 -3 -12 -4 -19 -1 -8 3 -5 6 6 6 11 1 17 -2 13 -5z m-300 -71
c-2 -16 -4 -5 -4 22 0 28 2 40 4 28 2 -13 2 -35 0 -50z m230 -65 c-2 -13 -4
-3 -4 22 0 25 2 35 4 23 2 -13 2 -33 0 -45z m68 -197 c-17 -15 -17 -15 -11 2
3 10 7 58 7 105 l2 87 9 -89 c9 -79 8 -90 -7 -105z m-53 85 c7 4 8 2 4 -5 -14
-22 -26 1 -24 47 l2 47 3 -48 c3 -31 8 -45 15 -41z m345 -28 c-3 -8 -6 -5 -6
6 -1 11 2 17 5 13 3 -3 4 -12 1 -19z m-360 -12 c0 -8 -3 -15 -6 -14 -19 2 -28
-4 -28 -17 0 -8 9 -15 21 -15 16 0 18 -3 7 -9 -8 -5 -9 -11 -3 -15 6 -3 17 1
25 9 17 17 27 19 27 6 0 -8 -74 -61 -86 -61 -4 0 0 8 10 19 16 17 15 19 -6 33
-24 15 -52 13 -42 -3 3 -5 -1 -10 -8 -11 -7 0 -17 -2 -23 -3 -5 -2 -15 -3 -21
-4 -6 0 -11 -8 -11 -17 0 -15 2 -15 12 -1 10 13 13 13 30 0 14 -11 15 -14 4
-10 -9 3 -21 1 -27 -5 -7 -7 -17 -6 -32 2 -12 6 -19 14 -16 17 4 5 167 111
172 113 0 0 1 -6 1 -14z m-67 -81 c-8 -9 -8 -15 -2 -15 6 0 14 5 17 10 3 6 11
10 17 10 6 0 4 -8 -5 -18 -10 -10 -14 -21 -11 -25 9 -9 -35 -29 -48 -21 -7 4
-2 11 12 19 19 10 20 13 6 18 -15 6 -15 8 1 25 21 22 32 20 13 -3z m623 -197
l112 -1 -95 -7 c-149 -10 -140 -17 -138 109 l2 106 3 -102 4 -103 112 -2z
m214 -4 c-3 -3 -12 -4 -19 -1 -8 3 -5 6 6 6 11 1 17 -2 13 -5z m-129 -81 c-15
-2 -42 -2 -60 0 -18 2 -6 4 27 4 33 0 48 -2 33 -4z m-233 -231 c-13 -14 -17
13 -9 75 l9 68 3 -69 c2 -37 0 -71 -3 -74z m694 -86 c-3 -3 -11 5 -18 17 -13
21 -12 21 5 5 10 -10 16 -20 13 -22z m91 -60 c0 -3 -4 -8 -10 -11 -5 -3 -10
-1 -10 4 0 6 5 11 10 11 6 0 10 -2 10 -4z m-106 -101 c-7 -19 -15 -51 -15 -72
-2 -33 -3 -34 -6 -9 -5 33 15 116 28 116 4 0 1 -16 -7 -35z m70 -91 c3 -8 2
-12 -4 -9 -6 3 -10 10 -10 16 0 14 7 11 14 -7z m-70 -29 c-4 -8 -2 -15 3 -15
5 0 10 -7 10 -15 0 -20 -4 -19 -17 5 -6 11 -8 25 -5 30 9 15 15 12 9 -5z m96
-15 c0 -5 -4 -10 -10 -10 -5 0 -10 5 -10 10 0 6 5 10 10 10 6 0 10 -4 10 -10z
m-56 -44 c-3 -9 -10 -13 -15 -10 -5 3 -3 11 4 19 15 16 19 13 11 -9z m129 17
c-7 -2 -19 -2 -25 0 -7 3 -2 5 12 5 14 0 19 -2 13 -5z m-98 -51 c-3 -3 -11 0
-18 7 -9 10 -8 11 6 5 10 -3 15 -9 12 -12z m195 14 c0 -7 -40 -14 -44 -7 -3 4
6 8 20 9 13 1 24 0 24 -2z m-126 -34 c3 -5 -8 -6 -25 -4 -16 2 -29 6 -29 8 0
8 49 4 54 -4z m73 2 c-3 -3 -12 -4 -19 -1 -8 3 -5 6 6 6 11 1 17 -2 13 -5z
m103 -1384 l0 -250 -40 0 c-26 0 -43 5 -46 15 -5 12 -9 12 -30 -1 -33 -22
-104 -21 -143 2 -50 30 -75 91 -69 176 6 73 21 104 70 141 28 21 104 25 137 7
21 -10 21 -9 21 75 l0 85 50 0 50 0 0 -250z m1171 128 c1 -68 0 -133 -1 -145
-2 -36 11 -27 68 47 l53 68 55 0 c30 -1 54 -4 54 -7 0 -3 -30 -41 -66 -84
l-65 -77 76 -90 76 -90 -60 0 -60 0 -63 77 -63 78 -3 -78 -3 -78 -45 3 -45 3
0 243 c0 133 1 244 1 247 0 3 20 5 45 5 l45 0 1 -122z m-4713 -30 c59 -168
114 -320 120 -336 3 -10 -9 -12 -53 -10 l-58 3 -15 53 -15 52 -78 0 -78 0 -16
-55 -16 -55 -56 0 c-49 0 -54 2 -48 18 4 9 40 111 81 225 40 114 76 212 79
217 3 6 30 10 58 10 l52 0 43 -122z m2666 113 c101 -24 138 -144 63 -203 -18
-14 -19 -18 -5 -18 9 0 28 -14 42 -31 47 -56 29 -145 -38 -185 -25 -15 -56
-20 -153 -22 l-123 -4 0 236 0 236 88 0 c48 0 104 -5 126 -9z m-2026 -116 c42
-12 52 -52 52 -205 l0 -140 -50 0 -50 0 0 129 c0 149 -6 161 -68 145 l-37 -9
-3 -132 -3 -133 -49 0 -50 0 0 129 c0 149 -6 161 -68 145 l-37 -9 -3 -132 -3
-133 -49 0 -50 0 0 175 0 175 32 0 c17 0 39 -7 49 -16 16 -14 20 -14 48 0 43
23 126 21 150 -3 13 -13 22 -16 29 -9 14 14 102 38 122 33 8 -2 25 -6 38 -10z
m329 5 c14 0 37 -13 54 -29 l29 -29 0 -146 0 -146 -40 0 c-29 0 -40 4 -40 15
0 12 -8 11 -44 -6 -108 -53 -205 37 -151 140 18 36 61 54 130 54 53 0 55 0 55
27 0 42 -22 54 -88 47 -31 -3 -65 -8 -74 -12 -15 -6 -18 -1 -18 29 0 32 3 36
38 46 45 12 92 18 110 13 8 -1 25 -3 39 -3z m709 -5 c70 -14 122 -111 109
-205 -9 -67 -37 -108 -92 -132 -81 -36 -165 -14 -217 56 -17 23 -21 42 -21
109 0 70 3 87 23 115 13 17 33 37 45 44 26 14 86 27 107 22 8 -1 29 -5 46 -9z
m446 1 c48 -11 58 -48 58 -206 l0 -140 -50 0 -49 0 -3 132 -3 133 -27 9 c-18
6 -36 5 -57 -4 l-31 -12 0 -129 0 -129 -50 0 -50 0 2 171 3 172 39 3 c31 2 39
-2 43 -17 5 -18 7 -19 29 -4 24 16 91 34 109 29 6 -1 22 -5 37 -8z m984 -17
c28 -23 44 -68 44 -124 l0 -55 -105 0 c-117 0 -128 -8 -79 -57 25 -25 29 -26
106 -20 l79 6 -3 -32 c-3 -30 -7 -33 -58 -46 -104 -26 -194 7 -226 86 -8 18
-14 58 -14 90 0 66 22 116 63 147 47 35 154 38 193 5z m1039 2 c124 -70 101
-292 -35 -332 -83 -25 -176 15 -206 88 -20 46 -18 141 4 182 41 82 151 110
237 62z m-2745 -22 c0 -36 -8 -49 -85 -134 l-85 -94 87 -3 88 -3 3 -37 3 -38
-145 0 -146 0 0 39 c0 34 9 49 84 132 l84 94 -84 3 -84 3 0 33 c0 18 2 35 5
37 2 3 65 6 140 7 l135 1 0 -40z m2318 14 c4 -28 3 -28 49 2 21 15 48 25 63
23 22 -3 25 -7 25 -46 l0 -43 -51 -3 c-28 -2 -56 -6 -63 -10 -7 -5 -11 -48
-11 -127 l0 -119 -50 0 -50 0 0 168 c0 93 3 172 7 176 4 4 23 6 43 4 28 -2 36
-8 38 -25z m806 17 c20 -7 26 -16 26 -40 l0 -30 -60 2 c-44 1 -64 -3 -79 -16
-25 -23 -34 -76 -21 -125 13 -49 48 -66 114 -56 l46 7 0 -31 c0 -21 -7 -34
-21 -42 -33 -17 -129 -15 -167 5 -111 57 -106 261 8 318 38 20 114 24 154 8z"/>
<path d="M5667 5023 c-6 -32 1 -53 17 -53 16 0 16 53 0 67 -9 9 -13 6 -17 -14z"/>
<path d="M6010 4440 c0 -5 5 -10 10 -10 6 0 10 5 10 10 0 6 -4 10 -10 10 -5 0
-10 -4 -10 -10z"/>
<path d="M6614 3875 c4 -16 12 -34 17 -39 5 -6 5 4 -1 24 -12 42 -25 55 -16
15z"/>
<path d="M6990 3670 c0 -13 11 -13 30 0 12 8 11 10 -7 10 -13 0 -23 -4 -23
-10z"/>
<path d="M6925 3660 c-18 -8 -17 -9 8 -9 15 -1 27 4 27 9 0 12 -8 12 -35 0z"/>
<path d="M7000 3579 c0 -11 5 -17 10 -14 6 3 10 13 10 21 0 8 -4 14 -10 14 -5
0 -10 -9 -10 -21z"/>
<path d="M7030 3351 c0 -10 19 -25 25 -20 1 2 -3 10 -11 17 -8 7 -14 8 -14 3z"/>
<path d="M7080 3336 c0 -2 8 -10 18 -17 15 -13 16 -12 3 4 -13 16 -21 21 -21
13z"/>
<path d="M6957 3310 c-64 -50 -31 -149 50 -150 45 0 62 9 78 41 22 42 18 67
-14 100 -35 35 -77 38 -114 9z"/>
<path d="M7415 2145 c-19 -18 -25 -35 -25 -69 0 -86 32 -123 96 -111 l34 6 0
93 c0 89 -1 94 -22 100 -41 10 -58 6 -83 -19z"/>
<path d="M3949 2167 l-25 -92 49 -3 c27 -2 51 -1 54 2 4 4 -42 174 -49 182 -2
1 -15 -39 -29 -89z"/>
<path d="M6630 2219 l0 -62 47 6 c50 5 73 25 73 63 0 35 -26 54 -76 54 l-44 0
0 -61z"/>
<path d="M6630 2030 l0 -60 54 0 c63 0 86 16 86 60 0 44 -23 60 -86 60 l-54 0
0 -60z"/>
<path d="M4949 2021 c-21 -16 -22 -22 -11 -45 12 -28 34 -32 76 -16 20 7 26
17 26 39 0 44 -49 56 -91 22z"/>
<path d="M5655 2145 c-33 -33 -36 -119 -4 -159 59 -75 139 14 109 123 -17 63
-63 79 -105 36z"/>
<path d="M7063 2170 c-21 -9 -43 -38 -43 -59 0 -7 26 -11 65 -11 56 0 65 2 65
18 0 41 -46 68 -87 52z"/>
<path d="M8093 2144 c-23 -23 -25 -31 -21 -91 3 -49 9 -69 23 -79 27 -20 62
-17 85 6 29 29 29 137 0 168 -27 29 -55 28 -87 -4z"/>
</g>
</svg>
