<svg width="80" height="82" viewBox="0 0 80 82" fill="none" xmlns="http://www.w3.org/2000/svg">
<path d="M37.2957 0C38.3843 0.18806 39.4858 0.323557 40.5605 0.573526C44.4758 1.48346 47.8037 3.43531 50.5639 6.35083C50.8594 6.66271 51.107 6.77368 51.5614 6.68957C62.5273 4.67581 73.0844 11.7777 75.3388 22.684C76.0291 26.0212 75.8913 29.3397 74.8937 32.6057C74.7722 33.0052 74.8131 33.2715 75.0876 33.5962C83.0621 43.0483 81.1032 57.0524 70.8405 63.9592C68.8372 65.3072 66.6436 66.2439 64.2876 66.7754C63.8659 66.87 63.6954 67.0639 63.5447 67.4506C60.5276 75.1984 54.8881 79.678 46.6742 80.9278C46.3903 80.9711 46.1065 81.0178 45.8226 81.0633H42.6688C42.3464 81.0143 42.0241 80.9617 41.7005 80.9185C36.8133 80.2667 32.6689 78.1688 29.2745 74.5817C29.1273 74.4263 28.7979 74.3305 28.583 74.3691C26.0272 74.8398 23.4703 74.8632 20.9216 74.3726C8.96281 72.0692 1.63313 60.0076 5.12101 48.3747C5.22964 48.0138 5.17708 47.7767 4.93528 47.4881C0.918269 42.7014 -0.665643 37.1997 0.253633 31.0229C1.46843 22.8534 7.61018 16.1907 15.6127 14.3008C16.0916 14.1875 16.3135 13.9842 16.4852 13.5345C19.076 6.7363 23.9095 2.41792 30.9413 0.580534C31.9868 0.307204 33.0742 0.190396 34.1419 0C35.1931 0 36.2444 0 37.2957 0ZM43.7341 28.2382C43.9818 28.3948 44.1383 28.5011 44.3018 28.5957C50.5487 32.2039 56.7909 35.8226 63.0518 39.4074C64.2257 40.079 64.7595 40.9925 64.7537 42.3439C64.728 48.3595 64.742 54.374 64.742 60.3896V61.1196C65.0247 61.0121 65.2256 60.9491 65.416 60.8615C70.9491 58.3197 74.1695 54.0165 74.6076 47.9601C75.0386 42.004 72.5541 37.2955 67.5395 34.0132C65.882 32.9281 64.1182 32.0065 62.4011 31.0136C58.6633 28.8538 54.9266 26.6929 51.1794 24.5483C50.9598 24.4233 50.5849 24.3158 50.4027 24.4175C48.1962 25.6498 46.013 26.923 43.7318 28.2382H43.7341ZM70.1618 29.3631C70.5485 27.8283 70.4971 25.4197 70.0544 23.5251C67.6902 13.4013 56.5514 8.58069 47.4918 13.7716C42.2121 16.7969 36.9488 19.8526 31.6714 22.8826C31.3455 23.0695 31.2053 23.2669 31.2088 23.6559C31.2275 26.0107 31.2182 28.3656 31.2193 30.7204C31.2193 30.8431 31.2392 30.9669 31.2532 31.1444C31.4857 31.0183 31.6562 30.9318 31.8221 30.8361C38.0689 27.2302 44.3217 23.6337 50.5569 20.0068C51.7226 19.3282 52.7844 19.3247 53.9513 20.0045C59.1586 23.0403 64.3857 26.0399 69.6059 29.0524C69.7846 29.1564 69.9668 29.2545 70.1618 29.3619V29.3631ZM9.78163 51.678C9.49662 53.4465 9.47326 55.1157 9.77579 56.7732C11.6903 67.2742 23.1047 72.638 32.3687 67.3735C37.708 64.3388 43.0099 61.2364 48.3352 58.176C48.6704 57.9833 48.779 57.7614 48.7767 57.3876C48.7615 55.0725 48.7697 52.7562 48.7674 50.441C48.7674 50.2927 48.7475 50.1444 48.7311 49.9329C48.4975 50.0544 48.3095 50.1444 48.1296 50.2471C41.9341 53.8226 35.7293 57.3818 29.5537 60.9899C28.2828 61.7317 27.1661 61.7212 25.9023 60.9806C20.737 57.9529 15.5414 54.979 10.3563 51.9852C10.194 51.8906 10.0246 51.8077 9.78047 51.678H9.78163ZM15.2412 19.9484C14.9702 20.0512 14.7705 20.1143 14.5801 20.2019C8.89156 22.823 5.66066 27.2652 5.37215 33.5051C5.09414 39.5184 7.72582 44.2129 12.9109 47.3106C18.2011 50.4714 23.5766 53.4909 28.9077 56.5828C29.2196 56.7638 29.4485 56.7638 29.7569 56.5828C31.787 55.3937 33.8277 54.2233 35.8648 53.0459C35.9758 52.9816 36.0809 52.9069 36.2467 52.7994C36.0131 52.6569 35.8391 52.5436 35.6592 52.4396C29.4287 48.8431 23.204 45.2361 16.9606 41.6641C15.768 40.982 15.2249 40.0522 15.2307 38.6797C15.2564 32.6454 15.2424 26.6123 15.2424 20.578C15.2424 20.3899 15.2424 20.2031 15.2424 19.9461L15.2412 19.9484ZM27.499 43.4489C27.499 43.1009 27.499 42.8707 27.499 42.6395C27.5014 35.4593 27.5142 28.2791 27.499 21.099C27.4967 19.7767 28.0223 18.8656 29.1775 18.2068C34.275 15.296 39.3527 12.3489 44.4361 9.41353C44.7632 9.2243 45.0844 9.02689 45.4418 8.81431C45.29 8.68582 45.1919 8.59471 45.0856 8.51294C41.8138 6.00742 38.1157 4.95965 34.0297 5.39885C26.547 6.20249 20.7008 12.5229 20.5863 20.0384C20.4941 26.1275 20.5782 32.2191 20.5349 38.3094C20.5291 39.1516 20.7592 39.6223 21.5161 40.0276C23.4995 41.0906 25.428 42.2563 27.4979 43.4501L27.499 43.4489ZM52.4772 37.6062V38.376C52.4772 45.5748 52.4667 52.7749 52.4865 59.9737C52.49 61.2738 51.9924 62.1896 50.8571 62.8343C47.646 64.6577 44.4548 66.5173 41.2566 68.3628C39.0361 69.6454 36.8168 70.9291 34.5343 72.249C34.7691 72.4383 34.9549 72.603 35.1558 72.7478C38.9707 75.4975 43.1758 76.3793 47.764 75.3398C54.1849 73.8843 59.1773 68.0813 59.3548 61.5062C59.53 55.0117 59.4226 48.5102 59.412 42.011C59.412 41.7903 59.1773 41.4877 58.9682 41.3639C57.146 40.2823 55.3063 39.2334 53.47 38.1751C53.171 38.0034 52.872 37.8317 52.4772 37.6051V37.6062ZM48.7674 40.5428C48.7674 39.0056 48.7557 37.4672 48.7755 35.93C48.7802 35.5679 48.6541 35.3787 48.3457 35.2035C45.6953 33.6885 43.0531 32.1606 40.4144 30.6258C40.1376 30.4646 39.9215 30.4284 39.619 30.6048C36.9499 32.1642 34.2657 33.6978 31.599 35.2631C31.4144 35.3717 31.2334 35.6672 31.2322 35.8775C31.2088 38.9717 31.2217 42.0671 31.2077 45.1613C31.2065 45.5048 31.3326 45.6765 31.6153 45.8377C34.2809 47.3632 36.9429 48.898 39.5968 50.4445C39.8853 50.6128 40.1026 50.6186 40.3934 50.4492C43.0473 48.9027 45.707 47.3643 48.3737 45.84C48.6646 45.6741 48.7779 45.4919 48.7744 45.1567C48.758 43.6195 48.7674 42.0811 48.7674 40.5439V40.5428Z" fill="#13B48B"/>
</svg>
