<svg width="100" height="13" viewBox="0 0 100 13" fill="none" xmlns="http://www.w3.org/2000/svg">
<path d="M7.50791 5.83694C8.79582 6.38806 9.32189 7.33557 9.3101 8.60727C9.29832 9.92465 8.70741 10.909 7.5256 11.5058C6.72397 11.911 5.85161 12.0481 4.96156 12.0555C3.48945 12.0672 2.01735 12.0437 0.546711 12.0702C0.134108 12.0761 -0.00146172 11.9803 1.18621e-05 11.5485C0.0162213 7.91763 0.0103269 4.2882 0.00885336 0.657295C0.00885336 0.411207 -0.0383013 0.168066 0.36104 0.179854C2.17355 0.234377 3.99195 0.0590204 5.80003 0.271216C7.11299 0.425942 8.24913 0.960853 8.67646 2.32244C9.10822 3.69435 8.70888 4.88353 7.50939 5.83546L7.50791 5.83694ZM4.24688 7.10569C3.34603 7.10569 2.8956 7.54678 2.8956 8.42897C2.8956 8.67358 2.90444 8.91967 2.8956 9.16428C2.88381 9.4369 2.97812 9.57099 3.27431 9.56068C3.93448 9.53857 4.60054 9.57541 5.25628 9.51205C5.94297 9.44574 6.35705 8.90936 6.32315 8.24919C6.28926 7.57576 5.84424 7.144 5.12955 7.10864C4.83631 7.0939 4.54159 7.10569 4.24688 7.10569ZM4.06857 4.76859C4.31319 4.76859 4.55928 4.78333 4.80242 4.76564C5.49205 4.71849 5.8354 4.35893 5.83834 3.69877C5.84129 3.06365 5.47732 2.72031 4.75084 2.69084C4.43255 2.67758 4.10836 2.72915 3.79743 2.68347C3.06948 2.57295 2.8234 2.81609 2.87055 3.57941C2.94423 4.77743 2.88971 4.78185 4.06857 4.76859Z" fill="#010101"/>
<path d="M53.3097 0.184318C52.1396 1.94525 51.0698 3.60745 49.9381 5.22544C49.5874 5.72646 49.5962 6.06391 49.9337 6.56198C51.0168 8.16229 52.0439 9.80239 53.0901 11.4278C53.205 11.6061 53.3819 11.7578 53.3745 12.0894C52.4049 12.0894 51.4382 12.0894 50.4715 12.0894C50.1591 12.0894 50.0899 11.8183 49.9632 11.6223C49.1247 10.3285 48.2951 9.02729 47.4507 7.73643C47.3151 7.53013 47.2238 7.15436 46.8789 7.30025C46.6108 7.41371 46.7625 7.73643 46.7596 7.96041C46.7449 9.16138 46.7345 10.3638 46.7625 11.5648C46.7728 11.9892 46.6432 12.1203 46.2262 12.0997C45.5896 12.0688 44.95 12.0688 44.3134 12.0997C43.9053 12.1203 43.8272 11.9538 43.8286 11.5869C43.8404 7.95746 43.8434 4.32656 43.8272 0.697125C43.8257 0.262418 43.973 0.153373 44.3768 0.174003C45.1328 0.212316 46.1215 -0.0779797 46.5842 0.297784C47.0676 0.689757 46.7021 1.71832 46.7345 2.46837C46.7581 3.03128 46.7242 3.59713 46.7478 4.16004C46.7552 4.35308 46.5916 4.64338 46.8848 4.73032C47.1913 4.82168 47.2842 4.51665 47.4153 4.32361C48.2199 3.12559 49.0392 1.93493 49.8099 0.714808C50.0634 0.31252 50.3257 0.144531 50.8046 0.171056C51.587 0.215263 52.3725 0.182844 53.3126 0.182844L53.3097 0.184318Z" fill="#010101"/>
<path d="M30.7301 12.0643C29.7885 12.0643 28.9559 12.054 28.1233 12.0702C27.8625 12.0746 27.7034 11.995 27.6385 11.7431C27.6135 11.6488 27.5914 11.553 27.5619 11.4601C27.3703 10.856 27.3526 10.0396 26.9415 9.70215C26.4596 9.30576 25.6271 9.58574 24.9463 9.57837C23.29 9.56069 23.2546 9.56511 22.8788 11.1713C22.7182 11.8551 22.4633 12.1792 21.7162 12.082C21.1621 12.0098 20.5889 12.0599 20.026 12.0687C19.7033 12.0746 19.6016 12.0098 19.7254 11.6488C20.9927 7.94859 22.2423 4.24253 23.4889 0.536474C23.5832 0.25502 23.7438 0.173973 24.0297 0.181341C24.7901 0.199024 25.5504 0.201971 26.3108 0.178393C26.6173 0.169552 26.7455 0.302174 26.8339 0.562998C28.116 4.356 29.4024 8.149 30.7301 12.0643ZM25.1437 3.08724C24.9168 3.93161 24.7105 4.75534 24.4762 5.57023C23.9693 7.33264 23.9619 7.32232 25.8349 7.22801C26.1959 7.21033 26.2902 7.15875 26.1723 6.77267C25.8069 5.56286 25.4886 4.33979 25.1437 3.08724Z" fill="#010101"/>
<path d="M36.9839 9.34947e-05C38.8672 -0.00138009 40.2155 0.418591 41.4106 1.33221C41.7038 1.5562 41.7967 1.74924 41.5417 2.04248C41.5093 2.07932 41.4843 2.12205 41.4592 2.16331C41.138 2.68349 40.9317 3.42175 40.466 3.66342C40.021 3.89477 39.5185 3.18303 38.988 2.98557C37.6338 2.48455 36.3194 2.4595 35.1935 3.46154C34.0957 4.43852 33.8894 5.73822 34.2652 7.10129C34.6321 8.43193 35.5 9.31313 36.9088 9.54596C38.1333 9.74931 39.1973 9.31166 40.0976 8.54245C40.5662 8.14311 40.7519 8.27573 41.0068 8.70307C41.2205 9.05968 41.4577 9.40744 41.7303 9.71984C42.0766 10.1162 42.0472 10.3682 41.6257 10.7248C38.1378 13.6646 32.6546 12.2632 31.3711 8.08417C30.0773 3.87856 32.9743 -0.0220102 36.9839 9.34947e-05Z" fill="#010101"/>
<path d="M10.7763 6.09925C10.7763 4.3339 10.7896 2.56708 10.766 0.801725C10.7601 0.346388 10.8426 0.129772 11.3584 0.173979C11.9183 0.221134 12.4901 0.228502 13.0486 0.173979C13.6498 0.113562 13.7146 0.384701 13.7102 0.893087C13.6881 3.56617 13.7131 6.24072 13.6896 8.9138C13.6851 9.41629 13.7971 9.59017 14.3291 9.57101C15.5301 9.52828 16.7325 9.57396 17.9335 9.54596C18.3638 9.53565 18.5214 9.62112 18.5259 10.1015C18.5406 12.0658 18.5598 12.0658 16.6087 12.0658C14.867 12.0658 13.1252 12.0496 11.3849 12.0746C10.9163 12.082 10.7557 11.973 10.7645 11.4719C10.7969 9.68153 10.7778 7.89113 10.7763 6.10073V6.09925Z" fill="#010101"/>
<path d="M55.4421 6.08304C55.4421 4.31916 55.4421 2.55381 55.4406 0.789931C55.4406 0.458375 55.4126 0.144502 55.9107 0.166606C57.5964 0.240285 59.2896 0.0280891 60.9695 0.324279C63.308 0.736882 65.0424 2.58181 65.3254 4.96164C65.5788 7.09834 65.293 9.07146 63.6249 10.6276C62.5683 11.6119 61.2627 12.0009 59.8672 12.0658C58.5955 12.1247 57.3179 12.0555 56.0448 12.0923C55.5349 12.107 55.4317 11.9081 55.4362 11.4528C55.4553 9.66384 55.4435 7.87491 55.4435 6.08599L55.4421 6.08304ZM56.7167 6.15966C56.7167 7.53157 56.7403 8.90495 56.7049 10.2769C56.6917 10.8059 56.8655 10.9576 57.3725 10.9238C57.9825 10.8825 58.597 10.9149 59.21 10.912C62.639 10.9002 64.6313 8.58665 64.1008 5.18857C63.8739 3.7371 63.1813 2.57591 61.8109 1.88628C60.2843 1.11707 58.65 1.372 57.0453 1.35431C56.6386 1.34989 56.7226 1.71534 56.7211 1.96732C56.7138 3.36428 56.7182 4.76124 56.7167 6.15819V6.15966Z" fill="#18B1E8"/>
<path d="M99.8543 0.216679C99.2074 0.894527 98.6091 1.56059 97.9696 2.18539C96.8644 3.26405 95.7459 4.32945 94.6068 5.37274C94.2488 5.70135 94.2458 5.90913 94.5847 6.25247C96.3206 8.01635 98.0359 9.80233 99.7555 11.5839C99.8675 11.6988 100.047 11.7814 99.9884 12.0348C99.2486 12.1704 98.6297 12.107 98.0403 11.4734C96.6212 9.94822 95.1226 8.49969 93.6549 7.02168C93.5164 6.88317 93.3808 6.7417 93.2364 6.60761C93.0596 6.44404 92.84 6.40278 92.619 6.46319C92.3169 6.54424 92.4038 6.81391 92.4024 7.01726C92.3935 8.46432 92.3891 9.91138 92.4024 11.3584C92.4068 11.7872 92.42 12.0967 91.8129 12.1041C91.2235 12.1114 91.1321 11.883 91.1351 11.3732C91.1513 7.8911 91.141 4.40902 91.1439 0.925473C91.1439 0.203417 91.4445 0.00153647 92.1445 0.172472C92.4805 0.254993 92.395 0.493713 92.3965 0.691173C92.4038 1.94224 92.3876 3.19332 92.4082 4.44291C92.4127 4.70374 92.2314 5.07361 92.6234 5.2077C92.9682 5.32559 93.2261 5.10308 93.4648 4.87615C94.8898 3.52929 96.3545 2.22222 97.7249 0.822322C98.3645 0.169525 99.0364 0.109108 99.8557 0.219627L99.8543 0.216679Z" fill="#18B1E8"/>
<path d="M68.8133 4.45624C68.8133 5.51133 68.8074 6.56788 68.8133 7.62297C68.828 9.90997 70.5079 11.2863 72.7772 10.8781C74.6192 10.5466 75.5063 9.52389 75.5225 7.63623C75.5417 5.37723 75.5343 3.1197 75.5166 0.860701C75.5137 0.393575 75.5844 0.14454 76.1473 0.147487C76.6925 0.151908 76.7942 0.367051 76.7913 0.850386C76.7706 3.05929 76.7456 5.26966 76.7913 7.47856C76.862 10.8737 74.2655 12.4047 71.4068 12.029C68.8929 11.6989 67.5534 10.0927 67.5475 7.55961C67.5416 5.32565 67.5563 3.0917 67.5401 0.857753C67.5372 0.380313 67.6285 0.153381 68.1826 0.154855C68.7249 0.156328 68.8383 0.355262 68.8265 0.845965C68.7971 2.04841 68.8177 3.25232 68.8177 4.45477H68.8148L68.8133 4.45624Z" fill="#18B1E8"/>
<path d="M84.308 0.0163586C85.8921 -0.0396375 87.2243 0.381807 88.4193 1.23943C88.6875 1.431 88.9646 1.64025 88.5991 1.99243C88.3457 2.23705 88.2381 2.62607 87.6958 2.22378C84.7133 0.00604349 80.5813 1.34258 79.7679 4.74214C79.2551 6.88473 80.0892 9.21888 81.747 10.2828C83.6007 11.4735 86.0528 11.3114 87.8638 9.88199C88.132 9.6698 88.325 9.33971 88.742 9.7921C89.1311 10.2121 89.0913 10.4626 88.6919 10.775C86.6186 12.3989 84.3139 12.7761 81.9179 11.7358C79.4216 10.6512 78.315 8.5484 78.368 5.88858C78.4167 3.42475 79.5734 1.58572 81.8413 0.51885C82.6532 0.137192 83.5138 -0.0455319 84.308 0.0178322V0.0163586Z" fill="#18B1E8"/>
</svg>
