<svg width="100" height="20" viewBox="0 0 100 20" fill="none" xmlns="http://www.w3.org/2000/svg">
<g clip-path="url(#clip0_1725_5889)">
<path d="M0 11.6295C0.192628 11.3574 0.159586 11.0241 0.246058 10.7233C1.05594 7.8957 2.77905 5.93497 5.69167 5.19961C8.29285 4.54299 11.2673 5.77398 12.7451 8.00467C12.9201 8.269 12.9672 8.44546 12.6874 8.70558C11.9064 9.4318 11.1675 10.2023 10.39 10.9777C9.99698 9.7559 9.1414 9.05709 7.95891 8.77448C6.70402 8.47429 5.61082 8.8504 4.73978 9.7805C3.60018 10.9974 3.32178 12.4485 3.85678 13.9944C4.32499 15.3484 5.3725 16.1084 6.79893 16.2357C8.27106 16.3664 9.43737 15.7801 10.2023 14.5027C10.3745 14.2145 10.4532 14.2391 10.6571 14.4479C11.3538 15.1621 12.0561 15.8722 12.7795 16.559C12.9968 16.7657 12.9715 16.8923 12.8091 17.1039C10.3422 20.3083 5.6052 20.7919 2.53158 18.1507C1.26333 17.0603 0.43728 15.7154 0.115296 14.0689C0.093502 13.9579 0.146932 13.8067 0 13.7336V11.6287L0 11.6295Z" fill="#052882"/>
<path d="M49.9568 19.9652C49.7473 19.788 49.4801 19.8541 49.2439 19.8182C45.3857 19.2347 42.6974 15.6121 43.2506 11.7475C43.5811 9.43742 44.6264 7.56175 46.5865 6.2464C49.3986 4.35949 52.9896 4.79395 55.2892 7.27632C55.5662 7.57511 55.8242 7.88795 56.0386 8.23736C56.123 8.37445 56.1384 8.47006 56.0084 8.59801C55.1894 9.40578 54.3795 10.222 53.5513 11.0509C53.1253 9.50139 51.559 8.63878 50.2527 8.67885C48.8488 8.72244 47.5496 9.70035 47.0828 11.1092C46.7334 12.1651 46.6392 13.2281 47.1222 14.2637C47.7134 15.5298 48.7342 16.2244 50.1346 16.2891C51.5055 16.3523 52.5931 15.8096 53.3376 14.637C53.4114 14.521 53.481 14.4029 53.583 14.2355C54.1397 14.7923 54.6832 15.3372 55.2266 15.8806C55.3953 16.0493 55.5648 16.2181 55.7342 16.3868C56.2362 16.8866 56.2397 16.8902 55.7539 17.4294C54.4294 18.8994 52.8195 19.8007 50.8018 19.8836C50.7343 19.8864 50.6584 19.8745 50.6331 19.9645H49.9568V19.9652Z" fill="#052882"/>
<path d="M61.6852 12.2375C62.6048 11.0733 63.5236 9.90907 64.4439 8.74557C65.1926 7.7993 65.9427 6.85444 66.69 5.90676C66.8032 5.76335 66.8995 5.63751 67.1252 5.63962C68.3927 5.65227 69.6603 5.64594 71.0094 5.64594C70.7366 5.99253 70.5046 6.29483 70.2656 6.59151C69.0332 8.12199 67.8022 9.65387 66.5614 11.178C66.3997 11.377 66.3723 11.5148 66.5122 11.7559C67.9808 14.291 69.4318 16.8359 70.8871 19.3781C70.9208 19.4371 70.951 19.4983 71.0052 19.5995C70.1074 19.5995 69.2448 19.6157 68.3836 19.5932C67.8964 19.5805 67.3185 19.7605 66.9452 19.4793C66.5951 19.2157 66.4447 18.6863 66.2099 18.2722C65.5603 17.127 64.9001 15.986 64.2702 14.8295C64.0966 14.5111 64.0171 14.5631 63.8351 14.8091C63.2157 15.6422 62.5914 16.4718 61.9418 17.2817C61.681 17.6065 61.5488 17.9313 61.5727 18.3524C61.5952 18.7397 61.7457 19.2473 61.5102 19.4913C61.2732 19.7366 60.7621 19.5588 60.372 19.5658C59.6816 19.5784 58.9912 19.5588 58.3016 19.5749C58.0499 19.5805 57.9571 19.5215 57.9662 19.2522C57.9873 18.6497 57.9726 18.0458 57.9726 17.4427C57.9726 11.7735 57.9761 6.10431 57.9641 0.435846C57.9634 0.0864445 58.045 -0.00916653 58.3993 0.0013788C59.3139 0.0287967 60.2307 0.0266876 61.146 0.00208182C61.4898 -0.00705746 61.5924 0.070978 61.591 0.432331C61.5762 4.20686 61.5819 7.98138 61.5819 11.7559V12.2058C61.6163 12.2164 61.6508 12.2269 61.6852 12.2375Z" fill="#052882"/>
<path d="M18.4031 6.1536C20.806 4.46916 24.5159 5.45691 26.265 7.99482C27.0383 9.11614 27.4299 10.3471 27.4313 11.7026C27.4348 14.1856 27.4271 16.6687 27.439 19.1518C27.4404 19.4696 27.3744 19.5884 27.0264 19.5785C26.0836 19.5525 25.1395 19.5588 24.196 19.5764C23.9106 19.5813 23.8157 19.5181 23.815 19.2129C23.8086 16.6884 23.777 14.1638 23.7672 11.6393C23.7615 10.1756 22.8223 9.08872 21.3495 8.87922C20.1213 8.70487 18.8847 9.58084 18.5008 10.8885C18.4164 11.1767 18.4031 11.467 18.4031 11.7623C18.4031 14.2032 18.3954 16.6441 18.4108 19.085C18.4129 19.452 18.3454 19.5961 17.9363 19.5806C17.0505 19.5462 16.1619 19.5511 15.2753 19.5792C14.907 19.5905 14.8064 19.4984 14.8071 19.1201C14.8212 13.8032 14.8163 8.48623 14.8163 3.16928C14.8163 2.22933 14.8275 1.28939 14.8099 0.349453C14.8043 0.0668383 14.8943 -0.00135486 15.1671 0.00356629C16.1246 0.0197358 17.0828 0.0225479 18.0396 0.00286327C18.3412 -0.00346393 18.4115 0.089335 18.4094 0.37898C18.3961 2.13232 18.4031 3.88636 18.4031 5.6397C18.4031 5.79225 18.4031 5.94481 18.4031 6.15431V6.1536Z" fill="#052882"/>
<path d="M35.5265 16.1829C36.6359 16.3608 37.6005 16.2096 38.4701 15.5917C38.9003 15.2859 39.2413 14.8964 39.4881 14.431C39.571 14.2742 39.623 14.166 39.8058 14.3516C40.5644 15.1228 41.3293 15.8884 42.1054 16.642C42.2671 16.7995 42.2003 16.8944 42.0998 17.0216C40.5138 19.0238 38.4602 20.0151 35.8858 19.833C31.681 19.5349 28.8647 16.0578 29.2204 11.7412C29.4159 9.36853 30.4022 7.44577 32.448 6.13041C35.5596 4.13031 39.7299 4.85513 42.0316 7.7783C42.2172 8.01381 42.2158 8.1509 42.0267 8.37587C39.964 10.8378 37.9119 13.309 35.8577 15.778C35.7684 15.8848 35.6819 15.9931 35.5265 16.1829ZM37.3171 8.80963C36.3111 8.37516 34.8214 8.66692 34.0263 9.43883C32.7095 10.7169 32.6287 12.2868 32.9661 13.9515C32.9872 14.0563 33.0055 14.199 33.1166 14.2264C33.2487 14.2588 33.2874 14.1027 33.35 14.0204C34.2175 12.8865 35.0794 11.7483 35.9441 10.6115C36.3997 10.0125 36.856 9.41493 37.3171 8.80963Z" fill="#052882"/>
<path d="M85.5684 12.4695C85.5607 15.8932 83.574 18.6427 80.4371 19.5728C76.2456 20.8157 71.8412 17.9024 71.3336 13.576C71.0862 11.4634 71.4981 9.53083 72.7917 7.82249C74.6111 5.41956 77.5898 4.46415 80.6016 5.36121C83.4333 6.20413 84.9153 8.23868 85.458 11.0458C85.5487 11.5155 85.567 11.9921 85.5684 12.4695ZM74.8923 12.4371C74.8923 12.577 74.8846 12.7176 74.8937 12.8575C75.0519 15.2492 77.2355 16.7874 79.4774 16.0879C81.1253 15.574 82.1159 13.9901 81.9914 12.0701C81.8389 9.72205 79.6518 8.14939 77.4084 8.77438C75.8702 9.20322 74.8853 10.6297 74.893 12.4371H74.8923Z" fill="#052882"/>
<path d="M92.9479 14.2425C93.447 12.8245 93.9258 11.4677 94.4024 10.1102C94.903 8.68442 95.4077 7.2608 95.8928 5.83015C95.973 5.59394 96.0918 5.54683 96.3167 5.54894C97.443 5.55879 98.5699 5.56441 99.6962 5.54683C100.053 5.54121 100.04 5.65158 99.9352 5.92998C98.2557 10.3766 96.5839 14.8267 94.9163 19.2776C94.8362 19.4906 94.7342 19.5799 94.4931 19.5763C93.4934 19.5616 92.4937 19.5623 91.494 19.5763C91.2578 19.5799 91.1446 19.5032 91.0617 19.2853C89.3625 14.8288 87.6583 10.3745 85.9458 5.92295C85.8326 5.62839 85.8551 5.54191 86.1953 5.54683C87.3075 5.56441 88.4204 5.56371 89.5319 5.54683C89.8047 5.54262 89.9214 5.63049 90.0085 5.88288C90.9196 8.51289 91.8427 11.1394 92.7637 13.7659C92.8129 13.9058 92.8705 14.0429 92.9479 14.2432V14.2425Z" fill="#052882"/>
</g>
<defs>
<clipPath id="clip0_1725_5889">
<rect width="100" height="19.9651" fill="white"/>
</clipPath>
</defs>
</svg>
