<svg width="120" height="100" viewBox="0 0 120 100" fill="none" xmlns="http://www.w3.org/2000/svg">
<g clip-path="url(#clip0_1284_507)">
<path d="M79.4784 75.0964H40.6318C40.2837 74.92 39.9027 75.0118 39.5428 74.9929C35.9254 74.8118 32.863 73.243 30.0782 71.105C26.2114 68.1344 23.6171 64.2699 22.4599 59.5047C22.0506 57.8229 22.0435 56.0824 22.0388 54.3678C22.0106 43.2237 22.0059 32.0797 22.0388 20.938C22.0459 18.5413 22.1541 16.1445 23.0102 13.8371C24.8072 8.98485 27.9707 5.30153 32.3573 2.62254C33.7356 1.78051 35.2339 1.20425 36.7533 0.679744C38.0587 0.228149 39.4252 0.157588 40.7847 0.0964343C41.9419 0.042337 43.1015 0 44.2634 0C55.1864 0.0117603 66.107 -0.0117603 77.0299 0.0235206C78.9845 0.0305767 80.9602 0.0235206 82.8865 0.461003C88.1034 1.64173 92.323 4.36071 95.2607 8.85079C96.8954 11.3487 97.8315 14.1312 97.7797 17.1865C97.7562 18.5154 97.815 19.8443 97.7092 21.1732C97.5234 23.4571 96.6225 25.4986 95.5171 27.4532C93.8353 30.4309 91.4315 32.7571 88.7243 34.7963C84.9375 37.6517 81.0731 40.4036 77.2627 43.2237C73.2925 46.1638 69.2775 49.0404 65.319 51.9992C64.0418 52.9542 62.7012 53.7327 61.0336 53.8574C58.4534 54.0479 56.2918 53.2623 54.6807 51.2325C51.6112 47.3633 48.6382 43.4166 45.6064 39.5169C44.6491 38.2844 43.6989 37.0802 43.2285 35.5443C41.7302 30.6543 46.0533 25.5645 51.1126 26.3077C53.1848 26.6135 54.8665 27.5684 56.1601 29.2431C57.7901 31.3553 59.4647 33.4321 61.1229 35.5231C61.718 36.2711 62.0285 36.3204 62.7976 35.7583C68.7413 31.4141 74.7296 27.1333 80.6474 22.7538C81.0237 22.4739 81.3953 22.1869 81.7293 21.853C82.9383 20.6463 83.117 19.2139 82.569 17.6781C81.9598 15.9705 80.7885 14.9191 78.8998 14.8297C78.6528 14.818 78.4058 14.825 78.1589 14.825C66.5209 14.825 54.8806 14.865 43.2426 14.8015C39.5264 14.7803 36.4287 17.2735 36.4146 21.5778C36.384 32.449 36.3887 43.3202 36.4146 54.1937C36.424 58.1663 39.2441 60.9394 43.2191 60.9418C54.4384 60.9512 65.6577 60.9512 76.8747 60.9418C80.899 60.9394 83.6721 58.1663 83.7121 54.1373C83.7215 53.3211 83.7356 52.5049 83.7121 51.6911C83.5827 47.5162 88.2915 43.1673 93.4755 45.0677C95.0325 45.6393 96.2579 46.6013 97.1753 48.0078C97.8221 49.0004 97.8315 50.0988 97.9444 51.1948V55.7649C98.0338 60.9277 95.9592 65.1943 92.5017 68.8894C90.1285 71.4272 87.2896 73.2313 84.0108 74.3767C82.6984 74.8354 81.3365 74.8824 79.9817 75.0235C79.8147 75.04 79.636 74.9694 79.4854 75.0964H79.4784Z" fill="#54B748"/>
<path d="M69.4797 99.8634H67.1536V87.9032H69.4045C69.4421 88.3407 69.475 88.7547 69.515 89.2227C72.4574 86.8142 74.5437 86.9083 76.9099 89.5591C78.3493 87.9479 80.1463 87.2117 82.2961 87.6092C84.4318 88.0044 85.923 89.6508 86.0265 91.9629C86.1441 94.5454 86.0523 97.1374 86.0523 99.8258H83.6956C83.6956 97.5749 83.7285 95.3451 83.6862 93.113C83.6485 91.1561 82.7665 90.0154 81.2824 89.8484C79.3748 89.6343 77.9471 90.8221 77.8719 92.8002C77.8037 94.6442 77.8484 96.4953 77.8437 98.3416C77.8437 98.8168 77.8437 99.2919 77.8437 99.8446H75.4069C75.4069 98.1746 75.4093 96.5564 75.4069 94.9359C75.4069 94.2326 75.4257 93.5246 75.3669 92.8261C75.2023 90.848 74.2333 89.8272 72.5609 89.8225C70.8439 89.8178 69.5691 91.0526 69.4962 92.9437C69.4256 94.7877 69.4774 96.6388 69.475 98.4851C69.475 98.9155 69.475 99.346 69.475 99.8634H69.4797Z" fill="black"/>
<path d="M14.0324 94.9881C14.6228 95.4985 15.1449 95.9501 15.653 96.3899C13.9171 99.2524 9.73284 100.635 6.0213 99.6522C2.46263 98.7091 0.0894104 95.6679 0.0023843 91.9328C-0.0916979 87.8731 2.13099 84.6461 5.82372 83.4842C9.46941 82.3364 13.6208 83.6394 15.6106 86.6054C15.0744 87.0946 14.5287 87.5909 13.8866 88.1789C12.3154 86.2267 10.3397 85.3071 7.87001 85.5611C6.29648 85.7234 5.03578 86.4454 4.01734 87.6144C1.97341 89.9594 2.11923 93.7345 4.31841 95.8866C6.8892 98.4033 10.7207 98.0834 14.03 94.9905L14.0324 94.9881Z" fill="black"/>
<path d="M99.5319 99.8563H97.4479C97.3821 99.3294 97.3233 98.8684 97.2598 98.3627C93.8375 100.569 90.7822 100.414 88.6748 97.9864C86.6779 95.6837 86.6261 91.8311 88.5666 89.5825C90.667 87.1458 93.7646 86.9858 97.248 89.1827C97.328 88.7452 97.4009 88.3359 97.4832 87.8843H99.5295V99.8539L99.5319 99.8563ZM93.5129 89.8224C91.2691 89.8154 89.585 91.5347 89.5638 93.8538C89.5427 96.133 91.2644 97.9747 93.4447 98.0076C95.6839 98.0405 97.4573 96.2012 97.4503 93.8491C97.4432 91.5206 95.7897 89.8295 93.5153 89.8224H93.5129Z" fill="black"/>
<path d="M40.9916 94.6796H31.7715C32.1314 97.9513 35.4242 98.7487 39.7779 96.693C40.0766 97.1916 40.3847 97.702 40.6834 98.2006C38.5713 100.15 34.3635 100.553 31.8915 99.0779C29.6852 97.7631 28.6315 94.9665 29.2854 92.1605C30.0733 88.7736 33.0675 87.0072 36.7955 87.734C39.7755 88.3149 41.5396 91.1068 40.9916 94.6796ZM31.6939 92.7556H38.5454C38.4584 91.0198 37.2847 89.8108 35.5771 89.6297C33.7425 89.4369 32.2184 90.6105 31.6939 92.7556Z" fill="black"/>
<path d="M27.9802 99.8732H25.6093C25.6093 97.9869 25.614 96.1546 25.6093 94.32C25.6093 93.7485 25.6352 93.1699 25.5528 92.6077C25.28 90.7378 24.2051 89.797 22.4787 89.8535C20.8581 89.9076 19.6351 91.0554 19.5433 92.8194C19.4445 94.7504 19.5057 96.6885 19.4892 98.6243C19.4869 99.01 19.4516 99.3958 19.4281 99.852H17.2007V83.0654H19.3716V88.8821C20.5218 88.4305 21.5191 87.8613 22.5845 87.6543C25.3106 87.1227 27.7779 88.9573 27.9496 91.7422C28.1119 94.407 27.9849 97.0907 27.9849 99.8732H27.9802Z" fill="black"/>
<path d="M58.7378 94.5767C57.4042 95.1013 57.5548 96.1126 57.5642 97.0723C57.5736 97.9849 57.5642 98.8951 57.5642 99.8642H55.2686V83.0752H57.5054V92.6222C58.9801 91.2745 60.2925 90.2701 61.3557 89.0471C62.5717 87.6476 63.9923 87.8005 65.7376 87.9957C63.8747 89.6939 62.1624 91.2533 60.3513 92.9044C62.2189 95.1883 64.0441 97.4227 65.8787 99.6666C64.0276 100.311 63.0421 100.048 61.9343 98.634C60.8782 97.2887 59.8174 95.9456 58.7378 94.5744V94.5767Z" fill="black"/>
<path d="M54.1609 90.7595C53.5729 91.084 52.9778 91.4157 52.4086 91.7309C49.9648 89.4447 47.6151 89.1648 45.877 90.8935C44.2729 92.4906 44.2823 95.1155 45.8958 96.7055C47.6175 98.3989 49.939 98.1214 52.3286 95.8705C52.9002 96.1974 53.4976 96.5361 54.0927 96.8748C52.8038 99.3656 49.8002 100.528 46.7872 99.7678C43.9577 99.0552 42.2336 96.689 42.283 93.5866C42.3277 90.7218 44.2141 88.3533 46.9166 87.7653C50.1248 87.0667 52.9708 88.2098 54.1609 90.7571V90.7595Z" fill="black"/>
<path d="M119.955 99.7575C117.944 100.386 116.773 99.6846 116.025 97.9888C115.677 97.2008 115.129 96.5023 114.564 95.5873C113.927 96.587 113.256 97.3655 112.892 98.2663C112.141 100.117 110.754 100.117 109.013 99.8022C110.384 97.723 111.702 95.7238 113.023 93.7174C111.8 91.7888 110.608 89.9142 109.39 87.9925C111.096 87.7056 112.352 88.2317 113.16 89.5708C113.588 90.2834 114.016 90.9961 114.576 91.9299C115.164 91.0243 115.794 90.3023 116.147 89.4626C116.883 87.715 118.186 87.5856 119.915 87.9643C118.805 89.6672 117.772 91.3325 116.65 92.9342C116.17 93.6187 116.17 94.1196 116.65 94.7994C117.782 96.4011 118.833 98.0617 119.957 99.7575H119.955Z" fill="black"/>
<path d="M108.223 89.9402C104.944 89.6956 103.681 90.8598 103.643 94.1174C103.622 95.9167 103.629 97.7137 103.62 99.513C103.62 99.5954 103.575 99.6777 103.528 99.8423H101.298V87.9292H103.436C103.49 88.2679 103.556 88.6748 103.643 89.2157C104.951 87.7998 106.435 87.1153 108.362 87.7974C108.312 88.5619 108.265 89.251 108.22 89.9402H108.223Z" fill="black"/>
</g>
<defs>
<clipPath id="clip0_1284_507">
<rect width="119.955" height="100" fill="white"/>
</clipPath>
</defs>
</svg>
