<?xml version="1.0" standalone="no"?>
<!DOCTYPE svg PUBLIC "-//W3C//DTD SVG 20010904//EN"
 "http://www.w3.org/TR/2001/REC-SVG-20010904/DTD/svg10.dtd">
<svg version="1.0" xmlns="http://www.w3.org/2000/svg"
 width="1024.000000pt" height="576.000000pt" viewBox="0 0 1024.000000 576.000000"
 preserveAspectRatio="xMidYMid meet">

<g transform="translate(0.000000,576.000000) scale(0.100000,-0.100000)"
fill="#000000" stroke="none">
<path d="M8345 5122 c-53 -3 -173 -31 -207 -48 -54 -27 -128 -126 -128 -170 0
-9 10 -34 22 -55 l21 -38 -24 -45 c-22 -42 -22 -49 -11 -93 16 -62 59 -103
107 -103 19 0 35 -3 35 -6 0 -4 -16 -24 -35 -45 -55 -61 -58 -102 -12 -170 31
-47 84 -51 176 -13 36 15 71 31 76 35 6 3 28 12 50 19 22 7 45 16 50 20 6 4
42 17 82 29 59 19 78 20 111 12 55 -15 68 -33 52 -71 -19 -45 -86 -95 -155
-115 -33 -9 -90 -29 -127 -42 -55 -21 -70 -32 -83 -60 -28 -57 -6 -107 67
-152 35 -21 45 -22 149 -16 61 3 131 10 157 15 156 31 484 52 545 34 16 -5 36
20 25 32 -3 2 -36 11 -74 19 -108 22 -347 26 -514 9 -80 -9 -167 -13 -193 -9
-52 6 -87 23 -87 41 0 15 60 40 145 60 86 21 115 35 166 81 65 59 88 142 53
192 -22 30 -114 71 -162 71 -77 0 -210 -44 -359 -116 -61 -30 -87 -29 -91 6
-2 19 9 35 48 68 89 76 247 162 298 162 29 0 59 27 46 40 -9 9 -31 9 -85 1
-41 -6 -117 -15 -169 -21 -52 -6 -112 -16 -132 -22 -28 -8 -41 -8 -52 1 -20
17 -30 69 -16 86 17 20 131 63 253 95 60 15 111 31 114 34 27 26 -245 33 -311
7 -35 -14 -62 -6 -77 21 -9 16 -7 26 8 47 48 64 201 112 359 112 105 1 162
-15 319 -86 217 -99 496 -202 631 -234 98 -22 239 -30 256 -13 17 17 -1 32
-37 32 -40 0 -130 20 -276 61 -94 26 -180 59 -414 156 -100 42 -158 64 -195
75 -19 6 -67 23 -107 39 -71 28 -172 39 -288 31z"/>
<path d="M3570 3020 l0 -610 100 0 100 0 0 610 0 610 -100 0 -100 0 0 -610z"/>
<path d="M6540 3385 c0 -135 -4 -245 -9 -245 -5 0 -16 11 -25 24 -8 14 -50 42
-93 63 -73 36 -82 38 -167 37 -116 -1 -184 -26 -261 -95 -204 -187 -171 -588
59 -723 54 -31 144 -56 206 -56 93 0 208 52 258 115 11 14 23 25 26 25 3 0 6
-27 6 -60 l0 -60 105 0 105 0 0 610 0 610 -105 0 -105 0 0 -245z m-117 -328
c112 -66 151 -226 86 -356 -76 -151 -274 -175 -387 -47 -64 73 -79 215 -32
305 25 49 91 106 138 120 59 16 146 6 195 -22z"/>
<path d="M2802 3599 c-269 -45 -448 -236 -492 -524 -24 -162 35 -361 143 -485
212 -243 626 -264 858 -44 52 50 106 134 124 192 6 22 6 22 -100 22 l-106 0
-49 -53 c-33 -36 -70 -63 -112 -83 -56 -25 -74 -29 -163 -29 -89 0 -106 3
-155 27 -291 143 -291 614 -1 755 49 24 68 27 151 27 78 1 104 -4 145 -22 73
-33 120 -68 151 -113 l27 -39 108 0 c86 0 109 3 109 14 0 7 -16 45 -35 84 -99
196 -356 312 -603 271z"/>
<path d="M4180 3255 c-182 -51 -290 -210 -290 -424 0 -149 43 -255 137 -341
141 -129 367 -129 492 0 21 22 41 40 45 40 3 0 6 -27 6 -60 l0 -60 100 0 100
0 0 420 0 420 -100 0 -100 0 0 -48 c0 -27 -3 -52 -6 -55 -4 -4 -25 10 -47 29
-87 79 -222 111 -337 79z m256 -188 c82 -43 128 -127 127 -236 0 -89 -22 -148
-74 -198 -122 -116 -328 -59 -375 103 -56 193 60 363 237 350 31 -2 69 -11 85
-19z"/>
<path d="M7190 3259 c-219 -43 -369 -270 -330 -497 45 -261 288 -418 562 -361
136 28 263 127 293 227 6 22 6 22 -98 22 -93 0 -106 -2 -123 -21 -49 -54 -167
-83 -249 -60 -88 23 -175 125 -175 203 l0 28 330 0 330 0 0 45 c0 151 -85 301
-208 368 -91 50 -221 68 -332 46z m182 -163 c20 -7 50 -24 66 -37 30 -24 72
-87 72 -108 0 -13 -426 -16 -433 -3 -8 14 22 67 56 100 60 58 157 77 239 48z"/>
<path d="M4928 3008 c-2 -134 0 -268 5 -298 10 -76 59 -172 108 -214 156 -133
425 -136 588 -7 24 19 52 59 77 107 l39 77 3 289 4 289 -104 -3 -103 -3 -5
-265 c-5 -284 -8 -296 -62 -347 -84 -79 -245 -66 -305 26 -38 56 -43 97 -43
349 l0 242 -99 0 -100 0 -3 -242z"/>
<path d="M1530 2013 c-8 -3 -49 -37 -91 -74 -42 -38 -81 -69 -86 -69 -5 0 -16
-8 -24 -17 -33 -37 -187 -180 -234 -218 -28 -22 -58 -47 -68 -56 -33 -30 -103
-63 -120 -56 -36 13 -15 83 47 162 93 118 108 177 60 234 -47 56 -119 40 -247
-56 -197 -148 -450 -387 -463 -438 -8 -33 7 -49 37 -40 13 5 78 60 143 124 66
64 140 136 166 161 94 92 271 213 296 203 7 -2 15 -16 18 -29 5 -20 -2 -35
-36 -73 -97 -108 -131 -238 -75 -287 36 -30 95 -39 141 -20 76 32 235 158 381
302 152 150 192 184 219 184 18 0 36 -30 36 -60 0 -35 -95 -199 -169 -293 -73
-92 -89 -123 -73 -139 22 -22 40 -9 245 191 l107 105 22 -22 c17 -17 22 -32
20 -67 -2 -58 -6 -65 -117 -210 -118 -154 -127 -169 -119 -189 12 -30 49 -16
149 59 55 41 106 75 112 75 21 0 15 -59 -13 -113 -73 -146 -224 -307 -327
-350 -41 -18 -169 -49 -267 -66 -181 -32 -476 -107 -554 -142 -51 -22 -65 -42
-49 -68 16 -24 38 -21 223 34 74 22 297 70 443 96 89 15 271 81 317 115 59 42
94 80 175 188 81 109 110 164 126 243 12 57 11 62 -10 97 -25 40 -36 43 -88
21 -19 -8 -37 -15 -40 -15 -2 0 11 21 29 48 61 88 81 181 54 245 -25 60 -72
82 -133 63 l-23 -7 20 43 c31 69 25 113 -23 166 -16 17 -31 22 -71 21 -28 0
-58 -3 -66 -6z"/>
</g>
</svg>
