<svg width="18" height="18" viewBox="0 0 18 18" fill="none" xmlns="http://www.w3.org/2000/svg">
<path fill-rule="evenodd" clip-rule="evenodd" d="M10.769 1.125H16.869V7.233H10.769V1.125ZM10.659 8.356H16.976C17.1101 8.35587 17.2429 8.32929 17.3667 8.27778C17.4906 8.22628 17.603 8.15086 17.6977 8.05583C17.7923 7.96081 17.8673 7.84806 17.9183 7.72403C17.9693 7.59999 17.9954 7.46712 17.995 7.333V1.019C17.9947 0.748826 17.8873 0.489793 17.6963 0.298751C17.5052 0.107708 17.2462 0.000264747 16.976 0H10.659C10.3888 0.000264747 10.1298 0.107708 9.93876 0.298751C9.74771 0.489793 9.64027 0.748826 9.64 1.019V7.333C9.63961 7.46712 9.66567 7.59999 9.71669 7.72403C9.76771 7.84806 9.84269 7.96081 9.93734 8.05583C10.032 8.15086 10.1444 8.22628 10.2683 8.27778C10.3921 8.32929 10.5249 8.35587 10.659 8.356ZM1.125 1.125H7.231V7.233H1.125V1.125ZM1.019 8.356H7.337C7.47112 8.35587 7.6039 8.32929 7.72773 8.27778C7.85156 8.22628 7.96402 8.15086 8.05867 8.05583C8.15332 7.96081 8.2283 7.84806 8.27932 7.72403C8.33034 7.59999 8.3564 7.46712 8.356 7.333V1.019C8.35574 0.748826 8.2483 0.489793 8.05725 0.298751C7.86621 0.107708 7.60718 0.000264747 7.337 0H1.019C0.74883 0.000264747 0.489797 0.107708 0.298755 0.298751C0.107713 0.489793 0.000269161 0.748826 4.4136e-06 1.019V7.333C-0.000390112 7.46712 0.0256687 7.59999 0.0766893 7.72403C0.12771 7.84806 0.202691 7.96081 0.29734 8.05583C0.391989 8.15086 0.504448 8.22628 0.62828 8.27778C0.752113 8.32929 0.884887 8.35587 1.019 8.356ZM1.124 10.765H7.231V16.871H1.125L1.124 10.765ZM1.019 17.995H7.337C7.60718 17.9947 7.86621 17.8873 8.05725 17.6963C8.2483 17.5052 8.35574 17.2462 8.356 16.976V10.659C8.35574 10.3888 8.2483 10.1298 8.05725 9.93875C7.86621 9.74771 7.60718 9.64026 7.337 9.64H1.019C0.74883 9.64026 0.489797 9.74771 0.298755 9.93875C0.107713 10.1298 0.000269161 10.3888 4.4136e-06 10.659V16.976C0.000269161 17.2462 0.107713 17.5052 0.298755 17.6963C0.489797 17.8873 0.74883 17.9947 1.019 17.995ZM13.819 16.875C13.2142 16.875 12.623 16.6957 12.1201 16.3596C11.6172 16.0236 11.2252 15.546 10.9938 14.9872C10.7623 14.4285 10.7018 13.8136 10.8198 13.2204C10.9378 12.6272 11.229 12.0823 11.6567 11.6547C12.0843 11.227 12.6292 10.9358 13.2224 10.8178C13.8156 10.6998 14.4305 10.7603 14.9893 10.9918C15.548 11.2232 16.0256 11.6152 16.3616 12.1181C16.6977 12.621 16.877 13.2122 16.877 13.817C16.877 14.628 16.5548 15.4058 15.9813 15.9793C15.4079 16.5528 14.63 16.875 13.819 16.875ZM13.819 9.635C12.9917 9.635 12.1829 9.88033 11.4951 10.34C10.8072 10.7996 10.271 11.4529 9.95442 12.2172C9.63781 12.9816 9.55498 13.8226 9.71638 14.6341C9.87778 15.4455 10.2762 16.1908 10.8612 16.7758C11.4462 17.3608 12.1915 17.7592 13.0029 17.9206C13.8144 18.082 14.6554 17.9992 15.4198 17.6826C16.1841 17.366 16.8374 16.8298 17.297 16.142C17.7567 15.4541 18.002 14.6453 18.002 13.818C18.0023 13.2684 17.8942 12.7242 17.6841 12.2164C17.4739 11.7086 17.1657 11.2472 16.7772 10.8585C16.3886 10.4699 15.9273 10.1616 15.4195 9.95132C14.9118 9.74103 14.3676 9.63287 13.818 9.633L13.819 9.635Z" fill="#131819"/>
</svg>
