<svg width="20" height="20" viewBox="0 0 20 20" fill="none" xmlns="http://www.w3.org/2000/svg">
<g clip-path="url(#clip0_420_136)">
<path fill-rule="evenodd" clip-rule="evenodd" d="M11.9656 1.25H18.7433V8.03667H11.9656V1.25ZM11.8433 9.28444H18.8622C19.0112 9.2843 19.1588 9.25477 19.2964 9.19754C19.434 9.14031 19.5589 9.05651 19.6641 8.95093C19.7692 8.84535 19.8526 8.72007 19.9092 8.58225C19.9659 8.44444 19.9949 8.2968 19.9944 8.14778V1.13222C19.9942 0.832028 19.8748 0.544214 19.6625 0.331945C19.4502 0.119676 19.1624 0.000294164 18.8622 0H11.8433C11.5431 0.000294164 11.2553 0.119676 11.0431 0.331945C10.8308 0.544214 10.7114 0.832028 10.7111 1.13222V8.14778C10.7107 8.2968 10.7396 8.44444 10.7963 8.58225C10.853 8.72007 10.9363 8.84535 11.0415 8.95093C11.1467 9.05651 11.2716 9.14031 11.4092 9.19754C11.5468 9.25477 11.6943 9.2843 11.8433 9.28444ZM1.25001 1.25H8.03445V8.03667H1.25001V1.25ZM1.13223 9.28444H8.15223C8.30125 9.2843 8.44877 9.25477 8.58637 9.19754C8.72396 9.14031 8.84891 9.05651 8.95408 8.95093C9.05924 8.84535 9.14255 8.72007 9.19924 8.58225C9.25593 8.44444 9.28489 8.2968 9.28445 8.14778V1.13222C9.28415 0.832028 9.16477 0.544214 8.95251 0.331945C8.74024 0.119676 8.45242 0.000294164 8.15223 0H1.13223C0.832033 0.000294164 0.544219 0.119676 0.33195 0.331945C0.119681 0.544214 0.000299068 0.832028 4.90399e-06 1.13222V8.14778C-0.000433458 8.2968 0.0285208 8.44444 0.0852103 8.58225C0.1419 8.72007 0.225212 8.84535 0.330377 8.95093C0.435543 9.05651 0.560498 9.14031 0.698089 9.19754C0.835681 9.25477 0.983208 9.2843 1.13223 9.28444ZM1.24889 11.9611H8.03445V18.7456H1.25001L1.24889 11.9611ZM1.13223 19.9944H8.15223C8.45242 19.9942 8.74024 19.8748 8.95251 19.6625C9.16477 19.4502 9.28415 19.1624 9.28445 18.8622V11.8433C9.28415 11.5431 9.16477 11.2553 8.95251 11.0431C8.74024 10.8308 8.45242 10.7114 8.15223 10.7111H1.13223C0.832033 10.7114 0.544219 10.8308 0.33195 11.0431C0.119681 11.2553 0.000299068 11.5431 4.90399e-06 11.8433V18.8622C0.000299068 19.1624 0.119681 19.4502 0.33195 19.6625C0.544219 19.8748 0.832033 19.9942 1.13223 19.9944ZM15.3544 18.75C14.6824 18.75 14.0255 18.5507 13.4667 18.1774C12.908 17.804 12.4725 17.2734 12.2153 16.6525C11.9581 16.0316 11.8909 15.3485 12.022 14.6893C12.1531 14.0302 12.4767 13.4248 12.9519 12.9496C13.427 12.4744 14.0325 12.1508 14.6916 12.0197C15.3507 11.8886 16.0339 11.9559 16.6547 12.2131C17.2756 12.4703 17.8062 12.9058 18.1796 13.4645C18.553 14.0233 18.7522 14.6802 18.7522 15.3522C18.7522 16.2534 18.3942 17.1176 17.757 17.7548C17.1198 18.392 16.2556 18.75 15.3544 18.75ZM15.3544 10.7056C14.4352 10.7056 13.5366 10.9781 12.7723 11.4888C12.008 11.9996 11.4122 12.7254 11.0605 13.5747C10.7087 14.424 10.6166 15.3585 10.796 16.2601C10.9753 17.1616 11.418 17.9898 12.068 18.6398C12.718 19.2898 13.5461 19.7325 14.4477 19.9118C15.3493 20.0911 16.2838 19.9991 17.1331 19.6473C17.9823 19.2955 18.7082 18.6998 19.2189 17.9355C19.7296 17.1712 20.0022 16.2726 20.0022 15.3533C20.0025 14.7427 19.8825 14.138 19.649 13.5738C19.4155 13.0095 19.0731 12.4969 18.6413 12.065C18.2096 11.6332 17.697 11.2907 17.1328 11.057C16.5687 10.8234 15.964 10.7032 15.3533 10.7033L15.3544 10.7056Z" fill="#909090"/>
</g>
<defs>
<clipPath id="clip0_420_136">
<rect width="20.0011" height="20" fill="white"/>
</clipPath>
</defs>
</svg>
