<svg width="18" height="18" viewBox="0 0 18 18" fill="none" xmlns="http://www.w3.org/2000/svg">
<path d="M12.2458 2.81571L15.1319 5.70179M4.98081 5.00515H1.9952C1.73126 5.00515 1.47812 5.11 1.29149 5.29664C1.10485 5.48328 1 5.73641 1 6.00035V15.9524C1 16.5495 1.39808 16.9476 1.9952 16.9476H12.9424C13.5396 16.9476 13.9376 16.5495 13.9376 15.9524V11.474M16.3261 1.52194C16.5379 1.70872 16.7075 1.93844 16.8237 2.19582C16.9399 2.4532 17 2.73236 17 3.01475C17 3.29714 16.9399 3.57629 16.8237 3.83367C16.7075 4.09105 16.5379 4.32077 16.3261 4.50755L9.55875 11.2749L5.97601 11.9716L6.67266 8.38884L13.5396 1.62146C13.9116 1.25677 14.4118 1.05249 14.9328 1.05249C15.4538 1.05249 15.9541 1.25677 16.3261 1.62146V1.52194Z" stroke="#04121E" stroke-width="1.5" stroke-linecap="round" stroke-linejoin="round"/>
</svg>
