<svg width="24" height="15" viewBox="0 0 24 15" fill="none" xmlns="http://www.w3.org/2000/svg">
<path d="M1.125 0H22.875C23.1734 0 23.4595 0.118526 23.6705 0.329505C23.8815 0.540483 24 0.826631 24 1.125C24 1.42337 23.8815 1.70952 23.6705 1.9205C23.4595 2.13147 23.1734 2.25 22.875 2.25H1.125C0.826631 2.25 0.540483 2.13147 0.329505 1.9205C0.118526 1.70952 0 1.42337 0 1.125C0 0.826631 0.118526 0.540483 0.329505 0.329505C0.540483 0.118526 0.826631 0 1.125 0ZM4.5 7.125C4.5 6.82663 4.61853 6.54048 4.8295 6.3295C5.04048 6.11853 5.32663 6 5.625 6H18.375C18.6734 6 18.9595 6.11853 19.1705 6.3295C19.3815 6.54048 19.5 6.82663 19.5 7.125C19.5 7.42337 19.3815 7.70952 19.1705 7.92049C18.9595 8.13147 18.6734 8.25 18.375 8.25H5.625C5.32663 8.25 5.04048 8.13147 4.8295 7.92049C4.61853 7.70952 4.5 7.42337 4.5 7.125ZM9 13.125C9 12.8266 9.11853 12.5405 9.3295 12.3295C9.54048 12.1185 9.82663 12 10.125 12H13.875C14.1734 12 14.4595 12.1185 14.6705 12.3295C14.8815 12.5405 15 12.8266 15 13.125C15 13.4234 14.8815 13.7095 14.6705 13.9205C14.4595 14.1315 14.1734 14.25 13.875 14.25H10.125C9.82663 14.25 9.54048 14.1315 9.3295 13.9205C9.11853 13.7095 9 13.4234 9 13.125Z" fill="black"/>
</svg>
