<svg width="154" height="30" viewBox="0 0 154 30" fill="none" xmlns="http://www.w3.org/2000/svg">
<g clip-path="url(#clip0_1418_12026)">
<path d="M50.4998 8.13362C51.8692 9.14434 52.8326 10.6111 53.2161 12.2694H50.2795C49.9127 11.3511 49.2658 10.5719 48.4307 10.0424C47.5188 9.47191 46.4592 9.18253 45.3839 9.21038C44.3663 9.19482 43.3637 9.45711 42.484 9.96901C41.6222 10.4793 40.9255 11.2269 40.4773 12.1225C39.976 13.1415 39.7283 14.2665 39.7554 15.4018C39.7231 16.5781 39.9749 17.745 40.4896 18.8033C40.947 19.7156 41.6673 20.4699 42.5574 20.9691C43.5078 21.4816 44.5748 21.7388 45.6543 21.7155C47.0089 21.7449 48.3261 21.2695 49.3496 20.3818C50.4061 19.4384 51.0698 18.1327 51.2094 16.7232H44.8712V14.6676H53.5587V17.335C53.3749 18.5775 52.9105 19.7617 52.2006 20.7978C51.4795 21.8432 50.5132 22.696 49.3863 23.2817C48.1502 23.9183 46.7753 24.2379 45.3851 24.2116C43.8264 24.2428 42.288 23.854 40.9313 23.0859C39.6584 22.3525 38.6223 21.2697 37.9457 19.9657C37.2251 18.5541 36.8636 16.9865 36.8934 15.4018C36.8636 13.817 37.2251 12.2494 37.9457 10.8378C38.6182 9.53802 39.6503 8.45915 40.919 7.72984C42.273 6.96836 43.8064 6.58385 45.3595 6.61637C47.1919 6.54942 48.9975 7.08212 50.4998 8.13362Z" fill="#04121E"/>
<path d="M69.2683 10.5564V24.0403H66.454V21.1037C66.1433 22.058 65.5121 22.8754 64.6676 23.4175C63.7818 23.9742 62.7524 24.2592 61.7065 24.2373C61.0063 24.2677 60.3078 24.148 59.6578 23.8861C59.0077 23.6241 58.4213 23.2262 57.9378 22.7188C56.9226 21.5127 56.4139 19.9604 56.5184 18.3873V10.5564H59.3082V18.0924C59.2404 19.1199 59.5738 20.1335 60.2382 20.9202C60.5679 21.2563 60.9653 21.5184 61.4041 21.689C61.843 21.8597 62.3131 21.9351 62.7832 21.91C63.279 21.9316 63.7735 21.8466 64.2337 21.6609C64.6938 21.4751 65.1088 21.1929 65.4506 20.8333C66.1744 19.957 66.5337 18.8359 66.454 17.7021V10.5564H69.2683Z" fill="#04121E"/>
<path d="M81.6281 11.2908C82.4779 11.8757 83.1205 12.7149 83.4635 13.6878V10.5567H86.2533V24.0394H83.4635V20.9082C83.1205 21.8815 82.478 22.7211 81.6281 23.3065C80.7033 23.9271 79.6077 24.2432 78.4945 24.2107C77.3895 24.2298 76.3009 23.9417 75.3499 23.3787C74.4112 22.8056 73.6588 21.9725 73.1841 20.9804C72.6379 19.8272 72.3697 18.562 72.401 17.2864C72.371 16.0184 72.6392 14.761 73.1841 13.6156C73.6591 12.6234 74.4113 11.79 75.3499 11.2162C76.3011 10.6537 77.3896 10.3657 78.4945 10.3841C79.6081 10.3518 80.7038 10.6689 81.6281 11.2908ZM76.3777 14.0182C75.595 14.9209 75.1955 16.0935 75.2642 17.2864C75.1956 18.4789 75.5951 19.651 76.3777 20.5534C76.7606 20.951 77.2238 21.2625 77.7365 21.4671C78.2492 21.6718 78.7996 21.7649 79.351 21.7403C80.0901 21.7516 80.8183 21.5608 81.4568 21.1884C82.0814 20.8178 82.5899 20.28 82.9251 19.6357C83.2976 18.9097 83.4831 18.1022 83.4647 17.2864C83.4808 16.4748 83.2954 15.6718 82.9251 14.9493C82.5925 14.2994 82.0837 13.7562 81.4568 13.3819C80.8179 13.0105 80.0899 12.8202 79.351 12.8313C78.7996 12.8067 78.2492 12.8998 77.7365 13.1045C77.2238 13.3091 76.7606 13.6206 76.3777 14.0182Z" fill="#04121E"/>
<path d="M94.8164 11.1061C95.7047 10.5813 96.7216 10.3144 97.7531 10.3352V13.371H96.9222C95.8657 13.3185 94.8237 13.6337 93.9734 14.263C93.5737 14.6359 93.2652 15.0959 93.0719 15.6073C92.8786 16.1187 92.8057 16.6677 92.8587 17.2118V24.0394H90.0689V10.5567H92.8587V13.1984C93.3025 12.3314 93.9808 11.6064 94.8164 11.1061Z" fill="#04121E"/>
<path d="M108.839 11.2914C109.687 11.8726 110.323 12.714 110.651 13.6884V5.93204H113.465V24.0412H110.651V20.9088C110.323 21.8835 109.687 22.7252 108.839 23.307C107.914 23.9279 106.819 24.2441 105.706 24.2113C104.601 24.2301 103.513 23.9421 102.562 23.3792C101.623 22.8064 100.871 21.9733 100.397 20.981C99.8504 19.8279 99.5818 18.5627 99.6127 17.287C99.583 16.0188 99.8517 14.7615 100.397 13.6162C100.871 12.6238 101.623 11.7903 102.562 11.2167C103.513 10.6544 104.601 10.3664 105.706 10.3847C106.819 10.3521 107.915 10.6692 108.839 11.2914ZM103.589 14.0187C102.808 14.922 102.409 16.0943 102.477 17.287C102.409 18.4792 102.808 19.6511 103.589 20.5539C103.972 20.9516 104.436 21.2632 104.949 21.4678C105.462 21.6725 106.012 21.7655 106.564 21.7408C107.302 21.7521 108.03 21.5613 108.667 21.189C109.292 20.8181 109.8 20.2803 110.136 19.6363C110.507 18.91 110.692 18.1026 110.673 17.287C110.69 16.4755 110.505 15.6726 110.136 14.9499C109.803 14.3002 109.294 13.7571 108.667 13.3825C108.029 13.0111 107.302 12.8208 106.564 12.8319C106.012 12.8072 105.462 12.9002 104.949 13.1049C104.436 13.3095 103.972 13.6211 103.589 14.0187Z" fill="#04121E"/>
<path d="M117.378 5.46707C117.732 5.14624 118.199 4.97901 118.676 5.00211C119.156 4.98079 119.625 5.14762 119.984 5.46707C120.148 5.61509 120.277 5.79672 120.364 5.99948C120.45 6.20223 120.492 6.42133 120.486 6.64172C120.494 6.85857 120.452 7.07437 120.366 7.27322C120.279 7.47207 120.148 7.6489 119.984 7.79067C119.619 8.09627 119.152 8.25387 118.676 8.23239C118.203 8.25564 117.739 8.09768 117.378 7.79067C117.217 7.64691 117.09 7.46942 117.005 7.27083C116.92 7.07224 116.881 6.85744 116.889 6.64172C116.882 6.42246 116.923 6.20439 117.007 6.00191C117.092 5.79943 117.218 5.61715 117.378 5.46707ZM120.07 24.0412H117.28V10.5572H120.07V24.0412Z" fill="#04121E"/>
<path d="M132.454 11.2908C133.304 11.8757 133.946 12.7149 134.289 13.6878V10.5567H137.078V24.0394H134.289V20.9083C133.946 21.8816 133.304 22.7211 132.454 23.3065C131.529 23.9273 130.433 24.2434 129.319 24.2107C128.215 24.2296 127.127 23.9416 126.177 23.3787C125.237 22.8064 124.484 21.9731 124.01 20.9804C123.464 19.8272 123.195 18.562 123.227 17.2864C123.197 16.0184 123.465 14.761 124.01 13.6157C124.484 12.6229 125.237 11.7893 126.177 11.2162C127.127 10.6538 128.215 10.3658 129.319 10.3841C130.433 10.3517 131.529 10.6687 132.454 11.2908ZM127.203 14.0182C126.421 14.921 126.021 16.0936 126.09 17.2864C126.021 18.4789 126.421 19.651 127.203 20.5534C127.586 20.9511 128.05 21.2626 128.563 21.4673C129.076 21.6719 129.626 21.765 130.178 21.7403C130.917 21.7513 131.644 21.5605 132.282 21.1885C132.907 20.8174 133.415 20.2797 133.751 19.6357C134.123 18.9097 134.309 18.1022 134.29 17.2864C134.306 16.4748 134.121 15.6718 133.751 14.9494C133.418 14.2997 132.909 13.7566 132.282 13.3819C131.644 13.0109 130.916 12.8206 130.178 12.8313C129.626 12.8066 129.076 12.8997 128.563 13.1043C128.05 13.309 127.586 13.6205 127.203 14.0182Z" fill="#04121E"/>
<path d="M152.202 11.8535C153.216 13.0601 153.725 14.6121 153.621 16.185V24.0405H150.831V16.4787C150.897 15.4594 150.563 14.4546 149.901 13.6766C149.572 13.3405 149.174 13.0783 148.735 12.9074C148.297 12.7366 147.827 12.6609 147.356 12.6855C146.862 12.6636 146.368 12.7472 145.908 12.9308C145.448 13.1143 145.033 13.3936 144.689 13.7501C143.964 14.6213 143.604 15.7396 143.686 16.8702V24.0405H140.896V10.5565H143.686V13.5176C144.009 12.5532 144.647 11.7256 145.498 11.1683C146.372 10.6058 147.395 10.3161 148.434 10.3362C149.134 10.3061 149.833 10.4259 150.483 10.6876C151.133 10.9493 151.719 11.3468 152.203 11.8535" fill="#04121E"/>
<path fill-rule="evenodd" clip-rule="evenodd" d="M26.1127 6.64532C26.1122 8.49299 25.9847 10.3384 25.7309 12.1686C25.3718 15.1682 24.367 18.0544 22.7858 20.6285C20.4263 24.0051 17.2519 26.7307 13.5574 28.5525C9.86803 26.7275 6.698 24.0023 4.34012 20.6285C2.75229 18.0559 1.74082 15.1697 1.37536 12.1686C1.13157 10.3375 1.0061 8.49258 0.999717 6.64532C0.986257 4.67289 1.06334 2.6919 1.19916 0.714577H25.9157C26.0527 2.68701 26.1396 4.67289 26.1164 6.64532M26.5801 0H0.534752C-0.676603 16.0902 2.2747 23.2923 13.5574 29.3662C24.8451 23.2923 27.7915 16.0902 26.5801 0Z" fill="#04121E"/>
<path d="M26.1127 6.64532C26.1122 8.49299 25.9847 10.3384 25.7309 12.1686C25.3718 15.1682 24.367 18.0544 22.7858 20.6285C20.4263 24.0051 17.2519 26.7307 13.5574 28.5525C9.86803 26.7275 6.698 24.0023 4.34012 20.6285C2.75229 18.0559 1.74082 15.1697 1.37536 12.1686C1.13157 10.3375 1.0061 8.49258 0.999717 6.64532C0.986257 4.67289 1.06334 2.6919 1.19916 0.714577H25.9157C26.0527 2.68701 26.1396 4.67289 26.1164 6.64532M26.5801 0H0.534752C-0.676603 16.0902 2.2747 23.2923 13.5574 29.3662C24.8451 23.2923 27.7915 16.0902 26.5801 0Z" fill="#04121E"/>
<path d="M26.1127 6.64532C26.1122 8.49299 25.9847 10.3384 25.7309 12.1686C25.3718 15.1682 24.367 18.0544 22.7858 20.6285C20.4263 24.0051 17.2519 26.7307 13.5574 28.5525C9.86803 26.7275 6.698 24.0023 4.34012 20.6285C2.75229 18.0559 1.74082 15.1697 1.37536 12.1686C1.13157 10.3375 1.0061 8.49258 0.999717 6.64532C0.986257 4.67289 1.06334 2.6919 1.19916 0.714577H25.9157C26.0527 2.68701 26.1396 4.67289 26.1164 6.64532M26.5801 0H0.534752C-0.676603 16.0902 2.2747 23.2923 13.5574 29.3662C24.8451 23.2923 27.7915 16.0902 26.5801 0Z" stroke="#04121E" stroke-width="0.5" stroke-linecap="round" stroke-linejoin="round"/>
<path fill-rule="evenodd" clip-rule="evenodd" d="M23.6799 13.0747C23.1685 16.1378 21.8308 19.0032 19.8109 21.3621C19.1622 21.9349 18.3134 22.2282 17.4494 22.1783C16.3569 22.1815 15.288 21.8604 14.3782 21.2557C15.6299 20.3298 16.7304 19.2153 17.6403 17.952C17.7068 17.8578 17.7398 17.7441 17.7341 17.629C17.7283 17.5138 17.6841 17.404 17.6085 17.3169L13.9255 13.0747H23.6799Z" fill="#04121E"/>
<path fill-rule="evenodd" clip-rule="evenodd" d="M17.5195 22.8644C17.8217 22.8644 18.1237 22.846 18.4237 22.8093C16.9438 24.1691 15.3107 25.3521 13.5575 26.3345C12.7707 25.883 12.0329 25.4155 11.355 24.9445C9.63758 23.0333 8.50309 20.6705 8.08557 18.1352C7.78939 16.7077 7.60732 15.2588 7.54108 13.8024C7.91703 15.2228 8.52966 16.5697 9.35321 17.7865C10.4129 19.2978 11.7399 20.6028 13.2687 21.6371C14.5369 22.4498 16.0145 22.875 17.5207 22.8607" fill="#04121E"/>
<path fill-rule="evenodd" clip-rule="evenodd" d="M8.9462 23.0228C7.40098 21.6392 6.11629 19.9898 5.15307 18.1529C3.88748 15.5801 3.16643 12.7738 3.03503 9.9096C3.1558 9.24154 3.51278 8.63918 4.04083 8.21248C4.69648 7.70286 5.50861 7.43647 6.33873 7.45875C6.47944 7.45875 6.62383 7.45875 6.77066 7.47833C6.62369 11.1266 6.86982 14.7801 7.50481 18.3756C7.79963 19.9769 8.28305 21.5377 8.94498 23.0253" fill="#04121E"/>
<path fill-rule="evenodd" clip-rule="evenodd" d="M24.1883 6.51324H7.30274C6.07712 6.47541 4.86794 6.80294 3.82897 7.45418C3.50637 7.66807 3.21095 7.92034 2.9492 8.20547C2.90393 6.6405 2.93819 4.86874 3.05443 2.69931H24.0647C24.143 4.07952 24.1871 5.33615 24.1871 6.51447" fill="#04121E"/>
</g>
<defs>
<clipPath id="clip0_1418_12026">
<rect width="153.622" height="30" fill="white"/>
</clipPath>
</defs>
</svg>
