<svg width="27" height="30" viewBox="0 0 27 30" fill="none" xmlns="http://www.w3.org/2000/svg">
<path d="M26.1127 6.64532C26.1122 8.49299 25.9847 10.3384 25.7309 12.1686C25.3718 15.1682 24.367 18.0544 22.7858 20.6285C20.4263 24.0051 17.2519 26.7307 13.5574 28.5525C9.86803 26.7275 6.698 24.0023 4.34012 20.6285C2.75229 18.0559 1.74082 15.1697 1.37536 12.1686C1.13157 10.3375 1.0061 8.49258 0.999717 6.64532C0.986257 4.67289 1.06334 2.6919 1.19916 0.714577H25.9157C26.0527 2.68701 26.1396 4.67289 26.1164 6.64532M26.5801 0H0.534752C-0.676603 16.0902 2.2747 23.2923 13.5574 29.3662C24.8451 23.2923 27.7915 16.0902 26.5801 0Z" fill="#04121E"/>
<path fill-rule="evenodd" clip-rule="evenodd" d="M23.6799 13.0747C23.1685 16.1378 21.8308 19.0032 19.8109 21.3621C19.1622 21.9349 18.3134 22.2282 17.4494 22.1783C16.3569 22.1815 15.288 21.8604 14.3782 21.2557C15.6299 20.3298 16.7304 19.2153 17.6403 17.952C17.7068 17.8578 17.7398 17.7441 17.7341 17.629C17.7283 17.5138 17.6841 17.404 17.6085 17.3169L13.9255 13.0747H23.6799Z" fill="#04121E"/>
<path fill-rule="evenodd" clip-rule="evenodd" d="M17.5195 22.8644C17.8217 22.8644 18.1237 22.846 18.4237 22.8093C16.9438 24.1691 15.3107 25.3521 13.5575 26.3345C12.7707 25.883 12.0329 25.4155 11.355 24.9445C9.63758 23.0333 8.50309 20.6705 8.08557 18.1352C7.78939 16.7077 7.60732 15.2588 7.54108 13.8024C7.91703 15.2228 8.52966 16.5697 9.35321 17.7865C10.4129 19.2978 11.7399 20.6028 13.2687 21.6371C14.5369 22.4498 16.0145 22.875 17.5207 22.8607" fill="#04121E"/>
<path fill-rule="evenodd" clip-rule="evenodd" d="M8.9462 23.0228C7.40098 21.6392 6.11629 19.9898 5.15307 18.1529C3.88748 15.5801 3.16643 12.7738 3.03503 9.9096C3.1558 9.24154 3.51278 8.63918 4.04083 8.21248C4.69648 7.70286 5.50861 7.43647 6.33873 7.45875C6.47944 7.45875 6.62383 7.45875 6.77066 7.47833C6.62369 11.1266 6.86982 14.7801 7.50481 18.3756C7.79963 19.9769 8.28305 21.5377 8.94498 23.0253" fill="#04121E"/>
<path fill-rule="evenodd" clip-rule="evenodd" d="M24.1883 6.51324H7.30274C6.07712 6.47541 4.86794 6.80294 3.82897 7.45418C3.50637 7.66807 3.21095 7.92034 2.9492 8.20547C2.90393 6.6405 2.93819 4.86874 3.05443 2.69931H24.0647C24.143 4.07952 24.1871 5.33615 24.1871 6.51447" fill="#04121E"/>
</svg>