<svg width="800" height="638" viewBox="0 0 800 638" fill="none" xmlns="http://www.w3.org/2000/svg">
<g clip-path="url(#clip0_1634_3131)">
<g opacity="0.05">
<path d="M132.314 17.0721L132.293 17.0572L132.273 17.0428C122.976 10.5354 111.806 7.23353 100.466 7.63531C90.8692 7.44465 81.3958 9.82535 73.029 14.5309L73.0208 14.5355L73.0126 14.5402C65.1164 19.0793 58.6925 25.794 54.5072 33.8833L54.5072 33.8833L54.5022 33.893C50.0621 42.5907 47.8324 52.2478 48.0098 62.0112C47.8324 71.7747 50.0621 81.4318 54.5022 90.1294L54.5082 90.1412C58.7178 98.2543 65.1641 104.991 73.0839 109.554L73.0904 109.558L73.097 109.562C81.4863 114.311 90.9976 116.719 100.636 116.533C109.241 116.689 117.752 114.708 125.404 110.766L125.41 110.763C132.418 107.121 138.427 101.817 142.912 95.316L142.915 95.3108C147.319 88.8834 150.201 81.5369 151.341 73.8294L151.363 73.6838V73.5367V57.6345V55.6345H149.363H97.5709H95.5709V57.6345V69.8894V71.8894H97.5709H133.071C131.87 78.9408 128.313 85.4034 122.948 90.1988C117.222 95.1601 109.857 97.8165 102.283 97.6518L102.24 97.6509L102.196 97.6518C96.1123 97.7832 90.0982 96.3352 84.7408 93.4492C79.7927 90.6708 75.7883 86.4762 73.2422 81.4045C70.3185 75.3872 68.8879 68.7538 69.0714 62.0661L69.0729 62.0148L69.0716 61.9635C68.9178 55.5199 70.323 49.1345 73.1675 43.3508C75.6668 38.3597 79.5492 34.1931 84.3516 31.348C89.2798 28.4817 94.8962 27.0132 100.597 27.1003L100.638 27.101L100.679 27.0999C106.695 26.9441 112.623 28.5626 117.725 31.7535C122.346 34.6847 125.926 38.9974 127.956 44.079L128.458 45.3371H129.813H147.32H149.835L149.269 42.8864C146.875 32.5357 140.862 23.3808 132.314 17.0721Z" stroke="#04121E" stroke-width="4"/>
<path d="M245.018 33.1248V31.1248H243.018H226.24H224.24V33.1248V75.7252V75.7954L224.245 75.8654C224.683 82.0894 222.72 88.2436 218.761 93.0643C216.929 94.9772 214.712 96.4794 212.255 97.4711C209.777 98.4714 207.113 98.9291 204.443 98.8132L204.347 98.809L204.25 98.8141C201.731 98.9481 199.212 98.5444 196.86 97.6297C194.532 96.7241 192.42 95.338 190.664 93.5622C187.069 89.2763 185.267 83.7673 185.636 78.1838L185.64 78.1181V78.0522V33.1248V31.1248H183.64H167.008H165.008V33.1248V79.7447C164.37 89.6153 167.569 99.3522 173.94 106.921L173.98 106.968L174.022 107.013C177.101 110.244 180.836 112.779 184.976 114.447C189.096 116.107 193.522 116.87 197.96 116.686C204.564 116.812 211.061 115.007 216.655 111.492L216.663 111.486L216.671 111.481C219.643 109.573 222.204 107.134 224.24 104.31V113.511V115.511H226.24H243.018H245.018V113.511V33.1248Z" stroke="#04121E" stroke-width="4"/>
<path d="M317.836 35.8559L317.827 35.8499L317.818 35.8441C311.974 31.9118 305.049 29.903 298.008 30.0976C291.067 29.9902 284.231 31.8033 278.255 35.3369L278.243 35.3444L278.23 35.3521C272.305 38.9747 267.557 44.2358 264.558 50.4995L264.556 50.5039C261.18 57.6006 259.514 65.3897 259.693 73.2461C259.507 81.1471 261.171 88.9823 264.554 96.1254L264.558 96.1326C267.555 102.396 272.305 107.656 278.231 111.274L278.243 111.281L278.254 111.288C284.229 114.825 291.067 116.639 298.009 116.527C305.046 116.723 311.97 114.721 317.816 110.797L317.826 110.79L317.836 110.783C320.896 108.676 323.534 106.052 325.644 103.049V113.506V115.506H327.644H344.275H346.275V113.506V33.1266V31.1266H344.275H327.644H325.644V33.1266V43.5872C323.534 40.5851 320.896 37.9618 317.836 35.8559ZM280.759 73.3617L280.766 73.2468L280.759 73.1318C280.38 66.5581 282.575 60.0958 286.878 55.1129C288.956 52.965 291.466 51.2815 294.243 50.1731C297.036 49.0584 300.034 48.5512 303.037 48.6853L303.097 48.688L303.157 48.6871C307.195 48.6263 311.173 49.6654 314.665 51.693C318.075 53.7319 320.844 56.6885 322.654 60.2254L322.654 60.2264C324.711 64.2392 325.741 68.6992 325.651 73.2074L325.651 73.2497L325.652 73.292C325.754 77.8209 324.724 82.3038 322.657 86.3348C320.832 89.8404 318.065 92.7671 314.667 94.7855C311.176 96.8191 307.197 97.8612 303.157 97.7995L303.097 97.7985L303.037 97.8012C300.034 97.9353 297.036 97.4281 294.243 96.3133C291.466 95.205 288.956 93.5214 286.877 91.3735C282.576 86.3928 280.382 79.9331 280.759 73.3617Z" stroke="#04121E" stroke-width="4"/>
<path d="M394.309 34.6802L394.309 34.6802L394.299 34.6862C390.989 36.6681 388.068 39.2052 385.655 42.1703V33.1269V31.1269H383.655H367.023H365.023V33.1269V113.506V115.506H367.023H383.655H385.655V113.506V72.8022V72.7049L385.646 72.6081C385.359 69.6699 385.753 66.7053 386.797 63.9439C387.828 61.2178 389.464 58.7621 391.582 56.762C396.263 53.3311 401.983 51.6143 407.781 51.902L407.831 51.9045H407.881H412.834H414.834V49.9045V31.8066V29.8466L412.874 29.807C406.353 29.6752 399.925 31.3627 394.309 34.6802Z" stroke="#04121E" stroke-width="4"/>
<path d="M442.998 73.2501L442.992 73.3648C442.615 79.9351 444.807 86.3939 449.103 91.3773C451.183 93.5255 453.694 95.2092 456.471 96.3175C459.265 97.4322 462.264 97.9392 465.269 97.8046L465.329 97.8019L465.39 97.8028C469.424 97.8645 473.398 96.8225 476.883 94.7895C480.28 92.7696 483.048 89.8432 484.875 86.3383C486.937 82.3067 487.961 77.8245 487.855 73.2973L487.854 73.2531L487.855 73.2088C487.948 68.7024 486.923 64.2432 484.872 60.2296L442.998 73.2501ZM442.998 73.2501L442.992 73.1354M442.998 73.2501L442.992 73.1354M442.992 73.1354C442.614 66.5628 444.806 60.1014 449.103 55.1158C451.183 52.9676 453.694 51.2839 456.471 50.1757C459.265 49.0609 462.264 48.554 465.269 48.6886L465.329 48.6913M442.992 73.1354L465.329 48.6913M465.329 48.6913L465.389 48.6904M465.329 48.6913L465.389 48.6904M465.389 48.6904C469.422 48.6297 473.395 49.6687 476.882 51.6958M465.389 48.6904L476.882 51.6958M476.882 51.6958C480.291 53.7361 483.059 56.6922 484.871 60.2278L476.882 51.6958ZM480.05 35.857L480.044 35.8525L480.037 35.8479C474.196 31.9135 467.272 29.9043 460.233 30.101C453.292 29.9944 446.456 31.8073 440.48 35.3401L440.468 35.3476L440.455 35.3553C434.53 38.9766 429.783 44.2389 426.79 50.5041L426.788 50.5066C423.409 57.6028 421.741 65.3922 421.918 73.2494C421.734 81.1512 423.401 88.9867 426.787 96.1293L426.789 96.1345C429.781 102.4 434.53 107.661 440.457 111.277L440.468 111.284L440.48 111.291C446.455 114.828 453.292 116.641 460.233 116.531C467.269 116.729 474.192 114.725 480.035 110.8L480.043 110.794L480.051 110.789C483.062 108.723 485.655 106.144 487.723 103.191V113.516V115.516H489.723H506.5H508.5V113.516V5.5564V3.5564H506.5H489.723H487.723V5.5564V43.4508C485.654 40.4989 483.062 37.9211 480.05 35.857Z" stroke="#04121E" stroke-width="4"/>
<path d="M528.486 1.30247L528.473 1.31405L528.46 1.32586C527.3 2.41399 526.384 3.7357 525.773 5.20379C525.169 6.65218 524.875 8.21054 524.91 9.77871C524.862 11.3368 525.154 12.887 525.765 14.3216C526.385 15.776 527.317 17.076 528.497 18.1289L528.514 18.1447L528.533 18.1602C531.047 20.2998 534.276 21.4104 537.572 21.2722C540.876 21.398 544.111 20.2937 546.649 18.1712L546.661 18.1612L546.673 18.151C547.879 17.1103 548.836 15.8122 549.473 14.3524C550.102 12.9119 550.404 11.3502 550.358 9.77958C550.392 8.19842 550.089 6.62785 549.468 5.17297C548.838 3.69889 547.897 2.37843 546.709 1.30226L546.703 1.29651L546.696 1.29081C544.191 -0.939617 540.922 -2.11409 537.572 -1.98923C534.23 -2.12661 530.966 -0.945214 528.486 1.30247ZM547.877 115.516V113.516V33.13V31.13H545.877H529.245H527.245V33.13V113.516V115.516H529.245H545.877H547.877Z" stroke="#04121E" stroke-width="4"/>
<path d="M620.838 35.856L620.829 35.85L620.821 35.8441C614.974 31.9108 608.046 29.902 601.003 30.0978C594.066 29.9912 587.235 31.8044 581.264 35.3373L581.253 35.3442L581.241 35.3512C575.31 38.9696 570.557 44.2324 567.56 50.5004L567.558 50.504C564.182 57.6007 562.516 65.3898 562.695 73.2462C562.509 81.1472 564.174 88.9825 567.557 96.1255L567.56 96.1318C570.555 102.4 575.309 107.661 581.243 111.275L581.253 111.281L581.263 111.288C587.233 114.824 594.066 116.638 601.003 116.528C608.043 116.725 614.97 114.722 620.818 110.797L620.829 110.79L620.839 110.784C623.898 108.676 626.536 106.052 628.646 103.049V113.506V115.506H630.646H647.27H649.27V113.506V33.1268V31.1268H647.27H630.646H628.646V33.1268V43.5873C626.536 40.5853 623.898 37.962 620.838 35.856ZM583.762 73.3619L583.768 73.2469L583.762 73.1319C583.383 66.5583 585.577 60.096 589.88 55.1131C591.96 52.9647 594.471 51.2809 597.249 50.1725C600.042 49.0577 603.042 48.5508 606.047 48.6854L606.106 48.6881L606.165 48.6872C610.201 48.6283 614.177 49.6673 617.667 51.693C621.076 53.7343 623.844 56.6908 625.657 60.2267C627.713 64.2395 628.743 68.6994 628.654 73.2075L628.653 73.2498L628.654 73.2921C628.756 77.8208 627.727 82.3034 625.66 86.3341C623.832 89.8387 621.065 92.7652 617.668 94.7858C614.18 96.8175 610.203 97.8595 606.166 97.7996L606.106 97.7987L606.047 97.8014C603.042 97.936 600.042 97.429 597.249 96.3143C594.471 95.2059 591.959 93.522 589.88 91.3736C585.578 86.3929 583.384 79.9332 583.762 73.3619Z" stroke="#04121E" stroke-width="4"/>
<mask id="path-8-outside-1_1634_3131" maskUnits="userSpaceOnUse" x="666.033" y="27.7856" width="84" height="90" fill="black">
<rect fill="white" x="666.033" y="27.7856" width="84" height="90"/>
<path d="M737.435 40.858C743.482 48.0513 746.514 57.3039 745.897 66.6809V113.512H729.265V68.4316C729.654 62.355 727.666 56.365 723.721 51.7269C721.755 49.723 719.386 48.1599 716.77 47.1412C714.154 46.1226 711.352 45.6716 708.548 45.8183C705.599 45.6878 702.656 46.1862 699.914 47.2804C697.173 48.3746 694.695 50.0395 692.646 52.1646C688.322 57.3585 686.179 64.0253 686.665 70.7658V113.512H670.033V33.1257H686.665V50.7787C688.59 45.0291 692.396 40.0955 697.468 36.773C702.682 33.4196 708.776 31.6929 714.975 31.8127C719.148 31.6333 723.311 32.3475 727.186 33.9074C731.061 35.4674 734.558 37.8371 737.442 40.858"/>
</mask>
<path d="M745.897 66.6809L741.905 66.4182L741.897 66.5494V66.6809H745.897ZM745.897 113.512V117.512H749.897V113.512H745.897ZM729.265 113.512H725.265V117.512H729.265V113.512ZM729.265 68.4316L725.273 68.1759L725.265 68.3036V68.4316H729.265ZM723.721 51.7269L726.768 49.1353L726.676 49.0271L726.577 48.9258L723.721 51.7269ZM708.548 45.8183L708.372 49.8144L708.565 49.823L708.757 49.8129L708.548 45.8183ZM692.646 52.1646L689.767 49.3883L689.665 49.4933L689.572 49.6055L692.646 52.1646ZM686.665 70.7658H690.665V70.6218L690.654 70.4782L686.665 70.7658ZM686.665 113.512V117.512H690.665V113.512H686.665ZM670.033 113.512H666.033V117.512H670.033V113.512ZM670.033 33.1257V29.1257H666.033V33.1257H670.033ZM686.665 33.1257H690.665V29.1257H686.665V33.1257ZM686.665 50.7787H682.665L690.458 52.049L686.665 50.7787ZM697.468 36.773L695.304 33.4087L695.29 33.4178L695.276 33.427L697.468 36.773ZM714.975 31.8127L714.898 35.812L715.022 35.8144L715.147 35.809L714.975 31.8127ZM734.373 43.4319C739.756 49.8351 742.455 58.0712 741.905 66.4182L749.888 66.9435C750.573 56.5365 747.208 46.2676 740.497 38.2841L734.373 43.4319ZM741.897 66.6809V113.512H749.897V66.6809H741.897ZM745.897 109.512H729.265V117.512H745.897V109.512ZM733.265 113.512V68.4316H725.265V113.512H733.265ZM733.257 68.6873C733.712 61.5749 731.386 54.5639 726.768 49.1353L720.674 54.3186C723.947 58.1661 725.596 63.1351 725.273 68.1759L733.257 68.6873ZM726.577 48.9258C724.214 46.5171 721.366 44.6383 718.222 43.4139L715.319 50.8686C717.406 51.6815 719.297 52.9289 720.866 54.5281L726.577 48.9258ZM718.222 43.4139C715.077 42.1895 711.709 41.6475 708.339 41.8238L708.757 49.8129C710.995 49.6958 713.231 50.0557 715.319 50.8686L718.222 43.4139ZM708.725 41.8222C705.209 41.6666 701.701 42.2608 698.432 43.5653L701.397 50.9955C703.612 50.1116 705.989 49.709 708.372 49.8144L708.725 41.8222ZM698.432 43.5653C695.163 44.8698 692.209 46.8547 689.767 49.3883L695.526 54.9409C697.181 53.2243 699.182 51.8793 701.397 50.9955L698.432 43.5653ZM689.572 49.6055C684.587 55.5943 682.115 63.2813 682.675 71.0535L690.654 70.4782C690.243 64.7693 692.058 59.1228 695.72 54.7238L689.572 49.6055ZM682.665 70.7658V113.512H690.665V70.7658H682.665ZM686.665 109.512H670.033V117.512H686.665V109.512ZM674.033 113.512V33.1257H666.033V113.512H674.033ZM670.033 37.1257H686.665V29.1257H670.033V37.1257ZM682.665 33.1257V50.7787H690.665V33.1257H682.665ZM690.458 52.049C692.098 47.1516 695.339 42.9492 699.66 40.1191L695.276 33.427C689.452 37.2419 685.083 42.9067 682.872 49.5083L690.458 52.049ZM699.632 40.1374C704.179 37.2132 709.493 35.7075 714.898 35.812L715.052 27.8135C708.06 27.6784 701.186 29.626 695.304 33.4087L699.632 40.1374ZM715.147 35.809C718.751 35.6541 722.346 36.2709 725.692 37.618L728.68 30.1969C724.277 28.4241 719.546 27.6125 714.803 27.8164L715.147 35.809ZM725.692 37.618C729.038 38.9652 732.058 41.0117 734.549 43.6205L740.335 38.0955C737.057 34.6626 733.083 31.9696 728.68 30.1969L725.692 37.618Z" fill="#04121E" mask="url(#path-8-outside-1_1634_3131)"/>
<path d="M135.151 18.6813C143.316 24.7069 149.059 33.4509 151.345 43.3371H133.838C131.652 37.8629 127.795 33.2174 122.816 30.0609C117.38 26.6597 111.063 24.9345 104.653 25.1006C98.5859 25.0078 92.6087 26.5715 87.3646 29.6232C82.2268 32.6652 78.0736 37.1222 75.4014 42.4617C72.4125 48.5362 70.936 55.2431 71.0976 62.0112C70.9051 69.0244 72.4064 75.9807 75.4744 82.2902C78.2017 87.7288 82.4955 92.2258 87.8022 95.2016C93.4678 98.2572 99.8293 99.7903 106.265 99.6513C114.34 99.827 122.193 96.9929 128.295 91.7002C134.593 86.0761 138.55 78.2922 139.382 69.8894H101.596V57.6345H153.388V73.5367C152.292 80.9437 149.523 88.0036 145.291 94.1804C140.992 100.413 135.232 105.497 128.513 108.988C121.144 112.784 112.948 114.689 104.66 114.532C95.3674 114.718 86.196 112.4 78.1077 107.821C70.5192 103.449 64.3424 96.9939 60.3089 89.2201C56.0127 80.8041 53.8579 71.4587 54.0355 62.0112C53.8579 52.5638 56.0127 43.2183 60.3089 34.8024C64.3179 27.0538 70.4711 20.622 78.0348 16.2741C86.1066 11.7345 95.248 9.44221 104.507 9.63604C115.431 9.23694 126.195 12.4127 135.151 18.6813Z" fill="#04121E"/>
<path d="M247.043 33.1248V113.511H230.265V96.0041C228.413 101.693 224.65 106.566 219.615 109.798C214.335 113.117 208.198 114.816 201.962 114.686C197.788 114.867 193.624 114.153 189.749 112.592C185.873 111.03 182.377 108.657 179.495 105.633C173.443 98.4427 170.41 89.1879 171.033 79.8102V33.1248H187.665V78.0522C187.261 84.1772 189.248 90.2203 193.209 94.91C195.174 96.9137 197.544 98.4762 200.16 99.4937C202.776 100.511 205.579 100.96 208.382 100.811C211.337 100.94 214.285 100.433 217.029 99.3257C219.772 98.2184 222.246 96.5361 224.284 94.3921C228.599 89.1677 230.74 82.4845 230.265 75.7252V33.1248H247.043Z" fill="#04121E"/>
<path d="M320.727 37.5034C325.793 40.9904 329.624 45.9933 331.669 51.7935V33.1266H348.301V113.506H331.669V94.8389C329.625 100.641 325.794 105.647 320.727 109.136C315.214 112.836 308.683 114.721 302.046 114.527C295.458 114.641 288.968 112.924 283.299 109.567C277.702 106.15 273.217 101.184 270.387 95.2693C267.131 88.3943 265.532 80.8517 265.719 73.2469C265.54 65.6873 267.139 58.1914 270.387 51.3631C273.219 45.4479 277.704 40.4795 283.299 37.0584C288.97 33.7051 295.459 31.9882 302.046 32.0981C308.685 31.9056 315.217 33.7957 320.727 37.5034ZM289.426 53.763C284.76 59.1449 282.378 66.1355 282.788 73.2469C282.379 80.3559 284.761 87.3438 289.426 92.7235C291.709 95.0938 294.47 96.9508 297.527 98.1708C300.583 99.3909 303.864 99.946 307.152 99.7992C311.558 99.8666 315.899 98.729 319.706 96.5094C323.429 94.2997 326.461 91.0935 328.46 87.2525C330.68 82.9243 331.786 78.1104 331.676 73.2469C331.772 68.4082 330.667 63.6212 328.46 59.3142C326.476 55.4397 323.443 52.2014 319.706 49.9699C315.897 47.7558 311.557 46.621 307.152 46.6873C303.864 46.5405 300.583 47.0956 297.527 48.3157C294.47 49.5357 291.709 51.3927 289.426 53.763Z" fill="#04121E"/>
<path d="M399.352 36.4022C404.647 33.2736 410.71 31.6823 416.859 31.8066V49.9045H411.906C405.607 49.5919 399.395 51.4711 394.326 55.2222C391.943 57.4457 390.104 60.188 388.952 63.2367C387.799 66.2853 387.364 69.5584 387.681 72.8022V113.506H371.049V33.1269H387.681V48.8759C390.326 43.707 394.37 39.385 399.352 36.4022Z" fill="#04121E"/>
<path d="M482.945 37.5067C488.001 40.972 491.793 45.9876 493.748 51.7968V5.5564H510.526V113.516H493.748V94.8422C491.793 100.653 488.001 105.671 482.945 109.14C477.435 112.841 470.906 114.726 464.271 114.53C457.683 114.643 451.194 112.926 445.524 109.57C439.928 106.155 435.445 101.188 432.62 95.2726C429.361 88.3982 427.759 80.8556 427.944 73.2502C427.767 65.6901 429.368 58.1941 432.62 51.3664C435.447 45.4503 439.929 40.4813 445.524 37.0617C451.195 33.7092 457.684 31.9923 464.271 32.1014C470.908 31.907 477.438 33.7973 482.945 37.5067ZM451.651 53.7664C446.99 59.1509 444.612 66.1403 445.02 73.2502C444.613 80.3578 446.991 87.3445 451.651 92.7268C453.935 95.0977 456.698 96.955 459.755 98.175C462.813 99.3951 466.096 99.9499 469.384 99.8026C473.786 99.8699 478.122 98.7322 481.924 96.5127C485.646 94.3015 488.677 91.0957 490.677 87.2559C492.893 82.9264 493.994 78.1125 493.88 73.2502C493.98 68.4128 492.879 63.6259 490.677 59.3176C488.693 55.4441 485.659 52.2063 481.924 49.9732C478.12 47.7593 473.785 46.6244 469.384 46.6906C466.096 46.5433 462.813 47.0981 459.755 48.3181C456.698 49.5382 453.935 51.3954 451.651 53.7664Z" fill="#04121E"/>
<path d="M533.854 2.78453C535.965 0.871829 538.748 -0.125108 541.594 0.0125809C544.455 -0.114503 547.253 0.880034 549.392 2.78453C550.366 3.66696 551.137 4.74973 551.654 5.9585C552.17 7.16727 552.418 8.47344 552.382 9.78734C552.428 11.0801 552.183 12.3666 551.666 13.5521C551.148 14.7376 550.371 15.7918 549.392 16.637C547.213 18.4588 544.431 19.3983 541.594 19.2703C538.773 19.4089 536.005 18.4672 533.854 16.637C532.894 15.7799 532.135 14.7217 531.631 13.5378C531.126 12.3539 530.889 11.0733 530.936 9.78734C530.9 8.48015 531.141 7.18012 531.644 5.97303C532.147 4.76593 532.9 3.67919 533.854 2.78453ZM549.902 113.516H533.271V33.13H549.902V113.516Z" fill="#04121E"/>
<path d="M623.729 37.5035C628.795 40.9905 632.626 45.9934 634.671 51.7936V33.1268H651.296V113.506H634.671V94.839C632.627 100.641 628.796 105.647 623.729 109.136C618.214 112.837 611.68 114.722 605.041 114.527C598.458 114.64 591.973 112.922 586.308 109.567C580.706 106.155 576.218 101.187 573.389 95.2694C570.133 88.3944 568.534 80.8518 568.721 73.247C568.542 65.6875 570.141 58.1916 573.389 51.3633C576.22 45.4447 580.707 40.4753 586.308 37.0586C591.974 33.7061 598.458 31.9891 605.041 32.0982C611.682 31.9047 618.217 33.7948 623.729 37.5035ZM592.428 53.7632C587.762 59.1451 585.38 66.1357 585.79 73.247C585.381 80.3561 587.763 87.3439 592.428 92.7236C594.712 95.0945 597.475 96.9518 600.532 98.1718C603.59 99.3919 606.873 99.9467 610.161 99.7994C614.565 99.8647 618.903 98.7272 622.708 96.5095C626.43 94.2977 629.461 91.0921 631.462 87.2527C633.682 82.9245 634.788 78.1105 634.678 73.247C634.774 68.4083 633.669 63.6214 631.462 59.3144C629.476 55.4414 626.443 52.2037 622.708 49.97C618.901 47.7579 614.564 46.6232 610.161 46.6874C606.873 46.5401 603.59 47.0949 600.532 48.3149C597.475 49.535 594.712 51.3923 592.428 53.7632Z" fill="#04121E"/>
<path d="M741.46 40.858C747.507 48.0513 750.539 57.3039 749.922 66.6809V113.512H733.29V68.4316C733.679 62.355 731.691 56.365 727.746 51.7269C725.78 49.723 723.411 48.1599 720.795 47.1412C718.179 46.1226 715.377 45.6716 712.573 45.8183C709.624 45.6878 706.681 46.1862 703.939 47.2804C701.198 48.3746 698.72 50.0395 696.671 52.1646C692.347 57.3585 690.204 64.0253 690.69 70.7658V113.512H674.058V33.1257H690.69V50.7787C692.615 45.0291 696.421 40.0955 701.493 36.773C706.707 33.4196 712.801 31.6929 719 31.8127C723.173 31.6333 727.336 32.3475 731.211 33.9074C735.086 35.4674 738.583 37.8371 741.467 40.858" fill="#04121E"/>
</g>
<path d="M299.358 259.108V378.199C299.358 380.904 296.438 382.588 294.094 381.24C271.902 368.481 225.549 351.731 185.156 341.564C171.335 338.083 158.206 335.374 146.981 333.853C144.197 333.474 142.125 331.092 142.125 328.285V202.405C142.125 200.304 143.833 198.728 145.929 198.91C157.214 199.865 170.465 202.153 185.156 205.765C215.761 213.288 252.611 226.553 290.917 245.512C296.082 248.071 299.353 253.344 299.353 259.108H299.358Z" fill="#005DAB"/>
<path d="M299.358 355.001V480.881C299.358 483.693 297.009 485.177 294.501 486.445C253.912 507.088 217.281 520.362 179.551 528.33C168.953 530.566 158.271 532.391 147.388 533.832C144.712 534.188 142.125 533.49 142.125 530.791V406.75C142.125 403.952 143.061 400.354 145.788 399.736C157.49 397.088 168.598 394.631 179.551 392.044C215.04 383.655 248.835 373.862 295.474 351.502C297.355 350.599 299.358 352.91 299.358 354.992V355.001Z" fill="#367BB6"/>
<path d="M658.497 406.759V530.8C658.497 533.5 655.914 534.192 653.233 533.841C622.507 529.757 593.372 522.701 563.296 511.645C544.787 504.842 525.926 496.523 506.121 486.449C503.613 485.177 501.264 483.693 501.264 480.886V355.006C501.264 352.919 503.267 350.608 505.148 351.516C526.656 361.823 545.423 369.464 562.894 375.523C595.005 386.663 622.699 392.474 654.834 399.75C657.561 400.368 658.497 403.966 658.497 406.764V406.759Z" fill="#005DAB"/>
<path d="M185.156 205.765V341.564C171.335 338.083 158.206 335.374 146.981 333.853C144.197 333.474 142.125 331.092 142.125 328.285V202.405C142.125 200.304 143.833 198.728 145.929 198.91C157.214 199.865 170.465 202.153 185.156 205.765Z" fill="#04121E"/>
<path d="M299.358 259.108V271.746C224.739 233.482 177.169 223.572 142.125 220.99V202.405C142.125 200.304 143.833 198.728 145.929 198.91C180.716 201.862 234.219 217.452 290.917 245.512C296.082 248.071 299.353 253.344 299.353 259.108H299.358Z" fill="#000910"/>
<path opacity="0.5" d="M563.296 398.608V511.64C544.787 504.837 525.926 496.518 506.121 486.445C503.613 485.172 501.264 483.689 501.264 480.881V355.001C501.264 352.915 503.267 350.603 505.148 351.511C526.656 361.819 545.423 369.459 562.894 375.518L563.301 398.613L563.296 398.608Z" fill="#04121E"/>
<path d="M299.358 355.001V370.778C299.358 370.778 297.355 371.925 295.474 372.828C248.831 395.188 215.04 404.981 179.551 413.37C168.602 415.957 157.556 418.732 145.788 421.062C143.421 421.53 142.125 421.68 142.125 421.68V406.759C142.125 403.961 143.061 400.363 145.788 399.745C157.49 397.097 168.598 394.641 179.551 392.053C215.04 383.664 248.835 373.871 295.474 351.511C297.355 350.608 299.358 352.919 299.358 355.001Z" fill="#04121E"/>
<path d="M658.497 406.759V421.521C592.146 416.018 515.811 379.804 501.264 371.555V355.006C501.264 352.919 503.267 350.608 505.148 351.516C566.179 380.773 605.214 388.516 654.834 399.745C657.561 400.363 658.497 403.961 658.497 406.759Z" fill="#000910"/>
<path d="M538.775 380.759C538.967 381.367 539.252 381.905 539.617 382.363C540.506 383.491 541.83 384.123 543.14 383.978C543.351 383.954 543.566 383.912 543.776 383.847C545.807 383.21 546.864 380.801 546.135 378.466C545.405 376.127 543.168 374.746 541.138 375.378C539.107 376.014 538.049 378.424 538.779 380.759H538.775Z" fill="#EF4858"/>
<path d="M527.045 375.743C527.237 376.351 527.522 376.889 527.887 377.348C528.776 378.475 530.1 379.107 531.41 378.962C531.621 378.938 531.836 378.896 532.046 378.831C534.077 378.194 535.134 375.785 534.405 373.45C533.675 371.111 531.438 369.73 529.408 370.362C527.377 370.998 526.319 373.408 527.049 375.743H527.045Z" fill="#F9C430"/>
<path d="M515.437 370.189C515.628 370.797 515.914 371.335 516.279 371.794C517.168 372.921 518.492 373.553 519.802 373.408C520.012 373.385 520.228 373.343 520.438 373.277C522.469 372.641 523.526 370.231 522.796 367.896C522.066 365.557 519.83 364.177 517.799 364.808C515.769 365.445 514.711 367.854 515.441 370.189H515.437Z" fill="#1BA534"/>
<path d="M177.876 217.668C178.203 218.215 178.61 218.674 179.069 219.034C180.196 219.923 181.628 220.227 182.873 219.778C183.074 219.708 183.271 219.614 183.458 219.502C185.282 218.412 185.746 215.82 184.492 213.719C183.238 211.613 180.739 210.794 178.91 211.885C177.085 212.975 176.622 215.567 177.876 217.668Z" fill="#EF4858"/>
<path d="M165.299 215.525C165.627 216.072 166.034 216.531 166.492 216.891C167.62 217.78 169.052 218.084 170.296 217.635C170.497 217.565 170.694 217.471 170.881 217.359C172.706 216.269 173.169 213.676 171.915 211.576C170.661 209.47 168.163 208.651 166.333 209.742C164.508 210.832 164.045 213.424 165.299 215.525Z" fill="#F9C430"/>
<path d="M152.718 212.839C153.045 213.387 153.452 213.845 153.911 214.205C155.038 215.094 156.47 215.398 157.715 214.949C157.916 214.879 158.112 214.785 158.299 214.673C160.124 213.583 160.587 210.991 159.333 208.89C158.08 206.785 155.581 205.966 153.752 207.056C151.927 208.146 151.464 210.738 152.718 212.839Z" fill="#1BA534"/>
<path d="M654.689 198.905C619.901 201.858 566.399 217.448 509.7 245.507C504.53 248.066 501.26 253.339 501.26 259.104V378.194C501.26 380.894 504.179 382.583 506.519 381.236C536.309 364.102 609.622 339.8 653.636 333.844C656.42 333.469 658.492 331.088 658.492 328.276V202.396C658.492 200.295 656.785 198.718 654.689 198.896V198.905Z" fill="#367BB6"/>
<path d="M658.497 202.4V219.881C658.497 219.881 656.79 220.044 654.693 220.222C619.906 223.175 566.403 238.764 509.705 266.824C504.535 269.383 501.269 270.188 501.269 270.188V259.103C501.269 253.339 504.54 248.066 509.705 245.507C566.403 217.448 619.906 201.853 654.693 198.905C656.785 198.728 658.497 200.3 658.497 202.4Z" fill="#04121E"/>
<path opacity="0.5" d="M179.551 392.053V528.334C168.953 530.571 158.271 532.396 147.388 533.837C144.712 534.192 142.125 533.495 142.125 530.795V406.754C142.125 403.956 143.061 400.358 145.788 399.741C157.49 397.092 168.598 394.636 179.551 392.049V392.053Z" fill="#04121E"/>
<path d="M236.984 428.193L235.664 429.512C234.336 428.857 232.941 428.352 231.5 428.001L231.608 426.246C231.734 424.136 230.129 422.527 228.019 422.658L222.573 422.99C220.463 423.116 218.643 424.936 218.516 427.046L218.409 428.801C216.916 429.33 215.447 430.008 214.029 430.832L212.864 429.667C211.461 428.263 209.042 428.413 207.456 429.994L203.371 434.079C201.785 435.665 201.64 438.084 203.043 439.487L204.209 440.652C203.385 442.07 202.707 443.535 202.178 445.032L200.423 445.14C198.313 445.266 196.493 447.086 196.367 449.196L196.035 454.642C195.908 456.752 197.513 458.362 199.623 458.231L201.378 458.123C201.729 459.564 202.234 460.959 202.889 462.288L201.57 463.607C199.984 465.193 199.838 467.612 201.242 469.016L204.859 472.632C206.263 474.036 208.681 473.886 210.268 472.305L211.587 470.985C212.916 471.641 214.31 472.146 215.751 472.497L215.644 474.251C215.517 476.362 217.122 477.971 219.232 477.84L224.679 477.508C226.789 477.381 228.609 475.561 228.735 473.451L228.843 471.697C230.335 471.168 231.804 470.49 233.222 469.666L234.387 470.831C235.791 472.235 238.21 472.085 239.796 470.504L243.881 466.419C245.467 464.833 245.612 462.414 244.208 461.01L243.043 459.845C243.866 458.427 244.545 456.963 245.074 455.466L246.828 455.358C248.938 455.232 250.754 453.412 250.885 451.302L251.217 445.855C251.343 443.745 249.738 442.136 247.628 442.267L245.874 442.374C245.523 440.933 245.017 439.539 244.362 438.21L245.682 436.891C247.268 435.305 247.413 432.886 246.009 431.482L242.393 427.865C240.989 426.462 238.57 426.611 236.984 428.193ZM231.875 458.498C226.728 463.644 218.858 464.126 214.301 459.569C209.744 455.012 210.221 447.147 215.372 441.995C220.524 436.844 228.389 436.367 232.946 440.924C237.503 445.481 237.026 453.346 231.875 458.498Z" fill="white"/>
<path d="M274.934 450.623L274.125 451.433C273.31 451.03 272.459 450.721 271.575 450.506L271.64 449.43C271.72 448.139 270.732 447.152 269.441 447.231L266.105 447.432C264.814 447.512 263.7 448.625 263.621 449.917L263.555 450.993C262.638 451.316 261.74 451.732 260.874 452.237L260.158 451.522C259.297 450.661 257.814 450.754 256.846 451.723L254.342 454.226C253.374 455.194 253.28 456.678 254.141 457.539L254.857 458.254C254.352 459.125 253.935 460.023 253.612 460.935L252.536 461.001C251.245 461.08 250.131 462.194 250.052 463.485L249.851 466.821C249.771 468.113 250.758 469.1 252.05 469.02L253.126 468.955C253.341 469.839 253.65 470.691 254.052 471.505L253.248 472.31C252.279 473.278 252.185 474.761 253.046 475.622L255.264 477.84C256.125 478.701 257.608 478.607 258.577 477.639L259.386 476.829C260.2 477.232 261.052 477.541 261.936 477.756L261.871 478.832C261.791 480.123 262.778 481.111 264.07 481.031L267.406 480.83C268.697 480.75 269.811 479.637 269.89 478.345L269.956 477.269C270.873 476.946 271.771 476.53 272.637 476.025L273.353 476.741C274.213 477.602 275.697 477.508 276.665 476.539L279.168 474.036C280.137 473.068 280.23 471.584 279.37 470.724L278.654 470.008C279.159 469.137 279.575 468.239 279.898 467.327L280.974 467.261C282.266 467.182 283.379 466.068 283.459 464.777L283.66 461.441C283.74 460.149 282.752 459.162 281.461 459.242L280.385 459.307C280.17 458.423 279.861 457.571 279.458 456.757L280.268 455.948C281.236 454.979 281.33 453.496 280.469 452.635L278.251 450.417C277.39 449.556 275.907 449.65 274.939 450.619L274.934 450.623ZM271.809 469.189C268.655 472.342 263.836 472.637 261.042 469.844C258.249 467.051 258.544 462.231 261.698 459.078C264.851 455.924 269.67 455.63 272.464 458.423C275.257 461.216 274.962 466.035 271.809 469.189Z" fill="white"/>
<path d="M268.763 422.04L268.248 422.555C267.729 422.297 267.186 422.101 266.624 421.965L266.667 421.282C266.718 420.459 266.091 419.832 265.268 419.883L263.143 420.014C262.32 420.066 261.609 420.772 261.562 421.596L261.52 422.279C260.935 422.485 260.364 422.751 259.812 423.069L259.358 422.616C258.811 422.068 257.866 422.124 257.248 422.742L255.653 424.337C255.035 424.955 254.979 425.9 255.526 426.448L255.98 426.901C255.657 427.453 255.395 428.024 255.189 428.609L254.506 428.651C253.683 428.703 252.972 429.409 252.925 430.233L252.794 432.357C252.742 433.18 253.369 433.807 254.193 433.756L254.876 433.714C255.012 434.275 255.208 434.818 255.465 435.337L254.951 435.852C254.333 436.47 254.277 437.415 254.824 437.962L256.237 439.375C256.785 439.923 257.73 439.866 258.348 439.249L258.862 438.734C259.382 438.992 259.924 439.188 260.486 439.324L260.444 440.007C260.392 440.83 261.019 441.457 261.843 441.406L263.967 441.275C264.79 441.223 265.502 440.517 265.548 439.693L265.59 439.01C266.175 438.804 266.746 438.538 267.298 438.22L267.752 438.673C268.299 439.221 269.245 439.165 269.862 438.547L271.458 436.952C272.075 436.334 272.131 435.389 271.584 434.841L271.13 434.388C271.453 433.835 271.715 433.26 271.921 432.68L272.604 432.638C273.427 432.586 274.139 431.88 274.185 431.056L274.316 428.932C274.368 428.109 273.741 427.482 272.917 427.533L272.234 427.575C272.099 427.014 271.902 426.471 271.645 425.952L272.16 425.437C272.777 424.819 272.833 423.874 272.286 423.327L270.873 421.914C270.325 421.366 269.38 421.422 268.763 422.04ZM266.774 433.864C264.767 435.871 261.698 436.058 259.92 434.28C258.142 432.502 258.329 429.433 260.336 427.425C262.343 425.418 265.413 425.231 267.191 427.009C268.969 428.787 268.781 431.856 266.774 433.864Z" fill="white"/>
<path d="M171.803 445.71C170.937 447.208 169.847 448.475 168.607 449.477C165.571 451.947 161.682 452.827 158.29 451.657C157.738 451.47 157.205 451.227 156.681 450.927C151.665 448.026 150.303 441.003 153.635 435.23C156.971 429.451 163.736 427.121 168.752 430.013C173.768 432.914 175.129 439.937 171.798 445.71H171.803Z" fill="#04121E"/>
<path d="M159.404 409.763C159.086 410.315 158.683 410.778 158.229 411.148C157.116 412.055 155.684 412.378 154.439 411.948C154.238 411.878 154.042 411.789 153.85 411.681C152.006 410.614 151.506 408.036 152.732 405.912C153.957 403.788 156.442 402.932 158.285 403.998C160.129 405.065 160.63 407.643 159.404 409.768V409.763Z" fill="#EF4858"/>
<path d="M171.943 407.442C171.625 407.994 171.222 408.457 170.769 408.827C169.655 409.735 168.223 410.057 166.979 409.627C166.778 409.557 166.581 409.468 166.389 409.36C164.546 408.294 164.045 405.716 165.271 403.591C166.497 401.467 168.981 400.611 170.825 401.678C172.668 402.744 173.169 405.322 171.943 407.447V407.442Z" fill="#F9C430"/>
<path d="M184.487 404.569C184.169 405.121 183.766 405.585 183.313 405.954C182.199 406.862 180.767 407.185 179.523 406.754C179.321 406.684 179.125 406.595 178.933 406.488C177.09 405.421 176.589 402.843 177.815 400.719C179.041 398.594 181.525 397.738 183.369 398.805C185.212 399.872 185.713 402.45 184.487 404.574V404.569Z" fill="#1BA534"/>
<path d="M517.897 255.81C517.724 256.418 517.444 256.97 517.093 257.438C516.232 258.589 514.922 259.248 513.607 259.132C513.396 259.113 513.181 259.075 512.971 259.015C510.926 258.43 509.812 256.043 510.486 253.69C511.16 251.332 513.364 249.9 515.413 250.485C517.458 251.07 518.571 253.456 517.897 255.81Z" fill="#EF4858"/>
<path d="M529.506 250.518C529.333 251.126 529.052 251.678 528.701 252.146C527.84 253.297 526.53 253.957 525.215 253.84C525.005 253.821 524.789 253.784 524.579 253.723C522.534 253.138 521.421 250.752 522.094 248.398C522.768 246.04 524.972 244.608 527.021 245.193C529.066 245.778 530.179 248.164 529.506 250.518Z" fill="#F9C430"/>
<path d="M540.978 244.693C540.805 245.301 540.524 245.853 540.174 246.321C539.313 247.472 538.003 248.132 536.688 248.015C536.477 247.996 536.262 247.958 536.051 247.898C534.007 247.313 532.893 244.927 533.567 242.573C534.241 240.215 536.445 238.783 538.494 239.368C540.539 239.953 541.652 242.339 540.978 244.693Z" fill="#1BA534"/>
<path d="M154.079 463.186L171.358 459.382" stroke="white" stroke-width="1.82" stroke-linecap="round" stroke-linejoin="round"/>
<path d="M154.079 467.448L171.358 463.644" stroke="white" stroke-width="1.82" stroke-linecap="round" stroke-linejoin="round"/>
<path d="M154.079 471.711L171.358 467.907" stroke="white" stroke-width="1.82" stroke-linecap="round" stroke-linejoin="round"/>
<path d="M154.079 475.973L171.358 472.174" stroke="white" stroke-width="1.82" stroke-linecap="round" stroke-linejoin="round"/>
<path d="M154.196 487.02L165.393 484.559" stroke="white" stroke-width="1.18" stroke-linecap="round" stroke-linejoin="round"/>
<path d="M154.196 489.785L165.393 487.319" stroke="white" stroke-width="1.18" stroke-linecap="round" stroke-linejoin="round"/>
<path d="M154.196 492.546L165.393 490.08" stroke="white" stroke-width="1.18" stroke-linecap="round" stroke-linejoin="round"/>
<path d="M154.196 495.306L165.393 492.845" stroke="white" stroke-width="1.18" stroke-linecap="round" stroke-linejoin="round"/>
<path d="M154.196 497.893L165.393 495.428" stroke="white" stroke-width="1.18" stroke-linecap="round" stroke-linejoin="round"/>
<path d="M154.196 500.654L165.393 498.193" stroke="white" stroke-width="1.18" stroke-linecap="round" stroke-linejoin="round"/>
<path d="M154.196 503.419L165.393 500.953" stroke="white" stroke-width="1.18" stroke-linecap="round" stroke-linejoin="round"/>
<path d="M154.196 506.18L165.393 503.719" stroke="white" stroke-width="1.18" stroke-linecap="round" stroke-linejoin="round"/>
<path d="M154.196 508.767L165.393 506.302" stroke="white" stroke-width="1.18" stroke-linecap="round" stroke-linejoin="round"/>
<path d="M154.196 511.528L165.393 509.067" stroke="white" stroke-width="1.18" stroke-linecap="round" stroke-linejoin="round"/>
<path d="M154.196 514.293L165.393 511.827" stroke="white" stroke-width="1.18" stroke-linecap="round" stroke-linejoin="round"/>
<path d="M154.196 517.053L165.393 514.588" stroke="white" stroke-width="1.18" stroke-linecap="round" stroke-linejoin="round"/>
<path d="M167.096 436.975C167.961 438.472 167.054 440.615 165.07 441.761C163.086 442.908 160.779 442.622 159.914 441.125C159.048 439.628 159.956 437.485 161.94 436.339C163.924 435.192 166.23 435.478 167.096 436.975Z" fill="white"/>
<path d="M168.607 449.477C165.57 451.947 161.682 452.827 158.29 451.657V451.629C158.29 447.839 159.287 444.517 160.779 442.674C162.042 443.216 163.764 443.081 165.313 442.182C165.411 442.126 165.505 442.065 165.598 442.009C167.119 443.352 168.265 446.117 168.607 449.481V449.477Z" fill="white"/>
<path d="M520.387 420.655C521.519 422.615 522.951 424.272 524.57 425.587C528.547 428.82 533.637 429.975 538.087 428.441C538.807 428.193 539.509 427.875 540.192 427.486C546.761 423.687 548.549 414.484 544.179 406.923C539.813 399.357 530.947 396.302 524.373 400.091C517.804 403.891 516.017 413.094 520.387 420.655Z" fill="#367BB6"/>
<path d="M526.549 409.215C525.416 411.176 526.605 413.983 529.202 415.48C531.798 416.977 534.821 416.608 535.958 414.643C537.09 412.682 535.902 409.875 533.305 408.373C530.708 406.871 527.686 407.245 526.549 409.211V409.215Z" fill="#005DAB"/>
<path d="M524.57 425.587C528.547 428.82 533.637 429.975 538.087 428.441V428.403C538.087 423.439 536.782 419.088 534.826 416.673C533.174 417.385 530.914 417.202 528.888 416.032C528.762 415.958 528.636 415.883 528.514 415.803C526.521 417.562 525.024 421.189 524.57 425.587Z" fill="#005DAB"/>
<path d="M642.72 434.331L587.182 419.265C585.067 418.69 583.345 420.066 583.341 422.335L583.317 430.453C583.313 432.722 585.021 435.024 587.135 435.599L637.208 449.182C638.083 455.695 643.618 455.994 643.618 455.994C640.044 454.151 641.031 450.216 641.031 450.216L642.669 450.661C644.784 451.236 646.505 449.86 646.51 447.591L646.533 439.473C646.538 437.204 644.83 434.902 642.715 434.327L642.72 434.331Z" fill="#367BB6"/>
<path d="M590.158 424.627L639.726 438.074" stroke="#005DAB" stroke-width="1.94" stroke-linecap="round" stroke-linejoin="round"/>
<path d="M590.144 428.385L639.712 441.832" stroke="#005DAB" stroke-width="1.94" stroke-linecap="round" stroke-linejoin="round"/>
<path d="M590.135 432.142L639.702 445.584" stroke="#005DAB" stroke-width="1.94" stroke-linecap="round" stroke-linejoin="round"/>
<path d="M642.72 467.191L587.182 452.125C585.067 451.55 583.345 452.925 583.341 455.194L583.317 463.312C583.313 465.581 585.021 467.883 587.135 468.459L637.208 482.042C638.083 488.555 643.618 488.854 643.618 488.854C640.044 487.011 641.031 483.076 641.031 483.076L642.669 483.52C644.784 484.096 646.505 482.72 646.51 480.451L646.533 472.333C646.538 470.064 644.83 467.762 642.715 467.186L642.72 467.191Z" fill="#367BB6"/>
<path d="M590.158 457.487L639.726 470.929" stroke="#005DAB" stroke-width="1.94" stroke-linecap="round" stroke-linejoin="round"/>
<path d="M590.144 461.24L639.712 474.687" stroke="#005DAB" stroke-width="1.94" stroke-linecap="round" stroke-linejoin="round"/>
<path d="M590.135 464.997L639.702 478.444" stroke="#005DAB" stroke-width="1.94" stroke-linecap="round" stroke-linejoin="round"/>
<path d="M642.72 500.046L587.182 484.98C585.067 484.405 583.345 485.78 583.341 488.049L583.317 496.167C583.313 498.436 585.021 500.738 587.135 501.314L637.208 514.897C638.083 521.41 643.618 521.709 643.618 521.709C640.044 519.866 641.031 515.931 641.031 515.931L642.669 516.375C644.784 516.951 646.505 515.575 646.51 513.306L646.533 505.188C646.538 502.919 644.83 500.617 642.715 500.041L642.72 500.046Z" fill="#367BB6"/>
<path d="M590.158 490.342L639.726 503.784" stroke="#005DAB" stroke-width="1.94" stroke-linecap="round" stroke-linejoin="round"/>
<path d="M590.144 494.099L639.712 507.541" stroke="#005DAB" stroke-width="1.94" stroke-linecap="round" stroke-linejoin="round"/>
<path d="M590.135 497.852L639.702 511.299" stroke="#005DAB" stroke-width="1.94" stroke-linecap="round" stroke-linejoin="round"/>
<path opacity="0.25" d="M551.08 442.421L512.685 427.187C511.226 426.607 509.887 427.449 509.696 429.063L509.26 432.731C509.073 434.35 510.103 436.128 511.567 436.708L548.825 451.489L549.957 451.938C551.417 452.518 552.755 451.676 552.947 450.062L553.382 446.394C553.569 444.775 552.54 442.997 551.075 442.417L551.08 442.421Z" fill="#367BB6"/>
<g opacity="0.25">
<path d="M501.264 439.31L563.315 464.472" stroke="#367BB6" stroke-width="0.68" stroke-linecap="round" stroke-linejoin="round"/>
<path d="M501.246 464.374L563.297 489.542" stroke="#367BB6" stroke-width="0.68" stroke-linecap="round" stroke-linejoin="round"/>
<path d="M519.643 446.824V493.121" stroke="#367BB6" stroke-width="0.68" stroke-linecap="round" stroke-linejoin="round"/>
<path d="M541.938 455.802V503.185" stroke="#367BB6" stroke-width="0.68" stroke-linecap="round" stroke-linejoin="round"/>
</g>
<path d="M147.945 232.907C159.156 234.151 174.535 236.762 174.535 236.762" stroke="white" stroke-width="1.82" stroke-linecap="round" stroke-linejoin="round"/>
<path d="M147.945 237.16C159.156 238.404 174.535 241.015 174.535 241.015" stroke="white" stroke-width="1.82" stroke-linecap="round" stroke-linejoin="round"/>
<path d="M147.945 241.417C159.156 242.662 174.535 245.273 174.535 245.273" stroke="white" stroke-width="1.82" stroke-linecap="round" stroke-linejoin="round"/>
<path d="M147.945 245.671C159.156 246.915 174.535 249.526 174.535 249.526" stroke="white" stroke-width="1.82" stroke-linecap="round" stroke-linejoin="round"/>
<path d="M147.945 250.41C153.546 250.991 161.238 252.23 161.238 252.23" stroke="white" stroke-width="0.91" stroke-linecap="round" stroke-linejoin="round"/>
<path d="M147.945 253.597C153.546 254.177 161.238 255.417 161.238 255.417" stroke="white" stroke-width="0.91" stroke-linecap="round" stroke-linejoin="round"/>
<path d="M147.945 256.783C153.546 257.363 161.238 258.603 161.238 258.603" stroke="white" stroke-width="0.91" stroke-linecap="round" stroke-linejoin="round"/>
<path d="M147.945 259.974C153.546 260.554 161.238 261.794 161.238 261.794" stroke="white" stroke-width="0.91" stroke-linecap="round" stroke-linejoin="round"/>
<path d="M147.945 263.16C153.546 263.74 161.238 264.98 161.238 264.98" stroke="white" stroke-width="0.91" stroke-linecap="round" stroke-linejoin="round"/>
<path d="M147.945 266.346C153.546 266.927 161.238 268.167 161.238 268.167" stroke="white" stroke-width="0.91" stroke-linecap="round" stroke-linejoin="round"/>
<path d="M147.945 269.533C153.546 270.113 161.238 271.353 161.238 271.353" stroke="white" stroke-width="0.91" stroke-linecap="round" stroke-linejoin="round"/>
<path d="M147.945 277.15C159.156 278.394 174.535 281.005 174.535 281.005" stroke="white" stroke-width="1.82" stroke-linecap="round" stroke-linejoin="round"/>
<path d="M147.945 281.403C159.156 282.648 174.535 285.258 174.535 285.258" stroke="white" stroke-width="1.82" stroke-linecap="round" stroke-linejoin="round"/>
<path d="M147.945 285.661C159.156 286.905 174.535 289.516 174.535 289.516" stroke="white" stroke-width="1.82" stroke-linecap="round" stroke-linejoin="round"/>
<path d="M147.945 289.914C159.156 291.158 174.535 293.769 174.535 293.769" stroke="white" stroke-width="1.82" stroke-linecap="round" stroke-linejoin="round"/>
<path d="M147.945 294.654C153.546 295.234 161.238 296.474 161.238 296.474" stroke="white" stroke-width="0.91" stroke-linecap="round" stroke-linejoin="round"/>
<path d="M147.945 297.84C153.546 298.42 161.238 299.66 161.238 299.66" stroke="white" stroke-width="0.91" stroke-linecap="round" stroke-linejoin="round"/>
<path d="M147.945 301.026C153.546 301.606 161.238 302.846 161.238 302.846" stroke="white" stroke-width="0.91" stroke-linecap="round" stroke-linejoin="round"/>
<path d="M147.945 304.217C153.546 304.797 161.238 306.037 161.238 306.037" stroke="white" stroke-width="0.91" stroke-linecap="round" stroke-linejoin="round"/>
<path d="M147.945 307.404C153.546 307.984 161.238 309.224 161.238 309.224" stroke="white" stroke-width="0.91" stroke-linecap="round" stroke-linejoin="round"/>
<path d="M147.945 310.59C153.546 311.17 161.238 312.41 161.238 312.41" stroke="white" stroke-width="0.91" stroke-linecap="round" stroke-linejoin="round"/>
<path d="M147.945 313.776C153.546 314.356 161.238 315.596 161.238 315.596" stroke="white" stroke-width="0.91" stroke-linecap="round" stroke-linejoin="round"/>
<path opacity="0.5" d="M220.416 276.644L193.831 266.496C193.208 266.257 192.797 265.659 192.797 264.994V241.609C192.797 240.482 193.924 239.705 194.977 240.107L221.562 250.256C222.185 250.494 222.596 251.093 222.596 251.758V275.143C222.596 276.27 221.469 277.047 220.416 276.644Z" fill="#000910"/>
<path opacity="0.5" d="M254.249 289.483L227.663 279.335C227.041 279.096 226.629 278.497 226.629 277.833V254.448C226.629 253.32 227.757 252.544 228.81 252.946L255.395 263.095C256.017 263.333 256.429 263.932 256.429 264.596V287.981C256.429 289.109 255.301 289.886 254.249 289.483Z" fill="#000910"/>
<path opacity="0.5" d="M288.082 302.598L261.496 292.45C260.874 292.211 260.462 291.612 260.462 290.948V267.563C260.462 266.435 261.59 265.659 262.643 266.061L289.228 276.209C289.85 276.448 290.262 277.047 290.262 277.711V301.096C290.262 302.224 289.134 303 288.082 302.598Z" fill="#000910"/>
<path d="M637.349 238.807C620.613 239.565 594.664 246.021 566.946 258.402C564.42 259.529 562.749 261.995 562.642 264.76L563.095 321.856C563.044 323.152 564.41 324.013 565.561 323.414C580.169 315.764 614.867 304.231 636.086 302.21C637.428 302.084 638.467 300.979 638.519 299.632L639.108 240.557C639.15 239.551 638.359 238.76 637.349 238.807Z" fill="#04121E"/>
<path d="M634.532 248.997C618.919 249.704 594.715 255.725 568.86 267.273C566.502 268.325 564.948 270.627 564.845 273.206L565.809 317.374C565.762 318.581 567.035 319.386 568.106 318.829C581.736 311.694 614.039 300.848 633.83 298.963C635.084 298.846 636.053 297.816 636.1 296.558L636.17 250.625C636.207 249.685 635.468 248.95 634.532 248.992V248.997Z" fill="white"/>
<path d="M579.523 273.613L571.129 276.687V273.463L579.242 270.487L579.523 273.613Z" fill="#005DAB"/>
<path d="M594.018 272.494L571.129 280.888V277.66L593.737 269.369L594.018 272.494Z" fill="#005DAB"/>
<path d="M580.524 285.431L571.129 288.875V285.647L580.244 282.306L580.524 285.431Z" fill="#005DAB"/>
<path d="M575.359 291.519L571.129 293.067V289.844L575.078 288.393L575.359 291.519Z" fill="#005DAB"/>
<path d="M593.087 285.183L577.614 290.859L577.333 287.733L592.806 282.062L593.087 285.183Z" fill="#8E73FF"/>
<path d="M619.892 279.597L581.006 293.853L580.726 290.728L619.612 276.471L619.892 279.597Z" fill="#005DAB"/>
<path d="M609.393 287.682L581.371 297.952L581.09 294.831L609.112 284.556L609.393 287.682Z" fill="#04121E"/>
<path d="M608.34 292.305L581.741 302.055L581.46 298.93L608.059 289.184L608.34 292.305Z" fill="#7582F0"/>
<path d="M584.338 305.34L579.088 307.267L578.807 304.142L584.057 302.219L584.338 305.34Z" fill="#04121E"/>
<path d="M576.379 312.12L571.129 314.047V310.814L576.093 308.994L576.379 312.12Z" fill="#005DAB"/>
<path d="M599.394 278.638L582.223 284.931L581.942 281.805L599.113 275.512L599.394 278.638Z" fill="#04121E"/>
<path d="M618.451 263.576L595.221 272.097L594.94 268.971L618.17 260.456L618.451 263.576Z" fill="#04121E"/>
<path d="M588.422 270.351L580.623 273.21L580.342 270.085L588.141 267.226L588.422 270.351Z" fill="#04121E"/>
<path d="M593.784 268.382L589.512 269.949L589.232 266.828L593.503 265.261L593.784 268.382Z" fill="#005DAB"/>
<path d="M598.323 266.721L594.495 268.124L594.215 264.999L598.042 263.595L598.323 266.721Z" fill="#7582F0"/>
<path d="M612.116 261.663L599.474 266.3L599.193 263.174L611.835 258.542L612.116 261.663Z" fill="#8E73FF"/>
<path d="M571.265 261.134C571.354 261.883 570.881 262.711 570.203 262.978C569.529 263.249 568.907 262.861 568.818 262.112C568.729 261.364 569.201 260.535 569.88 260.264C570.553 259.993 571.176 260.381 571.265 261.13V261.134Z" fill="white"/>
<path d="M575.864 259.286C575.953 260.035 575.48 260.863 574.802 261.13C574.128 261.401 573.506 261.013 573.417 260.264C573.328 259.515 573.801 258.687 574.479 258.421C575.153 258.149 575.775 258.537 575.864 259.286Z" fill="white"/>
<path d="M580.468 257.443C580.557 258.191 580.084 259.019 579.406 259.286C578.732 259.557 578.11 259.169 578.021 258.42C577.932 257.672 578.405 256.844 579.083 256.577C579.757 256.306 580.379 256.694 580.468 257.443Z" fill="white"/>
<path d="M574.886 292.983C560.775 296.226 544.759 302.027 525.332 311.642C523.559 312.517 522.441 314.328 522.441 316.303V357.111C522.441 358.038 523.442 358.613 524.242 358.155C534.452 352.283 563.62 341.662 574.526 339.224C575.466 339.014 576.192 338.279 576.192 337.315V294.181C576.192 293.46 575.588 292.819 574.886 292.983Z" fill="#005DAB"/>
<path d="M573.164 300.334C559.53 303.567 545.072 308.952 526.947 317.921C525.295 318.74 524.247 320.425 524.247 322.268V353.841C524.247 354.707 525.178 355.245 525.927 354.814C535.448 349.335 559.862 340.123 572.823 336.974C573.693 336.763 574.376 336.094 574.376 335.196V301.452C574.376 300.778 573.815 300.179 573.16 300.334H573.164Z" fill="white"/>
<path d="M528.491 313.472C528.575 314.005 528.261 314.604 527.784 314.819C527.312 315.03 526.858 314.772 526.769 314.244C526.68 313.715 526.998 313.111 527.475 312.896C527.948 312.686 528.402 312.943 528.491 313.472Z" fill="white"/>
<path d="M531.724 312.021C531.808 312.555 531.495 313.154 531.017 313.369C530.545 313.579 530.091 313.322 530.002 312.793C529.918 312.26 530.231 311.661 530.708 311.446C531.181 311.235 531.635 311.493 531.724 312.021Z" fill="white"/>
<path d="M534.957 310.575C535.041 311.109 534.728 311.708 534.25 311.923C533.773 312.138 533.324 311.876 533.235 311.348C533.151 310.814 533.464 310.215 533.942 310C534.414 309.789 534.868 310.047 534.957 310.575Z" fill="white"/>
<path d="M544.38 334.04L535.139 332.749V330.044L544.38 323.803V326.404L536.052 331.883V330.428L544.38 331.443V334.045V334.04Z" fill="#005DAB"/>
<path d="M544.927 338.139L551.333 316.827L554.033 316.101L547.627 337.413L544.927 338.139Z" fill="#005DAB"/>
<path d="M554.379 331.364V328.762L562.707 323.283V324.739L554.379 323.723V321.122L563.62 322.413V325.118L554.379 331.359V331.364Z" fill="#005DAB"/>
<path d="M123.47 205.226C123.47 201.722 120.527 198.933 117.027 199.13C91.6492 200.58 -0.000244141 210.733 -0.000244141 281.796V367.513H25.303C25.303 367.513 57.1192 335.504 117.537 333.507C120.841 333.399 123.475 330.709 123.475 327.405V205.226H123.47Z" fill="#005DAB"/>
<path d="M123.47 205.231V220.157C123.47 220.157 120.522 220.255 117.023 220.456C91.6492 221.902 -0.000244141 232.055 -0.000244141 303.117V281.801C-0.000244141 210.733 91.6492 200.58 117.023 199.13C120.522 198.929 123.47 201.722 123.47 205.226V205.231Z" fill="#367BB6"/>
<path d="M123.47 226.548V327.41C123.47 330.714 120.836 333.404 117.533 333.511C57.1192 335.509 25.303 367.517 25.303 367.517H-0.000244141V303.118C-0.000244141 232.055 91.6492 221.902 117.023 220.452C120.522 220.25 123.47 223.044 123.47 226.548Z" fill="#005DAB"/>
<path d="M111.151 237.398C75.0065 238.189 36.2048 251.547 14.7382 282.1C7.64505 292.132 2.82115 303.66 -0.00488281 315.596C1.36602 309.612 3.21885 303.726 5.60974 298.064C21.56 259.445 62.1631 240.196 101.905 236.617C104.979 236.341 108.044 236.135 111.165 236.121C111.969 236.14 112.063 237.375 111.146 237.398H111.151Z" fill="#367BB6"/>
<path d="M111.151 250.902C75.0065 251.692 36.2048 265.05 14.7382 295.603C7.64505 305.635 2.82115 317.164 -0.00488281 329.099C1.36602 323.115 3.21885 317.229 5.60974 311.568C21.56 272.948 62.1631 253.7 101.905 250.12C104.979 249.844 108.044 249.638 111.165 249.624C111.969 249.643 112.063 250.878 111.146 250.902H111.151Z" fill="#367BB6"/>
<path d="M111.151 264.405C75.0065 265.196 36.2048 278.554 14.7382 309.107C7.64505 319.138 2.82115 330.667 -0.00488281 342.602C1.36602 336.618 3.21885 330.732 5.60974 325.071C21.56 286.452 62.1631 267.203 101.905 263.623C104.979 263.347 108.044 263.141 111.165 263.127C111.969 263.146 112.063 264.381 111.146 264.405H111.151Z" fill="#367BB6"/>
<path d="M111.151 277.908C75.0065 278.699 36.2048 292.057 14.7382 322.61C7.64505 332.641 2.82115 344.17 -0.00488281 356.106C1.36602 350.121 3.21885 344.235 5.60974 338.574C21.56 299.955 62.1631 280.706 101.905 277.127C104.979 276.851 108.044 276.645 111.165 276.631C111.969 276.649 112.063 277.885 111.146 277.908H111.151Z" fill="#367BB6"/>
<path d="M111.151 291.406C75.0065 292.197 36.2048 305.555 14.7382 336.108C7.64505 346.14 2.82115 357.668 -0.00488281 369.604C1.36602 363.62 3.21885 357.734 5.60974 352.073C21.56 313.453 62.1631 294.204 101.905 290.625C104.979 290.349 108.044 290.143 111.165 290.129C111.969 290.148 112.063 291.383 111.146 291.406H111.151Z" fill="#367BB6"/>
<path d="M111.151 304.91C75.0065 305.7 36.2048 319.059 14.7382 349.611C7.64505 359.643 2.82115 371.172 -0.00488281 383.107C1.36602 377.123 3.21885 371.237 5.60974 365.576C21.56 326.956 62.1631 307.708 101.905 304.128C104.979 303.852 108.044 303.646 111.165 303.632C111.969 303.651 112.063 304.886 111.146 304.91H111.151Z" fill="#367BB6"/>
<path d="M111.151 318.413C75.0065 319.204 36.2048 332.562 14.7382 363.115C7.64505 373.146 2.82115 384.675 -0.00488281 396.611C1.36602 390.626 3.21885 384.74 5.60974 379.079C21.56 340.46 62.1631 321.211 101.905 317.631C104.979 317.355 108.044 317.15 111.165 317.135C111.969 317.154 112.063 318.389 111.146 318.413H111.151Z" fill="#367BB6"/>
<path d="M105.718 266.735C105.718 266.735 107.403 282.844 101.657 285.955C95.9163 289.062 92.758 283.602 92.758 283.602L90.7976 272.452L98.3727 267.567L105.718 266.739V266.735Z" fill="#FEBBAA"/>
<path d="M97.7082 293.442C95.4951 290.457 94.7325 286.433 94.7325 286.433L89.6185 284.149C89.6185 284.149 85.6789 285.628 82.5487 285.628C79.4186 285.628 86.493 296.773 86.493 296.773L97.7082 293.446V293.442Z" fill="#FEBBAA"/>
<path d="M90.9285 425.287C90.9285 425.287 96.1127 423.556 96.5946 427.439C97.0812 431.323 93.5627 432.174 89.6793 432.9C85.7958 433.629 82.2773 429.503 82.2773 429.503V436.058H80.5789L80.2607 420.805C80.2607 420.805 84.9817 425.577 88.4534 426.12C92.9311 426.822 90.9332 425.282 90.9332 425.282L90.9285 425.287Z" fill="#3C3C3B"/>
<path d="M104.708 390.476C104.853 396.807 102.041 414.535 101.695 421.881C101.362 428.941 106.476 432.006 106.476 432.006C106.476 432.006 108.151 433.119 107.113 433.335C105.812 433.611 101.681 432.988 101.026 432.74C99.8465 432.301 95.8039 431.543 95.8039 427.524C95.8039 420.126 95.5326 418.138 93.9043 409.866C91.7614 398.997 94.5453 389.442 94.5453 389.442L104.708 390.472V390.476Z" fill="#FEBBAA"/>
<path d="M91.7473 388.558C90.2735 396.657 85.5946 414.418 87.803 422.812C88.0089 423.598 90.5869 424.978 90.9285 425.282C93.8575 427.893 89.1225 429.245 85.3139 427.233C82.296 425.643 80.2607 420.805 80.2607 420.805C80.2607 420.805 83.0306 417.324 81.4024 411.133C79.1284 402.501 78.9226 397.387 80.2607 391.351C81.9732 383.622 83.943 383.842 83.943 383.842L91.7473 388.553V388.558Z" fill="#FEBBAA"/>
<path d="M78.7309 358.754C75.1749 348.245 78.7308 335.477 79.8631 328.524C80.9954 321.571 74.5292 317.369 74.0426 302.172C73.556 286.976 79.414 285.619 79.414 285.619L86.4884 309.284L84.2238 349.214L78.7262 358.749L78.7309 358.754Z" fill="#FEBBAA"/>
<path d="M109.424 347.225C111.062 361.341 112.517 378.157 107.669 391.894C107.669 391.894 90.6665 395.291 77.9119 382.518C77.9119 382.518 73.4015 358.431 78.5716 344.207C83.7465 329.983 83.8073 330.737 83.8073 330.737L106.654 337.067L109.424 347.23V347.225Z" fill="url(#paint0_linear_1634_3131)"/>
<path d="M78.0852 287.303C76.9529 291.182 81.599 302.617 83.26 317.533C83.5828 320.443 83.5828 328.365 82.4505 330.788C82.4505 330.788 87.9482 338.546 96.1923 338.71C104.436 338.873 108.638 337.9 108.638 337.9L104.596 296.333C104.596 296.333 101.849 294.092 98.7751 293.442C95.7057 292.796 91.1953 298.528 84.7104 289.886C83.2553 287.944 83.7419 285.198 81.1545 285.198C78.5671 285.198 78.0852 287.298 78.0852 287.298V287.303Z" fill="#FF931D"/>
<path d="M106.753 297.105C111.431 298.958 114.538 317.547 113.2 334.251C112.643 341.227 118.782 352.671 122.132 355.741C125.482 358.81 128.771 364.256 125.767 362.343C124.069 361.262 123.302 360.644 123.302 360.644C123.302 360.644 129.01 368.818 125.459 371.129C121.912 373.441 117.729 370.849 116.166 357.402C115.895 355.09 108.137 348.61 105.386 337.507C102.635 326.404 98.1621 302.804 100.937 298.949C103.711 295.093 105.101 296.441 106.748 297.096L106.753 297.105Z" fill="#FEBBAA"/>
<path d="M106.472 432.001C106.472 432.001 111.656 430.27 112.138 434.158C112.624 438.042 109.106 438.893 105.222 439.618C101.339 440.348 97.8205 436.221 97.8205 436.221V442.776H96.1221L95.804 427.523C95.804 427.523 100.525 432.296 103.997 432.839C108.474 433.54 106.476 432.001 106.476 432.001H106.472Z" fill="#3C3C3B"/>
<path d="M105.718 266.735C101.957 271.105 101.695 275.55 101.695 275.55C101.695 275.55 100.282 271.849 97.1234 272.719C93.9651 273.589 98.8639 284.079 100.932 285.202C103 286.32 102.022 291.654 102.022 291.654C102.022 291.654 88.0932 289.806 82.2165 283.274C76.3399 276.747 81.9966 260.783 89.7261 258.467C95.7992 256.642 97.4696 257.18 102.41 259.118C105.054 260.152 107.524 264.634 105.718 266.739V266.735Z" fill="#3A3430"/>
<path d="M119.212 400.812C100.576 398.332 25.9908 385.423 -0.000244141 335.313V447.25C-0.000244141 489.752 52.8194 531.768 118.394 533.846C121.168 533.935 123.47 531.708 123.47 528.933V405.683C123.47 403.222 121.65 401.14 119.212 400.812Z" fill="#367BB6"/>
<path d="M123.47 427V528.928C123.47 531.703 121.168 533.93 118.394 533.841C52.8194 531.769 -0.000244141 489.752 -0.000244141 447.25V356.63C25.9861 406.736 100.572 419.649 119.212 422.129C121.65 422.452 123.47 424.534 123.47 427Z" fill="#367BB6"/>
<path d="M676.53 204.81C676.53 200.913 679.814 197.829 683.702 198.068C710.054 199.668 800 210.289 800 280.692V366.408H774.697C774.697 366.408 743.077 334.602 683.024 332.421C679.398 332.29 676.525 329.3 676.525 325.674V204.81H676.53Z" fill="#367BB6"/>
<path d="M676.53 204.164V219.09C676.53 219.09 679.477 219.188 682.977 219.389C708.35 220.84 800 230.993 800 302.055V280.738C800 209.676 708.35 199.523 682.977 198.072C679.477 197.871 676.53 200.665 676.53 204.169V204.164Z" fill="#0D3D66"/>
<path d="M688.826 236.121C731.52 237.244 777.167 256.521 794.385 298.064C796.776 303.73 798.624 309.612 800 315.596C798.577 309.621 796.673 303.758 794.24 298.125C778.042 259.843 737.551 241.024 697.987 237.81C694.941 237.562 691.862 237.384 688.83 237.398C688.479 237.398 688.189 237.113 688.189 236.762C688.189 236.406 688.475 236.116 688.83 236.121H688.826Z" fill="#0D3D66"/>
<path d="M688.826 249.624C731.52 250.747 777.167 270.024 794.385 311.567C796.776 317.234 798.624 323.115 800 329.099C798.577 323.124 796.673 317.262 794.24 311.628C778.042 273.346 737.551 254.528 697.987 251.313C694.941 251.065 691.862 250.887 688.83 250.901C688.479 250.901 688.189 250.616 688.189 250.265C688.189 249.91 688.475 249.619 688.83 249.624H688.826Z" fill="#0D3D66"/>
<path d="M688.826 263.123C731.52 264.246 777.167 283.522 794.385 325.066C796.776 330.732 798.624 336.613 800 342.598C798.577 336.623 796.673 330.76 794.24 325.127C778.042 286.844 737.551 268.026 697.987 264.812C694.941 264.564 691.862 264.386 688.83 264.4C688.479 264.4 688.189 264.115 688.189 263.764C688.189 263.408 688.475 263.118 688.83 263.123H688.826Z" fill="#0D3D66"/>
<path d="M688.826 276.626C731.52 277.749 777.167 297.026 794.385 338.569C796.776 344.235 798.624 350.117 800 356.101C798.577 350.126 796.673 344.263 794.24 338.63C778.042 300.348 737.551 281.529 697.987 278.315C694.941 278.067 691.862 277.889 688.83 277.903C688.479 277.903 688.189 277.618 688.189 277.267C688.189 276.911 688.475 276.621 688.83 276.626H688.826Z" fill="#0D3D66"/>
<path d="M688.826 290.129C731.52 291.252 777.167 310.529 794.385 352.072C796.776 357.738 798.624 363.62 800 369.604C798.577 363.629 796.673 357.767 794.24 352.133C778.042 313.851 737.551 295.032 697.987 291.818C694.941 291.57 691.862 291.392 688.83 291.406C688.479 291.406 688.189 291.121 688.189 290.77C688.189 290.414 688.475 290.124 688.83 290.129H688.826Z" fill="#0D3D66"/>
<path d="M688.826 303.632C731.52 304.755 777.167 324.032 794.385 365.576C796.776 371.242 798.624 377.123 800 383.107C798.577 377.132 796.673 371.27 794.24 365.636C778.042 327.354 737.551 308.536 697.987 305.321C694.941 305.073 691.862 304.895 688.83 304.909C688.479 304.909 688.189 304.624 688.189 304.273C688.189 303.918 688.475 303.627 688.83 303.632H688.826Z" fill="#0D3D66"/>
<path d="M688.826 317.131C731.52 318.254 777.167 337.53 794.385 379.074C796.776 384.74 798.624 390.621 800 396.606C798.577 390.631 796.673 384.768 794.24 379.135C778.042 340.852 737.551 322.034 697.987 318.82C694.941 318.572 691.862 318.394 688.83 318.408C688.479 318.408 688.189 318.123 688.189 317.772C688.189 317.416 688.475 317.126 688.83 317.131H688.826Z" fill="#0D3D66"/>
<path d="M732.545 279.199L733.144 285.469H722.513V280.303L728.835 275.639L732.545 279.199Z" fill="#F6AC89"/>
<path d="M730.374 274.473C729.564 276.897 726.71 279.48 722.406 280.126C718.097 280.771 716 275.119 716.646 271.778C717.292 268.438 717.025 262.678 717.025 262.678C717.025 262.678 723.81 262.407 724.081 266.07C724.352 269.734 724.942 269.785 725.644 270.323C725.644 270.323 726.505 266.122 728.226 266.931C729.948 267.741 729.359 269.785 729.143 271.778C728.928 273.772 730.383 274.469 730.383 274.469L730.374 274.473Z" fill="#FEBBAA"/>
<path d="M674.939 299.767C673.376 297.573 671.851 295.491 668.538 294.672C665.225 293.853 665.006 293.704 665.75 294.672C666.493 295.641 669.137 297.166 669.245 297.536C669.357 297.91 667.275 299.061 665.399 298.504C663.522 297.947 658.792 294.56 658.123 294.56C657.454 294.56 657.716 295.711 658.717 297.166C659.723 298.616 661.468 301.892 664.299 303.043C667.125 304.194 672.857 305.696 672.857 305.696L674.939 299.767Z" fill="#FEBBAA"/>
<path d="M743.989 291.346C743.989 291.346 750.189 294.869 753.244 308.185C756.304 321.501 758.105 325.553 755.855 328.701C753.604 331.85 741.996 337.788 741.996 337.788L743.989 291.341V291.346Z" fill="#FFD16C"/>
<path d="M740.953 442.735C740.953 443.184 740.953 443.581 740.953 443.876C740.953 444.279 740.756 444.648 740.419 444.873C739.689 445.359 738.211 446.089 735.937 446.089C733.663 446.089 732.213 445.42 731.469 444.966C731.118 444.751 730.903 444.372 730.903 443.96V442.248C730.903 441.57 731.478 441.027 732.156 441.069L739.839 441.551C740.461 441.588 740.948 442.108 740.943 442.73L740.953 442.735Z" fill="#B7A39A"/>
<path d="M740.625 439.759C740.981 442.042 741.79 444.073 738.445 444.48C735.095 444.887 731.137 444.583 730.935 442.552C730.734 440.522 732.044 438.037 732.044 438.037L740.625 439.764V439.759Z" fill="#685647"/>
<path d="M722.869 439.59C723.056 441.63 723.43 445.785 720.296 446.992C717.161 448.199 712.571 445.626 708.977 444.686C705.384 443.745 702.623 442.73 702.46 441.546C702.301 440.367 702.914 437.873 705.464 438.14C708.014 438.407 711.19 438.889 712.711 438.383C714.232 437.873 722.869 439.59 722.869 439.59Z" fill="#124A9D"/>
<path d="M744.073 345.4C744.073 345.4 746.062 351.455 745.402 367.157C744.743 382.854 743.147 409.744 742.866 417.642C742.586 425.54 741.926 440.339 741.926 440.339C741.926 440.339 738.917 440.863 735.062 440.769C731.207 440.676 729.705 439.829 729.705 439.829L725.756 395.268L723.781 352.774L728.764 342.715L744.073 345.4Z" fill="#122ECC"/>
<path d="M702.46 441.551C702.624 442.73 705.384 443.75 708.977 444.686C712.571 445.626 717.156 448.199 720.296 446.992C722.771 446.038 723.061 443.254 722.977 441.12C722.897 443.015 722.35 445.074 720.296 445.865C717.156 447.072 712.571 444.498 708.977 443.558C705.52 442.655 702.829 441.677 702.493 440.554C702.427 440.924 702.422 441.27 702.46 441.546V441.551Z" fill="#B7A39A"/>
<path d="M702.492 440.554C702.834 441.677 705.52 442.655 708.977 443.558C712.571 444.499 717.156 447.072 720.295 445.865C722.35 445.074 722.897 443.015 722.976 441.12C722.953 440.545 722.906 440.021 722.869 439.59C722.869 439.59 714.236 437.873 712.711 438.383C711.19 438.893 708.009 438.411 705.459 438.14C703.508 437.934 702.689 439.347 702.488 440.554H702.492Z" fill="#685647"/>
<path d="M732.04 346.13C732.18 358.585 727.001 391.192 725.742 399.17C725.742 399.17 727.141 426.737 724.203 439.473C724.203 439.473 721.802 440.9 717.769 440.082C713.736 439.258 711.869 438.29 711.869 438.29C711.869 438.29 710.152 403.633 709.773 399.497C709.399 395.361 708.973 346.219 708.973 346.219L732.035 346.135L732.04 346.13Z" fill="#3849E5"/>
<path d="M733.944 287.317C733.944 287.317 742.207 290.12 743.994 291.346C743.994 291.346 745.603 307.824 744.864 323.227C744.42 332.529 744.438 345.208 744.438 345.208C744.438 345.208 737.219 350.519 723.201 348.713C709.183 346.907 707.803 346.06 707.803 346.06L710.456 290.134C710.456 290.134 715.963 287.63 721.877 287.411C727.796 287.191 733.939 287.322 733.939 287.322L733.944 287.317Z" fill="#FFBA0D"/>
<path d="M733.944 284.538V287.312C733.944 287.312 731.183 287.996 727.833 287.996C724.483 287.996 721.886 287.406 721.886 287.406V284.538H733.949H733.944Z" fill="#FFD16C"/>
<path d="M710.456 290.129C714.11 287.275 723.22 299.529 713.156 309.878C713.156 309.878 705.361 316.808 701.852 320.415C698.342 324.023 695.732 323.737 693.752 323.106C685.663 320.532 670.279 306.744 670.279 306.744C671.986 299.543 675.856 299.201 675.856 299.201L693.041 308.274C694.3 305.485 710.451 290.129 710.451 290.129" fill="#FFD16C"/>
<path d="M715.182 266.833C715.182 266.833 712.903 266.856 713.034 265.092C713.17 263.329 716.885 262.196 716.988 259.894C717.095 257.592 723.328 257.335 725.63 257.817C727.932 258.299 735.109 259.478 736.054 267.558C736.999 275.639 736.653 276.832 733.144 278.376C729.536 279.962 727.524 277.421 726.795 277.272C720.848 276.046 721.465 276.34 718.003 273.552C714.906 271.063 715.182 266.838 715.182 266.838V266.833Z" fill="#3A3430"/>
<path d="M681.087 399.666C700.205 397.088 774.144 384.052 800 334.204V446.141C800 488.569 747.367 530.51 681.957 532.723C678.991 532.821 676.53 530.44 676.53 527.469V404.869C676.53 402.234 678.476 400.012 681.087 399.661V399.666Z" fill="#0D3D66"/>
<path d="M123.47 405.683V422.737C123.47 422.737 121.65 422.456 119.212 422.134C100.576 419.649 25.9908 406.74 -0.000244141 356.634V335.317C25.9861 385.423 100.572 398.337 119.212 400.817C121.65 401.14 123.47 403.222 123.47 405.687V405.683Z" fill="#005DAB"/>
<path d="M111.169 518.359C68.4748 517.236 22.8279 497.959 5.60974 456.415C3.21885 450.749 1.3707 444.868 -0.00488281 438.884C1.41749 444.859 3.32178 450.721 5.75479 456.355C21.953 494.637 62.4438 513.455 102.008 516.67C105.054 516.918 108.133 517.096 111.165 517.082C111.516 517.082 111.806 517.367 111.806 517.718C111.806 518.073 111.52 518.364 111.165 518.359H111.169Z" fill="#005DAB"/>
<path d="M111.169 504.856C68.4748 503.733 22.8279 484.456 5.60974 442.912C3.21885 437.246 1.3707 431.365 -0.00488281 425.381C1.41749 431.356 3.32178 437.218 5.75479 442.851C21.953 481.134 62.4438 499.952 102.008 503.167C105.054 503.415 108.133 503.592 111.165 503.578C111.516 503.578 111.806 503.864 111.806 504.215C111.806 504.57 111.52 504.86 111.165 504.856H111.169Z" fill="#005DAB"/>
<path d="M111.169 491.357C68.4748 490.234 22.8279 470.957 5.60974 429.414C3.21885 423.748 1.3707 417.866 -0.00488281 411.882C1.41749 417.857 3.32178 423.72 5.75479 429.353C21.953 467.635 62.4438 486.454 102.008 489.668C105.054 489.916 108.133 490.094 111.165 490.08C111.516 490.08 111.806 490.365 111.806 490.716C111.806 491.072 111.52 491.362 111.165 491.357H111.169Z" fill="#005DAB"/>
<path d="M111.169 477.854C68.4748 476.731 22.8279 457.454 5.60974 415.911C3.21885 410.244 1.3707 404.363 -0.00488281 398.379C1.41749 404.354 3.32178 410.216 5.75479 415.85C21.953 454.132 62.4438 472.951 102.008 476.165C105.054 476.413 108.133 476.591 111.165 476.577C111.516 476.577 111.806 476.862 111.806 477.213C111.806 477.569 111.52 477.859 111.165 477.854H111.169Z" fill="#005DAB"/>
<path d="M111.169 464.351C68.4748 463.228 22.8279 443.951 5.60974 402.407C3.21885 396.741 1.3707 390.86 -0.00488281 384.876C1.41749 390.851 3.32178 396.713 5.75479 402.347C21.953 440.629 62.4438 459.447 102.008 462.662C105.054 462.91 108.133 463.087 111.165 463.073C111.516 463.073 111.806 463.359 111.806 463.71C111.806 464.065 111.52 464.355 111.165 464.351H111.169Z" fill="#005DAB"/>
<path d="M111.169 450.848C68.4748 449.725 22.8279 430.448 5.60974 388.904C3.21885 383.238 1.3707 377.357 -0.00488281 371.373C1.41749 377.347 3.32178 383.21 5.75479 388.843C21.953 427.126 62.4438 445.944 102.008 449.159C105.054 449.407 108.133 449.584 111.165 449.57C111.516 449.57 111.806 449.856 111.806 450.207C111.806 450.562 111.52 450.852 111.165 450.848H111.169Z" fill="#005DAB"/>
<path d="M111.169 437.349C68.4748 436.226 22.8279 416.949 5.60974 375.406C3.21885 369.74 1.3707 363.858 -0.00488281 357.874C1.41749 363.849 3.32178 369.712 5.75479 375.345C21.953 413.627 62.4438 432.446 102.008 435.66C105.054 435.908 108.133 436.086 111.165 436.072C111.516 436.072 111.806 436.357 111.806 436.708C111.806 437.064 111.52 437.354 111.165 437.349H111.169Z" fill="#005DAB"/>
<path d="M676.53 404.574V421.628C676.53 421.628 678.35 421.347 680.787 421.025C699.423 418.545 774.009 405.631 800 355.525V334.208C774.013 384.314 699.428 397.228 680.787 399.708C678.35 400.031 676.53 402.113 676.53 404.578V404.574Z" fill="#367BB6"/>
<path d="M688.844 515.968C724.988 515.177 763.79 501.819 785.257 471.266C792.35 461.235 797.174 449.706 800 437.771C798.629 443.755 796.776 449.641 794.385 455.302C778.435 493.921 737.832 513.17 698.09 516.75C695.016 517.026 691.951 517.232 688.83 517.246C688.025 517.227 687.932 515.992 688.849 515.968H688.844Z" fill="#367BB6"/>
<path d="M688.844 502.47C724.988 501.679 763.79 488.321 785.257 457.768C792.35 447.736 797.174 436.208 800 424.272C798.629 430.256 796.776 436.142 794.385 441.804C778.435 480.423 737.832 499.672 698.09 503.251C695.016 503.527 691.951 503.733 688.83 503.747C688.025 503.728 687.932 502.493 688.849 502.47H688.844Z" fill="#367BB6"/>
<path d="M688.844 488.967C724.988 488.176 763.79 474.818 785.257 444.265C792.35 434.233 797.174 422.705 800 410.769C798.629 416.753 796.776 422.639 794.385 428.3C778.435 466.92 737.832 486.169 698.09 489.748C695.016 490.024 691.951 490.23 688.83 490.244C688.025 490.225 687.932 488.99 688.849 488.967H688.844Z" fill="#367BB6"/>
<path d="M688.844 475.463C724.988 474.673 763.79 461.314 785.257 430.762C792.35 420.73 797.174 409.201 800 397.266C798.629 403.25 796.776 409.136 794.385 414.797C778.435 453.417 737.832 472.665 698.09 476.245C695.016 476.521 691.951 476.727 688.83 476.741C688.025 476.722 687.932 475.487 688.849 475.463H688.844Z" fill="#367BB6"/>
<path d="M688.844 461.96C724.988 461.169 763.79 447.811 785.257 417.258C792.35 407.227 797.174 395.698 800 383.762C798.629 389.747 796.776 395.633 794.385 401.294C778.435 439.913 737.832 459.162 698.09 462.742C695.016 463.018 691.951 463.223 688.83 463.237C688.025 463.219 687.932 461.984 688.849 461.96H688.844Z" fill="#367BB6"/>
<path d="M688.844 448.462C724.988 447.671 763.79 434.313 785.257 403.76C792.35 393.728 797.174 382.2 800 370.264C798.629 376.248 796.776 382.134 794.385 387.796C778.435 426.415 737.832 445.664 698.09 449.243C695.016 449.519 691.951 449.725 688.83 449.739C688.025 449.72 687.932 448.485 688.849 448.462H688.844Z" fill="#367BB6"/>
<path d="M688.844 434.958C724.988 434.168 763.79 420.81 785.257 390.257C792.35 380.225 797.174 368.697 800 356.761C798.629 362.745 796.776 368.631 794.385 374.292C778.435 412.912 737.832 432.16 698.09 435.74C695.016 436.016 691.951 436.222 688.83 436.236C688.025 436.217 687.932 434.982 688.849 434.958H688.844Z" fill="#367BB6"/>
<path d="M235.463 481.195L229.254 484.732C229.254 484.732 228.833 474.537 228.253 472.221C227.963 471.065 227.299 470.293 226.704 469.629L226.751 468.889C226.906 468.833 227.065 468.777 227.219 468.721C227.5 468.866 227.818 468.852 228.042 468.384C228.145 468.169 228.225 467.86 228.267 467.42C228.473 465.465 226.962 464.056 226.569 462.919C226.424 462.498 226.166 461.647 226.906 461.155C227.561 460.72 228.164 461.137 228.478 461.38C229.994 462.545 232.193 466.569 232.104 468.487C232.094 468.67 232.066 468.829 232.015 468.964C231.425 470.593 234.518 478.86 235.468 481.2L235.463 481.195Z" fill="#F6AC89"/>
<path d="M238.153 468.735C238.561 475.926 235.463 481.195 235.463 481.195H243.31V469.296L238.153 468.735Z" fill="#F6AC89"/>
<path d="M260.542 519.641C258.848 517.091 254.89 509.085 255.395 500.748C255.9 492.405 237.957 496.537 237.957 496.537C237.957 496.537 240.633 510.344 232.558 521.512L248.658 535.039L260.542 519.646V519.641Z" fill="#FEBBAA"/>
<path d="M230.359 496.551C227.762 500.205 223.298 502.975 220.973 501.964C219.181 501.183 215.269 499.021 213.795 491.474C212.532 485.008 212.785 477.765 212.785 477.765C212.785 477.765 209.322 476.305 211.105 469.353C212.49 463.958 215.307 463.392 215.901 467.158C216.556 471.285 216.331 472.689 216.331 472.689C216.331 472.689 217.665 471.074 217.866 472.151C218.067 473.227 216.383 476.502 216.383 476.502C216.383 476.502 218.605 493.402 222.124 495.063C224.094 495.994 226.396 489.532 226.396 489.532L230.354 496.551H230.359Z" fill="#FEBBAA"/>
<path d="M258.179 512.88C255.737 515.154 239.899 518.691 233.325 513.891C233.325 513.891 234.336 503.19 233.325 499.737C233.325 499.737 227.008 499.4 223.298 493.252C223.298 493.252 228.688 481.12 235.515 478.93L236.694 476.825H248.068C248.068 476.825 257.926 495.947 258.179 500.584C258.432 505.216 258.179 512.885 258.179 512.885V512.88Z" fill="#FFBA0D"/>
<path d="M241.176 471.622C240.067 472.389 237.62 473.994 234.471 470.686C231.322 467.383 233.442 462.61 234.003 460.584C234.565 458.558 234.158 456.439 234.785 457.342C235.407 458.245 236.876 462.456 238.996 463.144C238.996 463.144 240.399 462.021 241.462 463.176C242.524 464.332 242.304 468.033 241.026 468.74C241.026 468.74 242.037 471.037 241.181 471.626L241.176 471.622Z" fill="#FEBBAA"/>
<path d="M234.785 457.342C234.785 457.342 233.507 457.127 233.966 452.771C234.424 448.419 237.096 446.74 241.602 447.348C246.107 447.961 250 452.696 252.447 454.067C254.89 455.442 260.008 460.023 257.257 466.363C254.506 472.703 258.937 472.852 260.467 474.153C261.992 475.449 261.992 478.079 261.309 481.195C260.621 484.311 263.293 487.137 265.052 489.963C266.807 492.789 266.273 502.867 259.25 502.488C252.227 502.109 240.975 498.67 239.702 492.485C239.169 489.888 241.33 474.153 241.527 470.869L236.511 467.968L234.794 457.342H234.785Z" fill="#3A3430"/>
<path d="M236.937 627.1C237.204 630.694 237.419 633.641 237.419 633.641L230.878 633.375L231.683 626.623L236.937 627.105V627.1Z" fill="#FEBBAA"/>
<path d="M279.121 621.794L280.085 625.332L275.851 628.869L274.134 623.292L279.121 621.794Z" fill="#FEBBAA"/>
<path d="M280.478 624.181C279.398 625.5 276.492 626.782 274.536 626.918C274.536 626.918 274.775 631.138 272.136 632.49C269.502 633.843 267.981 634.853 267.78 637.015H275.683L284.666 629.585C284.666 629.585 284.226 627.526 282.64 625.973C281.054 624.419 280.478 624.181 280.478 624.181Z" fill="#3A3430"/>
<path d="M237.957 631.007C238.869 632.153 240.32 634.825 238.837 636.916H220.397C220.397 636.916 220.767 634.381 224.72 633.641C228.674 632.897 230.564 631.007 230.564 631.007C230.564 631.007 233.03 631.414 235.089 631.377C237.148 631.339 237.962 631.007 237.962 631.007H237.957Z" fill="#3A3430"/>
<path d="M260.542 519.641C265.207 526.542 268.894 530.94 267.78 549.927C267.593 553.099 267.635 574.304 267.635 574.304C267.635 574.304 279.201 604.155 280.324 622.066C280.324 622.066 277.526 625.238 273.049 625.238C273.049 625.238 257.374 589.978 255.699 581.954C254.02 573.93 246.557 555.715 246.557 555.715C246.557 555.715 243.974 571.745 240.802 576.409C240.802 576.409 242.079 616.47 238.163 627.479C238.163 627.479 234.247 628.784 230.513 627.479C230.513 627.479 227.341 579.923 227.341 573.85C227.341 567.777 225.872 529.059 232.567 521.508C232.567 521.508 239.468 523.375 249.172 522.439C258.876 521.508 260.551 519.641 260.551 519.641H260.542Z" fill="url(#paint1_linear_1634_3131)"/>
<path d="M447.016 232.036C447.016 232.036 456.547 263.071 457.169 277.693C457.792 292.31 403.409 299.913 403.409 299.913L410.133 224.775L447.016 232.036Z" fill="#002D54"/>
<path d="M377.938 229.168C364.214 259.904 372.103 299.856 372.103 299.856L415.509 320.542C415.509 320.542 419.762 245.867 418.882 233.562C418.003 221.256 377.933 229.168 377.933 229.168H377.938Z" fill="#003969"/>
<path d="M442.343 88.578C444.94 88.578 445.066 79.7911 445.066 79.7911C445.066 79.7911 448.285 78.6775 447.911 72.2441C447.911 72.2441 452.244 66.6763 449.273 61.8477C446.302 57.0238 438.259 57.3934 434.918 59.3726C434.918 59.3726 431.329 53.0608 425.392 54.9183C419.454 56.7758 414.378 62.4653 414.378 62.4653C414.378 62.4653 411.159 60.7341 409.18 63.0829C407.2 65.4317 408.314 70.3819 408.314 70.3819C408.314 70.3819 403.242 71.1258 402.25 75.7018C401.258 80.2777 403.593 102.427 410.532 106.264C417.471 110.101 442.343 88.5686 442.343 88.5686V88.578Z" fill="#3A3430"/>
<path d="M411.257 97.8608C411.257 97.8608 409.924 114.691 409.18 117.783C408.436 120.876 398.54 121.372 398.54 121.372L421.434 139.933L435.91 129.045L433.931 120.385C433.931 120.385 429.598 119.393 427.867 117.662C426.136 115.931 428.115 106.152 428.115 106.152L411.257 97.8608Z" fill="#F6AC89"/>
<path d="M443.059 192.566C443.059 192.566 443.668 197.071 445.829 211.375C445.848 211.459 445.853 211.538 445.871 211.623C446.044 212.755 446.232 213.957 446.419 215.221C446.437 215.31 446.442 215.403 446.461 215.492C447.172 220.124 448.019 225.589 449.015 232.036C449.582 235.658 436.331 239.078 425.125 239.626C413.915 240.168 387.334 241.516 378.117 233.473C373.892 229.786 378.805 225.275 379.895 216.264C380.994 207.243 382.903 189.754 382.903 189.754L376.208 179.647L390.01 171.721C390.01 171.721 366.237 168.034 366.097 162.565C365.966 157.1 375.614 136.635 382.637 129.766C388.92 123.618 397.534 119.122 406.887 117.61C406.887 117.61 419.712 125.452 430.539 117.61C430.539 117.61 451.116 122.738 456.492 135.353C461.859 147.967 468.639 157.072 469.804 172.484C470.973 187.891 443.064 192.561 443.064 192.561L443.059 192.566Z" fill="#005DAB"/>
<path d="M368.081 165.25C364.712 171.426 355.649 192.982 359.078 197.141C362.508 201.306 364.099 201.919 367.407 202.653C370.715 203.388 431.938 206.083 431.938 206.083L440.14 196.533C440.14 196.533 429.486 197.759 406.466 190.165C383.446 182.572 383.198 184.041 383.198 184.041L392.261 167.51L368.871 162.733L368.076 165.25H368.081Z" fill="#FEBBAA"/>
<path d="M446.976 152.884H514.73C517.21 152.884 519.006 155.252 518.337 157.638L504.343 207.589C503.716 209.831 501.671 211.384 499.341 211.384H431.587C429.107 211.384 427.31 209.017 427.979 206.63L441.974 156.679C442.601 154.438 444.645 152.884 446.976 152.884Z" fill="white"/>
<path d="M435.189 211.384H412.422C411.575 211.384 410.883 210.696 410.883 209.845C410.883 208.998 411.571 208.305 412.422 208.305H435.189C436.036 208.305 436.729 208.993 436.729 209.845C436.729 210.691 436.041 211.384 435.189 211.384Z" fill="white"/>
<path d="M449.432 152.884H517.186C519.666 152.884 521.463 155.252 520.794 157.638L506.799 207.589C506.172 209.831 504.128 211.384 501.798 211.384H434.043C431.563 211.384 429.767 209.017 430.436 206.63L444.43 156.679C445.057 154.438 447.102 152.884 449.432 152.884Z" fill="#04121E"/>
<path fill-rule="evenodd" clip-rule="evenodd" d="M485.592 176.526C485.592 177.784 485.505 179.041 485.332 180.287C485.088 182.33 484.403 184.296 483.326 186.049C481.719 188.349 479.557 190.205 477.041 191.446C474.529 190.203 472.37 188.347 470.764 186.049C469.682 184.297 468.994 182.331 468.745 180.287C468.579 179.04 468.493 177.784 468.489 176.526C468.48 175.183 468.532 173.833 468.625 172.487H485.458C485.551 173.83 485.61 175.183 485.595 176.526M485.91 172H468.172C467.347 182.958 469.357 187.863 477.041 192C484.729 187.863 486.735 182.958 485.91 172Z" fill="white"/>
<path d="M485.592 176.526C485.592 177.784 485.505 179.041 485.332 180.287C485.088 182.33 484.403 184.296 483.326 186.049C481.719 188.349 479.557 190.205 477.041 191.446C474.529 190.203 472.37 188.347 470.764 186.049C469.682 184.297 468.994 182.331 468.745 180.287C468.579 179.04 468.493 177.784 468.489 176.526C468.48 175.183 468.532 173.833 468.625 172.487H485.458C485.551 173.83 485.61 175.183 485.595 176.526M485.91 172H468.172C467.347 182.958 469.357 187.863 477.041 192C484.729 187.863 486.735 182.958 485.91 172Z" fill="white"/>
<path d="M485.592 176.526C485.592 177.784 485.505 179.041 485.332 180.287C485.088 182.33 484.403 184.296 483.326 186.049C481.719 188.349 479.557 190.205 477.041 191.446C474.529 190.203 472.37 188.347 470.764 186.049C469.682 184.297 468.994 182.331 468.745 180.287C468.579 179.04 468.493 177.784 468.489 176.526C468.48 175.183 468.532 173.833 468.625 172.487H485.458C485.551 173.83 485.61 175.183 485.595 176.526M485.91 172H468.172C467.347 182.958 469.357 187.863 477.041 192C484.729 187.863 486.735 182.958 485.91 172Z" stroke="white" stroke-width="0.5" stroke-linecap="round" stroke-linejoin="round"/>
<path fill-rule="evenodd" clip-rule="evenodd" d="M483.936 180.905C483.588 182.991 482.677 184.942 481.301 186.549C480.859 186.939 480.281 187.139 479.693 187.105C478.949 187.107 478.221 186.888 477.601 186.476C478.454 185.846 479.203 185.087 479.823 184.226C479.868 184.162 479.891 184.085 479.887 184.006C479.883 183.928 479.853 183.853 479.801 183.794L477.293 180.905H483.936Z" fill="white"/>
<path fill-rule="evenodd" clip-rule="evenodd" d="M479.74 187.572C479.946 187.572 480.151 187.559 480.356 187.534C479.348 188.46 478.236 189.266 477.042 189.935C476.506 189.628 476.003 189.309 475.542 188.988C474.372 187.687 473.599 186.078 473.315 184.351C473.113 183.379 472.989 182.392 472.944 181.4C473.2 182.367 473.617 183.285 474.178 184.113C474.9 185.143 475.804 186.032 476.845 186.736C477.709 187.289 478.715 187.579 479.741 187.569" fill="white"/>
<path fill-rule="evenodd" clip-rule="evenodd" d="M473.901 187.68C472.848 186.737 471.974 185.614 471.317 184.363C470.456 182.611 469.964 180.7 469.875 178.749C469.957 178.294 470.2 177.884 470.56 177.593C471.007 177.246 471.56 177.065 472.125 177.08C472.221 177.08 472.319 177.08 472.419 177.093C472.319 179.578 472.487 182.066 472.919 184.515C473.12 185.605 473.449 186.668 473.9 187.681" fill="white"/>
<path fill-rule="evenodd" clip-rule="evenodd" d="M484.281 176.436H472.781C471.946 176.41 471.123 176.633 470.415 177.077C470.196 177.222 469.994 177.394 469.816 177.588C469.785 176.523 469.809 175.316 469.888 173.838H484.197C484.25 174.778 484.28 175.634 484.28 176.437" fill="white"/>
<path d="M413.264 105.038C411.089 102.338 411.5 99.8165 411.29 94.1176C411.079 88.4188 411.922 86.9403 413.611 86.3086C415.3 85.677 417.199 87.9977 417.62 91.3758C417.62 91.3758 423.53 91.5864 424.161 82.2988C424.161 82.2988 432.602 85.0406 442.947 82.2988C442.947 82.2988 444.571 109.244 435.414 111.846C426.258 114.443 413.264 105.038 413.264 105.038Z" fill="#FEBBAA"/>
<path d="M493.844 211.374C493.844 211.374 490.255 215.988 480.106 216.4C469.953 216.811 468.409 214.046 468.409 214.046C468.409 214.046 457.208 214.987 446.414 215.216C446.227 213.953 446.035 212.75 445.867 211.618C445.848 211.534 445.843 211.454 445.824 211.37H472.723C472.723 211.37 474.263 209.494 475.91 206.649C477.566 203.795 482.399 196.968 489.006 198.451C495.603 199.925 490.54 211.365 490.54 211.365H493.844V211.374Z" fill="#FEBBAA"/>
<path d="M319.898 262.079C379.572 283.906 448.931 317.795 481.894 338.522C484.261 340.01 485.557 342.738 485.557 345.536V469.577C485.557 472.277 482.638 473.966 480.298 472.618C450.508 455.484 376.676 421.516 320.871 397.017C318.298 395.89 316.014 394.262 316.014 391.45V265.57C316.014 263.483 317.937 261.363 319.898 262.079Z" fill="#005DAB"/>
<path d="M485.557 345.536V365.299C401.675 315.044 316.014 284.912 316.014 284.912V265.57C316.014 263.483 317.942 261.363 319.898 262.079C379.572 283.906 448.927 317.8 481.894 338.522C484.266 340.015 485.557 342.738 485.557 345.536Z" fill="#000910"/>
<path d="M481.674 262.079C422 283.906 352.64 317.795 319.678 338.522C317.31 340.01 316.014 342.738 316.014 345.536V469.577C316.014 472.277 318.934 473.966 321.273 472.618C351.064 455.484 424.896 421.516 480.701 397.017C483.274 395.89 485.557 394.262 485.557 391.45V265.57C485.557 263.483 483.634 261.363 481.674 262.079Z" fill="#367BB6"/>
<path d="M485.557 265.57V281.773C485.557 281.773 483.634 282.68 481.679 283.396C422.004 305.223 352.645 339.117 319.683 359.839C317.315 361.332 316.019 362.165 316.019 362.165V345.536C316.019 342.738 317.315 340.015 319.683 338.522C352.645 317.795 422.004 283.901 481.679 262.079C483.634 261.363 485.557 263.488 485.557 265.57Z" fill="#04121E"/>
<path d="M349.028 289.254C349.225 289.858 349.52 290.396 349.889 290.849C350.792 291.968 352.121 292.581 353.431 292.422C353.642 292.398 353.857 292.351 354.063 292.281C356.084 291.621 357.113 289.203 356.355 286.872C355.597 284.542 353.347 283.186 351.321 283.845C349.3 284.505 348.27 286.924 349.028 289.254Z" fill="#EF4858"/>
<path d="M337.242 284.374C337.439 284.977 337.734 285.515 338.103 285.969C339.006 287.088 340.335 287.701 341.645 287.541C341.856 287.518 342.071 287.471 342.277 287.401C344.298 286.741 345.327 284.322 344.57 281.992C343.812 279.662 341.561 278.305 339.535 278.965C337.514 279.625 336.484 282.044 337.242 284.374Z" fill="#F9C430"/>
<path d="M325.573 278.965C325.77 279.569 326.065 280.107 326.434 280.561C327.337 281.679 328.666 282.292 329.976 282.133C330.187 282.109 330.402 282.063 330.608 281.992C332.629 281.333 333.658 278.914 332.9 276.584C332.142 274.254 329.892 272.897 327.866 273.556C325.845 274.216 324.815 276.635 325.573 278.965Z" fill="#1BA534"/>
<path d="M332.47 344.329C332.32 344.947 332.072 345.508 331.74 345.99C330.931 347.178 329.653 347.894 328.334 347.838C328.119 347.829 327.908 347.801 327.693 347.749C325.625 347.253 324.404 344.923 324.974 342.542C325.541 340.155 327.679 338.625 329.752 339.121C331.82 339.617 333.041 341.947 332.47 344.329Z" fill="#EF4858"/>
<path d="M343.825 338.523C343.676 339.14 343.428 339.702 343.096 340.184C342.286 341.372 341.009 342.088 339.689 342.032C339.474 342.022 339.264 341.994 339.048 341.943C336.98 341.447 335.759 339.117 336.33 336.735C336.896 334.349 339.034 332.819 341.107 333.315C343.175 333.811 344.396 336.141 343.825 338.523Z" fill="#F9C430"/>
<path d="M355.027 332.192C354.877 332.81 354.629 333.371 354.297 333.853C353.487 335.041 352.21 335.757 350.89 335.701C350.675 335.692 350.465 335.664 350.249 335.612C348.181 335.116 346.96 332.786 347.531 330.405C348.097 328.018 350.235 326.488 352.308 326.984C354.376 327.48 355.597 329.81 355.027 332.192Z" fill="#1BA534"/>
<path d="M403.144 341.858L353.637 366.151" stroke="#005DAB" stroke-width="4.56" stroke-linecap="round" stroke-linejoin="round"/>
<path d="M403.069 371.705L353.558 395.997" stroke="#005DAB" stroke-width="4.56" stroke-linecap="round" stroke-linejoin="round"/>
<path d="M402.99 401.551L353.478 425.844" stroke="#005DAB" stroke-width="4.56" stroke-linecap="round" stroke-linejoin="round"/>
<path d="M470.632 321.36L353.637 378.761" stroke="white" stroke-width="4.56" stroke-linecap="round" stroke-linejoin="round"/>
<path d="M470.552 351.207L353.558 408.607" stroke="white" stroke-width="4.56" stroke-linecap="round" stroke-linejoin="round"/>
<path d="M470.477 381.053L353.478 438.453" stroke="white" stroke-width="4.56" stroke-linecap="round" stroke-linejoin="round"/>
<path d="M331.59 376.594L343.489 370.427" stroke="white" stroke-width="4.56" stroke-linecap="round" stroke-linejoin="round"/>
<path d="M331.553 391.094L343.451 384.923" stroke="white" stroke-width="4.56" stroke-linecap="round" stroke-linejoin="round"/>
<path d="M331.515 405.589L343.414 399.422" stroke="white" stroke-width="4.56" stroke-linecap="round" stroke-linejoin="round"/>
<path d="M331.478 420.084L343.372 413.917" stroke="white" stroke-width="4.56" stroke-linecap="round" stroke-linejoin="round"/>
<path d="M331.44 434.584L343.334 428.413" stroke="white" stroke-width="4.56" stroke-linecap="round" stroke-linejoin="round"/>
<path d="M331.403 449.079L343.297 442.912" stroke="white" stroke-width="4.56" stroke-linecap="round" stroke-linejoin="round"/>
<path d="M457.77 417.633L454.729 427.355L467.853 427.964L466.154 410.83L457.77 417.633Z" fill="#F6AC89"/>
<path d="M439.934 488.611L437.201 490.534C435.859 493.786 437.421 496.083 438.97 498.16C439.527 498.909 439.62 499.868 440.257 500.561C440.369 500.682 440.495 500.799 440.725 500.818C440.954 500.837 441.309 500.724 441.52 500.519C441.721 500.322 441.712 500.13 441.688 499.966C441.178 496.635 442.638 492.415 441.005 489.547C440.842 489.107 440.612 488.653 439.939 488.611H439.934Z" fill="#FEBBAA"/>
<path d="M481.552 506.217C481.304 506.433 480.911 506.194 480.771 505.857C480.631 505.52 480.663 505.132 480.682 504.767C480.71 504.238 480.654 503.705 480.682 503.181C480.696 502.919 480.874 502.465 480.808 502.217C480.602 501.431 479.704 501.978 479.349 502.297C479.021 502.587 478.736 502.984 478.324 503.055C478.226 503.073 478.113 503.064 478.029 502.998C477.814 502.835 477.865 502.465 477.954 502.198C478.183 501.52 479.311 497.627 479.756 497.122C480.757 495.98 481.651 496.462 482.844 496.977C484.121 497.529 485.253 497.95 486.587 497.487C486.166 498.511 484.912 502.778 484.491 503.803C484.065 504.837 483.574 505.946 482.675 506.419C482.31 506.61 481.786 506.629 481.557 506.217H481.552Z" fill="#FEBBAA"/>
<path d="M440.79 430.018C440.809 429.62 440.846 429.222 440.912 428.829C441.057 427.921 444.065 423.158 441.557 423.916C440.589 424.211 439.649 424.679 438.947 425.404C438.236 426.143 437.8 427.098 437.379 428.034C436.626 429.713 435.751 431.346 435.19 433.092C434.006 436.802 433.192 440.625 432.616 444.471C431.942 448.981 432.466 458.385 434.137 461.623C434.137 461.623 432.944 469.704 432.986 471.758C433.089 476.773 433.112 482.206 435.592 487.82C436.083 488.929 436.663 490.075 437.683 490.74C438.699 491.404 440.271 491.362 440.94 490.351C441.193 489.968 441.286 489.505 441.366 489.055C442.414 483.137 441.455 478.322 443.728 472.754C444.617 470.579 445.899 468.52 446.218 466.19C446.414 464.758 446.232 463.308 446.045 461.871C445.02 453.884 443.995 445.879 442.119 438.046C441.506 435.492 440.664 432.708 440.781 430.018H440.79Z" fill="#ED7906"/>
<path d="M460.717 566.589C460.413 566.308 460.048 566.102 459.632 566.004C459.108 565.877 458.556 565.92 458.027 566.018C456.235 566.345 454.888 567.454 453.297 568.161C451.542 568.942 449.161 568.432 447.434 567.843C446.597 567.557 445.506 567.281 444.973 567.983C444.716 568.325 444.702 568.788 444.683 569.218C444.617 570.781 444.299 572.33 443.752 573.794C442.835 576.246 440.43 580.401 442.76 582.829C443.181 583.269 443.78 583.512 444.384 583.601C446.255 583.877 448.07 582.796 449.432 581.477C450.789 580.162 451.884 578.567 453.376 577.406C455.047 576.105 457.124 575.418 458.869 574.215C461.04 572.718 463.164 568.816 460.722 566.593L460.717 566.589Z" fill="#1A1A1A"/>
<path d="M455.922 494.113C455.159 493.458 454.195 493.098 453.236 492.808C450.836 492.087 448.323 491.75 445.82 491.816L440.247 491.998C438.694 502.98 438.549 514.153 439.808 525.171C440.121 527.909 439.616 530.613 439.709 533.336C439.967 540.92 439.171 548.556 439.677 556.131C439.953 560.258 440.327 564.38 440.701 568.498C440.888 570.547 441.165 572.61 441.258 574.664C441.314 575.979 441.019 577.593 442.063 578.632C443.317 579.886 445.441 579.325 447.037 578.552C450.723 576.76 454.677 574.07 454.616 569.56C454.574 566.486 453.376 563.575 453.292 560.487C453.166 555.696 453.231 550.049 454.64 545.436C454.855 544.734 455.117 544.051 455.323 543.344C455.688 542.1 456.113 540.074 456.198 538.122C456.53 537.276 456.619 536.349 456.694 535.437C457.625 523.749 458.561 512.019 458.022 500.308C457.92 498.062 457.643 495.568 455.936 494.109L455.922 494.113Z" fill="#122ECC"/>
<path d="M483.85 572.807C483.751 572.807 483.658 572.807 483.56 572.816C482.484 572.9 481.492 573.401 480.547 573.925C478.755 574.922 477.271 576.021 475.933 577.57C473.991 579.816 471.713 581.776 469.2 583.358C468.316 583.914 467.081 584.181 466.065 584.527C465.977 584.555 465.883 584.593 465.831 584.668C465.785 584.733 465.78 584.822 465.775 584.902C465.743 585.599 465.715 586.31 465.911 586.979C466.136 587.742 464.521 591.176 466.505 592.458C468.166 593.529 470.379 593.295 471.984 592.14C473.589 590.984 476.008 589.295 477.51 588.008C479.559 586.258 482.572 585.435 484.346 583.395C485.824 581.697 487.345 579.979 487.836 577.701C487.991 576.985 488.051 576.232 487.874 575.52C487.471 573.92 485.422 572.807 483.845 572.802L483.85 572.807Z" fill="#1A1A1A"/>
<path d="M482.839 497.047C482.469 495.61 481.955 494.225 481.136 493.116C480.036 493.701 479.54 493.608 478.38 493.435C476.841 493.205 475.222 493.64 473.696 493.865C472.017 494.113 470.337 494.356 468.662 494.604C467.254 494.81 464.881 494.693 463.628 495.344L454.817 491.811C453.194 496.649 455.009 508.496 456.422 513.399C457.058 515.612 458.167 517.652 459.005 519.8C462.776 529.476 462.009 540.976 463.833 551.111C464.732 556.094 463.553 561.9 463.52 566.986C463.487 572.362 463.684 577.748 464.217 583.1C464.301 583.966 464.423 584.902 465.031 585.519C465.766 586.258 466.833 586.563 467.848 586.577C468.704 586.586 469.556 586.441 470.412 586.399C471.998 586.324 473.851 585.514 474.801 584.176C475.863 582.679 475.746 580.681 475.685 578.847C475.451 571.974 476.597 565.166 477.411 558.368C477.79 555.21 477.847 552.033 478.474 548.912C478.736 547.62 479.04 546.329 479.306 545.033C479.648 544.046 479.919 543.026 480.167 542.006C481.819 535.259 483.19 528.432 483.985 521.531C484.743 514.948 484.884 507.962 483.695 501.459C483.447 500.088 483.218 498.539 482.834 497.051L482.839 497.047Z" fill="#3849E5"/>
<path d="M465.153 420.454C469.776 420.454 473.523 415.485 473.523 409.356C473.523 403.226 469.776 398.257 465.153 398.257C460.53 398.257 456.782 403.226 456.782 409.356C456.782 415.485 460.53 420.454 465.153 420.454Z" fill="#FEBBAA"/>
<path d="M488.192 437.56C487.162 434.406 480.158 431.463 477.496 430.56C476.186 430.116 474.74 429.784 473.486 429.199C472.602 428.787 471.872 428.137 470.95 427.734C468.887 426.841 463.071 429.236 460.853 428.979C452.59 428.015 448.052 420.243 440.645 424.118C440.098 424.403 438.979 425.423 438.605 427.168C437.314 433.209 441.384 457.852 441.211 467.734C441.047 477.213 439.007 483.899 439.85 493.341C440.098 496.092 457.606 503.256 467.712 502.282C478.02 501.291 481.169 497.65 481.52 496.813C481.655 496.49 481.66 496.13 481.66 495.779C481.669 490.744 479.185 477.19 479.461 472.165C479.69 467.916 480.668 463.747 481.637 459.607C482.025 457.955 482.413 456.303 482.904 454.68C483.363 453.169 483.915 451.681 484.318 450.155C484.865 448.092 484.856 445.963 485.277 443.918C485.698 441.892 486.049 439.941 486.039 437.859C486.039 436.844 488.454 438.397 488.182 437.565L488.192 437.56Z" fill="#FF931D"/>
<path d="M448.903 400.293C448.239 403.676 448.286 406.67 449.31 409.959C449.886 411.803 450.606 413.604 451.528 415.303C452.015 416.201 452.562 417.062 453.152 417.895C453.652 418.596 453.914 419.401 454.63 419.935C455.599 420.655 456.839 420.936 458.018 421.086C459.894 421.32 461.925 421.217 463.478 420.145C465.134 418.999 465.93 416.987 466.557 415.069C467.184 413.155 467.787 411.12 469.247 409.73C470 409.009 470.955 408.495 471.6 407.676C472.592 406.422 472.784 404.569 473.079 403.044C473.477 400.966 473.088 398.917 472.882 396.854C472.7 394.982 471.867 393.031 470.454 391.759C469.603 390.991 468.423 390.724 467.287 390.575C463.988 390.13 460.591 390.425 457.424 391.431C453.278 392.746 449.76 395.909 448.899 400.297L448.903 400.293Z" fill="#3A3430"/>
<path d="M491.158 449.912C490.157 438.028 488.763 435.089 484.505 433.835C481.889 433.063 476.204 437.377 474.717 445.341C473.64 451.11 477.379 468.609 477.996 473.517C478.455 477.166 479.208 488.943 479.569 494.759C479.728 497.337 481.931 499.391 484.509 499.185C485.805 499.082 486.956 498.446 487.317 496.691C487.7 494.796 488.936 477.569 487.008 471.8C487.008 471.8 491.64 455.564 491.167 449.917L491.158 449.912Z" fill="#ED7906"/>
<path d="M450.237 424.637C449.989 425.886 455.894 429.395 460.432 429.859C464.971 430.326 472.115 428.385 472.115 428.385C472.115 428.385 471.455 426.443 469.668 425.357C467.881 424.272 464.816 426.326 460.858 425.474C456.899 424.623 453.91 422.864 452.478 423.046C451.042 423.224 450.368 423.996 450.237 424.637Z" fill="white"/>
</g>
<defs>
<linearGradient id="paint0_linear_1634_3131" x1="125.889" y1="361.514" x2="84.9489" y2="361.514" gradientUnits="userSpaceOnUse">
<stop stop-color="#6868FC"/>
<stop offset="1" stop-color="#4A1CE2"/>
</linearGradient>
<linearGradient id="paint1_linear_1634_3131" x1="253.758" y1="532.442" x2="253.758" y2="605.961" gradientUnits="userSpaceOnUse">
<stop stop-color="#6868FC"/>
<stop offset="1" stop-color="#4A1CE2"/>
</linearGradient>
<clipPath id="clip0_1634_3131">
<rect width="800.005" height="637.015" fill="white" transform="translate(-0.00488281)"/>
</clipPath>
</defs>
</svg>
