<?xml version="1.0" encoding="UTF-8"?>
<svg id="Layer_1" data-name="Layer 1" xmlns="http://www.w3.org/2000/svg" version="1.1" viewBox="0 0 1001 194">
  <defs>
    <style>
      .cls-1 {
        fill-rule: evenodd;
      }

      .cls-1, .cls-2 {
        fill: #04121e;
        stroke-width: 0px;
      }
    </style>
  </defs>
  <path class="cls-1" d="M169.6,44.5c0,12.1-.8,24.1-2.5,36.1-2.3,19.6-8.9,38.5-19.2,55.3-15.4,22.1-36.2,39.9-60.3,51.8-24.1-11.9-44.8-29.7-60.2-51.8-10.4-16.8-17-35.7-19.4-55.3-1.6-12-2.4-24-2.5-36.1,0-12.9.4-25.8,1.3-38.7h161.5c.9,12.9,1.5,25.9,1.3,38.7h0ZM172.6,1.1H2.5c-7.9,105.1,11.4,152.2,85.1,191.9C161.3,153.2,180.5,106.2,172.6,1.1Z"/>
  <path class="cls-2" d="M169.6,44.5c0,12.1-.8,24.1-2.5,36.1-2.3,19.6-8.9,38.5-19.2,55.3-15.4,22.1-36.2,39.9-60.3,51.8-24.1-11.9-44.8-29.7-60.2-51.8-10.4-16.8-17-35.7-19.4-55.3-1.6-12-2.4-24-2.5-36.1,0-12.9.4-25.8,1.3-38.7h161.5c.9,12.9,1.5,25.9,1.3,38.7h0ZM172.6,1.1H2.5c-7.9,105.1,11.4,152.2,85.1,191.9C161.3,153.2,180.5,106.2,172.6,1.1Z"/>
  <path class="cls-2" d="M87.5,193.2h0c-38-20.5-60.6-42.5-73.3-71.5C1.8,93.2-1.9,56.1,2.2,1.1c0-.1,0-.2.2-.2h170.2c.1,0,.2,0,.2.2,4.1,55,.5,92.2-11.9,120.6-12.7,29-35.3,51.1-73.3,71.5h0ZM2.7,1.3c-4.1,54.8-.4,91.8,11.9,120.1,12.6,28.9,35.1,50.8,72.9,71.2,37.8-20.4,60.3-42.3,72.9-71.2,12.3-28.3,16-65.3,11.9-120.1H2.7ZM87.5,187.9h0c-24.1-11.9-44.9-29.8-60.3-51.9-10.3-16.7-17-35.9-19.4-55.4-1.6-11.9-2.4-24.1-2.5-36.1,0-12.1.3-24.8,1.3-38.8,0,0,0-.2.2-.2h161.5c.1,0,.2,0,.2.2,1,14.8,1.4,27.2,1.3,38.8h0c0,12.1-.8,24.2-2.5,36.1-2.3,19.5-9,38.6-19.3,55.4-15.4,22-36.3,40-60.4,51.9h0,.1ZM7,6c-.9,13.9-1.4,26.5-1.3,38.5,0,12,.9,24.1,2.5,36.1,2.4,19.4,9.1,38.5,19.3,55.2,15.3,21.9,36.1,39.8,60,51.6,24-11.9,44.8-29.7,60.1-51.6,10.2-16.7,16.9-35.7,19.2-55.2,1.7-11.9,2.5-24,2.5-36.1h0c.1-11.6-.3-23.8-1.3-38.5,0,0-161,0-161,0Z"/>
  <path class="cls-1" d="M153.7,86.5c-3.3,20-12.1,38.7-25.3,54.1-4.2,3.7-9.8,5.7-15.4,5.3-7.1,0-14.1-2.1-20.1-6,8.2-6,15.4-13.3,21.3-21.6.4-.6.7-1.4.6-2.1,0-.8-.3-1.5-.8-2l-24.1-27.7h63.8Z"/>
  <path class="cls-1" d="M113.4,150.5c2,0,3.9-.1,5.9-.4-9.7,8.9-20.3,16.6-31.8,23-5.1-2.9-10-6-14.4-9.1-11.2-12.5-18.6-27.9-21.4-44.5-1.9-9.3-3.1-18.8-3.6-28.3,2.5,9.3,6.5,18.1,11.8,26,6.9,9.9,15.6,18.4,25.6,25.2,8.3,5.3,17.9,8.1,27.8,8h0Z"/>
  <path class="cls-1" d="M57.4,151.5c-10.1-9-18.5-19.8-24.8-31.8-8.3-16.8-13-35.1-13.8-53.9.8-4.4,3.1-8.3,6.6-11.1,4.3-3.3,9.6-5.1,15-4.9.9,0,1.9,0,2.8,0-1,23.8.6,47.7,4.8,71.2,1.9,10.5,5.1,20.7,9.4,30.4h0Z"/>
  <path class="cls-1" d="M157,43.6H46.7c-8-.2-15.9,1.9-22.7,6.1-2.1,1.4-4,3-5.7,4.9-.3-10.2,0-21.8.7-36h137.3c.5,9,.8,17.2.8,24.9h-.1Z"/>
  <path class="cls-2" d="M285.9,95.1v21.4h40.5c-1.6,6.4-5,12.3-10,16.8-5.9,5.1-13.4,7.8-21.3,7.7h-.1c-6.3.2-12.6-1.4-18.1-4.3-5.1-2.9-9.2-7.1-11.8-12.3-3-6.3-4.6-13.3-4.4-20.3h0c-.2-6.8,1.3-13.5,4.3-19.6,2.6-5.1,6.5-9.4,11.5-12.3,5.1-3,10.9-4.5,16.8-4.4h.1c6.2-.2,12.3,1.5,17.5,4.8,4.7,3,8.3,7.3,10.4,12.6l1,2.5h26.8l-1.1-4.9c-1.3-5.8-3.7-11.4-7-16.3s-7.4-9.3-12.2-12.9h0c-10.4-7.3-23-11.1-35.7-10.6-10.8-.2-21.4,2.5-30.8,7.8-8.9,5.1-16.1,12.7-20.9,21.8-5,9.7-7.5,20.6-7.3,31.4-.2,10.9,2.3,21.8,7.3,31.5,4.8,9.2,12,16.7,21,21.9,9.1,5.1,19.3,7.8,29.7,7.8s.8,0,1.2,0c9.6.2,19.3-2.1,27.9-6.5,7.9-4.1,14.7-10.1,19.7-17.4h0c4.9-7.3,8.2-15.6,9.4-24.2v-21.9h-64.4ZM293.3,112.5h-3.4v-13.4h3.4v13.4ZM319,136.3c6.2-5.6,10.4-13.2,11.8-21.4l.4-2.3h3.3c-.9,9.1-5.2,17.6-12.1,23.8-6.7,5.8-15.2,8.9-24,8.7h-1.9c8.3-.1,16.2-3.2,22.5-8.7h0ZM316.4,69.1c5.4,3.4,9.6,8.5,12,14.5h-3.4c-2.4-6-6.5-11-12-14.5-5.3-3.3-11.4-5.2-17.6-5.4h1.2c7-.2,13.9,1.7,19.8,5.4ZM293.2,161.1c-10.1.2-20.1-2.3-28.9-7.3-8.3-4.8-15-11.8-19.4-20.3-4.7-9.1-7-19.4-6.8-29.7-.2-10.2,2.2-20.5,6.8-29.6,4.4-8.5,11.1-15.4,19.3-20.2,8.5-4.8,18-7.2,27.7-7.2s.8,0,1.1,0h3.4c-10.1-.2-20,2.3-28.8,7.2-8.2,4.7-15,11.7-19.3,20.2-4.7,9.2-7,19.4-6.8,29.6-.2,10.3,2.1,20.5,6.8,29.7,4.4,8.5,11.1,15.5,19.4,20.3,8.3,4.7,17.7,7.2,27.2,7.3h-1.7Z"/>
  <path class="cls-2" d="M426.1,68.4v50.7c.5,6.3-1.5,12.5-5.5,17.4-1.8,1.9-4,3.3-6.4,4.3-2.5,1-5.1,1.5-7.8,1.3h-.4c-2.5.1-4.9-.2-7.3-1.2-2.3-.9-4.3-2.2-6.1-4-3.6-4.3-5.4-9.8-5-15.4v-53.2h-26.1v54.7c-.7,11.3,2.9,22.2,10.2,30.9h.1c3.5,3.9,7.8,6.8,12.6,8.7,4.3,1.7,8.8,2.6,13.4,2.6s1,0,1.5,0c7.5.1,14.9-1.9,21.3-5.9h0c2-1.3,3.8-2.8,5.4-4.4v9.1h26.3v-95.6h-26.3,0ZM399.3,161.3h-.1c-4.6.2-9-.6-13.2-2.3s-8-4.3-11.2-7.6c-6.6-7.9-9.9-17.8-9.2-28.1v-50.9h3.4v50.9c-.7,10.2,2.6,20.3,9.2,28.1,3.1,3.3,7,5.9,11.2,7.6,3.5,1.4,7.2,2.2,11,2.3h-1.1ZM433.5,160h-3.4v-12.1c1.4-2.1,2.6-4.5,3.4-7v19.1ZM427,139.2c-2.2,2.3-4.9,4.2-7.9,5.4s-6.2,1.8-9.4,1.6h-2c2.8,0,5.5-.6,8.1-1.6,3-1.2,5.6-3,7.9-5.3h0c4.7-5.8,7-13,6.5-20.4v-46.4h3.4v46.4c.5,7.4-1.8,14.6-6.5,20.3h-.1Z"/>
  <path class="cls-2" d="M633.5,67c-7.4-.2-14.8,1.8-21.2,5.6h0c-2.4,1.4-4.6,3.1-6.7,5.1v-9.2h-26.1v95.6h26.1v-48.7c-.3-2.9,0-5.9,1.1-8.6,1-2.7,2.6-5.1,4.7-7.1,4.7-3.4,10.5-5.2,16.4-4.9h9.5v-27.6h-3.9v-.2ZM586.9,160h-3.4v-87.6h3.4v87.6ZM628.5,90.7h3-3ZM633.4,71.1c-5.5.4-10.9,2.1-15.7,4.9-5.4,3.2-9.8,8-12.7,13.6v-5.3l.2-.2c2.5-3.2,5.6-5.9,9.2-8,5.8-3.4,12.4-5.1,19.1-5h0Z"/>
  <g>
    <path class="cls-2" d="M784,41.3c-.8-1.9-2-3.5-3.5-4.9-3.1-2.7-7-4.2-11.1-4-4.1-.2-8.1,1.3-11.1,4.1h0c-1.5,1.4-2.6,3-3.4,4.9-.8,1.8-1.1,3.7-1.1,5.7s.3,3.9,1.1,5.7,2,3.5,3.5,4.9c2.9,2.5,6.6,3.8,10.4,3.8s.4,0,.6,0c4,0,8-1.2,11.1-3.8,1.5-1.3,2.7-3,3.5-4.8s1.2-3.8,1.1-5.7c0-2-.3-3.9-1.1-5.7v-.2ZM769.4,57.4h0c-3,0-6-.9-8.3-2.9-1-.9-1.9-2.1-2.4-3.4-.5-1.3-.8-2.7-.8-4h0c0-1.5.2-2.9.8-4.2.5-1.3,1.3-2.5,2.4-3.5,2.3-2.1,5.3-3.2,8.3-3h1.8c-2.5.2-4.9,1.3-6.8,3-1,1-1.9,2.2-2.4,3.5s-.8,2.7-.8,4.2.2,2.8.8,4.1c.5,1.3,1.4,2.4,2.4,3.4,1.9,1.6,4.3,2.6,6.8,2.8h-1.8Z"/>
    <path class="cls-2" d="M756.3,68.4v95.6h26.1v-95.6h-26.1ZM760.3,160v-87.6h3.4v87.6h-3.4Z"/>
  </g>
  <path class="cls-2" d="M536.1,68.4v10.3c-1.7-1.8-3.6-3.4-5.6-4.8h0c-6.7-4.6-14.5-6.8-22.5-6.6-7.9,0-15.7,1.9-22.5,6s-12.2,10.1-15.6,17.3c-3.8,7.9-5.7,16.8-5.5,25.5-.2,8.9,1.7,17.8,5.5,25.8,3.4,7.2,8.8,13.1,15.5,17.2h.2c6.8,4.1,14.5,6.1,22.3,6h1.1c7.7,0,15.1-2.3,21.6-6.6,2.1-1.4,4-3,5.7-4.8v10.3h26.1v-95.6h-26.3ZM513.3,91.1h.2c4.1,0,8.1,1,11.6,3,3.4,2.1,6.2,5,8,8.6,2.1,4.1,3.2,8.7,3.1,13.3h0c0,4.8-1,9.4-3.1,13.5-1.8,3.5-4.6,6.5-8,8.5-3.5,2-7.5,3.1-11.7,3h-.2c-3,.1-6-.4-8.8-1.5s-5.3-2.8-7.3-4.9c-4.4-5.1-6.6-11.6-6.2-18.3v-.4c-.4-6.7,1.8-13.2,6.2-18.3,2.1-2.1,4.6-3.8,7.3-4.9,2.8-1.1,5.8-1.6,8.9-1.5h0ZM507.8,161.1c-7.2.1-14.2-1.8-20.4-5.4h0c-6.1-3.8-11-9.1-14-15.6-3.5-7.4-5.3-15.7-5.1-24-.2-8.2,1.6-16.4,5.1-23.8,3.1-6.5,8-11.8,14.1-15.6,6.2-3.7,13.2-5.5,20.5-5.4h2.1c-6.8,0-13.4,2-19.2,5.4-6.1,3.7-11,9.1-14.1,15.6-3.5,7.4-5.3,15.6-5.1,23.8-.2,8.3,1.5,16.5,5.1,24,3.1,6.4,8,11.8,14.1,15.6,5.7,3.4,12.2,5.2,18.9,5.4h-2ZM543.5,159.9h-3.4v-13.5c1.4-2.1,2.5-4.4,3.4-6.8v20.3ZM540,131.3c-2.2,4.2-5.5,7.7-9.5,10.1-4.2,2.4-8.9,3.7-13.7,3.6h-2.4c4.5,0,8.8-1.3,12.7-3.6,4.1-2.4,7.4-5.9,9.5-10.1,2.4-4.7,3.6-10,3.5-15.3,0-5.2-1.1-10.5-3.5-15.2-2.2-4.2-5.5-7.7-9.6-10.2-3.8-2.2-8.1-3.4-12.5-3.6h2.2c4.8,0,9.5,1.2,13.7,3.6,4.1,2.4,7.4,6,9.5,10.2,2.4,4.7,3.6,9.9,3.5,15.2,0,5.3-1.1,10.5-3.5,15.3h0ZM543.5,92.7c-.9-2.4-2-4.7-3.4-6.8v-13.5h3.4v20.3Z"/>
  <path class="cls-2" d="M865.4,68.4v10.3c-1.7-1.8-3.6-3.4-5.6-4.8h0c-6.7-4.6-14.5-6.8-22.5-6.6-7.9,0-15.7,1.9-22.5,6s-12.2,10.1-15.6,17.3c-3.8,7.9-5.7,16.8-5.5,25.5-.2,8.9,1.7,17.8,5.5,25.8,3.4,7.2,8.8,13.1,15.5,17.2h.2c6.8,4.1,14.5,6.1,22.3,6h1.1c7.7,0,15.1-2.3,21.6-6.6,2.1-1.4,4-3,5.7-4.8v10.3h26.1v-95.6h-26.3ZM842.6,91.1h.2c4.1,0,8.1,1,11.6,3,3.4,2.1,6.2,5,8,8.6,2.1,4.1,3.2,8.7,3.1,13.3h0c0,4.8-1,9.4-3.1,13.5-1.8,3.5-4.6,6.5-8,8.5-3.5,2-7.5,3.1-11.7,3h-.2c-3,.1-6-.4-8.8-1.5s-5.3-2.8-7.3-4.9c-4.4-5.1-6.6-11.6-6.2-18.3v-.4c-.4-6.7,1.8-13.2,6.2-18.3,2.1-2.1,4.6-3.8,7.3-4.9,2.8-1.1,5.8-1.6,8.9-1.5h0ZM837.1,161.1c-7.2.1-14.2-1.8-20.4-5.4h0c-6.1-3.8-11-9.1-14-15.6-3.5-7.4-5.3-15.7-5.1-24-.2-8.2,1.6-16.4,5.1-23.8,3.1-6.5,8-11.8,14.1-15.6,6.2-3.7,13.2-5.5,20.5-5.4h2.1c-6.8,0-13.4,2-19.2,5.4-6.1,3.7-11,9.1-14.1,15.6-3.5,7.4-5.3,15.6-5.1,23.8-.2,8.3,1.5,16.5,5.1,24,3.1,6.4,8,11.8,14.1,15.6,5.7,3.4,12.2,5.2,18.9,5.4h-2ZM872.8,159.9h-3.4v-13.5c1.4-2.1,2.5-4.4,3.4-6.8v20.3ZM869.3,131.3c-2.2,4.2-5.5,7.7-9.5,10.1-4.2,2.4-8.9,3.7-13.7,3.6h-2.4c4.5,0,8.8-1.3,12.7-3.6,4.1-2.4,7.4-5.9,9.5-10.1,2.4-4.7,3.6-10,3.5-15.3,0-5.2-1.1-10.5-3.5-15.2-2.2-4.2-5.5-7.7-9.6-10.2-3.8-2.2-8.1-3.4-12.5-3.6h2.2c4.8,0,9.5,1.2,13.7,3.6,4.1,2.4,7.4,6,9.5,10.2,2.4,4.7,3.6,9.9,3.5,15.2,0,5.3-1.1,10.5-3.5,15.3h0ZM872.8,92.7c-.9-2.4-2-4.7-3.4-6.8v-13.5h3.4v20.3Z"/>
  <path class="cls-2" d="M713.2,38.3v40.2c-1.7-1.7-3.5-3.3-5.5-4.7h0c-6.7-4.6-14.5-6.8-22.6-6.6-7.9,0-15.7,1.9-22.5,6-6.7,4.1-12.1,10-15.5,17.1v.2c-3.9,7.9-5.8,16.8-5.6,25.5-.2,8.8,1.7,17.7,5.4,25.6h0c3.4,7.3,8.8,13.3,15.6,17.4,6.8,4,14.6,6.1,22.4,6h1.1c7.7,0,15.1-2.3,21.5-6.5h0c2-1.4,3.9-3,5.5-4.8v10.2h26.3V38.3h-26.3.2ZM717.2,42.3h3.4v50.4c-.8-2.5-2-4.8-3.4-7,0,0,0-43.4,0-43.4ZM685,161.1c-7.2.1-14.2-1.8-20.4-5.4-6.1-3.7-10.9-9.1-14-15.5h0c-3.5-7.5-5.3-15.8-5.1-24.2-.2-8.1,1.5-16.3,5-23.6v-.2c3.2-6.5,8-11.8,14.2-15.6,6.2-3.6,13.2-5.5,20.5-5.4h1.9c-6.7,0-13.2,2-18.9,5.4-6.1,3.7-11,9.1-14.1,15.6-3.5,7.4-5.3,15.6-5.1,23.9-.2,8.3,1.5,16.5,5.1,24,3.1,6.4,8,11.9,14.1,15.6,5.7,3.4,12.2,5.2,18.9,5.4h-2.1ZM690.5,141c-3,.1-6-.4-8.8-1.5s-5.3-2.8-7.4-4.9c-4.4-5.1-6.6-11.6-6.2-18.3v-.4c-.4-6.7,1.8-13.2,6.2-18.3,2.1-2.2,4.6-3.8,7.4-4.9,2.8-1.1,5.8-1.6,8.9-1.5h0c4.1,0,8.1,1,11.6,3,3.4,2.1,6.2,5,8,8.6,2.1,4.1,3.1,8.7,3,13.3h0c0,4.8-1,9.4-3.1,13.5-1.8,3.5-4.6,6.5-8,8.5-3.5,2-7.5,3.1-11.6,3h-.2,0ZM720.6,160h-3.4v-13.4c1.4-2.2,2.6-4.5,3.4-7v20.4ZM717.2,131.3c-2.2,4.2-5.5,7.7-9.5,10.1-4.1,2.4-8.9,3.7-13.7,3.6h-2.2c4.4-.1,8.7-1.3,12.5-3.6,4.1-2.4,7.4-5.9,9.5-10.1,2.4-4.7,3.6-10,3.5-15.2,0-5.3-1.1-10.5-3.5-15.2-2.2-4.2-5.5-7.7-9.5-10.2-3.9-2.2-8.2-3.5-12.7-3.6h2.4c4.8,0,9.5,1.2,13.7,3.6,4.1,2.4,7.4,6,9.5,10.2,2.4,4.7,3.6,9.9,3.5,15.2,0,5.3-1.1,10.5-3.5,15.3h0Z"/>
  <path class="cls-2" d="M935.8,68.7v9.1c9.8-9.3,21.5-11.9,34.4-10,7.8,1.2,14.3,4.9,19.8,10.5-.2.2-.4.4-.5.6,0,0,0,0,0,0,.2-.1.4-.3.7-.5,1.1,1.6,2.3,3.1,3.3,4.7,4.9,7.8,7.2,16.3,6.8,25.6,0,.4,0,.7,0,1.1,0,17.8,0,35.5,0,53.3s0,.7,0,1.1h-26.2c0-.2,0-.4,0-.7,0-17.5,0-34.9,0-52.4,0-3.7-.4-7.3-1.9-10.7-2.8-6.3-7.8-9.5-14.6-10-4.4-.3-8.7.3-12.6,2.6-4,2.3-6.3,5.9-7.8,10.1-1.1,3-1.6,6.2-1.5,9.4,0,.4,0,.8,0,1.3,0,16.5,0,32.9,0,49.4,0,.3,0,.6,0,.9h-26.1v-95.6h26.1ZM913.7,72.7v87.6h3.3v-87.6h-3.3ZM981.6,160.4v-1.1c0-12.2,0-24.4,0-36.6,0-3.9,0-7.9,0-11.8,0-2.6-.1-5.1-.8-7.6-1.8-6.7-5.4-12-12-14.9-3.1-1.3-7.4-2.1-9.8-1.7.4,0,.8.1,1.3.2,6.2,1.2,11.1,4.1,14.4,9.6,2.7,4.5,3.7,9.4,3.6,14.7-.1,16.1,0,32.3,0,48.4,0,.3,0,.6,0,.9.4,0,.7,0,1,0,.7,0,1.5,0,2.3,0ZM935.2,91.3c5.2-12.7,15.1-18.8,27.8-20.1-2.9-.2-6.3.2-9.7,1.1-7.3,2-13.3,5.8-17.7,12-.2.3-.4.7-.4,1,0,2,0,4,0,6Z"/>
</svg>