<svg width="258" height="50" viewBox="0 0 258 50" fill="none" xmlns="http://www.w3.org/2000/svg">
<g clip-path="url(#clip0_1644_3728)">
<path fill-rule="evenodd" clip-rule="evenodd" d="M43.7113 11.469C43.7113 14.5876 43.5051 17.6804 43.067 20.7731C42.4742 25.8247 40.7732 30.6958 38.1185 35.0257C34.1495 40.7216 28.7886 45.3092 22.5773 48.3762C16.366 45.3092 11.0309 40.7216 7.06184 35.0257C4.38143 30.6958 2.6804 25.8247 2.06184 20.7731C1.64947 17.6804 1.44328 14.5876 1.41751 11.469C1.41751 8.14427 1.5206 4.81953 1.75256 1.49479H43.3763C43.6082 4.81953 43.7629 8.17005 43.7113 11.469ZM44.4845 0.283447H0.644314C-1.39177 27.3711 3.58246 39.5103 22.5773 49.7422C41.5721 39.4845 46.5206 27.3711 44.4845 0.283447Z" fill="#04121E"/>
<path d="M43.7113 11.469C43.7113 14.5876 43.5051 17.6804 43.067 20.7731C42.4742 25.8247 40.7732 30.6958 38.1185 35.0257C34.1495 40.7216 28.7886 45.3092 22.5773 48.3762C16.366 45.3092 11.0309 40.7216 7.06184 35.0257C4.38143 30.6958 2.6804 25.8247 2.06184 20.7731C1.64947 17.6804 1.44328 14.5876 1.41751 11.469C1.41751 8.14427 1.5206 4.81953 1.75256 1.49479H43.3763C43.6082 4.81953 43.7629 8.17005 43.7113 11.469ZM44.4845 0.283447H0.644314C-1.39177 27.3711 3.58246 39.5103 22.5773 49.7422C41.5721 39.4845 46.5206 27.3711 44.4845 0.283447Z" fill="#04121E"/>
<path d="M22.5515 49.7938C12.7577 44.5103 6.93299 38.8402 3.65979 31.366C0.463914 24.0206 -0.489694 14.4587 0.567007 0.28348C0.567007 0.257707 0.567007 0.231934 0.618553 0.231934H44.4845C44.5103 0.231934 44.5361 0.231934 44.5361 0.28348C45.5928 14.4587 44.6649 24.0464 41.4691 31.366C38.1959 38.8402 32.3711 44.5361 22.5773 49.7938H22.5515ZM0.695873 0.335026C-0.360828 14.4587 0.59278 23.9948 3.76288 31.2886C7.01031 38.7371 12.8093 44.3814 22.5515 49.6392C32.2938 44.3814 38.0928 38.7371 41.3402 31.2886C44.5103 23.9948 45.4639 14.4587 44.4072 0.335026H0.695873ZM22.5515 48.4278C16.3402 45.3608 10.9794 40.7474 7.01031 35.0515C4.35567 30.7474 2.62886 25.7989 2.01031 20.7732C1.59793 17.7062 1.39175 14.5618 1.36598 11.469C1.36598 8.35049 1.4433 5.07729 1.70103 1.46905C1.70103 1.46905 1.70103 1.4175 1.75257 1.4175H43.3763C43.4021 1.4175 43.4278 1.4175 43.4278 1.46905C43.6856 5.28348 43.7887 8.47936 43.7629 11.469C43.7629 14.5876 43.5567 17.7062 43.1186 20.7732C42.5258 25.7989 40.799 30.7216 38.1443 35.0515C34.1753 40.7216 28.7887 45.3608 22.5773 48.4278H22.6031H22.5515ZM1.80412 1.54637C1.57216 5.12884 1.4433 8.37626 1.46907 11.469C1.46907 14.5618 1.70103 17.6804 2.1134 20.7732C2.73196 25.7732 4.45876 30.6959 7.08763 35C11.0309 40.6443 16.3918 45.2577 22.5515 48.2989C28.7371 45.2319 34.0979 40.6443 38.0412 35C40.6701 30.6959 42.3969 25.7989 42.9897 20.7732C43.4278 17.7062 43.634 14.5876 43.634 11.469C43.6598 8.47936 43.5567 5.33503 43.299 1.54637H1.80412Z" fill="#04121E"/>
<path fill-rule="evenodd" clip-rule="evenodd" d="M39.6135 22.2937C38.7629 27.4483 36.4949 32.2679 33.0928 36.237C32.0104 37.1906 30.5671 37.7061 29.1238 37.603C27.2939 37.603 25.4898 37.0617 23.9434 36.0566C26.0568 34.5102 27.9124 32.6288 29.4331 30.4896C29.5361 30.3349 29.6135 30.1288 29.5877 29.9483C29.5877 29.7422 29.5104 29.5617 29.3815 29.4329L23.1702 22.2937H39.6135Z" fill="#04121E"/>
<path fill-rule="evenodd" clip-rule="evenodd" d="M29.2269 38.7886C29.7423 38.7886 30.232 38.7629 30.7475 38.6855C28.2475 40.9794 25.5155 42.9639 22.5516 44.6134C21.2372 43.866 19.9743 43.067 18.8403 42.268C15.9537 39.0464 14.0465 35.0773 13.3248 30.7989C12.8351 28.402 12.5258 25.9536 12.397 23.5051C13.0413 25.902 14.0722 28.1701 15.4382 30.2062C17.2166 32.7577 19.4588 34.9484 22.0361 36.701C24.1753 38.067 26.6496 38.7886 29.2011 38.7629L29.2269 38.7886Z" fill="#04121E"/>
<path fill-rule="evenodd" clip-rule="evenodd" d="M14.7939 39.0463C12.1908 36.7267 10.0259 33.9432 8.40216 30.8504C6.26298 26.5205 5.05164 21.804 4.84546 16.9586C5.05164 15.8246 5.64443 14.8195 6.54649 14.0978C7.65474 13.2473 9.02072 12.7834 10.4125 12.8349C10.6444 12.8349 10.9022 12.8349 11.1341 12.8349C10.8764 18.969 11.2888 25.1288 12.3712 31.1855C12.8609 33.8916 13.6857 36.5205 14.7939 39.0205V39.0463Z" fill="#04121E"/>
<path fill-rule="evenodd" clip-rule="evenodd" d="M40.4638 11.237H12.036C9.97411 11.1855 7.93803 11.7267 6.18545 12.8092C5.64421 13.17 5.15452 13.5824 4.71638 14.0721C4.63906 11.4432 4.71638 8.4535 4.89679 4.7937H40.2834C40.4123 7.11329 40.4896 9.22669 40.4896 11.2112H40.4638V11.237Z" fill="#04121E"/>
<path d="M73.6857 24.5104V30.0259H84.1238C83.7114 31.6754 82.8351 33.196 81.5465 34.3558C80.0259 35.6702 78.0929 36.3661 76.0568 36.3403H76.031C74.4073 36.3918 72.7836 35.9795 71.3661 35.2321C70.0516 34.4846 68.9949 33.4022 68.3248 32.0619C67.5516 30.4382 67.1393 28.6341 67.1908 26.83C67.1393 25.0774 67.5259 23.3506 68.2991 21.7784C68.9692 20.464 69.9743 19.3558 71.263 18.6083C72.5774 17.8351 74.0722 17.4485 75.5929 17.4743H75.6186C77.2166 17.4228 78.7887 17.8609 80.129 18.7114C81.3403 19.4846 82.2681 20.5929 82.8094 21.9589L83.0671 22.6032H89.9743L89.6908 21.3403C89.3558 19.8455 88.7372 18.4022 87.8867 17.1393C87.0362 15.8764 85.9795 14.7424 84.7424 13.8145C82.0619 11.9331 78.8145 10.9537 75.5413 11.0826C72.7578 11.031 70.0259 11.7269 67.6032 13.0929C65.3094 14.4073 63.4537 16.3661 62.2166 18.7114C60.9279 21.2114 60.2836 24.0207 60.3351 26.8042C60.2836 29.6135 60.9279 32.4228 62.2166 34.9228C63.4537 37.2939 65.3094 39.2269 67.629 40.5671C69.9743 41.8815 72.6032 42.5774 75.2836 42.5774C77.964 42.5774 75.4898 42.5774 75.5929 42.5774C78.0671 42.629 80.5671 42.0362 82.7836 40.9022C84.8197 39.8455 86.5723 38.2991 87.8609 36.4176C89.1238 34.5362 89.9743 32.397 90.2836 30.1805V24.5362H73.6857V24.5104ZM75.5929 28.9949H74.7166V25.5413H75.5929V28.9949ZM82.2166 35.129C83.8145 33.6857 84.897 31.7269 85.2578 29.6135L85.3609 29.0207H86.2114C85.9795 31.3661 84.8712 33.5568 83.0929 35.1547C81.3661 36.6496 79.1753 37.4485 76.9073 37.397H76.4176C78.5568 37.3712 80.5929 36.5723 82.2166 35.1547V35.129ZM81.5465 17.8094C82.9382 18.6857 84.0207 20.0001 84.6393 21.5465H83.763C83.1444 20.0001 82.0877 18.7114 80.6702 17.8094C79.3042 16.9589 77.732 16.4692 76.1341 16.4176H76.4434C78.2475 16.3661 80.0259 16.8558 81.5465 17.8094ZM75.5671 41.5207C72.964 41.5723 70.3867 40.9279 68.1186 39.6393C65.9795 38.4022 64.2527 36.598 63.1186 34.4073C61.9073 32.0619 61.3145 29.4073 61.3661 26.7527C61.3145 24.1238 61.9331 21.4692 63.1186 19.1238C64.2527 16.9331 65.9795 15.1547 68.0929 13.9176C70.2836 12.6805 72.732 12.0619 75.232 12.0619C77.732 12.0619 75.4382 12.0619 75.5156 12.0619H76.3918C73.7887 12.0104 71.2372 12.6547 68.9692 13.9176C66.8558 15.129 65.1032 16.9331 63.9949 19.1238C62.7836 21.4949 62.1908 24.1238 62.2424 26.7527C62.1908 29.4073 62.7836 32.0362 63.9949 34.4073C65.129 36.598 66.8558 38.4022 68.9949 39.6393C71.1341 40.8506 73.5568 41.4949 76.0052 41.5207H75.5671Z" fill="#04121E"/>
<path d="M109.82 17.6288V30.6958C109.948 32.3195 109.433 33.9175 108.402 35.1803C107.938 35.67 107.371 36.0309 106.753 36.2886C106.108 36.5463 105.438 36.6752 104.742 36.6236H104.639C103.995 36.6494 103.376 36.5721 102.758 36.3144C102.165 36.0824 101.649 35.7474 101.186 35.2834C100.258 34.1752 99.7938 32.7577 99.8969 31.3144V17.603H93.1701V31.701C92.9896 34.6133 93.9175 37.4226 95.7989 39.6649H95.8247C96.7268 40.67 97.835 41.4175 99.0721 41.9072C100.18 42.3453 101.34 42.5773 102.526 42.5773C103.711 42.5773 102.783 42.5773 102.912 42.5773C104.845 42.603 106.753 42.0876 108.402 41.0566C108.917 40.7216 109.381 40.335 109.794 39.9226V42.268H116.572V17.6288H109.794H109.82ZM102.912 41.5721H102.887C101.701 41.6236 100.567 41.4175 99.4845 40.9793C98.402 40.5412 97.4226 39.8711 96.5979 39.0205C94.8969 36.9845 94.0464 34.4329 94.2268 31.7783V18.6597H95.103V31.7783C94.9226 34.4072 95.7732 37.0102 97.4742 39.0205C98.2732 39.8711 99.2783 40.5412 100.361 40.9793C101.263 41.3401 102.216 41.5463 103.196 41.5721H102.912ZM111.727 41.237H110.85V38.1185C111.211 37.5773 111.521 36.9587 111.727 36.3144V41.237ZM110.052 35.8762C109.484 36.469 108.789 36.9587 108.015 37.268C107.242 37.5773 106.417 37.7319 105.593 37.6803H105.077C105.799 37.6803 106.495 37.5257 107.165 37.268C107.938 36.9587 108.608 36.4948 109.201 35.902C110.412 34.4072 111.005 32.5515 110.876 30.6443V18.6855H111.753V30.6443C111.881 32.5515 111.289 34.4071 110.077 35.8762H110.052Z" fill="#04121E"/>
<path d="M163.273 17.2679C161.366 17.2164 159.459 17.7318 157.809 18.7112C157.191 19.0721 156.624 19.5102 156.083 20.0257V17.6545H149.356V42.2937H156.083V29.7422C156.005 28.9947 156.083 28.2215 156.366 27.5257C156.624 26.8298 157.036 26.2112 157.577 25.6958C158.789 24.8195 160.284 24.3556 161.804 24.4329H164.253V17.3195H163.247V17.2679H163.273ZM151.263 41.237H150.387V18.6597H151.263V41.237ZM163.247 18.3246C161.83 18.4277 160.438 18.8659 159.201 19.5875C157.809 20.4123 156.675 21.6494 155.928 23.0927V21.7267L155.979 21.6751C156.624 20.8504 157.423 20.1545 158.351 19.6133C159.845 18.737 161.546 18.2989 163.273 18.3246H163.247Z" fill="#04121E"/>
<path d="M202.062 10.6443C201.856 10.1546 201.546 9.74227 201.16 9.38145C200.361 8.68557 199.356 8.29898 198.299 8.35052C197.242 8.29898 196.211 8.68557 195.438 9.40722C195.052 9.76805 194.768 10.1804 194.562 10.6701C194.356 11.134 194.278 11.6237 194.278 12.1392C194.278 12.6546 194.356 13.1443 194.562 13.6083C194.768 14.0722 195.077 14.5103 195.464 14.8711C196.211 15.5155 197.165 15.8505 198.144 15.8505C199.124 15.8505 198.247 15.8505 198.299 15.8505C199.33 15.8505 200.361 15.5412 201.16 14.8711C201.546 14.5361 201.856 14.0979 202.062 13.634C202.268 13.1701 202.371 12.6546 202.345 12.165C202.345 11.6495 202.268 11.1598 202.062 10.6959V10.6443ZM198.299 14.7938C197.526 14.7938 196.753 14.5619 196.16 14.0464C195.902 13.8144 195.67 13.5052 195.541 13.1701C195.412 12.8351 195.335 12.4742 195.335 12.1392C195.335 11.7526 195.387 11.3918 195.541 11.0567C195.67 10.7217 195.876 10.4124 196.16 10.1546C196.753 9.61341 197.526 9.3299 198.299 9.38145H198.763C198.119 9.433 197.5 9.7165 197.01 10.1546C196.753 10.4124 196.521 10.7217 196.392 11.0567C196.263 11.3918 196.186 11.7526 196.186 12.1392C196.186 12.5258 196.237 12.8608 196.392 13.1959C196.521 13.5309 196.753 13.8144 197.01 14.0722C197.5 14.4845 198.119 14.7423 198.763 14.7938H198.299Z" fill="#04121E"/>
<path d="M194.923 17.6289V42.2681H201.649V17.6289H194.923ZM195.954 41.2372V18.6598H196.83V41.2372H195.954Z" fill="#04121E"/>
<path d="M138.17 17.6288V20.2834C137.732 19.8195 137.242 19.4071 136.727 19.0463C135 17.8607 132.99 17.2937 130.928 17.3453C128.892 17.3453 126.881 17.835 125.129 18.8917C123.376 19.9484 121.985 21.4947 121.108 23.3504C120.129 25.3865 119.639 27.6803 119.691 29.9226C119.639 32.2164 120.129 34.5102 121.108 36.5721C121.985 38.4277 123.376 39.9484 125.103 41.0051H125.155C126.907 42.0618 128.892 42.5772 130.902 42.5514H131.186C133.17 42.5514 135.077 41.9587 136.753 40.8504C137.294 40.4896 137.783 40.0772 138.222 39.6133V42.2679H144.948V17.6288H138.17ZM132.294 23.4793H132.345C133.402 23.4793 134.433 23.737 135.335 24.2525C136.211 24.7937 136.933 25.5411 137.397 26.469C137.938 27.5257 138.222 28.7112 138.196 29.8968C138.196 31.1339 137.938 32.3195 137.397 33.3762C136.933 34.2783 136.211 35.0514 135.335 35.5669C134.433 36.0824 133.402 36.3659 132.32 36.3401H132.268C131.495 36.3659 130.722 36.237 130 35.9535C129.278 35.67 128.634 35.2319 128.119 34.6906C126.985 33.3762 126.418 31.7009 126.521 29.9741V29.871C126.418 28.1442 126.985 26.469 128.119 25.1545C128.66 24.6133 129.304 24.1752 130 23.8917C130.722 23.6081 131.495 23.4793 132.294 23.5051V23.4793ZM130.876 41.5205C129.021 41.5463 127.216 41.0566 125.619 40.1288C124.046 39.1494 122.783 37.7834 122.01 36.1081C121.108 34.2009 120.644 32.0618 120.696 29.9226C120.644 27.8092 121.108 25.6958 122.01 23.7886C122.809 22.1133 124.072 20.7473 125.644 19.7679C127.242 18.8143 129.046 18.3504 130.928 18.3762H131.469C129.716 18.3762 128.015 18.8917 126.521 19.7679C124.948 20.7215 123.686 22.1133 122.887 23.7886C121.985 25.6958 121.521 27.8092 121.572 29.9226C121.521 32.0618 121.959 34.1752 122.887 36.1081C123.686 37.7576 124.948 39.1494 126.521 40.1288C127.99 41.0051 129.665 41.469 131.392 41.5205H130.876ZM140.077 41.2112H139.201V37.7319C139.562 37.1906 139.845 36.5978 140.077 35.9793V41.2112ZM139.175 33.8401C138.608 34.9226 137.758 35.8246 136.727 36.4432C135.644 37.0618 134.433 37.3968 133.196 37.371H132.577C133.737 37.371 134.845 37.036 135.85 36.4432C136.907 35.8246 137.758 34.9226 138.299 33.8401C138.917 32.6288 139.227 31.2628 139.201 29.8968C139.201 28.5566 138.917 27.1906 138.299 25.9793C137.732 24.8968 136.881 23.9947 135.825 23.3504C134.845 22.7834 133.737 22.4741 132.603 22.4226H133.17C134.407 22.4226 135.619 22.7319 136.701 23.3504C137.758 23.969 138.608 24.8968 139.149 25.9793C139.768 27.1906 140.077 28.5308 140.052 29.8968C140.052 31.2628 139.768 32.603 139.149 33.8401H139.175ZM140.077 23.8917C139.845 23.2731 139.562 22.6803 139.201 22.1391V18.6597H140.077V23.8917Z" fill="#04121E"/>
<path d="M223.041 17.6288V20.2834C222.603 19.8195 222.113 19.4071 221.598 19.0463C219.871 17.8607 217.861 17.2937 215.799 17.3453C213.763 17.3453 211.753 17.835 210 18.8917C208.247 19.9484 206.856 21.4947 205.979 23.3504C205 25.3865 204.51 27.6803 204.562 29.9226C204.51 32.2164 205 34.5102 205.979 36.5721C206.856 38.4277 208.247 39.9484 209.974 41.0051H210.026C211.778 42.0618 213.763 42.5772 215.773 42.5514H216.057C218.041 42.5514 219.948 41.9587 221.624 40.8504C222.165 40.4896 222.655 40.0772 223.093 39.6133V42.2679H229.82V17.6288H223.041ZM217.165 23.4793H217.216C218.273 23.4793 219.304 23.737 220.206 24.2525C221.082 24.7937 221.804 25.5411 222.268 26.469C222.809 27.5257 223.093 28.7112 223.067 29.8968C223.067 31.1339 222.809 32.3195 222.268 33.3762C221.804 34.2783 221.082 35.0514 220.206 35.5669C219.304 36.0824 218.273 36.3659 217.191 36.3401H217.139C216.366 36.3659 215.593 36.237 214.871 35.9535C214.149 35.67 213.505 35.2319 212.99 34.6906C211.856 33.3762 211.289 31.7009 211.392 29.9741V29.871C211.289 28.1442 211.856 26.469 212.99 25.1545C213.531 24.6133 214.175 24.1752 214.871 23.8917C215.593 23.6081 216.366 23.4793 217.165 23.5051V23.4793ZM215.747 41.5205C213.892 41.5463 212.088 41.0566 210.49 40.1288C208.917 39.1494 207.655 37.7834 206.881 36.1081C205.979 34.2009 205.515 32.0618 205.567 29.9226C205.515 27.8092 205.979 25.6958 206.881 23.7886C207.68 22.1133 208.943 20.7473 210.515 19.7679C212.113 18.8143 213.917 18.3504 215.799 18.3762H216.34C214.588 18.3762 212.887 18.8917 211.392 19.7679C209.82 20.7215 208.557 22.1133 207.758 23.7886C206.856 25.6958 206.392 27.8092 206.443 29.9226C206.392 32.0618 206.83 34.1752 207.758 36.1081C208.557 37.7576 209.82 39.1494 211.392 40.1288C212.861 41.0051 214.536 41.469 216.263 41.5205H215.747ZM224.948 41.2112H224.072V37.7319C224.433 37.1906 224.716 36.5978 224.948 35.9793V41.2112ZM224.046 33.8401C223.479 34.9226 222.629 35.8246 221.598 36.4432C220.515 37.0618 219.304 37.3968 218.067 37.371H217.448C218.608 37.371 219.716 37.036 220.722 36.4432C221.778 35.8246 222.629 34.9226 223.17 33.8401C223.789 32.6288 224.098 31.2628 224.072 29.8968C224.072 28.5566 223.789 27.1906 223.17 25.9793C222.603 24.8968 221.753 23.9947 220.696 23.3504C219.716 22.7834 218.608 22.4741 217.474 22.4226H218.041C219.278 22.4226 220.49 22.7319 221.572 23.3504C222.629 23.969 223.479 24.8968 224.021 25.9793C224.639 27.1906 224.948 28.5308 224.923 29.8968C224.923 31.2628 224.639 32.603 224.021 33.8401H224.046ZM224.948 23.8917C224.716 23.2731 224.433 22.6803 224.072 22.1391V18.6597H224.948V23.8917Z" fill="#04121E"/>
<path d="M183.814 9.87109V20.2319C183.376 19.7938 182.912 19.3814 182.397 19.0206C180.67 17.835 178.66 17.268 176.572 17.3195C174.536 17.3195 172.526 17.8092 170.773 18.8659C169.046 19.9226 167.655 21.4433 166.778 23.2732V23.3247C165.773 25.3608 165.283 27.6546 165.335 29.8969C165.283 32.1649 165.773 34.4587 166.727 36.4948C167.603 38.3762 168.995 39.9226 170.747 40.9793C172.5 42.0103 174.51 42.5515 176.521 42.5257H176.804C178.789 42.5257 180.696 41.9329 182.345 40.8505C182.861 40.4896 183.35 40.0773 183.763 39.6134V42.2422H190.541V9.87109H183.763H183.814ZM184.845 10.902H185.722V23.8917C185.515 23.2474 185.206 22.6546 184.845 22.0876V10.902ZM176.546 41.5206C174.691 41.5464 172.887 41.0567 171.289 40.1288C169.716 39.1752 168.479 37.7835 167.68 36.134C166.778 34.201 166.314 32.0618 166.366 29.8969C166.314 27.8092 166.753 25.6958 167.655 23.8144V23.7628C168.479 22.0876 169.716 20.7216 171.314 19.7422C172.912 18.8144 174.716 18.3247 176.598 18.3505H177.088C175.361 18.3505 173.686 18.8659 172.216 19.7422C170.644 20.6958 169.381 22.0876 168.582 23.7628C167.68 25.6701 167.216 27.7835 167.268 29.9226C167.216 32.0618 167.655 34.1752 168.582 36.1082C169.381 37.7577 170.644 39.1752 172.216 40.1288C173.686 41.0051 175.361 41.469 177.088 41.5206H176.546ZM177.964 36.3402C177.191 36.3659 176.417 36.2371 175.696 35.9536C174.974 35.6701 174.33 35.2319 173.789 34.6907C172.655 33.3762 172.088 31.701 172.191 29.9742V29.8711C172.088 28.1443 172.655 26.469 173.789 25.1546C174.33 24.5876 174.974 24.1752 175.696 23.8917C176.417 23.6082 177.191 23.4793 177.99 23.5051C179.046 23.5051 180.077 23.7628 180.979 24.2783C181.856 24.8195 182.577 25.567 183.041 26.4948C183.582 27.5515 183.84 28.7371 183.814 29.9226C183.814 31.1598 183.557 32.3453 183.015 33.402C182.551 34.3041 181.83 35.0773 180.954 35.5927C180.051 36.1082 179.021 36.3917 177.964 36.3659H177.912L177.964 36.3402ZM185.722 41.2371H184.845V37.7835C185.206 37.2165 185.515 36.6237 185.722 35.9793V41.2371ZM184.845 33.8402C184.278 34.9226 183.428 35.8247 182.397 36.4433C181.34 37.0618 180.103 37.3969 178.866 37.3711H178.299C179.433 37.3453 180.541 37.036 181.521 36.4433C182.577 35.8247 183.428 34.9226 183.969 33.8402C184.588 32.6288 184.897 31.2628 184.871 29.9226C184.871 28.5567 184.588 27.2165 183.969 26.0051C183.402 24.9226 182.551 24.0206 181.521 23.3762C180.515 22.8092 179.407 22.4742 178.247 22.4484H178.866C180.103 22.4484 181.314 22.7577 182.397 23.3762C183.454 23.9948 184.304 24.9226 184.845 26.0051C185.464 27.2165 185.773 28.5567 185.747 29.9226C185.747 31.2886 185.464 32.6288 184.845 33.8659V33.8402Z" fill="#04121E"/>
<path d="M241.186 17.7063V20.0516C243.711 17.6547 246.727 16.9846 250.052 17.4743C252.062 17.7836 253.737 18.7372 255.155 20.1805C255.103 20.2321 255.052 20.2836 255.026 20.3352C255.077 20.3094 255.129 20.2578 255.206 20.2063C255.49 20.6187 255.799 21.0053 256.057 21.4176C257.32 23.4279 257.912 25.6187 257.809 28.0156C257.809 28.1187 257.809 28.196 257.809 28.2991C257.809 32.8867 257.809 37.4486 257.809 42.0362C257.809 46.6238 257.809 42.2166 257.809 42.3197H251.057C251.057 42.2681 251.057 42.2166 251.057 42.1393C251.057 37.629 251.057 33.1444 251.057 28.6341C251.057 27.6805 250.954 26.7527 250.567 25.8764C249.845 24.2527 248.557 23.4279 246.804 23.2991C245.67 23.2217 244.562 23.3764 243.557 23.9692C242.526 24.562 241.933 25.4898 241.547 26.5723C241.263 27.3455 241.134 28.1702 241.16 28.9949C241.16 29.098 241.16 29.2011 241.16 29.33C241.16 33.5826 241.16 37.8094 241.16 42.062C241.16 42.1393 241.16 42.2166 241.16 42.2939H234.433V17.6547H241.16L241.186 17.7063ZM235.49 18.7372V41.3145H236.34V18.7372H235.49ZM252.99 41.3403V41.0568C252.99 37.9125 252.99 34.7681 252.99 31.6238C252.99 30.6187 252.99 29.5877 252.99 28.5826C252.99 27.9125 252.964 27.2681 252.784 26.6238C252.32 24.897 251.392 23.531 249.691 22.7836C248.892 22.4486 247.784 22.2424 247.165 22.3455C247.268 22.3455 247.371 22.3712 247.5 22.397C249.098 22.7063 250.361 23.4537 251.211 24.8712C251.907 26.031 252.165 27.2939 252.139 28.6599C252.114 32.8094 252.139 36.9846 252.139 41.1341C252.139 41.2114 252.139 41.2888 252.139 41.3661C252.242 41.3661 252.32 41.3661 252.397 41.3661C252.577 41.3661 252.784 41.3661 252.99 41.3661V41.3403ZM241.031 23.531C242.371 20.2578 244.923 18.6857 248.196 18.3506C247.449 18.2991 246.572 18.4022 245.696 18.6341C243.815 19.1496 242.268 20.129 241.134 21.7269C241.083 21.8042 241.031 21.9073 241.031 21.9846C241.031 22.5001 241.031 23.0156 241.031 23.531Z" fill="#04121E"/>
</g>
<defs>
<clipPath id="clip0_1644_3728">
<rect width="257.99" height="50" fill="white"/>
</clipPath>
</defs>
</svg>
