<svg width="18" height="15" viewBox="0 0 18 15" fill="none" xmlns="http://www.w3.org/2000/svg">
<path d="M15.363 7.89H13.6C13.3659 7.89002 13.1328 7.9213 12.907 7.983C12.6868 7.54846 12.3506 7.18335 11.9356 6.92813C11.5207 6.67291 11.0432 6.53753 10.556 6.53699H7.443C6.95584 6.53753 6.47834 6.67291 6.06339 6.92813C5.64844 7.18335 5.31223 7.54846 5.092 7.983C4.86617 7.9213 4.63311 7.89002 4.399 7.89H2.637C1.93804 7.89079 1.26792 8.16873 0.773589 8.66287C0.279256 9.15702 0.00105858 9.82704 0 10.526L0 13.343C0.000529225 13.7624 0.167374 14.1645 0.463942 14.4611C0.760509 14.7576 1.16259 14.9245 1.582 14.925H16.418C16.8374 14.9245 17.2395 14.7576 17.5361 14.4611C17.8326 14.1645 17.9995 13.7624 18 13.343V10.526C17.9989 9.82704 17.7207 9.15702 17.2264 8.66287C16.7321 8.16873 16.062 7.89079 15.363 7.89ZM4.806 9.174V13.874H1.582C1.44231 13.8737 1.30842 13.8181 1.20965 13.7193C1.11087 13.6206 1.05526 13.4867 1.055 13.347V10.53C1.05553 10.1106 1.22237 9.70851 1.51894 9.41194C1.81551 9.11537 2.21759 8.94853 2.637 8.948H4.4C4.53983 8.9479 4.67905 8.96638 4.814 9.00299C4.809 9.05699 4.806 9.115 4.806 9.174ZM12.139 13.874H5.861V9.174C5.86153 8.75459 6.02837 8.35251 6.32494 8.05594C6.62151 7.75937 7.02359 7.59252 7.443 7.592H10.557C10.9764 7.59252 11.3785 7.75937 11.6751 8.05594C11.9716 8.35251 12.1385 8.75459 12.139 9.174V13.874ZM16.945 13.347C16.9447 13.4867 16.8891 13.6206 16.7904 13.7193C16.6916 13.8181 16.5577 13.8737 16.418 13.874H13.194V9.174C13.194 9.115 13.194 9.057 13.188 9C13.323 8.96342 13.4622 8.94491 13.602 8.94499H15.364C15.7834 8.94552 16.1855 9.11237 16.4821 9.40894C16.7786 9.7055 16.9455 10.1076 16.946 10.527L16.945 13.347Z" fill="#131819"/>
<path d="M3.51805 2.90601C3.05465 2.90601 2.60165 3.04342 2.21635 3.30087C1.83105 3.55832 1.53074 3.92425 1.3534 4.35238C1.17606 4.78051 1.12966 5.2516 1.22007 5.7061C1.31047 6.1606 1.53363 6.57809 1.8613 6.90576C2.18898 7.23344 2.60646 7.45658 3.06095 7.54698C3.51545 7.63739 3.98655 7.59099 4.41468 7.41365C4.8428 7.23631 5.20873 6.93601 5.46618 6.5507C5.72363 6.1654 5.86105 5.71241 5.86105 5.24901C5.86026 4.62785 5.61315 4.03236 5.17393 3.59313C4.7347 3.15391 4.13921 2.9068 3.51805 2.90601ZM3.51805 6.537C3.26331 6.537 3.01429 6.46147 2.80247 6.31995C2.59066 6.17842 2.42558 5.97725 2.32809 5.7419C2.23061 5.50655 2.2051 5.24757 2.2548 4.99773C2.3045 4.74788 2.42717 4.51838 2.6073 4.33825C2.78743 4.15812 3.01693 4.03545 3.26677 3.98576C3.51662 3.93606 3.7756 3.96157 4.01095 4.05905C4.2463 4.15654 4.44746 4.32162 4.58899 4.53343C4.73051 4.74524 4.80605 4.99427 4.80605 5.24901C4.80631 5.41841 4.77321 5.5862 4.70862 5.74281C4.64404 5.89942 4.54924 6.04179 4.42963 6.16176C4.31003 6.28173 4.16797 6.37698 4.01156 6.44205C3.85515 6.50712 3.68746 6.54074 3.51805 6.541V6.537Z" fill="#131819"/>
<path d="M9.00012 0C8.38106 0 7.7759 0.183571 7.26118 0.5275C6.74645 0.871429 6.34528 1.36027 6.10838 1.9322C5.87147 2.50413 5.80949 3.13347 5.93026 3.74063C6.05103 4.34779 6.34914 4.9055 6.78687 5.34324C7.22461 5.78098 7.78233 6.07909 8.38949 6.19986C8.99665 6.32063 9.62598 6.25865 10.1979 6.02174C10.7698 5.78484 11.2587 5.38366 11.6026 4.86893C11.9466 4.35421 12.1301 3.74906 12.1301 3.13C12.1291 2.3002 11.799 1.50468 11.2122 0.917923C10.6254 0.331163 9.82992 0.00105842 9.00012 0ZM9.00012 5.206C8.58952 5.206 8.18815 5.08425 7.84675 4.85613C7.50535 4.62802 7.23927 4.30379 7.08215 3.92445C6.92502 3.54511 6.88391 3.1277 6.96401 2.72499C7.04412 2.32229 7.24182 1.95238 7.53216 1.66204C7.82249 1.37171 8.19241 1.17399 8.59512 1.09389C8.99782 1.01379 9.41522 1.0549 9.79456 1.21202C10.1739 1.36915 10.4981 1.63524 10.7263 1.97663C10.9544 2.31803 11.0761 2.71941 11.0761 3.13C11.0756 3.68043 10.8567 4.20816 10.4675 4.59737C10.0783 4.98658 9.55054 5.20547 9.00012 5.206Z" fill="#131819"/>
<path d="M14.4819 2.90601C14.0185 2.90601 13.5655 3.04342 13.1802 3.30087C12.7949 3.55832 12.4946 3.92425 12.3173 4.35238C12.1399 4.78051 12.0935 5.2516 12.1839 5.7061C12.2743 6.1606 12.4975 6.57809 12.8252 6.90576C13.1528 7.23344 13.5703 7.45658 14.0248 7.54698C14.4793 7.63739 14.9504 7.59099 15.3785 7.41365C15.8067 7.23631 16.1726 6.93601 16.4301 6.5507C16.6875 6.1654 16.8249 5.71241 16.8249 5.24901C16.8241 4.62785 16.577 4.03236 16.1378 3.59313C15.6986 3.15391 15.1031 2.9068 14.4819 2.90601ZM14.4819 6.537C14.2272 6.537 13.9781 6.46147 13.7663 6.31995C13.5545 6.17842 13.3895 5.97725 13.292 5.7419C13.1945 5.50655 13.169 5.24757 13.2187 4.99773C13.2684 4.74788 13.391 4.51838 13.5712 4.33825C13.7513 4.15812 13.9808 4.03545 14.2306 3.98576C14.4805 3.93606 14.7394 3.96157 14.9748 4.05905C15.2102 4.15654 15.4113 4.32162 15.5529 4.53343C15.6944 4.74524 15.7699 4.99427 15.7699 5.24901C15.7702 5.41841 15.7371 5.5862 15.6725 5.74281C15.6079 5.89942 15.5131 6.04179 15.3935 6.16176C15.2739 6.28173 15.1319 6.37698 14.9754 6.44205C14.819 6.50712 14.6513 6.54074 14.4819 6.541V6.537Z" fill="#131819"/>
</svg>
