<svg width="20" height="17" viewBox="0 0 20 17" fill="none" xmlns="http://www.w3.org/2000/svg">
<g clip-path="url(#clip0_1_955)">
<path d="M17.07 8.76665H15.1111C14.851 8.76667 14.592 8.80143 14.3411 8.86999C14.0964 8.38717 13.7228 7.98149 13.2618 7.69791C12.8007 7.41433 12.2702 7.26391 11.7289 7.26331H8.27C7.72871 7.26391 7.19816 7.41433 6.7371 7.69791C6.27604 7.98149 5.90247 8.38717 5.65778 8.86999C5.40685 8.80143 5.1479 8.76667 4.88778 8.76665H2.93C2.15338 8.76753 1.4088 9.07635 0.859544 9.6254C0.310285 10.1745 0.0011762 10.9189 0 11.6955L0 14.8255C0.000588027 15.2915 0.185971 15.7383 0.515491 16.0678C0.845011 16.3974 1.29177 16.5827 1.75778 16.5833H18.2422C18.7082 16.5827 19.155 16.3974 19.4845 16.0678C19.814 15.7383 19.9994 15.2915 20 14.8255V11.6955C19.9988 10.9189 19.6897 10.1745 19.1405 9.6254C18.5912 9.07635 17.8466 8.76753 17.07 8.76665ZM5.34 10.1933V15.4155H1.75778C1.60257 15.4152 1.4538 15.3535 1.34405 15.2437C1.2343 15.134 1.17252 14.9852 1.17222 14.83V11.7C1.17281 11.234 1.35819 10.7872 1.68771 10.4577C2.01723 10.1282 2.46399 9.94279 2.93 9.94221H4.88889C5.04425 9.94209 5.19894 9.96264 5.34889 10.0033C5.34333 10.0633 5.34 10.1278 5.34 10.1933ZM13.4878 15.4155H6.51222V10.1933C6.51281 9.7273 6.69819 9.28055 7.02771 8.95103C7.35723 8.62151 7.80399 8.43612 8.27 8.43554H11.73C12.196 8.43612 12.6428 8.62151 12.9723 8.95103C13.3018 9.28055 13.4872 9.7273 13.4878 10.1933V15.4155ZM18.8278 14.83C18.8275 14.9852 18.7657 15.134 18.6559 15.2437C18.5462 15.3535 18.3974 15.4152 18.2422 15.4155H14.66V10.1933C14.66 10.1278 14.66 10.0633 14.6533 9.99999C14.8033 9.95934 14.958 9.93878 15.1133 9.93887H17.0711C17.5371 9.93945 17.9839 10.1248 18.3134 10.4544C18.6429 10.7839 18.8283 11.2306 18.8289 11.6966L18.8278 14.83Z" fill="#909090"/>
<path d="M3.909 3.22888C3.39411 3.22888 2.89078 3.38156 2.46267 3.66762C2.03455 3.95368 1.70087 4.36027 1.50383 4.83596C1.30679 5.31166 1.25524 5.8351 1.35569 6.3401C1.45614 6.8451 1.70408 7.30897 2.06817 7.67306C2.43225 8.03714 2.89612 8.28507 3.40111 8.38552C3.90611 8.48597 4.42955 8.43442 4.90525 8.23738C5.38095 8.04034 5.78753 7.70666 6.07359 7.27855C6.35965 6.85043 6.51233 6.34711 6.51233 5.83222C6.51145 5.14204 6.23689 4.48038 5.74886 3.99236C5.26083 3.50433 4.59918 3.22976 3.909 3.22888ZM3.909 7.26332C3.62595 7.26332 3.34926 7.1794 3.11391 7.02215C2.87857 6.8649 2.69514 6.64137 2.58683 6.37987C2.47851 6.11837 2.45017 5.83062 2.50539 5.55302C2.56061 5.27541 2.69691 5.02041 2.89705 4.82026C3.09719 4.62012 3.35219 4.48382 3.6298 4.4286C3.90741 4.37338 4.19516 4.40173 4.45666 4.51004C4.71816 4.61836 4.94167 4.80179 5.09893 5.03713C5.25618 5.27248 5.34011 5.54917 5.34011 5.83222C5.3404 6.02045 5.30362 6.20688 5.23186 6.38089C5.16009 6.5549 5.05476 6.71308 4.92187 6.84638C4.78898 6.97969 4.63113 7.08552 4.45735 7.15782C4.28356 7.23012 4.09723 7.26747 3.909 7.26777V7.26332Z" fill="#909090"/>
<path d="M10.0002 0C9.3124 0 8.64 0.203968 8.06808 0.586111C7.49617 0.968254 7.05042 1.51141 6.78719 2.14689C6.52397 2.78237 6.4551 3.48163 6.58929 4.15626C6.72348 4.83088 7.0547 5.45056 7.54108 5.93694C8.02745 6.42331 8.64714 6.75454 9.32176 6.88873C9.99639 7.02292 10.6956 6.95405 11.3311 6.69083C11.9666 6.4276 12.5098 5.98185 12.8919 5.40993C13.2741 4.83801 13.478 4.16562 13.478 3.47778C13.4768 2.55578 13.1101 1.67187 12.4581 1.01991C11.8061 0.367959 10.9222 0.00117603 10.0002 0ZM10.0002 5.78445C9.54402 5.78445 9.09805 5.64916 8.71872 5.3957C8.33939 5.14224 8.04375 4.78199 7.86916 4.3605C7.69457 3.93901 7.6489 3.47522 7.7379 3.02777C7.8269 2.58032 8.04658 2.16931 8.36917 1.84672C8.69177 1.52412 9.10279 1.30444 9.55024 1.21543C9.99769 1.12643 10.4615 1.17211 10.883 1.34669C11.3044 1.52128 11.6647 1.81693 11.9182 2.19626C12.1716 2.57559 12.3069 3.02156 12.3069 3.47778C12.3063 4.08936 12.0631 4.67573 11.6307 5.10819C11.1982 5.54065 10.6118 5.78386 10.0002 5.78445Z" fill="#909090"/>
<path d="M16.0911 3.22888C15.5762 3.22888 15.0729 3.38156 14.6448 3.66762C14.2167 3.95368 13.883 4.36027 13.686 4.83596C13.4889 5.31166 13.4374 5.8351 13.5378 6.3401C13.6383 6.8451 13.8862 7.30897 14.2503 7.67306C14.6144 8.03714 15.0782 8.28507 15.5832 8.38552C16.0882 8.48597 16.6117 8.43442 17.0874 8.23738C17.5631 8.04034 17.9697 7.70666 18.2557 7.27855C18.5418 6.85043 18.6945 6.34711 18.6945 5.83222C18.6936 5.14204 18.419 4.48038 17.931 3.99236C17.443 3.50433 16.7813 3.22976 16.0911 3.22888ZM16.0911 7.26332C15.8081 7.26332 15.5314 7.1794 15.296 7.02215C15.0607 6.8649 14.8773 6.64137 14.769 6.37987C14.6606 6.11837 14.6323 5.83062 14.6875 5.55302C14.7427 5.27541 14.879 5.02041 15.0792 4.82026C15.2793 4.62012 15.5343 4.48382 15.8119 4.4286C16.0895 4.37338 16.3773 4.40173 16.6388 4.51004C16.9003 4.61836 17.1238 4.80179 17.2811 5.03713C17.4383 5.27248 17.5222 5.54917 17.5222 5.83222C17.5225 6.02045 17.4858 6.20688 17.414 6.38089C17.3422 6.5549 17.2369 6.71308 17.104 6.84638C16.9711 6.97969 16.8133 7.08552 16.6395 7.15782C16.4657 7.23012 16.2793 7.26747 16.0911 7.26777V7.26332Z" fill="#909090"/>
</g>
<defs>
<clipPath id="clip0_1_955">
<rect width="20" height="16.5856" fill="white"/>
</clipPath>
</defs>
</svg>
