<svg width="18" height="18" viewBox="0 0 18 18" fill="none" xmlns="http://www.w3.org/2000/svg">
<g clip-path="url(#clip0_1_2319)">
<path d="M14.063 10.125H11.663C11.565 10.1276 11.4693 10.1554 11.3851 10.2057C11.3009 10.256 11.2311 10.3271 11.1823 10.4121C11.1335 10.4972 11.1074 10.5933 11.1065 10.6914C11.1055 10.7894 11.1298 10.886 11.177 10.972C11.2261 11.0564 11.2519 11.1523 11.252 11.25C11.2459 11.3951 11.1839 11.5322 11.0791 11.6327C10.9743 11.7332 10.8347 11.7893 10.6895 11.7893C10.5443 11.7893 10.4047 11.7332 10.2999 11.6327C10.1951 11.5322 10.1331 11.3951 10.127 11.25C10.127 11.1535 10.1521 11.0587 10.2 10.975C10.2475 10.8891 10.272 10.7924 10.2712 10.6942C10.2704 10.5961 10.2443 10.4998 10.1955 10.4147C10.1466 10.3295 10.0767 10.2584 9.99233 10.2082C9.90799 10.158 9.81213 10.1304 9.714 10.128H7.875V9C8.10006 9.00548 8.32395 8.96588 8.53348 8.88354C8.74301 8.8012 8.93395 8.67777 9.09506 8.52053C9.25618 8.36329 9.38421 8.17541 9.47163 7.96795C9.55905 7.76048 9.60408 7.53763 9.60408 7.3125C9.60408 7.08737 9.55905 6.86452 9.47163 6.65705C9.38421 6.44959 9.25618 6.26171 9.09506 6.10447C8.93395 5.94723 8.74301 5.8238 8.53348 5.74146C8.32395 5.65912 8.10006 5.61952 7.875 5.625V3.938C7.87513 3.86411 7.86069 3.79093 7.83251 3.72262C7.80432 3.65432 7.76295 3.59225 7.71075 3.53996C7.65855 3.48767 7.59655 3.44618 7.5283 3.41788C7.46005 3.38957 7.38689 3.375 7.313 3.375H1.688C1.2404 3.37526 0.8112 3.55319 0.494696 3.8697C0.178192 4.1862 0.000264933 4.6154 0 5.063L0 16.313C0.000264933 16.7606 0.178192 17.1898 0.494696 17.5063C0.8112 17.8228 1.2404 18.0007 1.688 18.001H12.938C13.3854 18.0007 13.8145 17.8229 14.131 17.5067C14.4474 17.1904 14.6255 16.7614 14.626 16.314V10.688C14.626 10.5389 14.5668 10.396 14.4614 10.2906C14.356 10.1852 14.2131 10.126 14.064 10.126L14.063 10.125ZM1.125 5.063C1.12526 4.91386 1.1847 4.77091 1.29025 4.66554C1.39581 4.56018 1.53886 4.501 1.688 4.501H6.75V6.339C6.75181 6.43768 6.7792 6.53419 6.82951 6.6191C6.87981 6.70401 6.9513 6.77441 7.03698 6.82339C7.12266 6.87238 7.21959 6.89828 7.31828 6.89856C7.41697 6.89885 7.51404 6.8735 7.6 6.825C7.68445 6.77598 7.78035 6.75011 7.878 6.75C8.02308 6.75612 8.16019 6.81806 8.26068 6.92288C8.36117 7.0277 8.41728 7.16729 8.41728 7.3125C8.41728 7.45771 8.36117 7.5973 8.26068 7.70212C8.16019 7.80694 8.02308 7.86888 7.878 7.875C7.78035 7.87489 7.68445 7.84902 7.6 7.8C7.51418 7.75192 7.41735 7.72691 7.31898 7.72742C7.22061 7.72792 7.12405 7.75392 7.03872 7.80288C6.9534 7.85184 6.88222 7.92209 6.83215 8.00676C6.78207 8.09143 6.7548 8.18764 6.753 8.286V10.125H5.625C5.61428 9.68456 5.43178 9.26577 5.11648 8.95805C4.80118 8.65033 4.37807 8.47808 3.9375 8.47808C3.49693 8.47808 3.07382 8.65033 2.75852 8.95805C2.44322 9.26577 2.26072 9.68456 2.25 10.125H1.125V5.063ZM6.75 16.875H1.688C1.53903 16.8747 1.39624 16.8154 1.2909 16.7101C1.18556 16.6048 1.12626 16.462 1.126 16.313V11.25H2.964C3.06193 11.2472 3.15749 11.2193 3.24153 11.1689C3.32557 11.1186 3.39527 11.0475 3.44396 10.9625C3.49264 10.8775 3.51867 10.7814 3.51955 10.6834C3.52043 10.5854 3.49614 10.4889 3.449 10.403C3.40007 10.3185 3.3742 10.2226 3.374 10.125C3.38012 9.97992 3.44206 9.84281 3.54688 9.74232C3.6517 9.64183 3.79129 9.58572 3.9365 9.58572C4.08171 9.58572 4.2213 9.64183 4.32612 9.74232C4.43094 9.84281 4.49288 9.97992 4.499 10.125C4.4988 10.2226 4.47293 10.3185 4.424 10.403C4.37686 10.4889 4.35257 10.5854 4.35345 10.6834C4.35433 10.7814 4.38036 10.8775 4.42904 10.9625C4.47773 11.0475 4.54743 11.1186 4.63147 11.1689C4.71551 11.2193 4.81107 11.2472 4.909 11.25H6.75V12.375C6.30956 12.3857 5.89076 12.5682 5.58305 12.8835C5.27533 13.1988 5.10308 13.6219 5.10308 14.0625C5.10308 14.5031 5.27533 14.9262 5.58305 15.2415C5.89076 15.5568 6.30956 15.7393 6.75 15.75V16.875ZM13.5 16.313C13.5 16.4621 13.4408 16.6052 13.3355 16.7107C13.2301 16.8163 13.0871 16.8757 12.938 16.876H7.875V15.036C7.87349 14.9375 7.8464 14.8411 7.79639 14.7563C7.74638 14.6715 7.67517 14.6011 7.58975 14.5521C7.50433 14.503 7.40763 14.4771 7.30915 14.4767C7.21066 14.4764 7.11378 14.5016 7.028 14.55C6.94354 14.599 6.84765 14.6249 6.75 14.625C6.60492 14.6189 6.46781 14.5569 6.36732 14.4521C6.26683 14.3473 6.21072 14.2077 6.21072 14.0625C6.21072 13.9173 6.26683 13.7777 6.36732 13.6729C6.46781 13.5681 6.60492 13.5061 6.75 13.5C6.84765 13.5001 6.94354 13.526 7.028 13.575C7.11378 13.6234 7.21066 13.6486 7.30915 13.6483C7.40763 13.6479 7.50433 13.622 7.58975 13.5729C7.67517 13.5239 7.74638 13.4535 7.79639 13.3687C7.8464 13.2839 7.87349 13.1875 7.875 13.089V11.25H9C8.99452 11.4751 9.03412 11.6989 9.11646 11.9085C9.1988 12.118 9.32223 12.3089 9.47947 12.4701C9.63671 12.6312 9.82459 12.7592 10.0321 12.8466C10.2395 12.934 10.4624 12.9791 10.6875 12.9791C10.9126 12.9791 11.1355 12.934 11.3429 12.8466C11.5504 12.7592 11.7383 12.6312 11.8955 12.4701C12.0528 12.3089 12.1762 12.118 12.2585 11.9085C12.3409 11.6989 12.3805 11.4751 12.375 11.25H13.5V16.313Z" fill="#131819"/>
<path d="M16.313 2.96235e-07H10.688C10.6141 1.79268e-07 10.5409 0.0145698 10.4727 0.0428755C10.4044 0.0711811 10.3424 0.112667 10.2902 0.16496C10.238 0.217252 10.1967 0.279325 10.1685 0.347625C10.1403 0.415926 10.1258 0.489113 10.126 0.563V2.963C10.1304 3.04925 10.154 3.13343 10.1951 3.2094C10.2362 3.28538 10.2937 3.35124 10.3634 3.4022C10.4331 3.45316 10.5134 3.48793 10.5982 3.50398C10.6831 3.52003 10.7705 3.51697 10.854 3.495C10.9803 3.43422 11.1152 3.39341 11.254 3.374C11.3991 3.38012 11.5362 3.44206 11.6367 3.54688C11.7371 3.6517 11.7933 3.79129 11.7933 3.9365C11.7933 4.08171 11.7371 4.2213 11.6367 4.32612C11.5362 4.43094 11.3991 4.49288 11.254 4.499C11.1563 4.49894 11.0604 4.47307 10.976 4.424C10.8895 4.37778 10.7926 4.35433 10.6945 4.35587C10.5965 4.35741 10.5004 4.38388 10.4154 4.43279C10.3304 4.4817 10.2592 4.55145 10.2086 4.63546C10.1579 4.71947 10.1295 4.81498 10.126 4.913V7.313C10.1261 7.38761 10.1411 7.46144 10.1701 7.53019C10.1991 7.59893 10.2415 7.66119 10.2949 7.71334C10.3482 7.76549 10.4114 7.80647 10.4808 7.83388C10.5502 7.8613 10.6244 7.8746 10.699 7.873H12.377C12.3877 8.31344 12.5702 8.73223 12.8855 9.03995C13.2008 9.34767 13.6239 9.51992 14.0645 9.51992C14.505 9.51992 14.9282 9.34767 15.2435 9.03995C15.5588 8.73223 15.7413 8.31344 15.752 7.873H17.44C17.5139 7.87313 17.5871 7.85869 17.6554 7.83051C17.7237 7.80232 17.7857 7.76095 17.838 7.70875C17.8903 7.65655 17.9318 7.59455 17.9601 7.5263C17.9884 7.45805 18.003 7.38489 18.003 7.311V1.688C18.0028 1.4662 17.959 1.24659 17.874 1.04172C17.789 0.836855 17.6645 0.650735 17.5076 0.49399C17.3506 0.337244 17.1644 0.212944 16.9594 0.128185C16.7544 0.0434261 16.5348 -0.000131065 16.313 2.96235e-07ZM16.876 6.75H15.036C14.9592 6.75344 14.8838 6.77213 14.8143 6.80496C14.7447 6.8378 14.6824 6.88413 14.631 6.94126C14.5795 6.9984 14.5399 7.0652 14.5145 7.13777C14.4891 7.21034 14.4784 7.28724 14.483 7.364C14.502 7.542 14.625 7.694 14.625 7.875C14.6189 8.02008 14.5569 8.15719 14.4521 8.25768C14.3473 8.35817 14.2077 8.41428 14.0625 8.41428C13.9173 8.41428 13.7777 8.35817 13.6729 8.25768C13.568 8.15719 13.5061 8.02008 13.5 7.875C13.5205 7.72786 13.5619 7.58441 13.623 7.449C13.6426 7.36703 13.6438 7.28171 13.6263 7.19924C13.6089 7.11677 13.5733 7.03922 13.5222 6.9722C13.4711 6.90518 13.4057 6.85038 13.3307 6.81178C13.2558 6.77317 13.1732 6.75173 13.089 6.749H11.249V5.624C11.6894 5.61328 12.1082 5.43078 12.4159 5.11548C12.7236 4.80018 12.8959 4.37707 12.8959 3.9365C12.8959 3.49593 12.7236 3.07282 12.4159 2.75752C12.1082 2.44222 11.6894 2.25972 11.249 2.249V1.125H16.312C16.4613 1.125 16.6045 1.18432 16.7101 1.2899C16.8157 1.39548 16.875 1.53868 16.875 1.688L16.876 6.75Z" fill="#131819"/>
</g>
<defs>
<clipPath id="clip0_1_2319">
<rect width="18" height="18" fill="white"/>
</clipPath>
</defs>
</svg>
