<svg width="20" height="20" viewBox="0 0 20 20" fill="none" xmlns="http://www.w3.org/2000/svg">
<g clip-path="url(#clip0_1_949)">
<path d="M15.6256 11.25H12.9589C12.85 11.2529 12.7437 11.2838 12.6501 11.3397C12.5566 11.3956 12.479 11.4745 12.4248 11.569C12.3706 11.6635 12.3416 11.7704 12.3405 11.8793C12.3395 11.9882 12.3665 12.0956 12.4189 12.1911C12.4734 12.2849 12.5022 12.3915 12.5022 12.5C12.4954 12.6612 12.4266 12.8135 12.3101 12.9252C12.1937 13.0369 12.0386 13.0992 11.8772 13.0992C11.7159 13.0992 11.5608 13.0369 11.4443 12.9252C11.3278 12.8135 11.259 12.6612 11.2522 12.5C11.2522 12.3928 11.2802 12.2875 11.3333 12.1944C11.3861 12.099 11.4133 11.9915 11.4125 11.8825C11.4116 11.7734 11.3826 11.6664 11.3283 11.5718C11.274 11.4772 11.1963 11.3982 11.1026 11.3424C11.0089 11.2867 10.9024 11.256 10.7933 11.2533H8.75V10C9.00007 10.0061 9.24883 9.96209 9.48164 9.8706C9.71445 9.77911 9.92661 9.64197 10.1056 9.46726C10.2846 9.29255 10.4269 9.08379 10.524 8.85327C10.6212 8.62276 10.6712 8.37514 10.6712 8.125C10.6712 7.87486 10.6212 7.62724 10.524 7.39673C10.4269 7.16621 10.2846 6.95745 10.1056 6.78274C9.92661 6.60803 9.71445 6.47089 9.48164 6.3794C9.24883 6.28791 9.00007 6.24391 8.75 6.25V4.37556C8.75015 4.29346 8.7341 4.21214 8.70279 4.13625C8.67147 4.06036 8.6255 3.99139 8.5675 3.93329C8.5095 3.87519 8.44061 3.82909 8.36478 3.79764C8.28894 3.76619 8.20765 3.75 8.12556 3.75H1.87556C1.37822 3.75029 0.901334 3.94799 0.549663 4.29966C0.197992 4.65133 0.00029437 5.12822 0 5.62556L0 18.1256C0.00029437 18.6229 0.197992 19.0998 0.549663 19.4514C0.901334 19.8031 1.37822 20.0008 1.87556 20.0011H14.3756C14.8727 20.0008 15.3494 19.8033 15.7011 19.4518C16.0527 19.1004 16.2505 18.6238 16.2511 18.1267V11.8756C16.2511 11.7099 16.1853 11.5511 16.0682 11.434C15.9511 11.3169 15.7923 11.2511 15.6267 11.2511L15.6256 11.25ZM1.25 5.62556C1.25029 5.45984 1.31633 5.30101 1.43361 5.18394C1.5509 5.06686 1.70984 5.00111 1.87556 5.00111H7.5V7.04333C7.50201 7.15297 7.53245 7.26021 7.58834 7.35456C7.64424 7.4489 7.72367 7.52712 7.81887 7.58155C7.91406 7.63598 8.02176 7.66476 8.13142 7.66507C8.24108 7.66538 8.34894 7.63722 8.44444 7.58333C8.53828 7.52886 8.64483 7.50012 8.75333 7.5C8.91453 7.5068 9.06687 7.57562 9.17853 7.69208C9.29019 7.80855 9.35253 7.96366 9.35253 8.125C9.35253 8.28634 9.29019 8.44145 9.17853 8.55791C9.06687 8.67438 8.91453 8.7432 8.75333 8.75C8.64483 8.74988 8.53828 8.72113 8.44444 8.66667C8.34908 8.61325 8.2415 8.58546 8.1322 8.58602C8.0229 8.58658 7.91561 8.61547 7.8208 8.66987C7.726 8.72427 7.64692 8.80232 7.59127 8.8964C7.53563 8.99048 7.50533 9.09738 7.50333 9.20667V11.25H6.25C6.23809 10.7606 6.03531 10.2953 5.68498 9.95339C5.33465 9.61148 4.86452 9.42009 4.375 9.42009C3.88548 9.42009 3.41535 9.61148 3.06502 9.95339C2.71469 10.2953 2.51191 10.7606 2.5 11.25H1.25V5.62556ZM7.5 18.75H1.87556C1.71003 18.7497 1.55137 18.6838 1.43433 18.5668C1.31729 18.4497 1.25141 18.2911 1.25111 18.1256V12.5H3.29333C3.40214 12.4969 3.50832 12.4659 3.6017 12.4099C3.69508 12.354 3.77253 12.275 3.82662 12.1805C3.88071 12.0861 3.90963 11.9793 3.91061 11.8704C3.91159 11.7616 3.8846 11.6543 3.83222 11.5589C3.77785 11.465 3.74911 11.3585 3.74889 11.25C3.75569 11.0888 3.82451 10.9365 3.94097 10.8248C4.05744 10.7131 4.21254 10.6508 4.37389 10.6508C4.53523 10.6508 4.69034 10.7131 4.8068 10.8248C4.92327 10.9365 4.99209 11.0888 4.99889 11.25C4.99866 11.3585 4.96993 11.465 4.91556 11.5589C4.86318 11.6543 4.83619 11.7616 4.83717 11.8704C4.83815 11.9793 4.86707 12.0861 4.92116 12.1805C4.97525 12.275 5.0527 12.354 5.14608 12.4099C5.23945 12.4659 5.34564 12.4969 5.45444 12.5H7.5V13.75C7.01062 13.7619 6.54529 13.9647 6.20339 14.315C5.86148 14.6654 5.67009 15.1355 5.67009 15.625C5.67009 16.1145 5.86148 16.5846 6.20339 16.935C6.54529 17.2853 7.01062 17.4881 7.5 17.5V18.75ZM15 18.1256C15 18.2913 14.9342 18.4502 14.8172 18.5675C14.7001 18.6848 14.5413 18.7508 14.3756 18.7511H8.75V16.7067C8.74832 16.5973 8.71822 16.4902 8.66266 16.3959C8.60709 16.3016 8.52797 16.2234 8.43306 16.169C8.33814 16.1145 8.2307 16.0856 8.12127 16.0852C8.01185 16.0848 7.9042 16.1129 7.80889 16.1667C7.71505 16.2211 7.6085 16.2499 7.5 16.25C7.3388 16.2432 7.18646 16.1744 7.0748 16.0579C6.96314 15.9414 6.9008 15.7863 6.9008 15.625C6.9008 15.4637 6.96314 15.3086 7.0748 15.1921C7.18646 15.0756 7.3388 15.0068 7.5 15C7.6085 15.0001 7.71505 15.0289 7.80889 15.0833C7.9042 15.1371 8.01185 15.1652 8.12127 15.1648C8.2307 15.1644 8.33814 15.1355 8.43306 15.081C8.52797 15.0266 8.60709 14.9484 8.66266 14.8541C8.71822 14.7598 8.74832 14.6527 8.75 14.5433V12.5H10C9.99391 12.7501 10.0379 12.9988 10.1294 13.2316C10.2209 13.4645 10.358 13.6766 10.5327 13.8556C10.7075 14.0346 10.9162 14.1769 11.1467 14.274C11.3772 14.3712 11.6249 14.4212 11.875 14.4212C12.1251 14.4212 12.3728 14.3712 12.6033 14.274C12.8338 14.1769 13.0425 14.0346 13.2173 13.8556C13.392 13.6766 13.5291 13.4645 13.6206 13.2316C13.7121 12.9988 13.7561 12.7501 13.75 12.5H15V18.1256Z" fill="#909090"/>
<path d="M18.1254 3.29151e-07H11.8754C11.7933 1.99186e-07 11.712 0.0161887 11.6362 0.0476394C11.5604 0.0790901 11.4915 0.125186 11.4335 0.183289C11.3755 0.241391 11.3295 0.310361 11.2982 0.38625C11.2669 0.46214 11.2508 0.543459 11.251 0.625556V3.29222C11.2559 3.38806 11.2822 3.48159 11.3278 3.566C11.3734 3.65042 11.4373 3.7236 11.5148 3.78022C11.5923 3.83684 11.6814 3.87548 11.7757 3.89331C11.87 3.91115 11.9671 3.90774 12.0599 3.88333C12.2002 3.81581 12.3501 3.77045 12.5043 3.74889C12.6655 3.75569 12.8179 3.82451 12.9295 3.94097C13.0412 4.05744 13.1035 4.21255 13.1035 4.37389C13.1035 4.53523 13.0412 4.69034 12.9295 4.8068C12.8179 4.92327 12.6655 4.99209 12.5043 4.99889C12.3958 4.99882 12.2892 4.97007 12.1954 4.91556C12.0993 4.8642 11.9917 4.83815 11.8827 4.83986C11.7737 4.84157 11.667 4.87098 11.5725 4.92533C11.4781 4.97967 11.399 5.05716 11.3427 5.15051C11.2865 5.24385 11.2549 5.34998 11.251 5.45889V8.12556C11.2511 8.20845 11.2678 8.29049 11.3 8.36687C11.3322 8.44325 11.3793 8.51244 11.4386 8.57038C11.4979 8.62832 11.5682 8.67385 11.6453 8.70432C11.7224 8.73478 11.8048 8.74955 11.8876 8.74778H13.7521C13.764 9.23716 13.9668 9.70248 14.3171 10.0444C14.6674 10.3863 15.1376 10.5777 15.6271 10.5777C16.1166 10.5777 16.5867 10.3863 16.9371 10.0444C17.2874 9.70248 17.4902 9.23716 17.5021 8.74778H19.3776C19.4597 8.74792 19.5411 8.73188 19.6169 8.70057C19.6928 8.66925 19.7618 8.62328 19.8199 8.56528C19.878 8.50728 19.9241 8.43839 19.9556 8.36256C19.987 8.28672 20.0032 8.20543 20.0032 8.12333V1.87556C20.0031 1.62911 19.9544 1.3851 19.8599 1.15747C19.7655 0.929839 19.6271 0.723039 19.4528 0.548878C19.2784 0.374716 19.0714 0.236604 18.8437 0.142428C18.6159 0.0482513 18.3719 -0.000145627 18.1254 3.29151e-07ZM18.751 7.5H16.7065C16.6212 7.50383 16.5374 7.52458 16.4602 7.56107C16.3829 7.59755 16.3137 7.64903 16.2565 7.71252C16.1994 7.776 16.1554 7.85022 16.1271 7.93086C16.0989 8.01149 16.087 8.09694 16.0921 8.18222C16.1132 8.38 16.2499 8.54889 16.2499 8.75C16.2431 8.9112 16.1742 9.06354 16.0578 9.1752C15.9413 9.28686 15.7862 9.3492 15.6249 9.3492C15.4635 9.3492 15.3084 9.28686 15.192 9.1752C15.0755 9.06354 15.0067 8.9112 14.9999 8.75C15.0226 8.58651 15.0686 8.42712 15.1365 8.27667C15.1583 8.18559 15.1596 8.09079 15.1402 7.99916C15.1209 7.90753 15.0814 7.82135 15.0246 7.74689C14.9677 7.67242 14.8951 7.61154 14.8118 7.56864C14.7286 7.52575 14.6368 7.50192 14.5432 7.49889H12.4988V6.24889C12.9881 6.23698 13.4535 6.0342 13.7954 5.68387C14.1373 5.33354 14.3287 4.86341 14.3287 4.37389C14.3287 3.88437 14.1373 3.41424 13.7954 3.06391C13.4535 2.71358 12.9881 2.5108 12.4988 2.49889V1.25H18.1243C18.2902 1.25 18.4493 1.31591 18.5666 1.43322C18.684 1.55054 18.7499 1.70965 18.7499 1.87556L18.751 7.5Z" fill="#909090"/>
</g>
<defs>
<clipPath id="clip0_1_949">
<rect width="20" height="20" fill="white"/>
</clipPath>
</defs>
</svg>
