<svg width="100" height="22" viewBox="0 0 100 22" fill="none" xmlns="http://www.w3.org/2000/svg">
<path d="M5.67304 10.3184C4.53768 10.2095 3.39731 10.3309 2.25695 10.2282C1.18167 10.1306 0.415589 9.70375 0 8.70233V7.58325C0.559543 6.33773 1.61228 6.07361 2.86155 6.08237C5.7544 6.1049 8.646 6.07862 11.5388 6.07361C11.8405 6.07486 12.1409 6.07736 12.4426 6.07862C12.7017 6.07862 12.9621 6.07862 13.2212 6.07862C15.5458 6.14621 17.8741 5.99349 20.1961 6.19127C20.2775 6.2814 20.3476 6.38906 20.444 6.45915C21.2601 7.06126 21.5518 7.81858 21.3039 8.71735C21.0623 9.59234 20.3851 10.0843 19.3687 10.2007C18.1645 10.3397 16.9565 10.2458 15.7511 10.3034C15.4256 10.1581 15.0951 10.2082 14.7634 10.2746C14.6057 10.2633 14.448 10.2508 14.2915 10.2395C11.9106 10.2295 9.531 10.2207 7.15013 10.2107C6.65568 10.2082 6.15998 10.1882 5.67429 10.3171L5.67304 10.3184Z" fill="#75C5C3"/>
<path d="M11.5375 6.0736C11.5375 4.85938 11.5338 3.64516 11.5363 2.43094C11.5375 1.33314 11.9969 0.504465 12.9971 0H14.2476C14.8535 0.316699 15.398 0.693482 15.6158 1.38822C15.2015 1.66235 14.8222 1.97905 14.558 2.40215C13.8095 3.6026 13.0822 4.81557 12.4413 6.07861C12.1396 6.07736 11.8392 6.07486 11.5375 6.0736Z" fill="#D8569A"/>
<path d="M68.1979 13.3351C67.8675 14.6132 67.5658 15.7861 67.2616 16.959C66.9695 18.0847 66.2389 18.6476 65.0697 18.6476C64.4451 18.6476 63.8205 18.6364 63.1958 18.6526C62.8591 18.6614 62.6601 18.5688 62.5725 18.2082C61.7688 14.9161 60.8062 11.6652 59.8786 8.40686C59.751 7.95998 59.9087 7.80977 60.3643 7.82479C61.1342 7.84982 61.9065 7.85859 62.6751 7.82103C63.1333 7.7985 63.3373 7.94746 63.4437 8.39935C63.9031 10.3509 64.3688 12.3011 64.7393 14.2727C64.7756 14.4667 64.7305 14.7609 64.9809 14.7846C65.3126 14.8159 65.2475 14.4679 65.3001 14.2764C65.8308 12.3224 66.3616 10.3671 66.8573 8.40436C66.9724 7.94996 67.1902 7.82228 67.6384 7.82228C69.4998 7.82479 69.5048 7.80977 69.988 9.60606C70.4173 11.2021 70.8317 12.8018 71.2585 14.3991C71.3036 14.5668 71.3036 14.826 71.5589 14.7922C71.753 14.7659 71.7254 14.538 71.753 14.3778C72.0959 12.3587 72.6142 10.3784 73.0886 8.38809C73.1913 7.95497 73.384 7.81102 73.8121 7.82479C74.5607 7.84982 75.3105 7.82979 76.0603 7.8323C76.7513 7.8348 76.7863 7.87736 76.6023 8.54581C75.805 11.4336 75.0001 14.3202 74.2089 17.2093C73.8159 18.6451 73.8259 18.6476 72.3113 18.6476C71.6453 18.6476 70.9769 18.6151 70.3134 18.6576C69.8102 18.6902 69.6174 18.4774 69.511 18.0242C69.1868 16.636 68.8301 15.2553 68.4908 13.8709C68.452 13.7106 68.417 13.5554 68.1967 13.3363L68.1979 13.3351Z" fill="#424946"/>
<path d="M35.5653 13.0935C36.9022 13.6017 37.4518 14.7221 38.0025 15.8499C38.3743 16.6123 38.7711 17.3621 39.1692 18.1106C39.362 18.4736 39.3094 18.6389 38.86 18.6314C37.9437 18.6164 37.0274 18.6138 36.1124 18.6339C35.7669 18.6414 35.5804 18.5049 35.4364 18.2095C35.0934 17.5035 34.7454 16.7975 34.3649 16.1103C33.9881 15.4293 33.5512 14.8085 32.665 14.7083C32.3258 14.6695 32.2306 14.7596 32.2369 15.0914C32.2532 16.0853 32.2294 17.0792 32.2494 18.0731C32.2569 18.4724 32.1142 18.6389 31.7086 18.6314C30.8975 18.6176 30.0851 18.6164 29.2727 18.6314C28.8821 18.6389 28.7219 18.5125 28.7232 18.0956C28.7344 13.1048 28.7344 8.11397 28.7232 3.12441C28.7232 2.69755 28.9009 2.59616 29.2852 2.60492C30.0338 2.6237 30.7861 2.63872 31.5334 2.60116C32.0716 2.57363 32.2607 2.73761 32.2544 3.29715C32.2281 5.86454 32.2419 8.43192 32.2431 11.0006C32.2431 11.6577 32.4447 11.7792 33.0593 11.4812C33.4261 11.3035 33.6902 11.0118 33.8805 10.6563C34.3111 9.85519 34.7492 9.05656 35.1598 8.24541C35.32 7.92871 35.5203 7.79352 35.8871 7.80353C36.7608 7.82857 37.6358 7.82231 38.5095 7.80729C38.9627 7.79853 39.1442 7.89491 38.8901 8.36934C38.3042 9.46339 37.7447 10.5712 37.1714 11.6715C36.8321 12.3224 36.2513 12.713 35.5653 13.0948V13.0935Z" fill="#424946"/>
<path d="M90.0489 13.1986C90.0489 11.6452 90.0664 10.0917 90.0388 8.53828C90.0288 8.01379 90.1603 7.75217 90.7336 7.82477C91.0002 7.85857 91.2769 7.85231 91.5447 7.82477C91.9428 7.78471 92.2332 7.89988 92.4047 8.27541C92.63 8.76736 92.9092 8.74733 93.3135 8.42813C94.6504 7.37163 96.1463 7.33282 97.6772 7.89362C99.3007 8.48821 99.9229 9.81384 99.9667 11.4073C100.028 13.643 99.9829 15.8799 99.998 18.1169C100 18.4999 99.8402 18.6326 99.4785 18.6276C98.6661 18.6188 97.8537 18.6101 97.0425 18.6313C96.6069 18.6426 96.4692 18.4786 96.473 18.048C96.4917 16.1015 96.4892 14.1537 96.4767 12.2072C96.4717 11.2909 96.0974 10.7927 95.4014 10.7013C94.6291 10.6 93.9844 11.0531 93.7153 11.8567C93.5801 12.2611 93.5876 12.6729 93.5864 13.086C93.5801 14.6595 93.5839 16.2342 93.5839 17.8077C93.5839 18.3509 93.3035 18.623 92.7427 18.6238C92.0342 18.6238 91.3257 18.6063 90.6184 18.6301C90.1753 18.6451 90.0389 18.4623 90.0439 18.0417C90.0589 16.427 90.0501 14.8109 90.0501 13.1949L90.0489 13.1986Z" fill="#424946"/>
<path d="M87.7154 14.9862C87.7154 15.9801 87.6917 16.974 87.7255 17.9667C87.743 18.4962 87.539 18.679 87.032 18.6326C86.7428 18.6064 86.4474 18.6064 86.1582 18.6326C85.7176 18.6727 85.3972 18.5726 85.2344 18.1094C85.098 17.7226 84.8226 17.7602 84.5497 17.9855C83.363 18.9644 82.0136 19.0119 80.5979 18.674C78.7815 18.2396 77.8039 16.9478 77.8978 15.1139C77.9754 13.6018 79.1408 12.4727 80.8745 12.1785C81.8897 12.0058 82.9086 12.0596 83.9251 12.0709C84.387 12.0759 84.4058 11.9244 84.2468 11.5764C83.9439 10.9167 83.3768 10.6614 82.7071 10.5762C81.8847 10.4711 81.0873 10.6188 80.3187 10.9017C79.8368 11.0794 79.5952 10.9568 79.475 10.4461C79.3336 9.84395 79.1233 9.25812 78.933 8.66853C78.8642 8.45323 78.8141 8.26671 79.1045 8.17533C81.1737 7.53067 83.2504 7.24902 85.3208 8.13653C87.017 8.86381 87.6829 10.2533 87.7142 12.007C87.7317 13.0009 87.718 13.9948 87.718 14.9875L87.7154 14.9862ZM83.0952 14.2765C83.0952 14.289 83.0952 14.3003 83.0952 14.3128C82.7008 14.3128 82.3015 14.2715 81.9147 14.324C81.5492 14.3741 81.2513 14.5844 81.2112 15C81.1712 15.4081 81.3226 15.721 81.7069 15.9113C82.5682 16.3381 83.8249 15.9038 84.203 15.0413C84.4996 14.3629 84.4458 14.2777 83.7185 14.2765C83.5107 14.2765 83.3029 14.2765 83.0952 14.2765Z" fill="#424946"/>
<path d="M57.8934 13.3038C57.8934 14.8773 57.8784 16.4508 57.9022 18.0243C57.9097 18.4899 57.7507 18.6677 57.2925 18.6314C57.0234 18.6101 56.7493 18.6038 56.4814 18.6326C56.0408 18.6802 55.7128 18.5613 55.525 18.1357C55.3185 17.6663 55.0506 17.6738 54.6613 17.9805C53.3044 19.0445 51.7935 19.097 50.24 18.5137C48.7392 17.9504 48.0494 16.7512 48.0069 15.2341C47.9418 12.9371 47.9881 10.6388 47.9731 8.34055C47.9706 7.96877 48.0958 7.81856 48.4776 7.82732C49.2687 7.84485 50.0598 7.85486 50.8497 7.82482C51.3366 7.80604 51.5056 7.96627 51.4993 8.46197C51.4756 10.3459 51.4881 12.2298 51.4906 14.1137C51.4906 15.1439 51.8311 15.6759 52.5333 15.7636C53.3883 15.87 54.0492 15.3342 54.2933 14.3603C54.4059 13.9097 54.3734 13.4553 54.3759 13.0009C54.3822 11.4687 54.3897 9.93656 54.3709 8.40439C54.3659 7.97503 54.5073 7.81105 54.9467 7.82482C55.7366 7.84986 56.529 7.84986 57.3188 7.82482C57.7519 7.81105 57.9047 7.96126 57.8996 8.39688C57.8809 10.0317 57.8921 11.6678 57.8921 13.3038H57.8934Z" fill="#424946"/>
<path d="M45.621 13.2388C45.621 14.8135 45.6035 16.3883 45.631 17.9618C45.6398 18.4875 45.4483 18.6565 44.9388 18.6352C44.2115 18.6039 43.4805 18.6052 42.7532 18.6352C42.265 18.6552 42.1035 18.4925 42.1098 17.9943C42.1348 15.84 42.1085 13.6857 42.1311 11.5314C42.1361 11.072 42.0547 10.8792 41.534 10.9068C40.6878 10.9506 40.6853 10.9143 40.684 10.0405C40.684 9.48099 40.6953 8.92145 40.6815 8.36316C40.6727 7.99138 40.8267 7.84493 41.201 7.84868C42.4916 7.85995 43.7834 7.8637 45.0752 7.84743C45.5284 7.84117 45.6335 8.04521 45.6298 8.45579C45.6122 10.0506 45.6223 11.6453 45.6223 13.2413L45.621 13.2388Z" fill="#424946"/>
<path d="M5.67308 10.3183C6.15751 10.1894 6.65447 10.2094 7.14892 10.2119C9.52979 10.2219 11.9094 10.2307 14.2903 10.2407C14.0938 10.3546 13.8972 10.4711 13.7007 10.585C11.7141 11.7391 9.72757 12.8945 7.73976 14.0486C6.74334 14.6044 5.74568 15.1602 4.74927 15.716C4.25482 15.9914 3.75161 16.2154 3.15952 16.1866C2.34461 16.1478 1.79508 15.7222 1.42831 15.045C1.07406 14.3916 1.12288 13.7257 1.50968 13.096C1.76379 12.6817 2.13181 12.3825 2.55491 12.1384C3.59764 11.5376 4.63411 10.9267 5.67308 10.3196V10.3183Z" fill="#04A4A6"/>
<path d="M7.73965 14.0486C9.72622 12.8945 11.7128 11.7391 13.7006 10.585C13.8971 10.471 14.0937 10.3559 14.2902 10.2407C14.4479 10.2532 14.6056 10.2645 14.7621 10.2758C14.6382 10.5111 14.5205 10.7514 14.3878 10.983C13.4302 12.6617 12.4689 14.3378 11.5075 16.0152C11.0093 16.8501 10.5086 17.6838 10.0141 18.52C9.79256 18.8955 9.56724 19.2673 9.26181 19.584C8.55581 20.315 7.58193 20.4214 6.6456 19.8681C5.87201 19.41 5.53779 18.52 5.83696 17.6024C6.1812 16.5497 6.87218 15.6734 7.38415 14.7045C7.50057 14.4855 7.61948 14.2677 7.73715 14.0499L7.73965 14.0486Z" fill="#D0CF1C"/>
<path d="M11.5076 16.0139C12.4677 14.3366 13.429 12.6604 14.3879 10.9818C14.5206 10.7502 14.637 10.5111 14.7622 10.2745C15.0939 10.2082 15.4244 10.1581 15.7498 10.3046C15.7498 13.0347 15.7486 15.7636 15.7498 18.4937C15.7498 18.8867 15.7298 19.2748 15.6322 19.6616C15.368 20.7056 14.6332 21.2964 13.6281 21.2551C12.529 21.21 11.7704 20.5078 11.6177 19.4213C11.4575 18.2884 11.5839 17.1493 11.5088 16.0152L11.5076 16.0139Z" fill="#D8569A"/>
<path d="M12.4414 6.07857C13.0823 4.81553 13.8083 3.60256 14.5582 2.40211C14.821 1.98026 15.2016 1.66231 15.6159 1.38817C17.3121 0.991362 18.505 1.86134 18.4825 3.47738C18.0494 3.51744 17.61 3.56626 17.2257 3.7728C15.8675 4.50133 14.5143 5.23988 13.2213 6.07857C12.9621 6.07857 12.7018 6.07857 12.4427 6.07857H12.4414Z" fill="#D0CF1C"/>
<path d="M45.5196 4.37998C45.5233 5.63676 44.8123 6.38281 43.5956 6.39658C42.3551 6.4116 41.6178 5.65929 41.614 4.37247C41.6103 3.13571 42.3476 2.38715 43.5718 2.38465C44.791 2.38215 45.5158 3.12445 45.5196 4.37998Z" fill="#424946"/>
<path d="M13.2212 6.0786C14.5155 5.23866 15.8687 4.50137 17.2256 3.77284C17.6087 3.56629 18.0493 3.51747 18.4824 3.47742C19.987 4.07952 20.4289 4.77926 20.1961 6.19126C17.874 5.99348 15.5457 6.1462 13.2212 6.0786Z" fill="#04A4A6"/>
</svg>
