<svg width="16" height="16" viewBox="0 0 16 16" fill="none" xmlns="http://www.w3.org/2000/svg">
<g clip-path="url(#clip0_1_1386)">
<path d="M3.28742 14.1365C4.65997 14.1365 6.02135 14.139 7.38273 14.1358C9.29032 14.1311 11.1983 14.1221 13.1059 14.116C13.2643 14.1156 13.413 14.0811 13.5606 14.0249C13.912 13.8913 14.0982 13.6393 14.1201 13.2652C14.1284 13.1215 14.1407 12.9778 14.1407 12.8342C14.1417 9.61237 14.1417 6.39093 14.141 3.16913C14.141 3.04347 14.1367 2.91709 14.1248 2.79215C14.0694 2.21137 13.7172 1.8884 13.1282 1.88516C11.8683 1.87832 10.6085 1.87148 9.34865 1.8722C7.18901 1.87328 5.02939 1.87904 2.86976 1.8848C2.20077 1.8866 1.85259 2.23586 1.85151 2.91169C1.84863 4.47146 1.83063 6.03159 1.85871 7.59101C1.87239 8.35217 1.5559 8.9351 1.04174 9.43631C0.721647 9.74848 0.366629 10.025 8.99761e-05 10.3411C8.99761e-05 10.2554 8.99761e-05 10.1989 8.99761e-05 10.1427C8.99761e-05 7.70695 -0.000270005 5.27115 0.000450111 2.83572C0.00081017 1.2331 1.21925 0.00601739 2.82295 0.00457716C6.26079 0.00133663 9.69826 -0.0058645 13.1361 0.00925795C14.2228 0.0139387 15.1042 0.45609 15.6479 1.43545C15.8891 1.87004 15.9946 2.35 15.9942 2.853C15.9917 6.28472 15.9996 9.71607 15.9903 13.1478C15.9852 15.0597 14.55 15.9861 13.1527 15.9933C11.419 16.0023 9.68494 15.9955 7.95126 15.9955C6.23558 15.9955 4.51954 16.0081 2.80386 15.9912C1.65312 15.9796 0.808421 15.4388 0.271574 14.417C0.199202 14.2791 0.211084 14.1952 0.325583 14.0811C3.12756 11.2841 5.92557 8.48287 8.72466 5.68198C8.89137 5.51527 8.89137 5.51491 8.72682 5.34928C8.15577 4.77499 7.58472 4.20106 7.01043 3.62352C7.02843 3.57312 7.07848 3.60012 7.11376 3.60012C8.78767 3.59832 10.4616 3.59976 12.1351 3.5958C12.2504 3.59544 12.2856 3.62352 12.2853 3.74342C12.2813 5.42922 12.2828 7.11501 12.2824 8.8008C12.2824 8.81773 12.2784 8.83501 12.2748 8.86381C12.2025 8.84725 12.1679 8.7882 12.1251 8.74571C11.5724 8.19555 11.02 7.64502 10.4713 7.09053C10.3953 7.01347 10.355 6.99439 10.2654 7.08404C7.96638 9.39202 5.66381 11.696 3.36231 14.0015C3.33459 14.0296 3.29246 14.049 3.28742 14.1365Z" fill="#04121E"/>
</g>
<defs>
<clipPath id="clip0_1_1386">
<rect width="15.995" height="16" fill="white"/>
</clipPath>
</defs>
</svg>
