<svg width="24" height="27" viewBox="0 0 24 27" fill="none" xmlns="http://www.w3.org/2000/svg">
<path d="M4.21875 2.43125L4.21864 2.43125C3.74475 2.43177 3.29042 2.62025 2.95534 2.95534C2.62025 3.29042 2.43177 3.74475 2.43125 4.21864V4.21875L2.43125 22.7812L2.43125 22.7814C2.43175 23.2552 2.62023 23.7096 2.95532 24.0447C3.29041 24.3798 3.74475 24.5682 4.21864 24.5688H4.21875H16.1501C16.4592 24.5688 16.7557 24.6916 16.9743 24.9102C17.1929 25.1287 17.3157 25.4252 17.3157 25.7344C17.3157 26.0435 17.1929 26.34 16.9743 26.5586C16.7557 26.7772 16.4592 26.9 16.1501 26.9H4.21886C3.12685 26.8988 2.07991 26.4644 1.30774 25.6923C0.535571 24.9201 0.101226 23.8732 0.0999999 22.7811L0.1 4.21881C0.10124 3.12681 0.535583 2.0799 1.30774 1.30774C2.07991 0.535571 3.12685 0.101226 4.21886 0.0999999L16.1501 0.1C16.4592 0.1 16.7557 0.222807 16.9743 0.441404C17.1929 0.660001 17.3157 0.956482 17.3157 1.26562C17.3157 1.57477 17.1929 1.87125 16.9743 2.08985C16.7557 2.30844 16.4592 2.43125 16.1501 2.43125L4.21875 2.43125ZM17.0543 6.66056L17.055 6.66135L23.0694 12.6758C23.288 12.8944 23.4109 13.1909 23.4109 13.5C23.4109 13.8092 23.288 14.1056 23.0694 14.3242L17.055 20.3386L17.0548 20.3388C16.9467 20.4475 16.8182 20.5338 16.6767 20.5928C16.5351 20.6518 16.3833 20.6822 16.23 20.6824C16.0766 20.6826 15.9248 20.6526 15.7831 20.594C15.6414 20.5354 15.5126 20.4495 15.4042 20.341C15.2957 20.2326 15.2098 20.1039 15.1512 19.9621C15.0926 19.8204 15.0626 19.6686 15.0628 19.5152C15.063 19.3619 15.0934 19.2101 15.1524 19.0686C15.2114 18.927 15.2977 18.7985 15.4064 18.6904L15.4066 18.6902L19.2604 14.8363L19.4311 14.6656H19.1897H9.22635C8.91721 14.6656 8.62073 14.5428 8.40213 14.3242C8.18353 14.1056 8.06073 13.8091 8.06073 13.5C8.06073 13.1909 8.18353 12.8944 8.40213 12.6758C8.62073 12.4572 8.91721 12.3344 9.22635 12.3344H19.1898H19.4312L19.2605 12.1637L15.4068 8.30978L15.406 8.30899C15.2958 8.20121 15.208 8.07263 15.1478 7.9307C15.0876 7.78877 15.0562 7.63631 15.0553 7.48214C15.0544 7.32797 15.0842 7.17517 15.1427 7.03256C15.2013 6.88996 15.2876 6.7604 15.3966 6.65138C15.5057 6.54236 15.6352 6.45604 15.7778 6.39744C15.9204 6.33883 16.0732 6.30909 16.2274 6.30994C16.3815 6.3108 16.534 6.34223 16.6759 6.40241C16.8179 6.46259 16.9465 6.55033 17.0543 6.66056Z" fill="#04121E" stroke="white" stroke-width="0.2"/>
</svg>
