<svg width="100" height="25" viewBox="0 0 100 25" fill="none" xmlns="http://www.w3.org/2000/svg">
<g clip-path="url(#clip0_1725_5877)">
<path d="M24.4717 10.1075C24.4717 7.26012 24.4854 4.41278 24.4593 1.56544C24.4544 1.02669 24.608 0.859488 25.148 0.861966C29.1298 0.884259 33.1128 0.885497 37.0959 0.871874C37.5814 0.870635 37.7003 1.06137 37.6891 1.49361C37.6718 2.21566 37.678 2.93771 37.6929 3.65977C37.7028 4.14898 37.5096 4.35705 36.998 4.35333C34.3984 4.33599 31.7975 4.35705 29.1979 4.32856C28.6579 4.32237 28.4659 4.46356 28.4932 5.01841C28.5353 5.8829 28.5341 6.75233 28.4944 7.61681C28.4709 8.14071 28.596 8.32153 29.1669 8.31286C31.6836 8.27694 34.2015 8.29428 36.7194 8.29552C37.4724 8.29552 37.543 8.36735 37.5442 9.09436C37.5442 9.77554 37.5145 10.458 37.5541 11.1367C37.5863 11.6804 37.33 11.7869 36.8606 11.7832C34.3427 11.7658 31.826 11.7658 29.3081 11.7609C28.508 11.7596 28.5018 11.7658 28.5031 12.5449C28.5043 14.6082 28.5068 16.6716 28.5093 18.7349C28.5093 19.4991 28.4895 19.5189 27.7005 19.5189C26.8546 19.5189 26.0062 19.4867 25.1628 19.5325C24.6117 19.5623 24.4569 19.3728 24.4606 18.8353C24.4816 15.926 24.4705 13.0167 24.4705 10.1087L24.4717 10.1075Z" fill="#0A0A0A"/>
<path d="M44.5679 5.73308C45.2788 5.63153 45.9897 5.66249 46.7006 5.71698C46.6882 5.73432 46.6721 5.74918 46.6672 5.769C46.6635 5.78262 46.6684 5.81111 46.6771 5.81359C46.9892 5.92505 47.3149 5.90276 47.6382 5.89904C49.7263 6.47991 51.2237 7.68869 52.1439 9.71738C52.8548 11.2841 52.8808 12.8657 52.6108 14.4596C52.461 15.3477 52.0238 16.1898 51.4801 16.9751C50.888 17.8296 50.1672 18.5009 49.2854 18.9691C47.684 19.8199 45.9563 20.0813 44.1654 19.7431C42.8526 19.4954 41.6562 18.9715 40.6641 18.0526C40.4573 17.8606 40.2183 17.681 40.1254 17.3937C39.5854 16.6233 39.1333 15.8133 38.8893 14.8894C38.5351 13.5506 38.5178 12.2031 38.8088 10.8692C39.0937 9.5638 39.8578 8.49249 40.6963 7.47691C40.7855 7.43108 40.8759 7.38402 40.9638 7.3382C41.733 6.78953 42.5256 6.30899 43.4545 6.03404C43.8236 5.92381 44.2608 6.04147 44.5704 5.73308H44.5679ZM47.331 9.32477C47.3682 9.06344 47.1737 9.15138 47.0474 9.13775C46.9062 9.11051 46.7564 9.10679 46.6263 9.05354C45.2937 8.50364 43.4842 9.14395 42.751 10.5608C42.1082 11.803 42.024 13.0564 42.5033 14.3928C42.9306 15.5855 43.6935 16.4053 44.9122 16.6332C46.3551 16.902 47.5998 16.4821 48.4085 15.1483C48.4234 15.1619 48.437 15.1817 48.4556 15.1879C48.4729 15.1941 48.5051 15.1928 48.5126 15.1817C49.1492 14.1896 49.3411 13.0849 49.1269 11.9578C49.0228 11.4117 48.9188 10.785 48.4023 10.3936C48.359 10.2995 48.3169 10.2041 48.2735 10.11C48.0494 9.89201 47.9416 9.55513 47.6023 9.45481L47.3323 9.32725L47.331 9.32477Z" fill="#0A0A0A"/>
<path d="M89.6078 16.2468C89.5669 15.8281 89.3328 15.4851 89.173 15.1148C89.2498 15.09 89.2486 15.0343 89.2251 14.9748C88.7507 13.7722 88.2776 12.5696 87.7995 11.3695C87.6881 11.0884 87.6051 10.7787 87.428 10.5434C87.2484 10.3069 87.3822 9.91425 87.023 9.79164C86.9673 9.31976 86.7369 8.89867 86.509 8.51101C86.2638 8.0924 86.1597 7.66511 86.0879 7.21058C86.109 7.04461 86.0594 6.89971 85.9802 6.75109C85.6941 6.221 85.7486 6.12068 86.3344 6.11201C86.9673 6.10334 87.6014 6.11201 88.2342 6.11201C88.7074 6.11078 89.2015 6.0216 89.552 6.46994C89.6362 7.2564 90.0933 7.91157 90.3261 8.64973C90.6989 9.83498 91.1881 10.9843 91.6278 12.1485C91.9424 12.9808 92.2607 13.8106 92.5703 14.6441C92.6347 14.8175 92.7548 14.9488 92.9158 14.9538C93.1177 14.9612 93.0459 14.742 93.0991 14.6218C93.2378 14.3085 93.3877 14.0001 93.5326 13.6905C93.5722 13.5951 93.6131 13.4985 93.6527 13.4019C93.6726 13.278 93.6924 13.1554 93.711 13.0328C93.7432 13.0502 93.7828 13.0861 93.8051 13.0762C93.8336 13.0638 93.8546 13.0192 93.867 12.9845C94.3525 11.7126 94.8467 10.4443 95.3198 9.16743C95.6492 8.27693 95.9489 7.37406 96.2623 6.47738C96.2908 6.35848 96.3193 6.23958 96.3465 6.12316C97.403 6.11821 98.4594 6.11325 99.5171 6.1083C99.9085 6.10706 100.156 6.08353 99.8924 6.65696C99.5481 7.40626 99.2471 8.18281 98.93 8.94821C98.2538 10.588 97.5999 12.2377 96.9695 13.8948C96.7267 14.5327 96.318 15.1135 96.2759 15.8244C95.783 17.0989 95.2777 18.3683 94.7191 19.6168C94.3389 20.4651 94.08 21.3705 93.6626 22.1978C93.2341 23.0474 92.7115 23.8636 91.7652 24.2599C90.4933 24.8681 89.1433 24.9362 87.7649 24.8544C87.3091 24.8272 87.1654 24.6488 87.1889 24.2017C87.2273 23.476 87.4366 22.7861 87.5568 22.0789C87.6076 21.7829 87.8193 21.8102 88.0274 21.8337C90.1837 22.0789 90.2605 21.399 90.98 20.0787C91.1931 19.6886 90.8822 18.7845 90.5032 18.5715C90.4821 18.4513 90.4611 18.3312 90.44 18.2123C90.31 17.4977 90.0524 16.8338 89.6115 16.248L89.6078 16.2468Z" fill="#0A0A0A"/>
<path d="M64.6973 13.3599C64.6973 12.1845 64.68 11.0092 64.706 9.83504C64.7159 9.36069 64.5561 9.13776 64.0731 9.15634C63.6409 9.17368 63.2062 9.15015 62.7752 9.18854C62.4903 9.21331 62.4024 9.10061 62.4024 8.85043C62.4024 8.04663 62.4073 7.24284 62.4024 6.43904C62.3999 6.08483 62.6092 5.96717 62.9102 5.9585C63.3226 5.94735 63.7362 5.93249 64.1462 5.96469C64.5933 5.99937 64.7184 5.80369 64.7085 5.39002C64.6874 4.56641 64.7147 3.74032 64.6899 2.91671C64.6738 2.40397 64.8806 2.22067 65.3872 2.24172C66.108 2.27269 66.83 2.25411 67.5509 2.24915C68.0995 2.24544 68.4215 2.40892 68.3757 3.06038C68.3212 3.81959 68.3757 4.58499 68.3547 5.34791C68.3435 5.80245 68.5293 5.97955 68.9801 5.96221C69.5362 5.93992 70.0935 5.95974 70.6496 5.95726C70.9791 5.95602 71.1017 6.07244 71.0819 6.4378C71.0422 7.19825 71.0459 7.96365 71.0819 8.7241C71.0992 9.08574 71.0038 9.20216 70.6496 9.18606C70.1146 9.16129 69.5783 9.16872 69.042 9.16749C68.5788 9.16625 68.341 9.32849 68.3509 9.86353C68.3819 11.5529 68.3695 13.2447 68.3547 14.934C68.3522 15.2486 68.4178 15.5433 68.4983 15.8344C68.6853 16.5168 69.3739 16.8512 70.127 16.5428C70.7264 16.2976 70.9815 16.4945 71.041 17.0568C71.0992 17.6092 71.441 18.0674 71.5017 18.6211C71.5327 18.9059 71.498 19.1004 71.2478 19.2428C70.2174 19.8286 69.1027 20.0193 67.9385 19.9054C67.5422 19.867 67.1372 19.7617 66.7694 19.6081C65.3166 19.0062 64.7147 17.8408 64.6936 16.3273C64.68 15.3378 64.6911 14.3482 64.6911 13.3586H64.6949L64.6973 13.3599Z" fill="#0A0A0A"/>
<path d="M53.9335 12.7455C53.9335 10.7466 53.9483 8.74637 53.9248 6.74741C53.9173 6.16779 54.0969 5.91761 54.7038 5.94857C55.4444 5.98696 56.1875 5.97086 56.9294 5.95229C57.4384 5.93866 57.6564 6.15788 57.6069 6.65948C57.5994 6.74122 57.5945 6.82544 57.6056 6.90594C57.6279 7.08057 57.5078 7.32208 57.7072 7.41373C57.919 7.51157 58.0602 7.31217 58.2138 7.17098C59.0931 6.36595 60.1285 5.87921 61.31 5.70211C61.7237 5.64018 61.938 5.80614 61.9355 6.23591C61.9305 7.01865 61.9318 7.80262 61.9293 8.58536C61.928 9.04361 61.7695 9.21577 61.2506 9.14889C59.934 8.97797 58.8231 9.52044 57.8199 10.3193C57.5549 10.5298 57.6094 10.8357 57.6094 11.1218C57.6094 13.6781 57.5945 16.2332 57.6193 18.7895C57.6242 19.3257 57.4632 19.5437 56.922 19.5264C56.1392 19.5016 55.3553 19.5066 54.5725 19.5239C54.0994 19.5338 53.9248 19.353 53.9297 18.8663C53.9508 16.8264 53.9384 14.7854 53.9384 12.7443H53.9359L53.9335 12.7455Z" fill="#0A0A0A"/>
<path d="M75.9071 12.8347C75.9071 14.8126 75.8898 16.7892 75.9183 18.7671C75.9257 19.3245 75.7672 19.5548 75.1888 19.5301C74.3862 19.4966 73.5824 19.5164 72.7786 19.5264C72.3922 19.5313 72.2164 19.3691 72.2164 18.974C72.2188 14.8336 72.2164 10.6933 72.2126 6.55293C72.2126 6.14918 72.3873 5.94854 72.8096 5.95473C73.6134 5.96588 74.4172 5.96835 75.2198 5.95101C75.7214 5.94111 75.9158 6.15289 75.9121 6.65449C75.8972 8.71414 75.9059 10.7738 75.9059 12.8334L75.9071 12.8347Z" fill="#0A0A0A"/>
<path d="M72.2945 3.34281C71.7012 2.54644 71.7421 1.42435 72.3886 0.790231C73.3385 -0.141131 74.39 -0.261267 75.3251 0.490511C75.6149 0.723351 75.9865 0.928944 75.989 1.38596C75.9803 1.94948 75.9728 2.51424 75.9642 3.08024C75.9567 3.19666 75.901 3.27964 75.7982 3.33042C74.5213 4.67297 73.1973 4.36334 72.2932 3.34157L72.2945 3.34281Z" fill="#0A0A0A"/>
<path d="M85.8649 0.96233C86.1473 1.26824 86.177 1.56672 85.9751 1.96057C85.7646 2.37052 85.6717 2.84115 85.5219 3.28206C85.4686 3.43936 85.4376 3.53967 85.1825 3.45546C83.3978 2.86469 82.5135 4.18246 82.6225 5.65753C82.6485 6.00679 82.8541 6.10835 83.1588 6.10835C83.7136 6.10835 84.2697 6.11454 84.8246 6.10835C85.1169 6.10463 85.3063 6.19752 85.2989 6.52325C85.2791 7.38526 85.3708 8.2485 85.2457 9.10803C84.6883 9.10803 84.131 9.11051 83.5749 9.11174C82.935 9.11257 82.6155 9.4416 82.6163 10.0988C82.6188 12.9462 82.6052 15.7923 82.6361 18.6396C82.6423 19.2069 82.4875 19.405 81.9128 19.3691C81.1734 19.3233 80.4279 19.3555 79.6847 19.3592C79.3392 19.3604 79.1931 19.2514 79.1968 18.8551C79.2203 15.8852 79.2141 12.914 79.2178 9.94279C79.2178 9.39124 78.9445 9.11505 78.3979 9.11422C77.4748 9.11257 77.012 8.64111 77.0096 7.69984C77.0046 6.12569 77.0046 6.11454 78.5478 6.11578C78.9676 6.11578 79.1571 6.01051 79.2376 5.55102C79.3813 4.72989 79.2438 3.86788 79.6612 3.08019C80.2346 2.0002 81.0496 1.27072 82.2324 0.890496C83.4684 0.492933 84.6586 0.755498 85.8649 0.96233Z" fill="#0A0A0A"/>
<path d="M9.34838 10.9336C12.1722 10.9336 14.996 10.9323 17.8198 10.9336C18.6137 10.9336 18.7759 11.107 18.6917 11.8885C18.3313 15.2733 15.8085 18.273 12.5326 19.1982C11.8427 19.3926 11.1628 19.4645 10.4655 19.4657C7.20823 19.4706 3.95218 19.4583 0.694895 19.4719C0.197012 19.4744 -0.00486521 19.3319 8.88423e-05 18.8031C0.0223821 16.4536 0.00999695 14.1042 0.00999695 11.7547C0.00999695 11.024 0.105362 10.9261 0.813792 10.9261C3.65866 10.9261 6.50352 10.9261 9.34715 10.9261V10.9336H9.34838Z" fill="#1B6AFD"/>
<path d="M9.29764 1.43174C12.1858 1.43174 15.0741 1.44165 17.9623 1.42183C18.449 1.41812 18.6286 1.54444 18.5741 2.04728C18.3846 3.75767 17.7753 5.29714 16.6953 6.62978C15.4902 8.11476 13.9383 9.01763 12.0521 9.43129C11.3362 9.58859 10.6402 9.64927 9.92556 9.65299C6.87263 9.67033 3.8197 9.66909 0.766761 9.69386C0.317181 9.69757 0.143789 9.57001 0.146266 9.10185C0.162367 6.70904 0.157413 4.31624 0.148743 1.92343C0.147505 1.57045 0.214385 1.42679 0.631763 1.4305C3.51998 1.45527 6.40819 1.44289 9.2964 1.44289C9.2964 1.43917 9.2964 1.43546 9.2964 1.43298L9.29764 1.43174Z" fill="#1B6AFD"/>
</g>
<defs>
<clipPath id="clip0_1725_5877">
<rect width="100" height="24.8805" fill="white"/>
</clipPath>
</defs>
</svg>
