<?xml version="1.0" encoding="UTF-8"?>
<svg id="Layer_1" xmlns="http://www.w3.org/2000/svg" viewBox="0 0 512 180">
  <defs>
    <style>
      .cls-1 {
        fill: #3c3f4b;
      }

      .cls-2 {
        fill: #f10200;
      }

      .cls-3 {
        fill: #fff;
      }
    </style>
  </defs>
  <rect class="cls-1" x="1" y="1.69" width="510" height="176.63"/>
  <g>
    <path class="cls-3" d="M413.17,52.21c-5.99.28-11.61.56-17.23.74-.46.01-1.13-.64-1.38-1.14-5.46-10.92-14.41-15.77-27.14-14.69-6.83.58-13.29,2.25-18.46,7.04-9.21,8.53-6.51,22.34,5.4,26.09,5.78,1.82,12.04,2.06,18.02,3.29,7.59,1.55,15.37,2.7,22.66,5.21,26.67,9.17,26.18,39.32,11.75,53.99-18.96,19.27-55.61,19.1-73.94-.75-5.18-5.62-8.14-12.24-8.63-19.95-.13-2,.24-2.87,2.39-2.86,4.87.03,9.74-.16,14.61-.12.59,0,1.63.81,1.7,1.35,1.34,10.13,8.56,14.42,17.19,16.84,10.54,2.96,20.71,1.64,29.83-4.71,5.47-3.81,8.36-9.03,7.68-15.99-.48-4.86-2.8-8.6-7.27-10.04-5.78-1.85-11.82-2.96-17.8-4.11-7.81-1.51-15.83-2.18-23.48-4.24-12.38-3.33-20.92-11.04-23.33-24.19-2.46-13.41,1.1-24.95,11.56-33.93,15.63-13.42,42.4-15.12,59.65-3.91,9.26,6.02,14.57,14.59,16.23,26.09Z"/>
    <path class="cls-3" d="M493.41,73.6v18.77h-49.86v53.49h-18.36V20.42h74.89v18.39c-1.29,0-2.51,0-3.73,0-16.37,0-32.75.07-49.12-.06-2.97-.02-3.83.84-3.77,3.79.18,9.06.06,18.13.07,27.19q0,3.86,3.76,3.87c14.13,0,28.27,0,42.4,0,1.15,0,2.3,0,3.74,0Z"/>
    <path class="cls-3" d="M303.27,96.37c7.08,2.02,12.12,6.02,15.04,12.42,3.87,8.49,3.78,17.01-.56,25.29-4.12,7.86-10.98,11.77-19.69,11.92-13.05.23-26.1.02-39.16.1-2.1.01-2.9-.53-2.9-2.78.06-28.83.06-57.66,0-86.49,0-2.05.65-2.67,2.68-2.65,11.79.08,23.57-.06,35.36.07,12.11.13,21.39,10.8,20.27,23.03-.83,8.99-3.08,12.97-11.05,19.1ZM258.9,98.24v45.21c.66.08,1.13.19,1.59.19,12.37.01,24.74.04,37.11-.03,1.82-.01,3.69-.38,5.46-.84,10.26-2.7,16.83-13.32,15.38-24.77-1.48-11.75-9.76-19.67-20.83-19.75-11.2-.08-22.4-.02-33.61-.02-1.63,0-3.26,0-5.11,0ZM258.86,95.66c12.28,0,24.14.23,36-.09,6.18-.17,11.09-3.28,14.28-8.78,8.03-13.85-1.06-29.96-17.02-30.07-10.22-.07-20.44-.02-30.66,0-.84,0-1.67.11-2.59.18v38.76Z"/>
    <path class="cls-3" d="M68.33,58.38c0,18.52,0,36.16,0,53.79,0,10.52.02,21.05-.05,31.57,0,.75-.73,1.49-1.13,2.23-.42-.71-1.22-1.42-1.22-2.13-.06-29.42-.05-58.85-.03-88.28,0-.37.12-.75.18-1.07,2.25-1.07,3.01.6,3.92,1.95,11.61,17.18,23.21,34.37,34.82,51.55.33.48.68.94,1.27,1.77.74-1.02,1.41-1.88,2.02-2.78,11.48-16.92,22.96-33.84,34.41-50.77.92-1.36,1.74-2.67,4.08-1.6,0,.85,0,1.89,0,2.93,0,28.35,0,56.71,0,85.06,0,.68.13,1.42-.08,2.03-.18.53-.76.91-1.16,1.36-.46-.49-1.17-.91-1.31-1.48-.23-.92-.09-1.93-.09-2.91,0-26.21,0-52.42,0-78.63v-3.35c-.24-.07-.47-.13-.71-.2-3.57,5.28-7.14,10.55-10.7,15.83-7.99,11.87-15.97,23.76-23.96,35.63-1.91,2.84-2.94,2.82-4.87-.06-11.09-16.48-22.17-32.96-33.26-49.44-.53-.79-1.1-1.55-2.14-3.01Z"/>
    <path class="cls-3" d="M48.52,93.36c-4.87,5.78-4.65,8.96,1.53,14.13-1.7,2.42-3.16,5.18-5.3,7.26-1.02.99-3.45,1.21-4.99.8-2.47-.65-4.71-.96-7.07.15-2.29,1.08-4.18.32-5.74-1.46-3.8-4.35-5.9-9.35-5.53-15.22.37-5.92,5.9-10.83,12.1-8.26,1.4.58,3.39.29,4.95-.15,4.53-1.3,7.63-.56,10.04,2.76Z"/>
    <path class="cls-3" d="M50.7,129.93q0,7.54-7.44,7.54-6.69,0-6.69-6.77,0-5.62,5.47-6.69c1.43-.28,2.87-.54,4.31-.8q4.35-.77,4.35,3.8c0,.97,0,1.95,0,2.92Z"/>
    <path class="cls-3" d="M50.66,152.9c0,.86-.79,1.51-1.64,1.35-4.03-.76-7.72-1.43-11.37-2.26-.49-.11-1-1.31-1.03-2.03-.12-2.72,0-5.45-.07-8.18-.05-1.58.46-2.33,2.15-2.29,3.31.08,6.63-.06,9.93.09.7.03,1.92.92,1.94,1.45.14,3.84.1,7.68.09,11.86Z"/>
    <path class="cls-3" d="M32.36,125.62c.94-.17,1.81.55,1.81,1.5.01,3.18.05,6.01-.08,8.85-.02.52-1.01,1.19-1.69,1.43-.69.25-1.53.07-2.31.07-8.08,0-8.11,0-7.35-8.1.07-.76.78-1.93,1.39-2.08,2.58-.65,5.2-1.1,8.23-1.66Z"/>
    <path class="cls-3" d="M34.22,145.52c-.01,7.58.41,6.22-6.24,5.02-6.17-1.12-5.23-.02-5.29-6.54-.04-4.47,0-4.47,4.34-4.47.39,0,.78,0,1.17,0q6.03,0,6.03,6Z"/>
    <path class="cls-3" d="M35.66,90.02c-.11-4.47,2.43-7.36,6.72-7.89.64,4.19-2.22,7.64-6.72,7.89Z"/>
    <path class="cls-3" d="M212.76,99.3c.7,6.56.72,13.1-6.1,16.33-6.28,2.98-11.39-.53-16.07-4.64-2.54,1.95-3.68,4.09-2.16,7.26.92,1.91,1.5,4.03,1.9,6.12.15.77-.65,1.72-1.01,2.59-.71-.49-1.83-.84-2.07-1.5-1.23-3.38-2.65-6.79-3.11-10.31-.21-1.56,1.75-3.36,2.57-5.11.48-1.01,1.06-2.24.89-3.24-.38-2.16-1.92-2.52-3.96-1.93-1.53.44-3.7,1.19-4.68.5-2.49-1.75-4.52-4.18-6.6-6.47-.26-.29.1-1.64.55-1.94.47-.31,1.57-.17,2.07.2,1.23.92,2.26,2.11,3.4,3.16,2.19,2.01,4.26,2.01,6.73.67,7.48-4.05,15.1-7.84,22.54-11.95,1.89-1.05,4.12-2.42,3.26-5.44-.42-1.49-.79-3.06-.78-4.59,0-.83.85-1.66,1.32-2.48.65.59,1.59,1.07,1.87,1.8.49,1.25.4,2.71.84,3.99,1.1,3.25.54,5.8-2.47,7.77-1,.65-2.36,1.38-1.41,3.28.86,1.71,1.79,2.76,3.77,2.16,3.86-1.16,6.45.37,8.46,3.63,1.1,1.78,2.69,3.26,3.78,5.03.48.78.28,1.98.39,2.98-.98-.28-2.23-.27-2.87-.89-1.46-1.41-2.87-2.99-3.84-4.76-1.65-3.01-3.95-3.3-7.18-2.23Z"/>
    <path class="cls-3" d="M186.34,86.48c2.94-1.57,5.61-3,8.49-4.53-.19-6.88,2.29-11.62,7.13-11.99-.53.93-.94,1.55-1.27,2.21-1.07,2.12-2.47,4.16-3.07,6.42-.67,2.53-.13,4.87,2.79,6.23,1.46.68,2.51,2.23,4.13,3.73-6.18,3.29-11.81,6.29-18.1,9.64-.43-2.35-1.31-4.36-.99-6.15.44-2.5-.65-3.98-2.46-4.59-2.59-.87-5.41-1.02-8.12-1.55-.75-.15-1.45-.54-2.18-.82.65-.57,1.22-1.51,1.95-1.66,4.59-.95,8.63.37,11.7,3.07Z"/>
    <g>
      <path class="cls-3" d="M41.41,72.15c0,1.35-.11,2.72-.08,4.03.03,1.07-.88,2-2.09,2.05-1.29.06-1.91-.98-1.95-2-.03-.9-.21-1.81-.15-2.79.05-.86-.59-1.64-1.45-1.66-.91-.03-1.36.53-1.38,2.05-.03,1.74.88,4.5-2.19,4.4-3.06-.1-1.71-2.86-2.01-4.56-.02-.1-.03-.19-.03-.29-.04-.71-.52-1.33-1.22-1.47-2.47-.49-2.66-2.56-2.54-5,.15-3,.06-6.02.03-9.03-.02-1.34.24-2.25,1.88-2.23,4.95.04,9.89.02,15.22.02.87,0,1.58.7,1.58,1.57.02,4.35.11,8.54-.13,12.72-.04.7-.48.83-1.44,1.48-.37.25-1.6.83-2.03.72h0Z"/>
      <path class="cls-3" d="M26.82,54.71h17.92c.05-2.57-1.01-4.79-2.77-6.31l1.58-2.25-.44-.31-1.56,2.22c-1.56-1.2-3.6-1.89-5.88-1.87-2.12.02-4.01.63-5.5,1.68l-1.49-2.13-.44.31,1.51,2.15c-1.92,1.53-3.06,3.85-2.92,6.52ZM39.06,50.44c.4,0,.73.32.73.73s-.32.73-.73.73-.72-.33-.72-.73.32-.73.72-.73ZM32.27,50.44c.4,0,.73.32.73.73s-.32.73-.73.73-.72-.33-.72-.73.32-.73.72-.73Z"/>
      <path class="cls-3" d="M21.41,61.79c0-1.36-.23-2.77.08-4.06.03-.14.09-.28.16-.41.68-1.26,2.46-1.43,3.44-.38.21.23.36.46.38.71.27,2.79.28,5.63.01,8.42-.02.18-.09.34-.2.51-.89,1.33-2.93,1.11-3.65-.32-.07-.13-.12-.27-.16-.41-.33-1.27-.08-2.7-.08-4.06,0,0,0,0,.01,0Z"/>
      <path class="cls-3" d="M45.97,61.8c0-1.46-.25-2.97.09-4.34.2-.79.57-1.87,2.08-1.87,1.27,0,1.8,1.09,1.85,1.76.21,2.99.23,6.02,0,9.01-.02.21-.14.41-.32.6-.92.98-2.55.89-3.34-.2-.14-.19-.25-.39-.29-.61-.32-1.38-.09-2.89-.09-4.35,0,0,.01,0,.02,0Z"/>
    </g>
    <g>
      <rect class="cls-2" x="199.15" y="54.1" width="2.92" height="15.81"/>
      <rect class="cls-2" x="199.15" y="131.4" width="2.92" height="14.66"/>
      <rect class="cls-2" x="237.28" y="93.27" width="2.92" height="14.76" transform="translate(339.4 -138.09) rotate(90)"/>
      <rect class="cls-2" x="160.5" y="92.76" width="2.92" height="15.8" transform="translate(262.62 -61.31) rotate(90)"/>
      <rect class="cls-2" x="167.43" y="100.25" width="67.58" height=".82"/>
      <rect class="cls-2" x="200.2" y="66.87" width=".82" height="67.58"/>
      <rect class="cls-2" x="224.62" y="97.73" width=".82" height="5.85"/>
      <rect class="cls-2" x="212.41" y="98.9" width=".82" height="3.51"/>
      <rect class="cls-2" x="175.8" y="97.73" width=".82" height="5.85"/>
      <rect class="cls-2" x="188.01" y="98.9" width=".82" height="3.51"/>
      <rect class="cls-2" x="197.7" y="75.09" width="5.85" height=".82"/>
      <rect class="cls-2" x="198.87" y="87.3" width="3.51" height=".82"/>
      <rect class="cls-2" x="197.7" y="125.4" width="5.85" height=".82"/>
      <rect class="cls-2" x="198.87" y="113.19" width="3.51" height=".82"/>
    </g>
    <path class="cls-3" d="M200,147.01c-25.9,0-46.96-21.07-46.96-46.96s21.07-46.96,46.96-46.96,46.96,21.07,46.96,46.96-21.07,46.96-46.96,46.96ZM200,56.01c-24.28,0-44.04,19.76-44.04,44.04s19.76,44.04,44.04,44.04,44.04-19.76,44.04-44.04-19.76-44.04-44.04-44.04Z"/>
  </g>
</svg>