<svg width="724" height="609" viewBox="0 0 724 609" fill="none" xmlns="http://www.w3.org/2000/svg">
<path d="M364.316 288.341C560.092 288.341 718.8 277.851 718.8 264.91C718.8 251.969 560.092 241.479 364.316 241.479C168.54 241.479 9.83203 251.969 9.83203 264.91C9.83203 277.851 168.54 288.341 364.316 288.341Z" fill="#F9F9F9"/>
<path d="M350.73 8.39941C292.975 8.39941 251.508 45.3961 251.508 131.722C251.508 229.558 292.975 255.455 350.73 255.455C408.486 255.455 452.423 227.091 452.423 131.722C452.423 29.7753 408.486 8.39941 350.73 8.39941ZM351.11 222.98C311.108 222.98 290.209 199.548 290.209 131.785C290.209 71.9939 311.963 40.4633 351.966 40.4633C391.968 40.4633 413.723 61.1745 413.723 131.785C413.722 197.84 391.113 222.98 351.11 222.98Z" fill="#04121E"/>
<path d="M216.923 187.217H193.044V117.007C193.044 113.278 191.56 109.702 188.919 107.065C186.278 104.428 182.696 102.947 178.961 102.947H173.366C171.516 102.947 169.685 103.31 167.977 104.017C166.268 104.723 164.716 105.759 163.408 107.065C162.1 108.371 161.063 109.921 160.355 111.626C159.647 113.332 159.283 115.161 159.283 117.007V187.217H91.9278C90.5422 187.217 89.18 186.859 87.9736 186.179C86.7671 185.498 85.7573 184.518 85.0421 183.333C84.3269 182.148 83.9306 180.799 83.8916 179.416C83.8526 178.033 84.1722 176.663 84.8196 175.44L156.108 40.723C156.997 39.0434 157.535 37.2014 157.691 35.3082C157.847 33.4151 157.618 31.5099 157.016 29.7078C156.414 27.9057 155.453 26.244 154.191 24.823C152.928 23.4021 151.39 22.2513 149.67 21.4401L145.461 19.456C142.194 17.9153 138.458 17.6878 135.027 18.8205C131.596 19.9533 128.732 22.3597 127.029 25.5417L40.0833 187.938C38.6027 190.703 37.8281 193.79 37.8281 196.926C37.8281 199.43 38.322 201.909 39.2817 204.222C40.2413 206.535 41.6479 208.637 43.4211 210.408C45.1943 212.178 47.2994 213.583 49.6162 214.541C51.933 215.499 54.4161 215.992 56.9238 215.992H159.283V260.388C159.283 262.601 159.72 264.793 160.568 266.838C161.416 268.883 162.66 270.741 164.227 272.306C165.795 273.871 167.656 275.112 169.704 275.959C171.752 276.806 173.947 277.242 176.163 277.242H176.163C178.38 277.242 180.575 276.806 182.623 275.959C184.671 275.112 186.532 273.871 188.1 272.306C189.667 270.741 190.91 268.883 191.759 266.838C192.607 264.793 193.044 262.601 193.044 260.388V215.992H216.923C220.745 215.992 224.41 214.476 227.112 211.778C229.815 209.08 231.333 205.42 231.333 201.604C231.333 197.789 229.815 194.129 227.112 191.431C224.41 188.733 220.745 187.217 216.923 187.217Z" fill="#0090E3"/>
<path d="M659.103 187.217H635.223V117.007C635.223 113.278 633.74 109.702 631.099 107.065C628.458 104.428 624.876 102.947 621.141 102.947H615.545C613.696 102.947 611.865 103.31 610.156 104.017C608.448 104.723 606.895 105.759 605.588 107.065C604.28 108.371 603.243 109.921 602.535 111.626C601.827 113.332 601.463 115.161 601.463 117.007V187.217H534.107C532.722 187.217 531.36 186.859 530.153 186.179C528.947 185.498 527.937 184.518 527.222 183.333C526.507 182.148 526.11 180.799 526.071 179.416C526.032 178.033 526.352 176.663 526.999 175.44L598.287 40.723C599.176 39.0434 599.715 37.2015 599.871 35.3083C600.027 33.4151 599.797 31.5099 599.196 29.7078C598.594 27.9057 597.633 26.244 596.37 24.823C595.108 23.4021 593.57 22.2513 591.849 21.4401L587.641 19.456C584.373 17.9153 580.637 17.6878 577.206 18.8205C573.775 19.9533 570.912 22.3597 569.208 25.5417L482.263 187.938C480.782 190.703 480.008 193.79 480.008 196.926C480.008 201.983 482.02 206.832 485.601 210.408C489.182 213.983 494.039 215.992 499.103 215.992H601.463V260.388C601.463 264.858 603.241 269.145 606.407 272.306C609.573 275.466 613.866 277.242 618.343 277.242C622.82 277.242 627.113 275.466 630.279 272.306C633.445 269.145 635.223 264.858 635.223 260.388V215.992H659.102C662.924 215.992 666.589 214.476 669.292 211.778C671.994 209.08 673.512 205.42 673.512 201.604C673.512 197.789 671.994 194.129 669.292 191.431C666.59 188.733 662.924 187.217 659.103 187.217Z" fill="#0090E3"/>
<path d="M223.511 178.995H199.632V108.786C199.632 106.939 199.267 105.111 198.56 103.405C197.852 101.699 196.815 100.149 195.507 98.8434C194.199 97.5378 192.647 96.5021 190.938 95.7954C189.23 95.0888 187.398 94.7251 185.549 94.7251H179.954C176.219 94.7251 172.637 96.2065 169.996 98.8434C167.355 101.48 165.871 105.057 165.871 108.786V178.995H98.5157C97.1301 178.995 95.7679 178.638 94.5615 177.957C93.355 177.277 92.3452 176.297 91.63 175.112C90.9148 173.927 90.5185 172.577 90.4795 171.194C90.4405 169.811 90.7601 168.442 91.4075 167.219L162.696 32.5016C163.584 30.822 164.123 28.98 164.279 27.0868C164.435 25.1936 164.206 23.2885 163.604 21.4864C163.002 19.6843 162.041 18.0226 160.779 16.6016C159.516 15.1806 157.978 14.0298 156.258 13.2187L152.049 11.2345C148.782 9.69384 145.046 9.46634 141.615 10.5991C138.184 11.7319 135.32 14.1382 133.617 17.3202L46.6712 179.716C45.1906 182.482 44.416 185.569 44.416 188.705V188.705C44.416 193.761 46.4279 198.611 50.009 202.186C53.5901 205.762 58.4472 207.771 63.5117 207.771H165.871V252.167C165.871 254.38 166.308 256.572 167.156 258.616C168.004 260.661 169.248 262.519 170.815 264.084C172.383 265.649 174.244 266.891 176.292 267.738C178.34 268.585 180.535 269.021 182.751 269.021H182.751C187.228 269.021 191.522 267.245 194.687 264.084C197.853 260.924 199.631 256.637 199.631 252.167V207.771H223.511C225.403 207.771 227.277 207.399 229.025 206.675C230.774 205.952 232.362 204.893 233.7 203.557C235.038 202.221 236.1 200.635 236.824 198.889C237.548 197.143 237.921 195.272 237.921 193.383V193.383C237.921 191.494 237.548 189.623 236.824 187.877C236.1 186.132 235.038 184.546 233.7 183.209C232.362 181.873 230.774 180.814 229.025 180.091C227.277 179.368 225.403 178.995 223.511 178.995V178.995Z" stroke="#3F3D56" stroke-miterlimit="10"/>
<path d="M671.454 178.995H647.575V108.786C647.575 105.057 646.091 101.48 643.45 98.8434C640.809 96.2065 637.227 94.7251 633.492 94.7251H627.897C626.048 94.7251 624.216 95.0888 622.508 95.7954C620.799 96.5021 619.247 97.5378 617.939 98.8434C616.631 100.149 615.594 101.699 614.886 103.405C614.179 105.111 613.815 106.939 613.815 108.786V178.995H546.459C545.073 178.995 543.711 178.638 542.505 177.957C541.298 177.277 540.289 176.297 539.573 175.112C538.858 173.927 538.462 172.577 538.423 171.194C538.384 169.811 538.704 168.442 539.351 167.219L610.639 32.5016C611.528 30.822 612.067 28.98 612.223 27.0868C612.379 25.1936 612.149 23.2885 611.547 21.4864C610.946 19.6843 609.985 18.0226 608.722 16.6016C607.459 15.1806 605.921 14.0298 604.201 13.2187L599.993 11.2345C596.725 9.69384 592.989 9.46634 589.558 10.5991C586.127 11.7319 583.264 14.1382 581.56 17.3202L494.615 179.716C493.134 182.482 492.359 185.569 492.359 188.705C492.359 193.761 494.371 198.611 497.952 202.186C501.534 205.762 506.391 207.771 511.455 207.771H613.815V252.167C613.815 256.637 615.593 260.924 618.759 264.084C621.924 267.245 626.218 269.021 630.695 269.021V269.021C635.172 269.021 639.465 267.245 642.631 264.084C645.796 260.924 647.575 256.637 647.575 252.167V207.771H671.454C673.347 207.771 675.22 207.399 676.969 206.675C678.717 205.952 680.305 204.893 681.644 203.557C682.982 202.221 684.043 200.635 684.767 198.889C685.491 197.143 685.864 195.272 685.864 193.383V193.383C685.864 189.567 684.346 185.908 681.644 183.209C678.941 180.511 675.276 178.995 671.454 178.995V178.995Z" stroke="#3F3D56" stroke-miterlimit="10"/>
<path d="M363.904 1C306.149 1 264.682 37.9967 264.682 124.322C264.682 222.158 306.149 248.056 363.904 248.056C421.659 248.056 465.597 219.692 465.597 124.322C465.597 22.3759 421.659 1 363.904 1ZM364.284 215.581C324.281 215.581 303.383 192.149 303.383 124.386C303.383 64.5945 325.137 33.0638 365.139 33.0638C405.142 33.0638 426.896 53.7751 426.896 124.386C426.896 190.441 404.286 215.581 364.284 215.581V215.581Z" stroke="#3F3D56" stroke-miterlimit="10"/>
<path d="M677.621 177.846C679.656 178.584 681.836 178.841 683.988 178.595C686.14 178.35 688.206 177.608 690.022 176.43C691.838 175.251 693.355 173.667 694.453 171.803C695.552 169.939 696.202 167.846 696.352 165.689C696.502 163.531 696.148 161.368 695.318 159.371C694.488 157.373 693.205 155.595 691.569 154.177C689.934 152.759 687.991 151.74 685.893 151.2C683.796 150.659 681.602 150.613 679.483 151.064L679.833 158.251L676.427 152.091C673.085 153.66 670.502 156.489 669.248 159.957C668.802 161.172 668.531 162.444 668.443 163.734C668.228 166.763 669.008 169.779 670.664 172.325C672.32 174.872 674.762 176.81 677.621 177.846Z" fill="#57B894"/>
<path d="M694.473 261.209C693.27 255.096 698.48 249.677 703.626 246.155C708.772 242.632 714.785 239.171 716.541 233.194C719.064 224.603 711.548 216.735 705.697 209.95C701.357 204.915 697.63 199.384 694.593 193.473C693.376 191.103 692.258 188.625 691.937 185.981C691.476 182.173 692.701 178.383 693.936 174.751C698.048 162.65 702.445 150.651 707.126 138.754" stroke="#3F3D56" stroke-miterlimit="10"/>
<path d="M678.197 175.995C680.232 176.734 682.412 176.991 684.564 176.745C686.716 176.499 688.782 175.758 690.598 174.579C692.414 173.4 693.931 171.817 695.029 169.953C696.128 168.089 696.778 165.996 696.928 163.838C697.078 161.681 696.724 159.518 695.894 157.52C695.064 155.522 693.781 153.745 692.145 152.327C690.51 150.909 688.567 149.889 686.469 149.349C684.372 148.809 682.178 148.762 680.059 149.213L680.409 156.401L677.003 150.241C673.661 151.809 671.078 154.638 669.824 158.106C669.378 159.321 669.107 160.593 669.019 161.884C668.804 164.912 669.584 167.928 671.24 170.475C672.896 173.021 675.338 174.959 678.197 175.995V175.995Z" stroke="#3F3D56" stroke-miterlimit="10"/>
<path d="M692.765 136.271C693.563 134.07 694.904 132.106 696.663 130.558C698.423 129.011 700.544 127.93 702.831 127.416L703.983 134.249L706.118 127.073C709.082 127.117 711.956 128.1 714.324 129.881C716.692 131.662 718.432 134.148 719.292 136.98C720.153 139.813 720.09 142.845 719.112 145.64C718.134 148.434 716.292 150.846 713.852 152.527C711.412 154.208 708.5 155.071 705.536 154.992C702.572 154.913 699.711 153.895 697.364 152.086C695.018 150.277 693.307 147.771 692.481 144.928C691.654 142.085 691.753 139.054 692.764 136.271H692.765Z" fill="#57B894"/>
<path d="M693.53 133.804C694.329 131.603 695.67 129.638 697.429 128.091C699.188 126.543 701.309 125.463 703.597 124.949L704.748 131.782L706.883 124.605C709.848 124.649 712.721 125.633 715.089 127.413C717.457 129.194 719.197 131.68 720.058 134.513C720.919 137.346 720.856 140.378 719.878 143.172C718.9 145.967 717.058 148.378 714.618 150.059C712.177 151.74 709.265 152.604 706.302 152.525C703.338 152.445 700.476 151.428 698.13 149.619C695.783 147.81 694.073 145.303 693.246 142.461C692.419 139.618 692.519 136.587 693.53 133.804H693.53Z" stroke="#3F3D56" stroke-miterlimit="10"/>
<path d="M703.242 210.089C706.47 211.258 710.016 211.2 713.205 209.926C716.393 208.653 719.001 206.252 720.531 203.182C722.06 200.112 722.405 196.587 721.499 193.28C720.594 189.972 718.501 187.113 715.619 185.248L713.979 190.762L712.815 183.849C712.804 183.844 712.792 183.839 712.78 183.835C711.053 183.209 709.22 182.928 707.384 183.009C705.549 183.09 703.747 183.532 702.083 184.308C700.418 185.085 698.923 186.181 697.683 187.535C696.443 188.889 695.482 190.473 694.856 192.197C694.229 193.922 693.949 195.753 694.032 197.585C694.114 199.418 694.557 201.216 695.336 202.878C696.115 204.539 697.214 206.031 698.57 207.269C699.927 208.506 701.514 209.464 703.241 210.089H703.242Z" fill="#57B894"/>
<path d="M703.908 207.589C707.136 208.759 710.682 208.701 713.871 207.427C717.059 206.154 719.667 203.753 721.197 200.683C722.726 197.613 723.071 194.088 722.165 190.781C721.26 187.473 719.167 184.614 716.285 182.748L714.645 188.263L713.481 181.35C713.47 181.344 713.458 181.34 713.446 181.336C711.719 180.71 709.886 180.429 708.05 180.51C706.215 180.591 704.413 181.033 702.749 181.809C701.084 182.586 699.589 183.682 698.349 185.036C697.109 186.39 696.148 187.974 695.522 189.698C694.895 191.423 694.615 193.254 694.698 195.086C694.78 196.919 695.223 198.717 696.002 200.379C696.781 202.04 697.88 203.532 699.236 204.769C700.593 206.007 702.18 206.965 703.907 207.589H703.908Z" stroke="#3F3D56" stroke-miterlimit="10"/>
<path d="M688.682 233.279C689.237 236.433 690.861 239.3 693.282 241.4C695.703 243.5 698.774 244.705 701.979 244.812C705.184 244.92 708.329 243.924 710.886 241.992C713.443 240.059 715.257 237.308 716.023 234.198C716.789 231.089 716.462 227.811 715.095 224.915C713.728 222.018 711.405 219.679 708.516 218.289C705.627 216.9 702.347 216.544 699.226 217.282C696.106 218.021 693.334 219.808 691.377 222.344L697.608 231.708L689.094 226.738C688.434 228.854 688.292 231.097 688.682 233.279Z" fill="#57B894"/>
<path d="M689.258 231.428C689.813 234.582 691.437 237.449 693.858 239.549C696.279 241.649 699.35 242.854 702.555 242.962C705.76 243.07 708.905 242.074 711.462 240.141C714.019 238.209 715.833 235.457 716.599 232.348C717.365 229.239 717.038 225.961 715.671 223.064C714.304 220.168 711.981 217.828 709.092 216.439C706.203 215.049 702.923 214.693 699.802 215.432C696.682 216.17 693.91 217.957 691.953 220.493L698.184 229.858L689.67 224.888C689.01 227.003 688.868 229.247 689.258 231.428V231.428Z" stroke="#3F3D56" stroke-miterlimit="10"/>
<path d="M7.05259 211.863C8.39008 212.348 9.82223 212.517 11.2362 212.356C12.6501 212.194 14.0071 211.707 15.2003 210.933C16.3935 210.158 17.3903 209.118 18.112 207.893C18.8338 206.669 19.2608 205.293 19.3593 203.876C19.4579 202.458 19.2254 201.037 18.6801 199.725C18.1348 198.412 17.2917 197.244 16.2171 196.312C15.1426 195.381 13.866 194.711 12.4879 194.356C11.1099 194.001 9.66818 193.971 8.27632 194.267L8.50633 198.989L6.26862 194.942C4.07245 195.972 2.37581 197.831 1.55156 200.11C1.25883 200.908 1.08087 201.744 1.023 202.592C0.881752 204.582 1.39396 206.563 2.48201 208.236C3.57005 209.909 5.17463 211.182 7.05259 211.863Z" fill="#57B894"/>
<path d="M18.1256 266.634C17.3357 262.618 20.7586 259.058 24.1395 256.743C27.5205 254.429 31.471 252.155 32.6246 248.228C34.2825 242.583 29.3441 237.414 25.5004 232.956C22.6487 229.648 20.1998 226.014 18.2048 222.13C17.3375 220.605 16.7468 218.939 16.4599 217.208C16.1568 214.706 16.9618 212.216 17.7729 209.83C20.4748 201.879 23.3636 193.996 26.4393 186.179" stroke="#3F3D56" stroke-miterlimit="10"/>
<path d="M7.43151 210.647C8.769 211.133 10.2011 211.301 11.6151 211.14C13.029 210.978 14.386 210.491 15.5792 209.717C16.7724 208.943 17.7692 207.902 18.4909 206.677C19.2127 205.453 19.6396 204.077 19.7382 202.66C19.8368 201.242 19.6043 199.821 19.059 198.509C18.5137 197.196 17.6706 196.028 16.596 195.097C15.5215 194.165 14.2449 193.495 12.8668 193.14C11.4888 192.785 10.0471 192.755 8.65523 193.051L8.88524 197.773L6.64753 193.726C4.45136 194.757 2.75472 196.615 1.93046 198.894C1.63774 199.692 1.45979 200.528 1.40191 201.376C1.26065 203.366 1.77286 205.347 2.86091 207.02C3.94895 208.693 5.55353 209.967 7.43151 210.647V210.647Z" stroke="#3F3D56" stroke-miterlimit="10"/>
<path d="M17.0022 184.548C17.5271 183.102 18.408 181.811 19.5639 180.794C20.7197 179.778 22.1133 179.068 23.6161 178.73L24.3727 183.219L25.7755 178.504C27.7231 178.533 29.6111 179.179 31.167 180.349C32.7229 181.519 33.8661 183.153 34.4315 185.014C34.997 186.875 34.9555 188.867 34.313 190.703C33.6705 192.539 32.4603 194.124 30.857 195.228C29.2538 196.333 27.3405 196.9 25.3934 196.848C23.4462 196.796 21.5661 196.127 20.0243 194.939C18.4825 193.75 17.3589 192.103 16.8157 190.235C16.2725 188.368 16.3378 186.376 17.0022 184.548Z" fill="#57B894"/>
<path d="M17.5061 182.927C18.031 181.481 18.9119 180.19 20.0678 179.173C21.2236 178.157 22.6172 177.447 24.1201 177.109L24.8766 181.598L26.2794 176.883C28.227 176.912 30.115 177.558 31.6709 178.728C33.2268 179.898 34.37 181.532 34.9354 183.393C35.5009 185.254 35.4594 187.246 34.8169 189.082C34.1744 190.918 32.9642 192.503 31.3609 193.607C29.7577 194.712 27.8444 195.279 25.8973 195.227C23.9501 195.175 22.07 194.506 20.5282 193.318C18.9864 192.129 17.8628 190.482 17.3196 188.614C16.7764 186.747 16.8417 184.755 17.5061 182.927V182.927Z" stroke="#3F3D56" stroke-miterlimit="10"/>
<path d="M23.886 233.047C26.0072 233.815 28.3373 233.778 30.4322 232.941C32.5271 232.104 34.2404 230.527 35.2454 228.51C36.2505 226.492 36.477 224.177 35.8819 222.004C35.2868 219.831 33.9116 217.952 32.0184 216.726L30.9406 220.35L30.1763 215.807C30.1687 215.804 30.1609 215.801 30.1529 215.798C29.0183 215.387 27.8136 215.202 26.6075 215.255C25.4014 215.308 24.2176 215.598 23.1238 216.108C22.03 216.618 21.0477 217.339 20.2328 218.228C19.418 219.118 18.7867 220.159 18.375 221.292C17.9633 222.425 17.7793 223.628 17.8335 224.832C17.8877 226.036 18.179 227.218 18.6908 228.31C19.2026 229.401 19.9248 230.382 20.8163 231.195C21.7077 232.008 22.7508 232.637 23.886 233.047Z" fill="#57B894"/>
<path d="M24.3247 231.405C26.4458 232.173 28.7759 232.135 30.8708 231.299C32.9657 230.462 34.679 228.885 35.684 226.867C36.6891 224.85 36.9156 222.535 36.3205 220.362C35.7254 218.188 34.3502 216.31 32.4571 215.084L31.3792 218.708L30.6149 214.165C30.6074 214.162 30.5995 214.159 30.5915 214.156C29.4572 213.746 28.2529 213.562 27.0475 213.616C25.842 213.669 24.659 213.96 23.5659 214.47C21.3584 215.501 19.6514 217.365 18.8203 219.652C17.9893 221.94 18.1023 224.463 19.1346 226.667C20.1669 228.871 22.0338 230.575 24.3247 231.405V231.405Z" stroke="#3F3D56" stroke-miterlimit="10"/>
<path d="M14.3208 248.284C14.6856 250.356 15.7527 252.24 17.3434 253.619C18.9341 254.999 20.9515 255.79 23.0573 255.861C25.1632 255.932 27.2294 255.278 28.9094 254.008C30.5894 252.738 31.7811 250.931 32.2846 248.888C32.7881 246.845 32.5728 244.691 31.6747 242.788C30.7767 240.885 29.2506 239.348 27.3523 238.435C25.4541 237.522 23.2991 237.289 21.2488 237.774C19.1986 238.259 17.3777 239.433 16.0916 241.099L20.1857 247.252L14.5916 243.986C14.1579 245.376 14.065 246.85 14.3208 248.284Z" fill="#57B894"/>
<path d="M14.6998 247.068C15.0645 249.14 16.1316 251.024 17.7223 252.403C19.313 253.783 21.3304 254.575 23.4363 254.646C25.5421 254.716 27.6083 254.062 29.2883 252.792C30.9683 251.523 32.16 249.715 32.6635 247.672C33.167 245.629 32.9517 243.476 32.0536 241.572C31.1556 239.669 29.6295 238.132 27.7312 237.219C25.833 236.306 23.678 236.073 21.6277 236.558C19.5775 237.043 17.7566 238.217 16.4705 239.883L20.5646 246.036L14.9705 242.77C14.5368 244.161 14.4439 245.634 14.6998 247.068V247.068Z" stroke="#3F3D56" stroke-miterlimit="10"/>
<path d="M324.2 125.219C330.509 125.219 335.624 118.61 335.624 110.457C335.624 102.305 330.509 95.6962 324.2 95.6962C317.89 95.6962 312.775 102.305 312.775 110.457C312.775 118.61 317.89 125.219 324.2 125.219Z" fill="#04121E"/>
<path d="M386.36 125.554C392.669 125.554 397.784 118.945 397.784 110.793C397.784 102.64 392.669 96.0316 386.36 96.0316C380.05 96.0316 374.936 102.64 374.936 110.793C374.936 118.945 380.05 125.554 386.36 125.554Z" fill="#04121E"/>
<path d="M377.623 154.406C377.623 161.075 368.296 166.483 356.791 166.483C345.286 166.483 335.959 161.075 335.959 154.406C335.959 148.629 342.955 143.798 352.302 142.617C353.79 142.421 355.29 142.325 356.791 142.328C359.307 142.32 361.815 142.59 364.271 143.134C372.079 144.871 377.623 149.266 377.623 154.406Z" fill="#04121E"/>
<path d="M326.887 121.864C333.196 121.864 338.311 115.255 338.311 107.103C338.311 98.9502 333.196 92.3413 326.887 92.3413C320.578 92.3413 315.463 98.9502 315.463 107.103C315.463 115.255 320.578 121.864 326.887 121.864Z" stroke="#3F3D56" stroke-miterlimit="10"/>
<path d="M389.049 122.199C395.358 122.199 400.473 115.59 400.473 107.438C400.473 99.2856 395.358 92.6768 389.049 92.6768C382.74 92.6768 377.625 99.2856 377.625 107.438C377.625 115.59 382.74 122.199 389.049 122.199Z" stroke="#3F3D56" stroke-miterlimit="10"/>
<path d="M359.481 163.128C370.986 163.128 380.313 157.721 380.313 151.051C380.313 144.381 370.986 138.974 359.481 138.974C347.975 138.974 338.648 144.381 338.648 151.051C338.648 157.721 347.975 163.128 359.481 163.128Z" stroke="#3F3D56" stroke-miterlimit="10"/>
<path d="M364.52 144.14C364.525 144.984 364.208 145.798 363.632 146.416C363.361 146.712 363.031 146.949 362.663 147.111C362.295 147.274 361.898 147.359 361.496 147.361H354.775C353.947 147.332 353.164 146.977 352.598 146.373C352.031 145.77 351.727 144.967 351.751 144.14C351.748 143.486 351.94 142.845 352.302 142.301C353.79 142.092 355.29 141.989 356.791 141.993C359.31 141.985 361.82 142.273 364.271 142.852C364.437 143.261 364.521 143.698 364.52 144.14Z" fill="white"/>
<path d="M326.887 106.432C328.743 106.432 330.247 104.93 330.247 103.077C330.247 101.224 328.743 99.7219 326.887 99.7219C325.032 99.7219 323.527 101.224 323.527 103.077C323.527 104.93 325.032 106.432 326.887 106.432Z" fill="white"/>
<path d="M389.383 106.432C391.239 106.432 392.744 104.93 392.744 103.077C392.744 101.224 391.239 99.7219 389.383 99.7219C387.528 99.7219 386.023 101.224 386.023 103.077C386.023 104.93 387.528 106.432 389.383 106.432Z" fill="white"/>
<path opacity="0.3" d="M392.745 137.967C394.6 137.967 396.105 136.465 396.105 134.612C396.105 132.759 394.6 131.257 392.745 131.257C390.889 131.257 389.385 132.759 389.385 134.612C389.385 136.465 390.889 137.967 392.745 137.967Z" fill="#0090E3"/>
<path opacity="0.3" d="M310.758 137.967C312.614 137.967 314.118 136.465 314.118 134.612C314.118 132.759 312.614 131.257 310.758 131.257C308.903 131.257 307.398 132.759 307.398 134.612C307.398 136.465 308.903 137.967 310.758 137.967Z" fill="#0090E3"/>
<path d="M327.112 407.881C324.616 407.881 322.36 407.341 320.344 406.261C318.328 405.157 316.744 403.609 315.592 401.617C314.44 399.625 313.864 397.345 313.864 394.777C313.864 392.209 314.44 389.929 315.592 387.937C316.744 385.945 318.328 384.397 320.344 383.293C322.36 382.189 324.616 381.637 327.112 381.637C329.608 381.637 331.864 382.189 333.88 383.293C335.896 384.397 337.48 385.945 338.632 387.937C339.784 389.929 340.36 392.209 340.36 394.777C340.36 397.345 339.784 399.625 338.632 401.617C337.48 403.609 335.896 405.157 333.88 406.261C331.864 407.341 329.608 407.881 327.112 407.881ZM327.112 404.569C328.888 404.569 330.496 404.173 331.936 403.381C333.4 402.565 334.552 401.425 335.392 399.961C336.232 398.473 336.652 396.745 336.652 394.777C336.652 392.833 336.232 391.129 335.392 389.665C334.576 388.177 333.448 387.037 332.008 386.245C330.568 385.429 328.96 385.021 327.184 385.021C325.384 385.021 323.752 385.417 322.288 386.209C320.848 387.001 319.696 388.141 318.832 389.629C317.992 391.117 317.572 392.833 317.572 394.777C317.572 396.745 317.992 398.473 318.832 399.961C319.672 401.425 320.812 402.565 322.252 403.381C323.716 404.173 325.336 404.569 327.112 404.569ZM352.907 407.881C350.963 407.881 349.247 407.521 347.759 406.801C346.295 406.057 345.143 405.001 344.303 403.633C343.487 402.241 343.079 400.609 343.079 398.737C343.079 396.889 343.487 395.269 344.303 393.877C345.119 392.485 346.271 391.417 347.759 390.673C349.247 389.905 350.963 389.521 352.907 389.521C354.851 389.521 356.567 389.905 358.055 390.673C359.543 391.417 360.695 392.485 361.511 393.877C362.351 395.269 362.771 396.889 362.771 398.737C362.771 400.609 362.351 402.241 361.511 403.633C360.695 405.001 359.543 406.057 358.055 406.801C356.567 407.521 354.851 407.881 352.907 407.881ZM352.907 405.001C354.779 405.001 356.267 404.425 357.371 403.273C358.475 402.121 359.027 400.609 359.027 398.737C359.027 396.793 358.475 395.257 357.371 394.129C356.267 393.001 354.779 392.437 352.907 392.437C351.035 392.437 349.547 393.001 348.443 394.129C347.339 395.257 346.787 396.793 346.787 398.737C346.787 400.609 347.339 402.121 348.443 403.273C349.547 404.425 351.035 405.001 352.907 405.001ZM366.721 390.061H370.249V392.617C372.025 390.553 374.425 389.521 377.449 389.521C379.177 389.521 380.725 389.905 382.093 390.673C383.485 391.441 384.565 392.521 385.333 393.913C386.125 395.281 386.521 396.877 386.521 398.701C386.521 400.501 386.125 402.097 385.333 403.489C384.565 404.881 383.497 405.961 382.129 406.729C380.761 407.497 379.201 407.881 377.449 407.881C376.009 407.881 374.665 407.641 373.417 407.161C372.169 406.681 371.149 405.973 370.357 405.037V415.225H366.721V390.061ZM376.621 405.001C377.797 405.001 378.853 404.749 379.789 404.245C380.749 403.717 381.493 402.973 382.021 402.013C382.573 401.053 382.849 399.949 382.849 398.701C382.849 397.453 382.573 396.361 382.021 395.425C381.493 394.465 380.749 393.733 379.789 393.229C378.853 392.701 377.797 392.437 376.621 392.437C375.157 392.437 373.861 392.821 372.733 393.589C371.629 394.357 370.837 395.413 370.357 396.757V400.645C370.765 401.965 371.545 403.021 372.697 403.813C373.849 404.605 375.157 405.001 376.621 405.001ZM396.331 407.881C395.131 407.881 393.859 407.725 392.515 407.413C391.171 407.125 390.115 406.729 389.347 406.225V403.129C390.283 403.681 391.363 404.137 392.587 404.497C393.811 404.833 394.999 405.001 396.151 405.001C397.447 405.001 398.395 404.845 398.995 404.533C399.595 404.221 399.895 403.717 399.895 403.021C399.895 402.493 399.751 402.073 399.463 401.761C399.199 401.425 398.731 401.125 398.059 400.861C397.411 400.597 396.427 400.285 395.107 399.925C393.691 399.517 392.563 399.109 391.723 398.701C390.907 398.269 390.283 397.729 389.851 397.081C389.443 396.433 389.239 395.593 389.239 394.561C389.239 392.905 389.887 391.657 391.183 390.817C392.503 389.953 394.267 389.521 396.475 389.521C397.627 389.521 398.755 389.629 399.859 389.845C400.963 390.061 401.851 390.361 402.523 390.745V393.769C401.827 393.361 400.963 393.037 399.931 392.797C398.923 392.557 397.891 392.437 396.835 392.437C395.563 392.437 394.591 392.593 393.919 392.905C393.247 393.217 392.911 393.769 392.911 394.561C392.911 395.065 393.055 395.473 393.343 395.785C393.631 396.097 394.087 396.373 394.711 396.613C395.359 396.829 396.379 397.117 397.771 397.477C399.955 398.077 401.467 398.785 402.307 399.601C403.171 400.417 403.603 401.545 403.603 402.985C403.603 404.473 402.991 405.661 401.767 406.549C400.543 407.437 398.731 407.881 396.331 407.881ZM407.248 382.177H410.776V400.141H407.248V382.177ZM408.976 407.881C408.376 407.881 407.872 407.677 407.464 407.269C407.056 406.861 406.852 406.357 406.852 405.757C406.852 405.157 407.056 404.653 407.464 404.245C407.872 403.837 408.376 403.633 408.976 403.633C409.576 403.633 410.08 403.837 410.488 404.245C410.92 404.653 411.136 405.157 411.136 405.757C411.136 406.357 410.92 406.861 410.488 407.269C410.08 407.677 409.576 407.881 408.976 407.881Z" fill="#04121E"/>
<path d="M60.1816 461.565H62.7256L66.4696 474.309L70.1656 461.565H72.0856L75.7576 474.309L79.5016 461.565H82.0456L77.1496 478.341H74.8216L71.1016 465.669L67.4056 478.341H65.0776L60.1816 461.565ZM89.2163 478.701C87.0883 478.701 85.4163 478.173 84.2003 477.117C83.0003 476.045 82.4003 474.541 82.4003 472.605C82.4003 470.717 82.9363 469.221 84.0083 468.117C85.0963 467.013 86.6403 466.461 88.6403 466.461C89.9683 466.461 91.0963 466.717 92.0243 467.229C92.9523 467.725 93.6483 468.421 94.1123 469.317C94.5923 470.197 94.8323 471.205 94.8323 472.341V473.541H84.7043C84.7843 474.629 85.2403 475.445 86.0723 475.989C86.9203 476.517 88.0643 476.781 89.5043 476.781C90.2403 476.781 90.9843 476.717 91.7363 476.589C92.4883 476.445 93.1523 476.261 93.7283 476.037V477.981C93.2163 478.189 92.5363 478.357 91.6883 478.485C90.8563 478.629 90.0323 478.701 89.2163 478.701ZM92.5523 471.837C92.5203 470.749 92.1603 469.909 91.4723 469.317C90.8003 468.709 89.8403 468.405 88.5923 468.405C87.3763 468.405 86.4323 468.717 85.7603 469.341C85.0883 469.965 84.7363 470.797 84.7043 471.837H92.5523ZM112.437 478.701C111.157 478.701 110.021 478.461 109.029 477.981C108.037 477.501 107.261 476.805 106.701 475.893C106.157 474.965 105.885 473.869 105.885 472.605C105.885 471.341 106.157 470.253 106.701 469.341C107.261 468.413 108.037 467.701 109.029 467.205C110.037 466.709 111.189 466.461 112.485 466.461C114.245 466.461 115.653 466.805 116.709 467.493V469.485C115.669 468.765 114.341 468.405 112.725 468.405C111.413 468.405 110.349 468.765 109.533 469.485C108.733 470.189 108.333 471.229 108.333 472.605C108.333 473.981 108.733 475.021 109.533 475.725C110.333 476.429 111.381 476.781 112.677 476.781C114.293 476.781 115.685 476.397 116.853 475.629V477.597C116.293 477.981 115.653 478.261 114.933 478.437C114.229 478.613 113.397 478.701 112.437 478.701ZM123.501 478.701C122.109 478.701 120.989 478.349 120.141 477.645C119.309 476.925 118.893 475.957 118.893 474.741C118.893 473.461 119.293 472.477 120.093 471.789C120.909 471.085 122.061 470.733 123.549 470.733C125.133 470.733 126.477 471.053 127.581 471.693V471.093C127.581 470.181 127.301 469.509 126.741 469.077C126.197 468.629 125.333 468.405 124.148 468.405C123.445 468.405 122.757 468.477 122.085 468.621C121.429 468.749 120.837 468.933 120.309 469.173V467.205C120.789 466.981 121.413 466.805 122.181 466.677C122.949 466.533 123.693 466.461 124.413 466.461C126.317 466.461 127.725 466.885 128.637 467.733C129.565 468.565 130.029 469.725 130.029 471.213V478.341H127.749V477.045C127.253 477.589 126.661 478.005 125.973 478.293C125.301 478.565 124.477 478.701 123.501 478.701ZM124.101 476.853C124.869 476.853 125.565 476.701 126.189 476.397C126.813 476.093 127.277 475.669 127.581 475.125V473.565C126.541 472.893 125.381 472.557 124.101 472.557C123.173 472.557 122.477 472.741 122.013 473.109C121.565 473.461 121.34 474.005 121.34 474.741C121.34 476.149 122.261 476.853 124.101 476.853ZM133.037 466.821H135.389V468.477C135.933 467.789 136.597 467.285 137.381 466.965C138.181 466.629 139.013 466.461 139.877 466.461C141.413 466.461 142.557 466.869 143.309 467.685C144.061 468.501 144.437 469.597 144.437 470.973V478.341H142.013V471.213C142.013 469.341 141.117 468.405 139.325 468.405C138.557 468.405 137.837 468.589 137.165 468.957C136.509 469.309 135.941 469.853 135.461 470.589V478.341H133.037V466.821ZM148.531 461.205H150.931L149.035 465.885H146.947L148.531 461.205ZM158.008 478.701C156.84 478.701 155.936 478.365 155.296 477.693C154.672 477.021 154.36 476.069 154.36 474.837V468.693H152.608V466.821H154.36V463.365H156.808V466.821H159.64V468.693H156.808V474.669C156.808 475.437 156.952 475.981 157.24 476.301C157.544 476.621 158.088 476.781 158.872 476.781C159.336 476.781 159.8 476.677 160.264 476.469V478.389C159.656 478.597 158.904 478.701 158.008 478.701ZM175.675 478.701C174.875 478.701 174.027 478.597 173.131 478.389C172.235 478.197 171.531 477.933 171.019 477.597V475.533C171.643 475.901 172.363 476.205 173.179 476.445C173.995 476.669 174.787 476.781 175.555 476.781C176.419 476.781 177.051 476.677 177.451 476.469C177.851 476.261 178.051 475.925 178.051 475.461C178.051 475.109 177.955 474.829 177.763 474.621C177.587 474.397 177.275 474.197 176.827 474.021C176.395 473.845 175.739 473.637 174.859 473.397C173.915 473.125 173.163 472.853 172.603 472.581C172.059 472.293 171.643 471.933 171.355 471.501C171.083 471.069 170.947 470.509 170.947 469.821C170.947 468.717 171.379 467.885 172.243 467.325C173.123 466.749 174.299 466.461 175.771 466.461C176.539 466.461 177.291 466.533 178.027 466.677C178.763 466.821 179.355 467.021 179.803 467.277V469.293C179.339 469.021 178.763 468.805 178.075 468.645C177.403 468.485 176.715 468.405 176.011 468.405C175.163 468.405 174.515 468.509 174.067 468.717C173.619 468.925 173.395 469.293 173.395 469.821C173.395 470.157 173.491 470.429 173.683 470.637C173.875 470.845 174.179 471.029 174.595 471.189C175.027 471.333 175.707 471.525 176.635 471.765C178.091 472.165 179.099 472.637 179.659 473.181C180.235 473.725 180.523 474.477 180.523 475.437C180.523 476.429 180.115 477.221 179.299 477.813C178.483 478.405 177.275 478.701 175.675 478.701ZM189.505 478.701C187.377 478.701 185.705 478.173 184.489 477.117C183.289 476.045 182.689 474.541 182.689 472.605C182.689 470.717 183.225 469.221 184.297 468.117C185.385 467.013 186.929 466.461 188.929 466.461C190.257 466.461 191.385 466.717 192.313 467.229C193.241 467.725 193.937 468.421 194.401 469.317C194.881 470.197 195.121 471.205 195.121 472.341V473.541H184.993C185.073 474.629 185.529 475.445 186.361 475.989C187.209 476.517 188.353 476.781 189.793 476.781C190.529 476.781 191.273 476.717 192.025 476.589C192.777 476.445 193.441 476.261 194.017 476.037V477.981C193.505 478.189 192.825 478.357 191.977 478.485C191.145 478.629 190.321 478.701 189.505 478.701ZM192.841 471.837C192.809 470.749 192.449 469.909 191.761 469.317C191.089 468.709 190.129 468.405 188.881 468.405C187.665 468.405 186.721 468.717 186.049 469.341C185.377 469.965 185.025 470.797 184.993 471.837H192.841ZM204.107 478.701C201.979 478.701 200.307 478.173 199.091 477.117C197.891 476.045 197.291 474.541 197.291 472.605C197.291 470.717 197.827 469.221 198.899 468.117C199.987 467.013 201.531 466.461 203.531 466.461C204.859 466.461 205.987 466.717 206.915 467.229C207.843 467.725 208.539 468.421 209.003 469.317C209.483 470.197 209.723 471.205 209.723 472.341V473.541H199.595C199.675 474.629 200.131 475.445 200.963 475.989C201.811 476.517 202.955 476.781 204.395 476.781C205.131 476.781 205.875 476.717 206.627 476.589C207.379 476.445 208.043 476.261 208.619 476.037V477.981C208.107 478.189 207.427 478.357 206.579 478.485C205.747 478.629 204.923 478.701 204.107 478.701ZM207.443 471.837C207.411 470.749 207.051 469.909 206.363 469.317C205.691 468.709 204.731 468.405 203.483 468.405C202.267 468.405 201.323 468.717 200.651 469.341C199.979 469.965 199.627 470.797 199.595 471.837H207.443ZM212.373 466.821H214.677V468.477C215.221 467.805 215.837 467.301 216.525 466.965C217.213 466.629 217.925 466.461 218.661 466.461C219.589 466.461 220.325 466.621 220.869 466.941C221.413 467.245 221.813 467.717 222.069 468.357C222.581 467.733 223.205 467.261 223.941 466.941C224.693 466.621 225.445 466.461 226.197 466.461C227.605 466.461 228.621 466.821 229.245 467.541C229.869 468.245 230.181 469.293 230.181 470.685V478.341H227.829V470.997C227.829 470.053 227.653 469.389 227.301 469.005C226.949 468.605 226.349 468.405 225.501 468.405C224.285 468.405 223.293 468.933 222.525 469.989C222.557 470.229 222.573 470.621 222.573 471.165V478.341H220.221V470.997C220.221 470.053 220.061 469.389 219.741 469.005C219.421 468.605 218.845 468.405 218.013 468.405C216.797 468.405 215.709 469.093 214.749 470.469V478.341H212.373V466.821ZM246.508 478.701C245.34 478.701 244.436 478.365 243.796 477.693C243.172 477.021 242.86 476.069 242.86 474.837V468.693H241.108V466.821H242.86V463.365H245.308V466.821H248.14V468.693H245.308V474.669C245.308 475.437 245.452 475.981 245.74 476.301C246.044 476.621 246.588 476.781 247.372 476.781C247.836 476.781 248.3 476.677 248.764 476.469V478.389C248.156 478.597 247.404 478.701 246.508 478.701ZM256.999 478.701C255.703 478.701 254.559 478.461 253.567 477.981C252.591 477.485 251.823 476.781 251.263 475.869C250.719 474.941 250.447 473.853 250.447 472.605C250.447 471.373 250.719 470.293 251.263 469.365C251.807 468.437 252.575 467.725 253.567 467.229C254.559 466.717 255.703 466.461 256.999 466.461C258.295 466.461 259.439 466.717 260.431 467.229C261.423 467.725 262.191 468.437 262.735 469.365C263.295 470.293 263.575 471.373 263.575 472.605C263.575 473.853 263.295 474.941 262.735 475.869C262.191 476.781 261.423 477.485 260.431 477.981C259.439 478.461 258.295 478.701 256.999 478.701ZM256.999 476.781C258.247 476.781 259.239 476.397 259.975 475.629C260.711 474.861 261.079 473.853 261.079 472.605C261.079 471.309 260.711 470.285 259.975 469.533C259.239 468.781 258.247 468.405 256.999 468.405C255.751 468.405 254.759 468.781 254.023 469.533C253.287 470.285 252.919 471.309 252.919 472.605C252.919 473.853 253.287 474.861 254.023 475.629C254.759 476.397 255.751 476.781 256.999 476.781ZM275.883 468.693H274.131V466.821H275.883V464.637C275.883 463.309 276.307 462.285 277.155 461.565C278.003 460.845 279.059 460.485 280.323 460.485C280.963 460.485 281.587 460.581 282.195 460.773V462.741C281.747 462.565 281.283 462.477 280.803 462.477C279.987 462.477 279.363 462.677 278.931 463.077C278.515 463.461 278.307 464.029 278.307 464.781V466.821H286.083V478.341H283.659V468.693H278.307V478.341H275.883V468.693ZM284.859 464.565C284.443 464.565 284.099 464.429 283.827 464.157C283.555 463.885 283.419 463.549 283.419 463.149C283.419 462.749 283.555 462.413 283.827 462.141C284.115 461.869 284.459 461.733 284.859 461.733C285.259 461.733 285.595 461.869 285.867 462.141C286.155 462.413 286.299 462.749 286.299 463.149C286.299 463.549 286.155 463.885 285.867 464.157C285.595 464.429 285.259 464.565 284.859 464.565ZM289.412 466.821H291.764V468.477C292.308 467.789 292.972 467.285 293.756 466.965C294.556 466.629 295.388 466.461 296.252 466.461C297.788 466.461 298.932 466.869 299.684 467.685C300.436 468.501 300.812 469.597 300.812 470.973V478.341H298.388V471.213C298.388 469.341 297.492 468.405 295.7 468.405C294.932 468.405 294.212 468.589 293.54 468.957C292.884 469.309 292.316 469.853 291.836 470.589V478.341H289.412V466.821ZM309.37 478.701C308.218 478.701 307.178 478.453 306.25 477.957C305.338 477.445 304.618 476.733 304.09 475.821C303.578 474.893 303.322 473.821 303.322 472.605C303.322 471.405 303.578 470.341 304.09 469.413C304.618 468.485 305.338 467.765 306.25 467.253C307.178 466.725 308.218 466.461 309.37 466.461C311.45 466.461 313.026 467.093 314.098 468.357V460.605H316.522V478.341H314.17V476.661C313.53 477.365 312.826 477.885 312.058 478.221C311.306 478.541 310.41 478.701 309.37 478.701ZM309.922 476.781C310.914 476.781 311.778 476.525 312.514 476.013C313.266 475.485 313.794 474.781 314.098 473.901V471.309C313.826 470.429 313.306 469.725 312.538 469.197C311.786 468.669 310.914 468.405 309.922 468.405C309.138 468.405 308.426 468.581 307.786 468.933C307.162 469.285 306.666 469.781 306.298 470.421C305.946 471.061 305.77 471.789 305.77 472.605C305.77 473.421 305.946 474.149 306.298 474.789C306.666 475.429 307.162 475.925 307.786 476.277C308.426 476.613 309.138 476.781 309.922 476.781ZM332.969 478.701C331.801 478.701 330.897 478.365 330.257 477.693C329.633 477.021 329.321 476.069 329.321 474.837V468.693H327.569V466.821H329.321V463.365H331.769V466.821H334.601V468.693H331.769V474.669C331.769 475.437 331.913 475.981 332.201 476.301C332.505 476.621 333.049 476.781 333.833 476.781C334.297 476.781 334.761 476.677 335.225 476.469V478.389C334.617 478.597 333.865 478.701 332.969 478.701ZM337.505 460.605H339.929V468.405C341.033 467.109 342.505 466.461 344.345 466.461C345.881 466.461 347.025 466.869 347.777 467.685C348.529 468.501 348.905 469.597 348.905 470.973V478.341H346.481V471.213C346.481 469.341 345.585 468.405 343.793 468.405C343.025 468.405 342.305 468.589 341.633 468.957C340.977 469.309 340.409 469.853 339.929 470.589V478.341H337.505V460.605ZM358.232 478.701C356.104 478.701 354.432 478.173 353.216 477.117C352.016 476.045 351.416 474.541 351.416 472.605C351.416 470.717 351.952 469.221 353.024 468.117C354.112 467.013 355.656 466.461 357.656 466.461C358.984 466.461 360.112 466.717 361.04 467.229C361.968 467.725 362.664 468.421 363.128 469.317C363.608 470.197 363.848 471.205 363.848 472.341V473.541H353.72C353.8 474.629 354.256 475.445 355.088 475.989C355.936 476.517 357.08 476.781 358.52 476.781C359.256 476.781 360 476.717 360.752 476.589C361.504 476.445 362.168 476.261 362.744 476.037V477.981C362.232 478.189 361.552 478.357 360.704 478.485C359.872 478.629 359.048 478.701 358.232 478.701ZM361.568 471.837C361.536 470.749 361.176 469.909 360.488 469.317C359.816 468.709 358.856 468.405 357.608 468.405C356.392 468.405 355.448 468.717 354.776 469.341C354.104 469.965 353.752 470.797 353.72 471.837H361.568ZM375.38 466.821H377.732V468.525C378.916 467.149 380.516 466.461 382.532 466.461C383.684 466.461 384.716 466.717 385.628 467.229C386.556 467.741 387.276 468.461 387.788 469.389C388.316 470.301 388.58 471.365 388.58 472.581C388.58 473.781 388.316 474.845 387.788 475.773C387.276 476.701 386.564 477.421 385.652 477.933C384.74 478.445 383.7 478.701 382.532 478.701C381.572 478.701 380.676 478.541 379.844 478.221C379.012 477.901 378.332 477.429 377.804 476.805V483.597H375.38V466.821ZM381.98 476.781C382.764 476.781 383.468 476.613 384.092 476.277C384.732 475.925 385.228 475.429 385.58 474.789C385.948 474.149 386.132 473.413 386.132 472.581C386.132 471.749 385.948 471.021 385.58 470.397C385.228 469.757 384.732 469.269 384.092 468.933C383.468 468.581 382.764 468.405 381.98 468.405C381.004 468.405 380.14 468.661 379.388 469.173C378.652 469.685 378.124 470.389 377.804 471.285V473.877C378.076 474.757 378.596 475.461 379.364 475.989C380.132 476.517 381.004 476.781 381.98 476.781ZM394.743 478.701C393.351 478.701 392.231 478.349 391.383 477.645C390.551 476.925 390.135 475.957 390.135 474.741C390.135 473.461 390.535 472.477 391.335 471.789C392.151 471.085 393.303 470.733 394.791 470.733C396.375 470.733 397.719 471.053 398.823 471.693V471.093C398.823 470.181 398.543 469.509 397.983 469.077C397.439 468.629 396.575 468.405 395.391 468.405C394.687 468.405 393.999 468.477 393.327 468.621C392.671 468.749 392.079 468.933 391.551 469.173V467.205C392.031 466.981 392.655 466.805 393.423 466.677C394.191 466.533 394.935 466.461 395.655 466.461C397.559 466.461 398.967 466.885 399.879 467.733C400.807 468.565 401.271 469.725 401.271 471.213V478.341H398.991V477.045C398.495 477.589 397.903 478.005 397.215 478.293C396.543 478.565 395.719 478.701 394.743 478.701ZM395.343 476.853C396.111 476.853 396.807 476.701 397.431 476.397C398.055 476.093 398.519 475.669 398.823 475.125V473.565C397.783 472.893 396.623 472.557 395.343 472.557C394.415 472.557 393.719 472.741 393.255 473.109C392.807 473.461 392.583 474.005 392.583 474.741C392.583 476.149 393.503 476.853 395.343 476.853ZM410.303 483.861C409.519 483.861 408.751 483.797 407.999 483.669C407.263 483.541 406.639 483.357 406.127 483.117V481.125C407.327 481.669 408.719 481.941 410.303 481.941C411.791 481.941 412.871 481.613 413.543 480.957C414.231 480.317 414.575 479.341 414.575 478.029V476.805C413.519 478.069 411.967 478.701 409.919 478.701C408.751 478.701 407.703 478.445 406.775 477.933C405.847 477.421 405.119 476.701 404.591 475.773C404.063 474.845 403.799 473.781 403.799 472.581C403.799 471.365 404.055 470.301 404.567 469.389C405.095 468.461 405.815 467.741 406.727 467.229C407.655 466.717 408.695 466.461 409.847 466.461C410.919 466.461 411.823 466.621 412.559 466.941C413.311 467.245 414.007 467.757 414.647 468.477V466.821H416.999V477.765C416.999 479.733 416.447 481.237 415.343 482.277C414.255 483.333 412.575 483.861 410.303 483.861ZM410.399 476.781C411.391 476.781 412.263 476.517 413.015 475.989C413.783 475.461 414.303 474.757 414.575 473.877V471.285C414.271 470.389 413.743 469.685 412.991 469.173C412.255 468.661 411.391 468.405 410.399 468.405C409.615 468.405 408.903 468.581 408.263 468.933C407.639 469.269 407.143 469.757 406.775 470.397C406.423 471.037 406.247 471.765 406.247 472.581C406.247 473.413 406.423 474.149 406.775 474.789C407.143 475.413 407.639 475.901 408.263 476.253C408.903 476.605 409.615 476.781 410.399 476.781ZM426.459 478.701C424.331 478.701 422.659 478.173 421.443 477.117C420.243 476.045 419.643 474.541 419.643 472.605C419.643 470.717 420.179 469.221 421.251 468.117C422.339 467.013 423.883 466.461 425.883 466.461C427.211 466.461 428.339 466.717 429.267 467.229C430.195 467.725 430.891 468.421 431.355 469.317C431.835 470.197 432.075 471.205 432.075 472.341V473.541H421.947C422.027 474.629 422.483 475.445 423.315 475.989C424.163 476.517 425.307 476.781 426.747 476.781C427.483 476.781 428.227 476.717 428.979 476.589C429.731 476.445 430.395 476.261 430.971 476.037V477.981C430.459 478.189 429.779 478.357 428.931 478.485C428.099 478.629 427.275 478.701 426.459 478.701ZM429.795 471.837C429.763 470.749 429.403 469.909 428.715 469.317C428.043 468.709 427.083 468.405 425.835 468.405C424.619 468.405 423.675 468.717 423.003 469.341C422.331 469.965 421.979 470.797 421.947 471.837H429.795ZM446.055 483.093C445.191 483.093 444.471 483.005 443.895 482.829V480.933C444.311 481.093 444.823 481.173 445.431 481.173C445.991 481.173 446.431 481.029 446.751 480.741C447.071 480.469 447.359 480.021 447.615 479.397L448.167 478.053L443.127 466.821H445.623L449.463 475.677L453.039 466.821H455.535L450.351 479.637C449.871 480.837 449.295 481.709 448.623 482.253C447.967 482.813 447.111 483.093 446.055 483.093ZM462.195 478.701C460.899 478.701 459.755 478.461 458.763 477.981C457.787 477.485 457.019 476.781 456.459 475.869C455.915 474.941 455.643 473.853 455.643 472.605C455.643 471.373 455.915 470.293 456.459 469.365C457.003 468.437 457.771 467.725 458.763 467.229C459.755 466.717 460.899 466.461 462.195 466.461C463.491 466.461 464.635 466.717 465.627 467.229C466.619 467.725 467.387 468.437 467.931 469.365C468.491 470.293 468.771 471.373 468.771 472.605C468.771 473.853 468.491 474.941 467.931 475.869C467.387 476.781 466.619 477.485 465.627 477.981C464.635 478.461 463.491 478.701 462.195 478.701ZM462.195 476.781C463.443 476.781 464.435 476.397 465.171 475.629C465.907 474.861 466.275 473.853 466.275 472.605C466.275 471.309 465.907 470.285 465.171 469.533C464.435 468.781 463.443 468.405 462.195 468.405C460.947 468.405 459.955 468.781 459.219 469.533C458.483 470.285 458.115 471.309 458.115 472.605C458.115 473.853 458.483 474.861 459.219 475.629C459.955 476.397 460.947 476.781 462.195 476.781ZM475.988 478.701C474.436 478.701 473.26 478.285 472.46 477.453C471.676 476.621 471.284 475.509 471.284 474.117V466.821H473.708V474.021C473.708 475.861 474.628 476.781 476.468 476.781C478.084 476.781 479.348 476.053 480.26 474.597V466.821H482.684V478.341H480.332V476.709C479.788 477.397 479.14 477.901 478.388 478.221C477.652 478.541 476.852 478.701 475.988 478.701ZM498.805 478.701C497.413 478.701 496.293 478.349 495.445 477.645C494.613 476.925 494.197 475.957 494.197 474.741C494.197 473.461 494.597 472.477 495.397 471.789C496.213 471.085 497.365 470.733 498.853 470.733C500.437 470.733 501.781 471.053 502.885 471.693V471.093C502.885 470.181 502.605 469.509 502.045 469.077C501.501 468.629 500.637 468.405 499.453 468.405C498.749 468.405 498.061 468.477 497.389 468.621C496.733 468.749 496.141 468.933 495.613 469.173V467.205C496.093 466.981 496.717 466.805 497.485 466.677C498.253 466.533 498.997 466.461 499.717 466.461C501.621 466.461 503.029 466.885 503.941 467.733C504.869 468.565 505.333 469.725 505.333 471.213V478.341H503.053V477.045C502.557 477.589 501.965 478.005 501.277 478.293C500.605 478.565 499.781 478.701 498.805 478.701ZM499.405 476.853C500.173 476.853 500.869 476.701 501.493 476.397C502.117 476.093 502.581 475.669 502.885 475.125V473.565C501.845 472.893 500.685 472.557 499.405 472.557C498.477 472.557 497.781 472.741 497.317 473.109C496.869 473.461 496.645 474.005 496.645 474.741C496.645 476.149 497.565 476.853 499.405 476.853ZM508.341 466.821H510.693V468.885C511.173 468.181 511.845 467.661 512.709 467.325C513.589 466.989 514.605 466.821 515.757 466.821V468.717C514.525 468.717 513.469 468.917 512.589 469.317C511.709 469.717 511.101 470.349 510.765 471.213V478.341H508.341V466.821ZM523.537 478.701C521.409 478.701 519.737 478.173 518.521 477.117C517.321 476.045 516.721 474.541 516.721 472.605C516.721 470.717 517.257 469.221 518.329 468.117C519.417 467.013 520.961 466.461 522.961 466.461C524.289 466.461 525.417 466.717 526.345 467.229C527.273 467.725 527.969 468.421 528.433 469.317C528.913 470.197 529.153 471.205 529.153 472.341V473.541H519.025C519.105 474.629 519.561 475.445 520.393 475.989C521.241 476.517 522.385 476.781 523.825 476.781C524.561 476.781 525.305 476.717 526.057 476.589C526.809 476.445 527.473 476.261 528.049 476.037V477.981C527.537 478.189 526.857 478.357 526.009 478.485C525.177 478.629 524.353 478.701 523.537 478.701ZM526.873 471.837C526.841 470.749 526.481 469.909 525.793 469.317C525.121 468.709 524.161 468.405 522.913 468.405C521.697 468.405 520.753 468.717 520.081 469.341C519.409 469.965 519.057 470.797 519.025 471.837H526.873ZM540.685 460.605H543.109V478.341H540.685V460.605ZM552.312 478.701C551.016 478.701 549.872 478.461 548.88 477.981C547.904 477.485 547.136 476.781 546.576 475.869C546.032 474.941 545.76 473.853 545.76 472.605C545.76 471.373 546.032 470.293 546.576 469.365C547.12 468.437 547.888 467.725 548.88 467.229C549.872 466.717 551.016 466.461 552.312 466.461C553.608 466.461 554.752 466.717 555.744 467.229C556.736 467.725 557.504 468.437 558.048 469.365C558.608 470.293 558.888 471.373 558.888 472.605C558.888 473.853 558.608 474.941 558.048 475.869C557.504 476.781 556.736 477.485 555.744 477.981C554.752 478.461 553.608 478.701 552.312 478.701ZM552.312 476.781C553.56 476.781 554.552 476.397 555.288 475.629C556.024 474.861 556.392 473.853 556.392 472.605C556.392 471.309 556.024 470.285 555.288 469.533C554.552 468.781 553.56 468.405 552.312 468.405C551.064 468.405 550.072 468.781 549.336 469.533C548.6 470.285 548.232 471.309 548.232 472.605C548.232 473.853 548.6 474.861 549.336 475.629C550.072 476.397 551.064 476.781 552.312 476.781ZM566.984 478.701C565.688 478.701 564.544 478.461 563.552 477.981C562.576 477.485 561.808 476.781 561.248 475.869C560.704 474.941 560.432 473.853 560.432 472.605C560.432 471.373 560.704 470.293 561.248 469.365C561.792 468.437 562.56 467.725 563.552 467.229C564.544 466.717 565.688 466.461 566.984 466.461C568.28 466.461 569.424 466.717 570.416 467.229C571.408 467.725 572.176 468.437 572.72 469.365C573.28 470.293 573.56 471.373 573.56 472.605C573.56 473.853 573.28 474.941 572.72 475.869C572.176 476.781 571.408 477.485 570.416 477.981C569.424 478.461 568.28 478.701 566.984 478.701ZM566.984 476.781C568.232 476.781 569.224 476.397 569.96 475.629C570.696 474.861 571.064 473.853 571.064 472.605C571.064 471.309 570.696 470.285 569.96 469.533C569.224 468.781 568.232 468.405 566.984 468.405C565.736 468.405 564.744 468.781 564.008 469.533C563.272 470.285 562.904 471.309 562.904 472.605C562.904 473.853 563.272 474.861 564.008 475.629C564.744 476.397 565.736 476.781 566.984 476.781ZM576.193 460.605H578.617V478.341H576.193V460.605ZM578.641 472.509L583.945 466.821H586.897L581.569 472.509L587.449 478.341H584.497L578.641 472.509ZM591.273 464.565C590.873 464.565 590.537 464.429 590.265 464.157C589.993 463.885 589.857 463.549 589.857 463.149C589.857 462.749 589.993 462.413 590.265 462.141C590.537 461.869 590.873 461.733 591.273 461.733C591.689 461.733 592.033 461.869 592.305 462.141C592.593 462.413 592.737 462.749 592.737 463.149C592.737 463.549 592.593 463.885 592.305 464.157C592.033 464.429 591.689 464.565 591.273 464.565ZM590.049 466.821H592.521V478.341H590.049V466.821ZM595.857 466.821H598.209V468.477C598.753 467.789 599.417 467.285 600.201 466.965C601.001 466.629 601.833 466.461 602.697 466.461C604.233 466.461 605.377 466.869 606.129 467.685C606.881 468.501 607.257 469.597 607.257 470.973V478.341H604.833V471.213C604.833 469.341 603.937 468.405 602.145 468.405C601.377 468.405 600.657 468.589 599.985 468.957C599.329 469.309 598.761 469.853 598.281 470.589V478.341H595.857V466.821ZM616.272 483.861C615.488 483.861 614.72 483.797 613.968 483.669C613.232 483.541 612.608 483.357 612.096 483.117V481.125C613.296 481.669 614.688 481.941 616.272 481.941C617.76 481.941 618.84 481.613 619.512 480.957C620.2 480.317 620.544 479.341 620.544 478.029V476.805C619.488 478.069 617.936 478.701 615.888 478.701C614.72 478.701 613.672 478.445 612.744 477.933C611.816 477.421 611.088 476.701 610.56 475.773C610.032 474.845 609.768 473.781 609.768 472.581C609.768 471.365 610.024 470.301 610.536 469.389C611.064 468.461 611.784 467.741 612.696 467.229C613.624 466.717 614.664 466.461 615.816 466.461C616.888 466.461 617.792 466.621 618.528 466.941C619.28 467.245 619.976 467.757 620.616 468.477V466.821H622.968V477.765C622.968 479.733 622.416 481.237 621.312 482.277C620.224 483.333 618.544 483.861 616.272 483.861ZM616.368 476.781C617.36 476.781 618.232 476.517 618.984 475.989C619.752 475.461 620.272 474.757 620.544 473.877V471.285C620.24 470.389 619.712 469.685 618.96 469.173C618.224 468.661 617.36 468.405 616.368 468.405C615.584 468.405 614.872 468.581 614.232 468.933C613.608 469.269 613.112 469.757 612.744 470.397C612.392 471.037 612.215 471.765 612.215 472.581C612.215 473.413 612.392 474.149 612.744 474.789C613.112 475.413 613.608 475.901 614.232 476.253C614.872 476.605 615.584 476.781 616.368 476.781ZM635.766 468.693H634.014V466.821H635.766V464.565C635.766 463.237 636.142 462.229 636.894 461.541C637.646 460.837 638.654 460.485 639.918 460.485C640.574 460.485 641.19 460.581 641.766 460.773V462.789C641.318 462.581 640.854 462.477 640.374 462.477C639.622 462.477 639.07 462.661 638.718 463.029C638.366 463.381 638.19 463.941 638.19 464.709V466.821H641.07V468.693H638.19V478.341H635.766V468.693ZM648.663 478.701C647.367 478.701 646.223 478.461 645.231 477.981C644.255 477.485 643.487 476.781 642.927 475.869C642.383 474.941 642.111 473.853 642.111 472.605C642.111 471.373 642.383 470.293 642.927 469.365C643.471 468.437 644.239 467.725 645.231 467.229C646.223 466.717 647.367 466.461 648.663 466.461C649.959 466.461 651.103 466.717 652.095 467.229C653.087 467.725 653.855 468.437 654.399 469.365C654.959 470.293 655.239 471.373 655.239 472.605C655.239 473.853 654.959 474.941 654.399 475.869C653.855 476.781 653.087 477.485 652.095 477.981C651.103 478.461 649.959 478.701 648.663 478.701ZM648.663 476.781C649.911 476.781 650.903 476.397 651.639 475.629C652.375 474.861 652.743 473.853 652.743 472.605C652.743 471.309 652.375 470.285 651.639 469.533C650.903 468.781 649.911 468.405 648.663 468.405C647.415 468.405 646.423 468.781 645.687 469.533C644.951 470.285 644.583 471.309 644.583 472.605C644.583 473.853 644.951 474.861 645.687 475.629C646.423 476.397 647.415 476.781 648.663 476.781ZM657.873 466.821H660.225V468.885C660.705 468.181 661.377 467.661 662.241 467.325C663.121 466.989 664.137 466.821 665.289 466.821V468.717C664.057 468.717 663.001 468.917 662.121 469.317C661.241 469.717 660.633 470.349 660.297 471.213V478.341H657.873V466.821Z" fill="#909090"/>
</svg>
