<svg width="25" height="27" viewBox="0 0 25 27" fill="none" xmlns="http://www.w3.org/2000/svg">
<path d="M24.2653 15.3672L22.1278 7.6767C21.5013 5.4237 20.1396 3.44478 18.2593 2.05448C16.379 0.664189 14.0879 -0.0576858 11.7502 0.00360431C9.41249 0.0648944 7.16237 0.905832 5.35748 2.39275C3.55259 3.87966 2.29652 5.92722 1.78891 8.20995L0.134035 15.6518C-0.0487604 16.4741 -0.0445342 17.327 0.146402 18.1474C0.337337 18.9679 0.710107 19.735 1.23719 20.3921C1.76427 21.0492 2.43221 21.5795 3.19168 21.9439C3.95116 22.3083 4.78279 22.4975 5.62516 22.4975H6.87841C7.13661 23.769 7.82648 24.9122 8.83112 25.7334C9.83576 26.5545 11.0934 27.0031 12.3909 27.0031C13.6884 27.0031 14.9461 26.5545 15.9507 25.7334C16.9553 24.9122 17.6452 23.769 17.9034 22.4975H18.8462C19.7133 22.4975 20.5688 22.2971 21.3456 21.9118C22.1225 21.5266 22.7998 20.9669 23.3246 20.2765C23.8494 19.5862 24.2074 18.7839 24.3708 17.9322C24.5342 17.0806 24.4973 16.2027 24.2653 15.3672ZM12.3909 24.7475C11.6954 24.7446 11.0177 24.5269 10.4506 24.1241C9.88355 23.7213 9.45475 23.1532 9.22291 22.4975H15.5589C15.3271 23.1532 14.8983 23.7213 14.3312 24.1241C13.7641 24.5269 13.0865 24.7446 12.3909 24.7475ZM21.5327 18.9143C21.2192 19.3302 20.813 19.6672 20.3465 19.8987C19.8799 20.1301 19.3658 20.2495 18.845 20.2475H5.62516C5.11979 20.2474 4.6209 20.1338 4.16529 19.9151C3.70969 19.6964 3.30902 19.3782 2.99284 18.984C2.67667 18.5897 2.45307 18.1295 2.33854 17.6373C2.22402 17.1451 2.2215 16.6334 2.33116 16.1401L3.98491 8.69708C4.38356 6.90406 5.37013 5.29576 6.7878 4.12783C8.20547 2.95991 9.97286 2.2994 11.809 2.2513C13.6452 2.20319 15.4448 2.77026 16.9216 3.86236C18.3985 4.95445 19.4679 6.50889 19.9599 8.27858L22.0974 15.9691C22.2386 16.4701 22.2611 16.9972 22.1631 17.5084C22.0651 18.0197 21.8492 18.5011 21.5327 18.9143Z" fill="#04121E"/>
</svg>
