<svg width="100" height="30" viewBox="0 0 100 30" fill="none" xmlns="http://www.w3.org/2000/svg">
<g clip-path="url(#clip0_1725_5909)">
<path d="M15.0246 29.9225C6.82196 29.9225 0.0926813 23.2638 0.00125095 15.2336C-0.0940979 6.903 6.59469 -0.00522163 15.0768 2.96152e-06C23.3186 0.00522755 30.057 6.73711 30.0531 14.9672C30.0492 23.2442 23.3369 29.9225 15.0259 29.9225H15.0246ZM15.0259 27.6263C21.9393 27.6303 27.7242 21.9564 27.7295 15.167C27.7347 8.01322 22.0961 2.30274 15.0285 2.30535C8.07194 2.30666 2.32881 7.99755 2.3275 14.8888C2.3275 21.9459 7.98704 27.6237 15.0259 27.6276V27.6263Z" fill="#040404"/>
<path d="M45.7035 13.4311C45.7035 11.7985 45.7126 10.1671 45.6956 8.5344C45.693 8.20786 45.7596 8.09814 46.1136 8.09814C47.2552 8.10076 47.2552 8.08247 47.2552 9.24102C47.2552 11.9552 47.2552 14.6694 47.2552 17.3836C47.2552 17.5847 47.2617 17.7872 47.2735 17.987C47.3401 19.0698 47.7946 19.6131 48.8552 19.7555C49.5997 19.8548 50.352 19.8652 51.0992 19.6902C51.8502 19.5139 52.2838 19.0646 52.3909 18.3083C52.4314 18.0196 52.4523 17.7258 52.4523 17.4345C52.4562 14.4826 52.4628 11.5294 52.4458 8.5775C52.4432 8.18827 52.5438 8.09161 52.9291 8.09945C54.004 8.12035 54.004 8.10206 54.004 9.1927C54.004 11.9983 53.9962 14.8039 54.0093 17.6095C54.0132 18.3723 54.0667 19.1782 54.9066 19.5204C56.0142 19.9723 57.1754 19.9606 58.2908 19.5491C59.1124 19.2461 59.213 18.4729 59.2169 17.7166C59.226 15.662 59.2195 13.6075 59.2195 11.5529C59.2195 10.5341 59.2325 9.51532 59.2103 8.49652C59.2038 8.18043 59.2965 8.10468 59.6048 8.10076C60.7542 8.09031 60.7542 8.07725 60.7542 9.22274C60.7542 12.0649 60.7555 14.9071 60.7516 17.7493C60.7516 18.0418 60.7411 18.3357 60.7033 18.6257C60.5583 19.7346 59.9575 20.4883 58.8694 20.7808C57.5581 21.1335 56.2323 21.2119 54.9092 20.807C54.3136 20.6254 53.8133 20.3067 53.411 19.8326C53.3301 19.7372 53.2739 19.5296 53.0989 19.7607C52.3217 20.7782 51.1919 21.0068 50.0164 21.0656C49.2484 21.1035 48.4725 21.0355 47.7254 20.8318C46.4741 20.4909 45.7805 19.6824 45.7426 18.3814C45.6956 16.7331 45.7309 15.0821 45.7309 13.4325C45.7218 13.4325 45.7126 13.4325 45.7035 13.4325V13.4311Z" fill="#040404"/>
<path d="M73.2423 15.7691C73.2423 17.3457 73.2331 18.9222 73.2501 20.4987C73.254 20.8252 73.1848 20.9363 72.8308 20.9363C71.6906 20.9349 71.6906 20.9519 71.6906 19.8404C71.6906 18.7289 71.6788 17.6774 71.6971 16.5959C71.7023 16.2733 71.6357 16.1558 71.2804 16.1597C69.2598 16.178 67.2379 16.1753 65.2173 16.1623C64.9234 16.161 64.8529 16.2498 64.8555 16.5293C64.8686 17.8302 64.849 19.1325 64.8699 20.4334C64.8751 20.7913 64.8215 20.9454 64.4062 20.9376C63.3103 20.918 63.3103 20.9402 63.3103 19.8522C63.3103 16.993 63.3077 14.1325 63.3142 11.2734C63.3142 10.9272 63.3521 10.5785 63.4096 10.2363C63.629 8.95365 64.5616 8.41682 65.7019 8.18433C67.3894 7.84081 69.0926 7.8382 70.7841 8.1791C72.537 8.53176 73.2188 9.36378 73.2397 11.1506C73.258 12.6905 73.2436 14.2305 73.2436 15.7704L73.2423 15.7691ZM68.2371 14.8313C69.2664 14.8313 70.2956 14.8274 71.3235 14.8339C71.5391 14.8339 71.7036 14.8574 71.6971 14.54C71.6723 13.3488 71.701 12.1563 71.6605 10.9664C71.6292 10.06 71.1825 9.5375 70.2917 9.35856C69.0221 9.10386 67.7329 9.0921 66.4621 9.32459C65.2865 9.54011 64.8829 10.06 64.8633 11.2629C64.8464 12.3261 64.8725 13.3893 64.8529 14.4525C64.8464 14.7765 64.9561 14.8444 65.2604 14.8378C66.2518 14.8183 67.2444 14.83 68.2371 14.83V14.8313Z" fill="#040404"/>
<path d="M80.6716 7.97144C81.6081 7.99756 82.5446 8.01193 83.4589 8.25226C84.8303 8.61406 85.4651 9.36248 85.5788 10.7692C85.5997 11.0239 85.5761 11.2825 85.5983 11.5385C85.6206 11.7984 85.5344 11.9199 85.2627 11.8794C85.2274 11.8742 85.1895 11.8794 85.153 11.8794C84.1289 11.8938 84.1198 11.8951 84.0244 10.8815C83.9513 10.1148 83.5555 9.61196 82.8136 9.43563C81.3455 9.08558 79.8644 9.08036 78.4002 9.45522C77.7406 9.62371 77.35 10.09 77.2704 10.7901C77.2194 11.2277 77.1854 11.6626 77.239 12.1028C77.3317 12.8734 77.6113 13.247 78.3649 13.392C79.6959 13.6453 81.0373 13.8478 82.3748 14.0685C82.8985 14.1547 83.4249 14.2318 83.9252 14.4199C84.9858 14.8183 85.5748 15.6372 85.5905 16.7657C85.5983 17.3156 85.597 17.8668 85.5618 18.4141C85.4873 19.5883 84.8721 20.3877 83.7436 20.6959C81.6682 21.2641 79.5718 21.2641 77.4989 20.6829C76.4227 20.3812 75.8114 19.6184 75.7304 18.4859C75.6925 17.9622 75.7043 17.4358 75.6769 16.9107C75.6638 16.6717 75.7395 16.5842 75.9851 16.5972C76.3691 16.6181 76.8393 16.4771 77.1149 16.6534C77.3892 16.8297 77.1855 17.3287 77.2116 17.6866C77.3174 19.1142 77.7027 19.5753 79.1133 19.766C80.2797 19.924 81.4539 19.9318 82.6151 19.6784C83.5529 19.4734 83.9578 19.0032 84.0257 18.0536C84.1668 16.1192 83.7933 15.662 81.8732 15.376C80.6755 15.197 79.479 15.0142 78.2878 14.8039C77.2808 14.625 76.309 14.288 75.9302 13.2365C75.4783 11.9826 75.5097 10.6843 76.0661 9.45653C76.3939 8.73161 77.1084 8.45602 77.8307 8.26009C78.7607 8.0067 79.7168 7.98842 80.6716 7.97535V7.97144Z" fill="#040404"/>
<path d="M43.1982 14.4957C43.1982 15.7025 43.2322 16.9107 43.1904 18.1163C43.1368 19.6301 42.4589 20.4439 40.983 20.7769C39.1335 21.1923 37.2696 21.1923 35.4214 20.7808C34.0081 20.4661 33.3133 19.7581 33.2388 18.3383C33.1056 15.7966 33.1409 13.247 33.2245 10.7026C33.2663 9.44479 33.9507 8.62453 35.1876 8.30713C37.1965 7.7912 39.2184 7.769 41.2129 8.32672C42.6026 8.71465 43.1355 9.43695 43.1891 10.8737C43.2335 12.0793 43.1982 13.2875 43.1982 14.4944V14.4957ZM41.6556 14.5388C41.6556 13.439 41.67 12.3379 41.6517 11.2381C41.6334 10.0939 41.1841 9.55842 40.0739 9.33115C38.965 9.10519 37.8391 9.12217 36.7302 9.25801C35.2751 9.43695 34.7605 9.94243 34.7396 11.2029C34.7017 13.4024 34.7043 15.6046 34.7396 17.8041C34.7579 18.9771 35.2542 19.5008 36.4049 19.6967C37.604 19.9005 38.8095 19.8927 40.0073 19.6902C41.1541 19.4969 41.6321 18.9366 41.6517 17.7845C41.6687 16.7031 41.6556 15.6203 41.6556 14.5388Z" fill="#040404"/>
<path d="M88.0776 14.4865C88.0776 12.509 88.0867 10.5302 88.0684 8.55269C88.0658 8.1948 88.1598 8.09815 88.5203 8.10076C90.3738 8.11905 92.2285 8.10598 94.0819 8.11121C94.5952 8.11251 95.1059 8.15692 95.6075 8.28623C97.1605 8.68853 97.9403 9.61458 97.9991 11.2146C98.0343 12.1655 98.033 13.1203 97.9991 14.0712C97.9298 16.0526 96.7256 17.1367 94.4646 17.2151C93.0344 17.2647 91.6015 17.2516 90.1713 17.236C89.7612 17.2307 89.5979 17.3026 89.6188 17.7649C89.6619 18.6949 89.6188 19.6288 89.6371 20.5614C89.6423 20.8422 89.5783 20.9271 89.2857 20.9337C88.0762 20.9611 88.0762 20.9728 88.0762 19.7607V14.4852L88.0776 14.4865ZM92.1697 9.3416V9.33638C91.4722 9.33638 90.7748 9.35597 90.0786 9.32854C89.7233 9.31417 89.6162 9.41083 89.6214 9.77785C89.6423 11.4406 89.6293 13.1033 89.628 14.766C89.628 16.0186 89.628 16.0408 90.8583 16.0265C92.1175 16.0121 93.3818 16.1218 94.6357 15.9599C95.7002 15.8227 96.2201 15.2937 96.3964 14.2357C96.5414 13.3645 96.4539 12.4829 96.4539 11.6065C96.4539 10.1762 95.6989 9.40429 94.2622 9.34682C93.566 9.3194 92.8672 9.3416 92.171 9.3416H92.1697Z" fill="#040404"/>
<path d="M100 23.1724C99.987 24.361 99.0636 25.3027 97.9299 25.287C96.8027 25.2713 95.9093 24.3048 95.921 23.111C95.9328 21.9237 96.8549 20.982 97.9913 20.9976C99.1211 21.012 100.014 21.9799 100 23.1724ZM99.6684 23.1671C99.6801 22.1444 98.9212 21.3281 97.9573 21.3281C97.0182 21.3281 96.2619 22.1209 96.2528 23.1175C96.2436 24.1428 97.0038 24.9605 97.9625 24.9579C98.9043 24.954 99.6579 24.1637 99.6684 23.1684V23.1671Z" fill="#040404"/>
<path d="M20.7913 15.1931C19.9724 14.813 19.638 14.0345 19.2683 13.1934C19.0829 13.4598 19.1795 13.6309 19.2096 13.789C19.7791 16.8153 20.2519 19.8534 20.2297 22.9438C20.2244 23.7092 20.214 24.4798 20.0664 25.24C19.9959 25.6057 19.8248 25.6527 19.6145 25.3823C18.1007 23.4375 16.9408 21.3529 17.0701 18.7745C17.0871 18.4271 17.2464 18.1424 17.4319 17.8694C17.7689 17.3717 17.9557 16.8441 17.9766 16.2302C18.0001 15.5183 18.0693 14.8025 18.196 14.1025C18.2992 13.5277 18.1633 13.1908 17.5273 13.1202C17.8616 14.1965 17.2099 14.9345 16.6038 15.6894C14.723 18.0261 12.2086 19.4655 9.52579 20.6645C9.37558 20.7312 9.22407 20.7965 8.98374 20.8996C9.23844 20.1591 9.58195 19.5295 9.89804 18.8895C10.9795 16.6965 12.3575 14.732 14.3037 13.2077C14.5636 13.004 14.8248 12.8002 15.103 12.6239C15.6817 12.2569 16.0774 12.2072 16.6965 12.3862C16.6378 11.6613 16.5999 11.6351 15.9194 11.7083C15.3904 11.7658 14.8601 11.8193 14.3298 11.848C13.4037 11.9003 12.5404 12.0779 11.7319 12.6056C10.99 13.0902 10.1227 12.8368 9.31811 12.701C7.5744 12.4084 6.11413 11.4967 4.70088 10.4975C4.59769 10.4243 4.51541 10.3198 4.42397 10.2297C4.19409 9.99984 4.29075 9.89274 4.56504 9.8431C5.45322 9.68375 6.35054 9.67591 7.24787 9.67722C10.2873 9.68245 13.2731 10.1618 16.2485 10.7208C16.3543 10.7404 16.4601 10.794 16.6678 10.6529C15.8018 10.2376 14.975 9.82482 14.5688 8.94186C14.6015 8.92488 14.6302 8.90529 14.6563 8.88047C14.9554 9.06594 15.1657 9.34677 15.3982 9.60016C15.5706 9.78824 15.7496 9.91102 16.0226 9.85878C15.76 9.24881 15.6634 8.61271 15.5445 7.91784C16.1715 8.4821 15.7692 9.64196 16.9212 9.86531C16.4196 9.06464 16.6299 8.27572 16.8663 7.4411C16.8245 8.70284 16.6325 10.073 18.6153 9.75559C18.5865 9.49697 18.5186 9.21223 18.5317 8.93272C18.5656 8.19344 19.2148 7.89564 19.6902 7.52208C19.9737 7.29873 20.2963 7.59914 20.5327 7.95311C20.7116 7.57302 20.8971 7.25954 20.8423 6.86378C20.79 6.48761 20.4948 6.20417 20.3629 5.7627C21.0316 6.29169 21.225 6.98656 20.8814 7.68535C20.7129 8.02886 20.6868 8.22087 21.0512 8.42724C21.3373 8.5892 22.4005 8.90921 22.7231 8.86349C23.2978 8.7812 23.704 9.11166 24.1337 9.38334C24.1168 9.42513 24.0998 9.46824 24.0841 9.51003C23.7563 9.36636 23.4376 9.19395 23.0993 9.08554C22.6957 8.95623 22.3639 9.21615 21.9812 9.36375C22.2816 9.60669 22.5899 9.84571 22.3979 10.2702C22.0139 11.1218 21.2132 11.468 20.1069 11.2668C20.1461 11.5946 20.1774 11.916 20.1395 12.2438C20.103 12.5703 20.8893 13.0706 21.3334 13.0327C21.6429 13.0066 21.9538 12.9883 22.2647 12.97C22.3247 12.9661 22.3861 12.9818 22.4449 13.0432C21.6638 13.2495 20.8854 13.4951 20.0795 12.9818C20.2767 13.6453 20.2767 13.6427 20.8266 13.819C21.1884 13.9353 21.5476 14.0607 21.8833 14.3101C21.5306 14.2461 21.1779 14.1821 20.8253 14.1168C20.6816 14.0907 20.5379 14.0345 20.3942 14.0385C20.2845 14.0411 20.1186 13.981 20.0651 14.1429C20.022 14.2696 20.1422 14.3323 20.2192 14.4068C20.4556 14.6367 20.6881 14.8679 20.9232 15.099C20.8814 15.1291 20.8396 15.1578 20.7965 15.1879L20.7913 15.1931Z" fill="#040404"/>
<path d="M20.918 15.1056C20.9885 15.1722 21.1478 15.2401 21.0381 15.3394C20.9545 15.4151 20.8579 15.278 20.7913 15.1944C20.8331 15.1644 20.8749 15.1356 20.918 15.1056Z" fill="#040404"/>
<path d="M14.5648 8.94575C14.5596 8.90265 14.5544 8.86085 14.5479 8.81775C14.5831 8.83995 14.6171 8.86216 14.6523 8.88436C14.6262 8.90918 14.5962 8.93008 14.5648 8.94575Z" fill="#040404"/>
<path d="M97.133 23.09C97.133 22.9255 97.1055 22.7544 97.1395 22.5976C97.1917 22.3586 96.9527 21.9602 97.2962 21.9028C97.7429 21.8283 98.2615 21.7525 98.6337 22.1757C98.7304 22.2855 98.8427 22.4579 98.7748 22.5728C98.4678 23.0887 98.8192 23.5812 98.7944 24.084C98.7865 24.2342 98.8218 24.3805 98.588 24.374C98.3895 24.3688 98.3411 24.263 98.3451 24.0932C98.3477 23.9652 98.3568 23.8332 98.3294 23.7105C98.2602 23.397 98.0055 23.4166 97.7625 23.4166C97.4686 23.4166 97.5993 23.6399 97.5784 23.7745C97.5614 23.8816 97.5718 23.9939 97.5757 24.1036C97.581 24.2682 97.5548 24.3818 97.3406 24.3766C97.1094 24.3714 97.1343 24.2212 97.1343 24.0775C97.1317 23.7483 97.1343 23.4192 97.1343 23.09H97.133ZM97.5836 22.6564C97.5496 22.8432 97.5522 23.0091 97.8383 22.979C98.0825 22.9529 98.3438 22.9464 98.3346 22.6159C98.3281 22.3534 98.1113 22.3351 97.8997 22.3129C97.6358 22.2868 97.5209 22.3743 97.5836 22.6551V22.6564Z" fill="#040404"/>
</g>
<defs>
<clipPath id="clip0_1725_5909">
<rect width="100" height="29.9225" fill="white"/>
</clipPath>
</defs>
</svg>
