<svg width="100" height="35" viewBox="0 0 100 35" fill="none" xmlns="http://www.w3.org/2000/svg">
<g clip-path="url(#clip0_1725_6019)">
<path d="M65.3454 14.5806C65.9031 12.3811 66.4711 10.1838 67.008 7.97804C67.1058 7.57227 67.1703 7.29968 67.6988 7.28927C68.2898 7.27679 68.3918 7.45782 68.2503 7.99052C67.5386 10.6519 66.8374 13.3155 66.1632 15.9873C66.03 16.5179 65.7803 16.6532 65.2434 16.6677C64.6545 16.6823 64.4797 16.4284 64.3591 15.9353C63.8118 13.7004 63.2375 11.4718 62.6007 8.95396C61.9661 11.4739 61.3813 13.6921 60.8611 15.9249C60.7363 16.4617 60.5636 16.6698 59.9913 16.6636C59.4399 16.6573 59.236 16.4888 59.0986 15.9457C58.439 13.3071 57.7128 10.6852 57.0323 8.05087C56.9741 7.82614 56.5454 7.43077 57.1197 7.33713C57.5359 7.27055 58.079 7.09159 58.2496 7.82405C58.6658 9.60111 59.1299 11.3657 59.5793 13.1344C59.7146 13.663 59.8665 14.1873 60.0787 14.9635C60.6759 12.583 61.2003 10.4563 61.7455 8.33595C61.8703 7.85111 61.7829 7.24558 62.6777 7.27263C63.5121 7.2976 63.3977 7.86359 63.5121 8.30265C64.0553 10.3898 64.5713 12.4831 65.0978 14.5723L65.3454 14.5806Z" fill="#0B0C0E"/>
<path d="M55.4634 11.5218C55.4842 15.5649 52.958 17.6312 49.691 16.6407C48.018 16.133 47.1399 14.9032 46.8985 13.2531C46.5989 11.2013 46.7133 9.17249 48.6069 7.85114C50.1114 6.80238 51.8052 6.79614 53.4116 7.69715C55.0513 8.61898 55.4363 10.2088 55.4613 11.5239L55.4634 11.5218ZM48.1054 11.9796C48.1054 14.5057 49.3477 15.9478 51.3932 15.7959C53.1515 15.6648 54.167 14.2644 54.1649 11.9733C54.1628 9.6823 53.1453 8.28396 51.3849 8.15703C51.3495 8.15494 51.3162 8.15494 51.2808 8.15286C49.279 8.06963 48.1033 9.4867 48.1033 11.9796H48.1054Z" fill="#0B0C0E"/>
<path d="M77.9636 14.4662C79.2267 15.3276 80.3233 15.7833 81.5739 15.8041C82.0671 15.8125 82.5457 15.7313 82.991 15.542C83.6132 15.2777 83.9836 14.8074 83.9773 14.1041C83.9711 13.3591 83.5154 12.9846 82.8495 12.8306C82.0088 12.6371 81.1557 12.5039 80.3192 12.2937C78.8521 11.9254 78.1155 11.0743 78.1114 9.81127C78.1072 8.66263 78.9062 7.69919 80.2214 7.31007C81.6759 6.88141 83.1054 7.11447 84.4954 7.58891C85.3215 7.86982 84.7556 8.58148 84.9595 9.20157C83.8525 8.5461 82.8079 8.13617 81.6343 8.14658C81.1411 8.15074 80.675 8.24022 80.2359 8.46911C79.6928 8.75211 79.4285 9.18701 79.4535 9.80919C79.4785 10.4626 79.8572 10.8413 80.4315 10.9911C81.3658 11.2346 82.3293 11.3678 83.2594 11.6195C84.6286 11.992 85.2092 12.6454 85.3007 13.7711C85.3902 14.8823 84.7306 15.929 83.5466 16.4409C81.8091 17.19 80.084 16.8987 78.4152 16.2224C77.6494 15.9124 78.2529 15.1799 77.9636 14.4662Z" fill="#0B0C0E"/>
<path d="M77.1085 16.5345C76.0993 16.9008 75.6998 16.5054 75.4334 15.6044C74.9382 13.9335 74.8862 13.948 73.1611 13.948H72.7449C70.8493 13.948 70.7848 13.9293 70.2604 15.7376C70.0003 16.6323 69.5446 16.7863 68.6831 16.5553C69.7714 13.5901 70.8618 10.6332 71.9355 7.67006C72.1498 7.07701 72.6201 7.35377 72.9842 7.32047C73.3401 7.28718 73.7188 7.20811 73.9061 7.7304C74.9548 10.6727 76.0369 13.6047 77.1064 16.5366L77.1085 16.5345ZM72.8781 8.42333C72.2788 10.0651 71.7836 11.426 71.2634 12.8514H74.4804C73.9685 11.4343 73.4795 10.0839 72.8781 8.42333Z" fill="#0B0C0E"/>
<path d="M87.2046 11.9463C87.2046 10.6354 87.2254 9.32444 87.1942 8.0135C87.1817 7.50993 87.2671 7.2519 87.858 7.29768C88.9234 7.38091 90.0034 7.18531 91.0625 7.43294C92.5379 7.77836 93.2891 8.62527 93.3473 9.97575C93.4056 11.345 92.5628 12.4957 91.2103 12.9243C90.534 13.1387 89.8432 13.1449 89.1544 13.1074C88.63 13.0783 88.4074 13.2094 88.4469 13.7796C88.4968 14.4995 88.4303 15.2299 88.4698 15.952C88.4968 16.4722 88.3637 16.6678 87.7956 16.6616C87.2483 16.6553 87.188 16.4285 87.1963 15.9811C87.2192 14.6369 87.2046 13.2906 87.2046 11.9442V11.9463ZM88.4594 10.1235C88.4594 11.5676 89.0469 12.2085 90.2219 12.0462C91.4475 11.8777 92.0863 11.1306 92.0052 9.96326C91.9199 8.7418 91.0105 8.20702 89.067 8.36932C87.8164 8.47337 88.7528 9.49923 88.4615 10.0215C88.4469 10.0486 88.4615 10.0881 88.4615 10.1235H88.4594Z" fill="#0B0C0E"/>
<path d="M65.7115 24.1609C65.8093 24.6416 65.4555 25.5676 66.6583 25.2492C66.8747 25.193 66.8518 25.3907 66.8601 25.5051C66.8747 25.682 66.8164 25.8256 66.6271 25.9151C66.0631 26.1877 65.3015 25.8194 65.1621 25.1826C64.9894 24.394 65.4181 23.5242 64.798 22.7584C64.7293 22.6731 65.0331 21.8782 65.2495 21.4912C65.4118 21.1998 65.7448 21.4704 65.7032 21.822C65.5762 22.9186 66.7644 22.0863 66.9621 22.6897C67.3512 22.5441 67.682 22.361 67.6321 21.8511C67.6134 21.6639 67.5676 21.4121 67.8881 21.4038C68.1815 21.3975 68.2252 21.6118 68.196 21.822C68.1211 22.3422 68.35 22.4941 68.839 22.438C69.0513 22.4151 69.3488 22.3297 69.3613 22.7314C69.3738 23.1205 69.0991 23.0747 68.8681 23.058C67.7341 22.9748 68.2897 23.8321 68.2272 24.2774C68.1607 24.7581 68.1003 25.4053 68.9493 25.3012C69.1553 25.2762 69.3571 25.1452 69.3592 25.4947C69.3592 25.7257 69.2718 25.8631 69.0263 25.9359C68.3812 26.1294 67.7424 25.759 67.6529 25.0806C67.6092 24.7415 67.6238 24.3919 67.63 24.0485C67.6467 23.2391 67.6342 22.748 66.4523 22.9852C65.5679 23.1621 65.726 23.5575 65.7094 24.1547L65.7115 24.1609Z" fill="#0B0C0E"/>
<path d="M64.359 25.9005C64.3382 25.8381 64.2883 25.9255 64.1156 25.9588C63.8097 26.017 63.6203 25.8506 63.5912 25.5967C63.4872 24.6936 62.8858 24.6915 62.1824 24.704C61.6165 24.7144 61.1649 24.7435 61.0609 25.4261C61.0192 25.6966 60.9339 26.0441 60.5635 25.938C60.1078 25.8089 60.4408 25.4926 60.5115 25.2887C60.9027 24.1505 61.3231 23.0227 61.7309 21.8907C61.9515 21.2789 62.5133 21.1041 62.7609 21.6285C63.3748 22.929 63.7847 24.3232 64.3569 25.9026L64.359 25.9005ZM61.5603 24.0048C62.0867 24.1359 62.5404 24.1151 63.0585 24.0236C62.8254 23.3889 62.6028 22.7896 62.3052 21.9822C62.0077 22.7875 61.7892 23.3806 61.5603 24.0048Z" fill="#0B0C0E"/>
<path d="M56.5474 22.5358C56.872 22.053 56.3622 21.2456 56.9989 21.2602C57.5524 21.2727 57.2445 22.0364 57.2653 22.4525C57.3173 23.4472 57.2757 24.446 57.284 25.4427C57.2882 25.8756 57.1841 26.1773 56.718 25.8319C56.5391 25.7008 56.4371 25.7153 56.2894 25.7882C55.6526 26.0982 55.045 26.0566 54.633 25.4635C54.1461 24.7602 54.1606 23.9653 54.5435 23.2141C54.8827 22.5503 55.4841 22.3506 56.204 22.4671C56.3351 22.4879 56.4642 22.5191 56.5474 22.5358ZM56.6806 24.2275C56.6681 23.6511 56.8491 23.0601 56.0043 23.0643C55.1969 23.0685 54.8952 23.5346 54.8952 24.2379C54.8952 24.8226 55.0575 25.3553 55.8191 25.322C56.5869 25.2888 56.8096 24.8351 56.6826 24.2254L56.6806 24.2275Z" fill="#0B0C0E"/>
<path d="M49.1999 22.0281C48.2905 22.0281 47.6392 22.0322 46.9879 22.026C46.7902 22.026 46.5572 22.053 46.5301 21.7534C46.4968 21.3726 46.7715 21.4017 47.0108 21.3996C47.737 21.3955 48.4653 21.3809 49.1915 21.4059C49.435 21.4142 49.7804 21.2352 49.9074 21.6036C50.0052 21.8928 49.8345 22.1279 49.6473 22.3464C48.8524 23.2828 48.0658 24.2275 47.1377 25.3325C48.0055 25.3325 48.6797 25.3179 49.3539 25.3408C49.5869 25.3491 49.9781 25.1764 49.9864 25.6259C49.9948 26.1502 49.5536 25.9442 49.2977 25.9546C48.5715 25.9838 47.8452 25.9734 47.1169 25.9588C46.9005 25.9546 46.6009 26.0899 46.4864 25.7944C46.3803 25.5239 46.4802 25.27 46.6779 25.037C47.4769 24.1006 48.2614 23.1496 49.1999 22.026V22.0281Z" fill="#0B0C0E"/>
<path d="M77.7846 23.9487C78.6918 23.5471 78.8916 22.4338 79.9154 22.4255C79.9154 22.5441 79.9341 22.6128 79.9133 22.6627C79.6345 23.2766 78.5025 23.4513 78.8375 24.3024C79.0706 24.8975 79.7031 25.3387 80.1901 25.886C79.2558 26.1669 79.1018 25.3408 78.6419 25.0037C78.438 24.8538 78.3714 24.4502 78.0176 24.5937C77.7513 24.6999 77.8179 24.9953 77.7804 25.2305C77.7388 25.4948 77.9739 25.9629 77.4662 25.9421C76.9522 25.9213 77.2227 25.4511 77.2165 25.2034C77.1832 24.0298 77.1978 22.8562 77.204 21.6826C77.204 21.4974 77.1166 21.2373 77.4308 21.204C77.8033 21.1645 77.7846 21.4392 77.7846 21.6847C77.7846 22.4047 77.7846 23.1247 77.7846 23.9508V23.9487Z" fill="#0B0C0E"/>
<path d="M72.2206 23.5783C71.7295 22.8916 71.176 23.0705 70.6495 23.1475C70.4705 23.1746 70.2521 23.3764 70.1688 23.0414C70.1002 22.7626 70.2313 22.6169 70.5038 22.5129C71.7336 22.0363 72.7137 22.6752 72.7408 23.9903C72.7408 24.0589 72.7408 24.1276 72.7408 24.1963C72.7491 25.3768 72.172 25.965 71.0095 25.9608C70.431 25.9588 70.0065 25.7195 69.8983 25.1119C69.7922 24.525 70.0232 24.0797 70.5996 23.907C71.0844 23.7614 71.5963 23.701 72.2206 23.5803V23.5783ZM71.3071 25.3262C71.5547 25.2034 72.0999 25.3387 72.1831 24.7165C72.2393 24.2899 71.9459 24.292 71.667 24.3315C71.2238 24.396 70.6204 24.2753 70.5122 24.8871C70.4477 25.2534 70.8409 25.3324 71.3091 25.3262H71.3071Z" fill="#0B0C0E"/>
<path d="M52.319 25.9733C51.4763 25.9234 50.7959 25.6425 50.6148 24.7539C50.44 23.8966 50.5378 23.0934 51.418 22.621C51.9424 22.3401 52.4814 22.3443 52.987 22.6689C53.5135 23.006 53.5717 23.5554 53.6133 24.1172C53.6446 24.5562 53.3574 24.5167 53.0786 24.5167C52.5958 24.5167 52.1151 24.5105 51.6324 24.5209C51.4805 24.525 51.262 24.4501 51.2245 24.6957C51.1954 24.8809 51.314 25.012 51.4659 25.1098C51.9029 25.3948 52.3856 25.3178 52.8684 25.3137C53.0869 25.3137 53.4157 24.9079 53.528 25.3948C53.6362 25.8693 53.1556 25.7944 52.91 25.9026C52.7311 25.9816 52.5042 25.9567 52.317 25.9754L52.319 25.9733ZM53.039 23.8529C52.9163 23.1579 52.5147 23.0226 52.0319 23.0809C51.6116 23.1309 51.2266 23.2786 51.2432 23.8529H53.0411H53.039Z" fill="#0B0C0E"/>
<path d="M84.0794 21.3955C85.5256 21.4059 86.0999 21.7721 86.1831 22.6294C86.2705 23.5367 85.7212 24.2463 84.7369 24.2712C84.0232 24.2879 83.7506 24.471 83.8463 25.1993C83.8775 25.4428 84.0669 25.9172 83.58 25.938C82.9661 25.9651 83.2699 25.4344 83.2574 25.1681C83.2179 24.2379 83.2824 23.3036 83.2283 22.3756C83.1825 21.5994 83.3198 21.1271 84.0773 21.3976L84.0794 21.3955ZM83.8609 22.8542C83.8817 23.262 83.7006 23.7885 84.4726 23.6803C85.0178 23.6033 85.5297 23.5138 85.538 22.8375C85.5464 22.1321 85.0033 22.0947 84.4706 22.0218C83.6986 21.9136 83.8838 22.4463 83.8609 22.8542Z" fill="#0B0C0E"/>
<path d="M89.4022 24.1942C89.4043 23.1121 90.0348 22.4192 90.9983 22.44C91.9097 22.4588 92.5256 23.1413 92.5485 24.1567C92.5735 25.2097 91.9305 25.9484 90.9837 25.9609C90.0182 25.9733 89.3981 25.2825 89.4002 24.1942H89.4022ZM91.9534 24.2192C91.9013 23.6178 91.7245 23.108 91.0107 23.0768C90.2991 23.0456 90.0202 23.5096 90.0015 24.1276C89.9828 24.7685 90.1909 25.3199 90.9712 25.322C91.6849 25.322 91.8847 24.8205 91.9513 24.2213L91.9534 24.2192Z" fill="#0B0C0E"/>
<path d="M98.406 24.9183C98.7702 24.0444 99.024 23.4222 99.2862 22.8021C99.384 22.5711 99.5235 22.3339 99.8189 22.4608C100.196 22.6231 99.873 22.8728 99.8106 23.031C99.3299 24.242 98.816 25.4406 98.3103 26.6413C98.1813 26.9472 98.1189 27.3446 97.5009 27.1074C98.6224 25.5925 97.3739 24.3898 96.991 23.0476C96.9411 22.8707 96.5686 22.6335 96.9411 22.4587C97.2657 22.3068 97.4301 22.569 97.5425 22.8437C97.7901 23.4451 98.0419 24.0464 98.4039 24.9183H98.406Z" fill="#0B0C0E"/>
<path d="M96.1941 22.5046C95.9215 23.1705 95.0601 23.5825 95.1474 24.2338C95.2244 24.806 95.83 25.3075 96.2337 25.8839C95.1516 26.1919 95.2557 24.9558 94.5939 24.7644C94.0529 25.0391 94.0841 26.0816 92.9563 25.9047C94.39 24.7748 94.4524 23.647 93.0042 22.5837C93.7741 22.1945 93.9863 22.7376 94.209 23.1122C94.5814 23.7448 94.8332 23.6678 95.1828 23.0956C95.3763 22.7793 95.5282 22.2861 96.1941 22.5046Z" fill="#0B0C0E"/>
<path d="M75.5874 23.0873C75.113 23.0165 74.6573 23.0727 74.3888 23.5055C74.1183 23.9446 74.1183 24.4461 74.3826 24.8872C74.6469 25.3284 75.1067 25.3221 75.5749 25.3367C75.8329 25.345 76.2512 24.8893 76.3386 25.3949C76.4281 25.9172 75.8642 25.8944 75.525 25.9401C74.83 26.0358 74.1849 25.8694 73.8395 25.2014C73.4878 24.521 73.4816 23.7927 73.9019 23.131C74.2994 22.5046 74.9382 22.3402 75.629 22.4693C75.9287 22.5254 76.451 22.5213 76.3469 23.004C76.2325 23.5263 75.8392 22.9707 75.5874 23.0873Z" fill="#0B0C0E"/>
<path d="M87.2755 22.4421C87.7146 23.0664 88.162 22.3859 88.6135 22.4359C88.8195 22.4588 89.038 22.4234 89.063 22.723C89.0817 22.929 89.011 23.0705 88.7904 23.0581C87.3962 22.9707 87.4899 23.9112 87.494 24.8497C87.494 25.2138 87.7416 25.9026 87.2589 25.9005C86.6034 25.8964 87.0029 25.1993 86.9613 24.8226C86.8906 24.2088 86.9364 23.5824 86.9468 22.9603C86.9509 22.7355 86.8719 22.4421 87.2755 22.4463V22.4421Z" fill="#0B0C0E"/>
<path d="M17.4253 34.2177C26.8742 34.2177 34.5341 26.5578 34.5341 17.1089C34.5341 7.65989 26.8742 0 17.4253 0C7.9763 0 0.316406 7.65989 0.316406 17.1089C0.316406 26.5578 7.9763 34.2177 17.4253 34.2177Z" fill="#74787A"/>
<path d="M17.4251 32.1556C25.7352 32.1556 32.4718 25.4189 32.4718 17.1088C32.4718 8.79878 25.7352 2.06213 17.4251 2.06213C9.11506 2.06213 2.37842 8.79878 2.37842 17.1088C2.37842 25.4189 9.11506 32.1556 17.4251 32.1556Z" fill="#112C6E"/>
<path d="M17.425 32.5718C8.89975 32.5718 1.96216 25.6363 1.96216 17.1089C1.96216 8.58151 8.89975 1.646 17.425 1.646C25.9503 1.646 32.8879 8.58151 32.8879 17.1089C32.8879 25.6363 25.9524 32.5718 17.425 32.5718ZM17.425 2.47834C9.35754 2.47834 2.7945 9.04138 2.7945 17.1089C2.7945 25.1764 9.35754 31.7394 17.425 31.7394C25.4925 31.7394 32.0556 25.1764 32.0556 17.1089C32.0556 9.04138 25.4925 2.47834 17.425 2.47834Z" fill="#231F20"/>
<path d="M27.2176 24.8248C29.4046 27.5549 31.5936 30.285 33.7806 33.015C33.7078 33.1045 33.6329 33.1961 33.56 33.2856C26.9575 29.5962 20.3528 25.9068 13.5401 22.1009C14.6346 21.6182 15.5294 21.2228 16.5552 20.7692C13.461 18.5551 10.4396 16.3931 7.25795 14.1167C8.2422 13.6984 9.04749 13.3571 9.96307 12.968C6.96871 10.8643 4.09712 8.84583 1.06738 6.71711C2.80074 5.99089 4.32185 5.34998 5.84712 4.71324C8.75201 3.50009 11.6652 2.30152 14.5576 1.0634C15.0945 0.83451 15.3983 0.882369 15.7708 1.35889C18.1991 4.46145 20.6483 7.54737 23.1204 10.6146C23.5969 11.2055 23.5345 11.449 22.7957 11.6217C22.1278 11.7778 21.4848 12.0337 20.6982 12.2876C22.9976 15.051 25.2428 17.7498 27.6025 20.584C26.5018 20.9065 25.5342 21.1895 24.4584 21.5037C24.7746 21.8658 24.9973 22.1217 25.222 22.3756C25.8047 23.2558 26.4643 24.0777 27.2155 24.8227L27.2176 24.8248Z" fill="#F6F6F6"/>
<path d="M33.6871 33.9535L12.3749 22.0468L15.5107 20.663L6.20097 14.0001L8.89777 12.8556L0 6.60263L2.44085 5.57885C3.55619 5.11066 4.60287 4.67159 5.64954 4.23461C6.45067 3.89959 7.25389 3.56666 8.0571 3.23164C10.1255 2.37224 12.2646 1.48163 14.358 0.586862C15.132 0.256005 15.6772 0.391261 16.1849 1.03841C18.5759 4.09311 21.0458 7.20609 23.5304 10.2899C23.7988 10.6249 24.0548 11.0245 23.907 11.4531C23.7406 11.938 23.1642 12.0732 22.9186 12.1315C22.49 12.2314 22.0717 12.3749 21.5889 12.5414L28.5141 20.8649L25.3907 21.7784L25.6591 22.0926C26.2438 22.9749 26.891 23.7697 27.586 24.4564L27.6255 24.5001L34.4508 33.0192L33.6871 33.9535ZM14.7055 22.1571L32.2825 31.9767L26.8306 25.1743C26.1023 24.4502 25.4219 23.6158 24.8101 22.696L23.5346 21.2373L26.6995 20.3114L19.8098 12.0316L20.5423 11.7944C20.7899 11.7153 21.023 11.6342 21.2477 11.5572C21.7388 11.3886 22.2007 11.2305 22.6814 11.1181C22.7397 11.1056 22.7854 11.0911 22.825 11.0807C22.7979 11.0432 22.7646 10.9974 22.7209 10.9433C20.2343 7.85531 17.7602 4.74026 15.3672 1.6814C15.1528 1.4088 15.1091 1.3984 14.7679 1.54406C12.6704 2.44091 10.5292 3.33152 8.45662 4.193C7.65549 4.52593 6.85228 4.86095 6.05115 5.19389C5.00447 5.63087 3.9578 6.06993 2.84454 6.53813L2.14121 6.83361L11.0327 13.0824L8.31721 14.2352L17.602 20.8794L14.7055 22.1571Z" fill="#231F20"/>
</g>
<defs>
<clipPath id="clip0_1725_6019">
<rect width="100" height="34.2198" fill="white"/>
</clipPath>
</defs>
</svg>
