<svg width="20" height="20" viewBox="0 0 20 20" fill="none" xmlns="http://www.w3.org/2000/svg">
<path d="M14.86 14.8602C13.4616 15.927 11.7586 16.5184 10 16.5477C4.27262 16.5477 1 10.0025 1 10.0025C2.01772 8.10584 3.42929 6.44878 5.14 5.14247M8.28213 3.65185C8.84519 3.51987 9.42168 3.45381 10 3.45497C15.7274 3.45497 19 10.0002 19 10.0002C18.5033 10.9294 17.911 11.8041 17.2326 12.6102M11.7347 11.735C11.5099 11.9758 11.2389 12.1689 10.9379 12.3027C10.6369 12.4366 10.312 12.5085 9.98258 12.5141C9.65318 12.5198 9.32601 12.4591 9.02058 12.3356C8.71514 12.2121 8.43768 12.0285 8.20472 11.7955C7.97177 11.5625 7.78809 11.2851 7.66463 10.9796C7.54117 10.6742 7.48045 10.347 7.4861 10.0176C7.49175 9.68825 7.56365 9.36336 7.6975 9.06233C7.83136 8.7613 8.02445 8.4903 8.26525 8.26547" stroke="#04121E" stroke-width="1.5" stroke-linecap="round" stroke-linejoin="round"/>
<path d="M1 1L19 19" stroke="#04121E" stroke-width="1.5" stroke-linecap="round" stroke-linejoin="round"/>
</svg>
