<svg width="18" height="14" viewBox="0 0 18 14" fill="none" xmlns="http://www.w3.org/2000/svg">
<path d="M17.8545 6.68258C15.9683 2.51933 12.6604 0 9 0C5.33955 0 2.02612 2.51933 0.156716 6.68258L0 6.99666L0.145522 7.31742C2.03172 11.4807 5.33955 14 9 14C12.6604 14 15.9739 11.5141 17.8545 7.31742L18 6.99666L17.8545 6.68258ZM9 12.6301C5.84888 12.6301 2.95522 10.5317 1.27612 6.99666C2.95522 3.46157 5.84888 1.36325 9 1.36325C12.1511 1.36325 15.0112 3.46826 16.7183 6.99666C15.0112 10.5317 12.1455 12.6301 9 12.6301Z" fill="#04121E"/>
<path d="M8.97811 4.00008C8.38516 4.00441 7.80679 4.18436 7.31605 4.5172C6.82531 4.85004 6.44421 5.32085 6.22089 5.87016C5.99757 6.41946 5.94204 7.02263 6.06133 7.60348C6.18061 8.18432 6.46934 8.71679 6.89107 9.13363C7.31279 9.55048 7.84859 9.83299 8.43078 9.9455C9.01298 10.058 9.61546 9.99546 10.1621 9.76576C10.7088 9.53606 11.1751 9.14951 11.5022 8.65493C11.8293 8.16035 12.0025 7.57992 12 6.98696C11.9983 6.59225 11.9187 6.20176 11.7658 5.83787C11.6129 5.47398 11.3897 5.14384 11.1089 4.86636C10.8282 4.58889 10.4955 4.36954 10.1298 4.22089C9.76419 4.07224 9.37281 3.9972 8.97811 4.00008ZM8.97811 9.12544C8.55927 9.12113 8.15104 8.99315 7.8047 8.75758C7.45836 8.52201 7.18935 8.18935 7.03145 7.80139C6.87355 7.41343 6.83381 6.98747 6.91721 6.57699C7.00061 6.16652 7.20344 5.78984 7.50022 5.49427C7.79701 5.19869 8.17451 4.9974 8.58532 4.91568C8.99613 4.83395 9.42193 4.87543 9.80924 5.03491C10.1966 5.1944 10.5281 5.46476 10.7623 5.81206C10.9964 6.15936 11.1227 6.56811 11.1253 6.98696C11.1265 7.26885 11.0717 7.54818 10.9641 7.80873C10.8565 8.06928 10.6982 8.30588 10.4985 8.5048C10.2988 8.70372 10.0615 8.86101 9.80053 8.96755C9.53954 9.07409 9.25999 9.12776 8.97811 9.12544Z" fill="#04121E"/>
</svg>
