<svg width="100" height="19" viewBox="0 0 100 19" fill="none" xmlns="http://www.w3.org/2000/svg">
<path d="M30.0585 12.306V16.7942H27.1404V3.51475C27.423 3.51475 27.711 3.51475 28.0001 3.51475C28.4928 3.51475 28.9855 3.50176 29.4771 3.52558C29.5745 3.52991 29.7239 3.65876 29.7499 3.7573C29.8344 4.07456 29.8723 4.40373 29.9275 4.72966C29.9665 4.72424 30.0011 4.72965 30.0109 4.71558C31.333 2.85099 34.7059 2.74055 36.3442 5.24399C37.6815 7.28723 37.4855 10.5508 35.8981 12.2833C34.5305 13.7754 32.275 14.0591 30.7429 12.9232C30.5198 12.7586 30.3282 12.5518 30.0585 12.3071V12.306ZM29.881 8.45666C30.0423 9.03054 30.13 9.59793 30.3606 10.1004C30.6844 10.8042 31.2983 11.1518 32.0877 11.1496C32.8781 11.1485 33.478 10.789 33.8148 10.0906C34.3313 9.02296 34.3323 7.91851 33.8094 6.85195C33.4823 6.18386 32.9074 5.82653 32.1483 5.80596C31.3622 5.7843 30.7288 6.10265 30.391 6.80322C30.1462 7.31105 30.0488 7.89035 29.881 8.45666Z" fill="black"/>
<path d="M72.7555 13.4246H70.2012C70.1308 13.0327 70.0626 12.6526 69.9846 12.2195C69.8731 12.3364 69.8016 12.4122 69.7291 12.4891C68.5315 13.7592 66.3897 13.992 64.9582 13.0067C63.3449 11.8968 63.308 9.40419 64.8922 8.25425C65.7801 7.6089 66.8185 7.41833 67.8764 7.29814C68.3041 7.24941 68.7329 7.21151 69.1584 7.15088C69.4692 7.10648 69.781 7.03285 69.833 6.64304C69.8774 6.31062 69.6663 6.0161 69.2732 5.871C68.6712 5.65011 68.0475 5.67827 67.4595 5.86776C66.6907 6.11463 65.949 6.44597 65.1965 6.74266C65.1077 6.77731 65.0232 6.82495 64.9041 6.88234C64.5922 6.11355 64.2891 5.36642 63.9772 4.59979C65.8299 3.58521 67.7551 3.03515 69.8622 3.52132C71.5449 3.90897 72.6407 5.02425 72.7273 6.74591C72.8389 8.95374 72.7544 11.1702 72.7544 13.4257L72.7555 13.4246ZM69.8644 8.99922C69.1043 9.14973 68.3853 9.28724 67.6696 9.43559C67.5028 9.47024 67.3372 9.52654 67.1812 9.59476C66.8196 9.75285 66.6225 10.029 66.6377 10.4328C66.6528 10.8367 66.8618 11.1464 67.2451 11.2146C67.6945 11.2948 68.1731 11.337 68.6192 11.2699C69.2429 11.1767 69.6489 10.7458 69.7756 10.1242C69.8525 9.74527 69.8395 9.34788 69.8644 8.99922Z" fill="black"/>
<path d="M44.3202 13.417C44.2499 13.0239 44.1827 12.6514 44.1156 12.2779C44.0853 12.2573 44.056 12.2378 44.0257 12.2172C43.9499 12.3233 43.886 12.4403 43.7962 12.5323C42.6776 13.6801 40.721 13.9638 39.3307 13.1647C38.2815 12.5605 37.8202 11.6336 37.8732 10.4252C37.923 9.27742 38.4894 8.48156 39.4812 7.96182C40.2684 7.54927 41.126 7.39334 41.9987 7.29698C42.4394 7.24825 42.8812 7.21143 43.3186 7.1443C43.6143 7.09882 43.912 7.01545 43.9564 6.6408C43.9943 6.31812 43.7929 6.0236 43.428 5.88284C42.8151 5.6457 42.1795 5.67819 41.5786 5.86659C40.8314 6.10156 40.1125 6.42315 39.3827 6.7101C39.27 6.75449 39.1639 6.81621 39.0264 6.88443C38.7146 6.11672 38.4114 5.36851 38.0995 4.59755C40.0172 3.54615 42.0063 2.99609 44.1697 3.56564C45.8318 4.00309 46.841 5.24832 46.8886 7.00787C46.946 9.11175 46.9081 11.2178 46.9103 13.3238C46.9103 13.3466 46.8962 13.3682 46.88 13.4159H44.3202V13.417ZM43.9716 9.00022C43.2862 9.13449 42.6376 9.25143 41.9944 9.39328C41.7096 9.45608 41.414 9.53296 41.1628 9.67372C40.6409 9.96608 40.6106 10.7262 41.0805 11.0803C42.029 11.7971 43.6586 11.2275 43.9055 10.0733C43.9835 9.71054 43.9543 9.32615 43.9716 8.99914V9.00022Z" fill="black"/>
<path d="M86.0578 8.53895C86.0578 6.06583 87.2662 4.30628 89.3918 3.61437C91.644 2.88131 94.1236 3.61762 95.4089 5.35118C96.7429 7.1508 96.8263 11.0359 94.2341 12.7413C92.0306 14.1912 88.2115 13.9161 86.6815 11.1647C86.2159 10.3267 86.021 9.4236 86.0578 8.53787V8.53895ZM93.344 8.46099C93.2281 7.97481 93.1675 7.4659 92.9834 7.00679C92.7106 6.32246 92.1767 5.898 91.4209 5.81896C90.6641 5.73991 90.0404 5.9922 89.5899 6.62023C88.8839 7.60558 88.9186 9.48099 89.656 10.4252C90.3566 11.3218 91.7231 11.4138 92.533 10.6147C93.1296 10.0246 93.2585 9.27093 93.344 8.46099Z" fill="black"/>
<path d="M63.0873 8.44152C63.0873 10.8702 61.8779 12.6504 59.7924 13.3315C57.5001 14.0797 54.9696 13.3823 53.7319 11.5676C52.5636 9.85458 52.4975 7.96834 53.3183 6.11566C54.1152 4.31497 55.6517 3.48121 57.5802 3.36968C59.5899 3.25382 61.2617 3.90458 62.3814 5.65981C62.926 6.51414 63.1263 7.47133 63.0895 8.44044L63.0873 8.44152ZM60.0609 8.47184C60.049 7.86439 59.958 7.27534 59.6332 6.74152C58.8633 5.47898 57.0139 5.46165 56.2982 6.75127C55.6712 7.88063 55.6712 9.08038 56.3014 10.2097C57.0193 11.4972 58.872 11.4734 59.6375 10.2097C59.9613 9.67483 60.0512 9.08579 60.062 8.47184H60.0609Z" fill="black"/>
<path d="M8.09078 16.4987C7.07619 15.4819 6.00855 14.4132 4.92358 13.3261C7.63275 10.618 10.3787 7.87201 13.1572 5.09571C12.5682 4.55214 12.0213 4.04647 11.5168 3.57979C12.6786 2.41578 13.7517 1.34055 14.8041 0.286987C15.8177 1.30699 16.8885 2.38437 17.98 3.48233C15.2773 6.18392 12.5303 8.93208 9.75396 11.7073C10.3192 12.2487 10.8573 12.7652 11.3522 13.2395C10.2152 14.3764 9.14218 15.4495 8.09186 16.4987H8.09078Z" fill="#FA582D"/>
<path d="M3.16719 11.5925C2.11038 10.5346 1.04382 9.46697 0 8.42314C2.71458 5.70856 5.45082 2.97232 8.16216 0.260986C9.20598 1.30264 10.2812 2.37678 11.3326 3.42602C8.6256 6.13302 5.89586 8.86276 3.16719 11.5914V11.5925Z" fill="#FA582D"/>
<path d="M22.9154 8.37768C20.204 11.089 17.4743 13.8188 14.7824 16.5117C13.7386 15.4635 12.6677 14.3883 11.6326 13.3488C14.3082 10.6721 17.0444 7.9359 19.7579 5.22131C20.7898 6.25322 21.865 7.32736 22.9154 8.37768Z" fill="#FA582D"/>
<path d="M79.1051 1.68269C80.0634 1.53976 81.0195 1.39683 82.0309 1.24524V3.49747H85.4601V5.80059H82.0655C82.0568 5.96409 82.0449 6.0832 82.0449 6.20339C82.0439 7.40963 82.0406 8.61587 82.0449 9.82211C82.0482 10.9049 82.5603 11.3326 83.6237 11.1052C84.1001 11.0034 84.5603 10.8248 85.0779 10.6656C85.341 11.3164 85.6182 12.004 85.903 12.7099C85.0638 13.1929 84.1932 13.4874 83.2685 13.561C82.6989 13.6065 82.1099 13.5903 81.5458 13.4982C80.1403 13.2708 79.273 12.2963 79.1257 10.8681C79.1073 10.6851 79.0878 10.4999 79.0878 10.3159C79.0856 7.53415 79.0856 4.75352 79.0878 1.9718C79.0878 1.88626 79.0975 1.8018 79.1062 1.68161L79.1051 1.68269Z" fill="black"/>
<path d="M77.3986 13.4235H74.4934V0.00866699H77.3986V13.4235Z" fill="black"/>
<path d="M48.6157 0H51.5285V13.4072H48.6157V0Z" fill="black"/>
<path d="M79.2124 15.8241H79.9963C80.1198 16.3319 80.2465 16.8506 80.3732 17.3703L80.4392 17.38C80.5713 16.9491 80.724 16.5225 80.8301 16.0839C80.8983 15.8024 81.0727 15.8046 81.2925 15.8013C81.5199 15.7992 81.6801 15.8132 81.744 16.0958C81.8404 16.5225 81.992 16.9361 82.1934 17.3573C82.3135 16.856 82.4337 16.3535 82.5583 15.8306H83.3011C83.222 16.1467 83.1484 16.451 83.0715 16.7531C82.9979 17.039 82.921 17.3237 82.8452 17.6085C82.6665 18.2777 82.5442 18.3632 81.8642 18.2355C81.7776 18.2192 81.679 18.0958 81.6455 18.0016C81.5199 17.6486 81.4192 17.288 81.2351 16.9264C81.129 17.2577 81.0055 17.5858 80.9222 17.9225C80.8626 18.1629 80.763 18.2604 80.4977 18.2528C79.8556 18.2365 79.8534 18.2528 79.6856 17.6226C79.5286 17.0325 79.3759 16.4423 79.2135 15.8241H79.2124Z" fill="black"/>
<path d="M70.0032 15.8447C70.5153 15.7147 70.8802 15.8327 71.1358 16.2929C71.2917 16.5734 71.5202 16.8148 71.7909 17.0455V15.8306H72.459V18.2095C72.0204 18.3102 71.6707 18.2669 71.4238 17.8305C71.2451 17.5165 70.9896 17.2458 70.7124 16.882V18.2192H70.0032V15.8457V15.8447Z" fill="black"/>
<path d="M87.3994 18.2127V15.785C88.0166 15.8121 88.6316 15.7796 89.2229 15.8825C89.7957 15.9821 89.9657 16.857 89.5423 17.2977C89.4838 17.3583 89.4113 17.4071 89.3279 17.4764C89.4946 17.7146 89.6592 17.9517 89.8422 18.2138C89.3701 18.2744 88.9511 18.335 88.7258 17.8207C88.6143 17.5641 88.3956 17.5717 88.1433 17.642C88.1336 17.8207 88.1249 18.0004 88.113 18.2127H87.3994ZM88.1487 17.0108C88.3577 17.0108 88.5374 17.0454 88.6934 16.9999C88.8168 16.9631 88.9121 16.8278 89.0193 16.7357C88.9153 16.6242 88.8298 16.4607 88.702 16.4163C88.5418 16.36 88.348 16.4033 88.1476 16.4033V17.0118L88.1487 17.0108Z" fill="black"/>
<path d="M85.2198 18.3058C84.3503 18.3058 83.8425 17.838 83.8403 17.0324C83.8382 16.2128 84.3612 15.7255 85.2372 15.732C86.0904 15.7374 86.5993 16.2236 86.5993 17.0314C86.5993 17.8348 86.0893 18.3058 85.2198 18.3058ZM85.2296 16.3741C84.8235 16.3698 84.5875 16.5993 84.581 17.0054C84.5734 17.4352 84.8105 17.681 85.2285 17.6767C85.627 17.6724 85.8598 17.432 85.8609 17.0238C85.8609 16.6123 85.6335 16.3784 85.2307 16.3741H85.2296Z" fill="black"/>
<path d="M75.2168 17.2739H74.161C74.1535 17.3984 74.148 17.4916 74.1405 17.6269H75.5622V18.2214H73.428V15.8284H75.5156C75.5286 16.0038 75.5416 16.1705 75.5589 16.3979C75.1648 16.3979 74.7869 16.3871 74.4112 16.4055C74.3202 16.4098 74.2336 16.5084 74.1459 16.5625C74.2379 16.6134 74.3267 16.7011 74.4231 16.7098C74.6775 16.7303 74.9352 16.7173 75.2168 16.7173V17.275V17.2739Z" fill="black"/>
<path d="M92.3371 16.9751C92.6576 17.3898 92.9629 17.7839 93.2834 18.1986C92.7291 18.3362 92.3241 18.2387 92.0317 17.7504C91.9256 17.5728 91.7036 17.4634 91.5347 17.3237C91.499 17.5284 91.46 17.733 91.4286 17.9388C91.4156 18.0221 91.4167 18.1088 91.4102 18.2181H90.7205V15.8295H91.4124V16.7434C91.5964 16.6589 91.7199 16.6243 91.8152 16.5517C91.9007 16.4878 91.9722 16.3914 92.0231 16.2951C92.2743 15.8154 92.6727 15.7104 93.2271 15.8522C92.9305 16.2258 92.6457 16.5853 92.336 16.9762L92.3371 16.9751Z" fill="black"/>
<path d="M96.0446 16.6221C95.4772 16.4228 95.0495 16.229 94.6034 16.4315L94.5785 16.5484C94.6922 16.5928 94.8037 16.6491 94.9206 16.6794C95.1459 16.7379 95.3797 16.7671 95.6017 16.8332C95.9103 16.9263 96.1096 17.1288 96.1193 17.4699C96.129 17.8185 95.9569 18.0589 95.6418 18.1845C95.0852 18.4065 94.5167 18.347 93.9948 18.112C93.8584 18.0503 93.8487 17.7049 93.7588 17.4179C94.3565 17.5587 94.8438 17.8608 95.3581 17.6052C95.3667 17.5663 95.3743 17.5273 95.383 17.4883C95.2574 17.4406 95.1339 17.3822 95.0051 17.3486C94.7799 17.2901 94.546 17.2609 94.324 17.1938C94.0457 17.1093 93.8541 16.9307 93.8303 16.6188C93.8064 16.3037 93.9353 16.0655 94.2114 15.9204C94.7387 15.6432 95.2953 15.6735 95.8107 15.9042C95.945 15.9648 95.9504 16.3124 96.0435 16.6221H96.0446Z" fill="black"/>
<path d="M78.6146 15.8262V16.4315H77.8014V18.2257H77.0608V16.4477H76.2346V15.8262H78.6146Z" fill="black"/>
<path d="M99.9999 4.19695C99.9977 5.12058 99.3069 5.81249 98.3909 5.80491C97.4781 5.79841 96.7872 5.09134 96.797 4.17421C96.8067 3.27982 97.5051 2.58357 98.3952 2.57924C99.3069 2.57491 100.001 3.2744 99.9999 4.19587V4.19695ZM97.0688 4.19045C97.0688 4.99714 97.6058 5.55262 98.3919 5.55803C99.1759 5.56345 99.7444 5.00364 99.7519 4.21861C99.7595 3.41625 99.1878 2.82721 98.3995 2.82829C97.6221 2.82829 97.0688 3.39568 97.0688 4.19154V4.19045Z" fill="black"/>
<path d="M98.1462 4.50551C98.1354 4.64627 98.1245 4.79029 98.1115 4.95162C97.921 5.01984 97.7791 5.03175 97.7813 4.75997C97.7845 4.33226 97.7813 3.90455 97.7813 3.41729C98.0336 3.41729 98.2718 3.37506 98.4851 3.4292C98.6887 3.48118 98.9431 3.59054 99.0373 3.75404C99.1619 3.9706 99.0861 4.23806 98.7969 4.36583C98.8933 4.56398 98.9832 4.74697 99.0774 4.94188C98.8013 5.07398 98.6843 4.93213 98.5977 4.71882C98.5165 4.5185 98.4061 4.37124 98.144 4.50443L98.1462 4.50551ZM98.1494 4.19258C98.3595 4.13411 98.536 4.09404 98.7027 4.03016C98.7266 4.02041 98.7276 3.845 98.7049 3.83634C98.5382 3.77245 98.3617 3.73131 98.1494 3.67175V4.19258Z" fill="black"/>
</svg>
