<?xml version="1.0" encoding="UTF-8"?>
<svg id="Layer_1" data-name="Layer 1" xmlns="http://www.w3.org/2000/svg" version="1.1" viewBox="0 0 1000 870.18">
  <defs>
    <style>
      .cls-1 {
        fill: #272727;
      }

      .cls-1, .cls-2 {
        stroke-width: 0px;
      }

      .cls-2 {
        fill: #ec2e26;
      }
    </style>
  </defs>
  <path class="cls-1" d="M2.5,696.89c1.44-6.41,2.59-12.91,4.37-19.23,13.96-49.6,61.5-84.92,112.09-83.4,54.27,1.63,99.14,38.57,110.74,90.29,13.03,58.14-20.99,112.85-68.73,130.89-6.24,2.36-12.62,4.13-19.29,5.69,15.42,5.8,31.64,8.46,48.15,11.78-5.79,9.98-13.38,17.74-22.48,24.13-1.06.75-2.14.76-3.3.55-33.72-6.07-66.02-16.11-95.17-34.62-28.61-18.16-50.07-42.23-60.67-75.01-2.23-6.9-3.66-13.98-4.74-21.13-.12-.77.23-1.82-.96-2.13,0-9.28,0-18.55,0-27.83ZM117.19,790.96c45.37,0,81.83-36.19,82.01-81.39.18-44.61-36.54-81.78-80.8-81.8-45.8-.02-82.68,36.21-82.69,81.22,0,45.32,36.42,81.97,81.49,81.97Z"/>
  <path class="cls-1" d="M711.45,863.01c-.01-2.28,1.28-4.12,2.1-6.1,6.83-16.41,13.6-32.84,20.71-49.12,1.54-3.52,1.44-6.33.07-9.81-17.68-44.59-35.23-89.23-52.8-133.86-2-5.08-1.98-5.09,3.63-5.09,8.41,0,16.82.16,25.22-.08,3.14-.09,4.47.97,5.55,3.88,11.54,31,23.25,61.94,34.91,92.9.6,1.6,1.28,3.17,1.94,4.8,1.69-.49,1.62-2.04,2.04-3.13,12.04-31.44,24.06-62.88,35.96-94.37,1.12-2.97,2.49-4.19,5.87-4.1,9.98.27,19.98.1,30,.1.48,1.73-.52,2.91-1.03,4.18-23.92,59.66-47.95,119.28-71.7,179.01-5.33,13.4-15.72,18.45-28.94,19.92-1.32.15-2.92-.71-3.94.86h-9.57Z"/>
  <path class="cls-2" d="M707.17,187.45c.06,20.43-.73,40.83-1.67,61.22-1.68,36.43-12.48,70.17-30.11,101.86-22.06,39.63-52.06,72.57-86.38,101.8-28.2,24.02-58.62,44.84-91.12,62.61-3.28,1.79-5.92,2.22-9.54.21-55.84-31.02-105.91-69.16-146.55-118.84-27.48-33.6-47.92-70.85-57.02-113.73-3.26-15.36-4.31-30.91-4.87-46.56-.79-22.15-1.4-44.3-1.2-66.45.25-27.8,1.07-55.58,4-83.26.31-2.98,1.24-5.32,3.64-7.47,28.73-25.77,62.15-43.13,98.57-55.03,43.34-14.15,87.9-18.85,133.27-15.69,62.31,4.35,119.71,22.7,169.88,60.97,15.46,11.79,15.1,12.08,16.53,31.55,2.11,28.91,2.73,57.85,2.58,86.82ZM604.28,381.35c-29.61-3.99-58.17-9.35-86.14-17.57-29.78-8.75-58.24-20.35-82.6-40.15-38.65-31.42-54.44-71.8-43.99-120.74,9.61-44.99,49.26-82.23,101.5-82.29,32.47-.04,59.83,12.89,80.45,38.13,20.96,25.67,29.17,55.11,21.18,87.79-5.68,23.22-19.82,41.58-36.63,57.99-9.23,9.01-19.42,16.86-30.19,23.89.72,1.37,1.87,1.74,2.91,2.19,18.36,8.02,37.72,11.98,57.52,14.18,2.32.26,3.87-.79,5.42-2.13,45.39-39.17,63.72-88.58,52.85-147.37-12.52-67.69-67.6-118.14-136.18-125.46-55.42-5.92-102.32,12.73-137.73,55.66-39.87,48.33-45.91,103.38-25,161.4,14.68,40.73,43.3,70.4,79.72,92.8,39.31,24.18,82.69,37.02,127.77,44.93,2.15.38,3.89-.26,5.68-1.42,8.81-5.7,16.6-12.63,24.14-19.84,6.88-6.59,13.44-13.5,19.32-22.01Z"/>
  <path class="cls-1" d="M556.61,790.35c-20.2,22.89-45.16,27.44-72.51,20.83-28.24-6.83-45.93-25.8-53.27-53.42-7.71-29.01-2.93-56.1,17.71-79,13.4-14.87,30.6-22.44,50.52-23.74,18.79-1.23,35.89,3.14,50.28,15.91,1.19,1.06,2.33,2.18,3.42,3.34,1.09,1.16,2.1,2.4,3.86,4.43,0-5.72.17-10.65-.06-15.56-.15-3.04.41-4.33,3.91-4.21,8.25.29,16.52.17,24.78.05,2.58-.04,3.8.3,3.79,3.46-.12,43.03-.08,86.06-.08,129.09,0,7.98-4.24,13.27-10.94,16.9-5.69,3.08-11.87,4.38-18.25,5.07-2.57.28-3.25-.42-3.19-2.93.15-6.48.05-12.96.05-20.23ZM508.17,685.17c-27.4.11-48.24,21.35-48.25,49.18-.02,28.08,20.69,48.9,48.77,49.03,27.49.13,48.56-21.9,48.33-50.55-.21-26.88-21.62-47.77-48.85-47.66Z"/>
  <path class="cls-1" d="M370.6,793.79c-20.2,21.97-44.6,23.83-70.33,16.35-22.77-6.62-32.9-24.49-36.77-46.64-1.1-6.29-1.33-12.66-1.34-19.03-.04-26.95.04-53.9-.09-80.85-.02-3.44.63-4.82,4.42-4.67,7.96.3,15.94.26,23.9.01,3.41-.11,4.35.83,4.33,4.3-.15,25.93-.07,51.87-.09,77.8,0,5.09.35,10.13,1.43,15.1,4.51,20.73,18.12,27.2,35.71,27.16,5.95-.01,11.81-.96,17.32-3.48,13.06-5.98,18.48-17.01,19.54-30.49.67-8.5.47-17.07.49-25.62.06-20.28.08-40.57-.05-60.85-.02-3,.74-4,3.84-3.92,7.82.22,15.66.27,23.47-.01,3.86-.14,5.09.78,5.08,4.91-.17,42.31-.1,84.61-.1,126.92,0,.43,0,.87,0,1.3.11,6.84-2.98,11.95-8.64,15.55-5.88,3.74-12.47,5.18-19.31,5.89-2.53.26-2.88-.83-2.84-2.95.1-5.33.03-10.67.03-16.79Z"/>
  <path class="cls-1" d="M887.24,814.54c-19.72-.54-35.79-11.46-48.42-28.46-3.29-4.42-5.97-9.22-8.33-14.2-.68-1.43-1.31-2.55.93-3.21,8.62-2.51,17.26-3.65,26.03-.79,3.65,1.19,6.75,3.26,9.43,5.99,2.74,2.79,5.57,5.49,8.89,7.61,7.96,5.09,18.07,4.9,25.69-.48,9.39-6.63,9.99-19.1.59-25.59-7.71-5.32-16.2-9.49-24.31-14.24-5.12-2.99-10.23-6-15.24-9.16-19.26-12.18-21.06-32.57-13.73-49.13,7.34-16.59,20.77-25.61,38.65-26.56,18.46-.99,33.5,6.38,44.2,21.86,1.07,1.55.93,2.42-.46,3.57-5.47,4.52-10.94,9.04-16.25,13.74-1.77,1.56-2.39.85-3.63-.59-4.16-4.8-9.13-8.4-15.57-9.62-6.14-1.17-11.47.53-16.12,4.48-4.67,3.97-5.26,9.31-1.65,14.28,3.15,4.34,7.68,6.93,12.28,9.43,7.5,4.07,15.59,6.91,22.93,11.32,6.74,4.05,13.11,8.58,18.26,14.56,14.24,16.55,12.58,42.27-3.81,59.17-10.42,10.75-23.27,15.82-40.37,16Z"/>
  <path class="cls-1" d="M623.45,704.25c0-34.93.05-69.86-.08-104.79-.01-3.45.91-4.38,4.32-4.27,7.97.26,15.95.24,23.91,0,3.23-.1,4.14.76,4.12,4.06-.14,26.52-.08,53.05-.08,79.57,0,36.96-.08,73.92.06,110.88.04,9.24-4.22,15.35-12.18,19.3-4.98,2.47-10.36,3.54-15.82,4.42-3.37.55-4.35-.4-4.34-3.95.14-35.08.08-70.15.08-105.23Z"/>
  <path class="cls-1" d="M997.5,793.2c-.06,10.45-7.49,17.78-17.86,17.62-10.2-.16-17.23-7.4-17.25-17.78-.02-10.53,7.26-17.92,17.61-17.87,10.33.05,17.56,7.49,17.49,18.02ZM966.19,792.97c0,8.18,5.81,14.21,13.71,14.22,7.93,0,13.78-5.99,13.8-14.16.02-8.14-5.84-14.21-13.75-14.23-7.91-.02-13.75,6-13.76,14.18Z"/>
  <path class="cls-1" d="M987.98,801.76c-4.72,1.65-5.15-2.28-6.86-4.48-.82-1.05-1.05-3.2-2.88-2.59-1.43.48-.56,2.27-.73,3.47-.1.71-.06,1.44-.02,2.16.07,1.27-.48,1.78-1.77,1.82-1.36.04-1.73-.58-1.73-1.8.03-5.34,0-10.67.04-16.01,0-.5.23-1.17.59-1.48,1.53-1.3,10.04-.02,11.5,1.65,2.02,2.31,1.73,6.25-1.12,8.83-1.35,1.21-1.26,1.88-.4,3.12,1.14,1.64,2.15,3.38,3.37,5.31ZM978.98,791.43c2.9-.33,4.8-.52,4.74-2.92-.06-2.65-2.16-2.59-4.08-2.78-2.27-.22-2.09,1.25-2.17,2.76-.11,1.95.35,3.16,1.51,2.93Z"/>
</svg>