<svg width="22" height="21" viewBox="0 0 22 21" fill="none" xmlns="http://www.w3.org/2000/svg">
<path d="M10.4617 1.75024C11.6224 1.75405 12.7708 1.98801 13.8405 2.43859C14.9102 2.88917 15.8799 3.54742 16.6935 4.37524H13.9617C13.7297 4.37524 13.5071 4.46743 13.343 4.63152C13.1789 4.79562 13.0867 5.01818 13.0867 5.25024C13.0867 5.48231 13.1789 5.70487 13.343 5.86896C13.5071 6.03305 13.7297 6.12524 13.9617 6.12524H17.5868C18.0177 6.12501 18.4309 5.95374 18.7356 5.64907C19.0402 5.3444 19.2115 4.93124 19.2117 4.50037V0.875242C19.2117 0.643177 19.1195 0.420617 18.9554 0.256523C18.7913 0.0924287 18.5688 0.000241469 18.3367 0.000241469C18.1047 0.000241469 17.8821 0.0924287 17.718 0.256523C17.5539 0.420617 17.4617 0.643177 17.4617 0.875242V2.69349C16.0155 1.39101 14.2352 0.51685 12.3203 0.168897C10.4054 -0.179056 8.4314 0.0129394 6.61941 0.723383C4.80743 1.43383 3.22899 2.63467 2.06086 4.19143C0.892731 5.74818 0.181037 7.59939 0.00547504 9.53774C-0.00582701 9.65959 0.00837634 9.78246 0.0471801 9.89852C0.0859839 10.0146 0.148537 10.1213 0.230854 10.2118C0.313172 10.3024 0.413448 10.3748 0.525293 10.4244C0.637139 10.4741 0.758102 10.4999 0.880475 10.5002C1.09449 10.503 1.30182 10.4257 1.46188 10.2836C1.62193 10.1415 1.7232 9.94482 1.74585 9.73199C1.94064 7.5539 2.94283 5.52736 4.55555 4.05048C6.16826 2.57359 8.27494 1.75312 10.4617 1.75024Z" fill="#04121E"/>
<path d="M20.5916 10.0001C20.3776 9.99734 20.1703 10.0746 20.0102 10.2167C19.8502 10.3588 19.7489 10.5555 19.7263 10.7683C19.5816 12.4337 18.9623 14.0225 17.9418 15.3465C16.9214 16.6705 15.5425 17.6739 13.9689 18.2378C12.3953 18.8017 10.6929 18.9024 9.06383 18.5279C7.43471 18.1534 5.9472 17.3195 4.77777 16.1251H7.50952C7.74159 16.1251 7.96415 16.0329 8.12824 15.8688C8.29233 15.7047 8.38452 15.4821 8.38452 15.2501C8.38452 15.018 8.29233 14.7954 8.12824 14.6314C7.96415 14.4673 7.74159 14.3751 7.50952 14.3751H3.8844C3.67098 14.375 3.45964 14.4169 3.26245 14.4985C3.06526 14.5801 2.88609 14.6998 2.73518 14.8507C2.58427 15.0016 2.46459 15.1808 2.38297 15.378C2.30136 15.5752 2.25941 15.7865 2.25952 15.9999V19.6251C2.25952 19.8571 2.35171 20.0797 2.5158 20.2438C2.6799 20.4079 2.90246 20.5001 3.13452 20.5001C3.36659 20.5001 3.58915 20.4079 3.75324 20.2438C3.91733 20.0797 4.00952 19.8571 4.00952 19.6251V17.8068C5.45575 19.1093 7.23601 19.9835 9.15094 20.3314C11.0659 20.6794 13.0398 20.4874 14.8518 19.7769C16.6638 19.0665 18.2423 17.8656 19.4104 16.3089C20.5785 14.7521 21.2902 12.9009 21.4658 10.9626C21.4771 10.8407 21.4629 10.7179 21.4241 10.6018C21.3853 10.4857 21.3227 10.379 21.2404 10.2885C21.1581 10.1979 21.0578 10.1255 20.946 10.0759C20.8341 10.0262 20.714 10.0004 20.5916 10.0001Z" fill="#04121E"/>
</svg>
