<svg width="16" height="20" viewBox="0 0 16 20" fill="none" xmlns="http://www.w3.org/2000/svg">
<path d="M13.5484 3.22559H13.4387V4.51591H13.5484C13.7195 4.51591 13.8836 4.58388 14.0046 4.70487C14.1256 4.82586 14.1935 4.98996 14.1935 5.16107V18.0643C14.1935 18.2354 14.1256 18.3995 14.0046 18.5205C13.8836 18.6415 13.7195 18.7095 13.5484 18.7095H1.93548C1.76438 18.7095 1.60028 18.6415 1.47929 18.5205C1.35829 18.3995 1.29032 18.2354 1.29032 18.0643V5.16107C1.29032 4.98996 1.35829 4.82586 1.47929 4.70487C1.60028 4.58388 1.76438 4.51591 1.93548 4.51591H2.04516V3.22559H1.93548C1.42216 3.22559 0.929864 3.4295 0.56689 3.79248C0.203917 4.15545 0 4.64775 0 5.16107V18.0643C0 18.5776 0.203917 19.0699 0.56689 19.4329C0.929864 19.7959 1.42216 19.9998 1.93548 19.9998H13.5484C14.0617 19.9998 14.554 19.7959 14.917 19.4329C15.28 19.0699 15.4839 18.5776 15.4839 18.0643V5.16107C15.4839 4.64775 15.28 4.15545 14.917 3.79248C14.554 3.4295 14.0617 3.22559 13.5484 3.22559Z" fill="#909090"/>
<path d="M12.2581 1.93548H10.3226V0H5.16131V1.93548H3.22583V5.80645H12.2581V1.93548ZM10.9678 4.51613H4.51615V3.22581H6.45164V1.29032H9.03228V3.22581H10.9678V4.51613Z" fill="#909090"/>
<path d="M3.87085 8.38672H11.6128V9.67704H3.87085V8.38672ZM3.87085 11.6125H11.6128V12.9028H3.87085V11.6125ZM3.87085 14.8383H11.6128V16.1287H3.87085V14.8383Z" fill="#909090"/>
</svg>
