<svg width="20" height="20" viewBox="0 0 20 20" fill="none" xmlns="http://www.w3.org/2000/svg">
<g clip-path="url(#clip0_1328_440)">
<path d="M9.738 6.8915C8.91347 6.8915 8.12272 7.21906 7.53969 7.80209C6.95665 8.38513 6.6291 9.17589 6.6291 10.0004C6.6291 10.825 6.95665 11.6157 7.53969 12.1988C8.12272 12.7818 8.91347 13.1093 9.738 13.1093C10.5625 13.1093 11.3533 12.7818 11.9364 12.1988C12.5194 11.6157 12.8469 10.825 12.8469 10.0004C12.8469 9.17589 12.5194 8.38513 11.9364 7.80209C11.3533 7.21906 10.5625 6.8915 9.738 6.8915ZM18.4634 7.7817L17.6216 8.47407C17.3965 8.65944 17.2152 8.89234 17.0908 9.15604C16.9664 9.41974 16.9018 9.7077 16.9018 9.99929C16.9018 10.2909 16.9664 10.5789 17.0908 10.8426C17.2152 11.1063 17.3965 11.3392 17.6216 11.5245L18.4634 12.2169C18.6083 12.3354 18.7063 12.5016 18.7396 12.6858C18.773 12.8699 18.7396 13.06 18.6455 13.2217L16.9832 16.1002C16.8901 16.2629 16.7421 16.387 16.5657 16.4503C16.3894 16.5135 16.1962 16.5118 16.021 16.4453L15.0005 16.0631C14.7273 15.9608 14.4349 15.9202 14.1443 15.9442C13.8536 15.9682 13.5718 16.0563 13.3192 16.2021C13.0666 16.3479 12.8495 16.5478 12.6833 16.7875C12.5171 17.0272 12.406 17.3007 12.358 17.5884L12.1793 18.664C12.1493 18.849 12.0542 19.0173 11.9112 19.1384C11.7682 19.2596 11.5867 19.3257 11.3992 19.3249H8.07564C7.88821 19.3257 7.70667 19.2596 7.56367 19.1384C7.42066 19.0173 7.32559 18.849 7.2956 18.664L7.11689 17.5884C7.06892 17.3007 6.95785 17.0272 6.79165 16.7875C6.62546 16.5478 6.40825 16.3479 6.15564 16.2021C5.90304 16.0563 5.62128 15.9682 5.3306 15.9442C5.03993 15.9202 4.74757 15.9608 4.47445 16.0631L3.45386 16.4453C3.27867 16.5118 3.08554 16.5135 2.90916 16.4503C2.73278 16.387 2.58476 16.2629 2.49175 16.1002L0.829389 13.2217C0.735261 13.06 0.701895 12.8699 0.735267 12.6858C0.76864 12.5016 0.86655 12.3354 1.01146 12.2169L1.85334 11.5245C2.07842 11.3392 2.25968 11.1063 2.38411 10.8426C2.50855 10.5789 2.57308 10.2909 2.57308 9.99929C2.57308 9.7077 2.50855 9.41974 2.38411 9.15604C2.25968 8.89234 2.07842 8.65944 1.85334 8.47407L1.01146 7.7817C0.86655 7.66324 0.76864 7.49701 0.735267 7.31284C0.701895 7.12867 0.735261 6.93863 0.829389 6.77685L2.49175 3.89837C2.58476 3.73571 2.73278 3.61158 2.90916 3.54833C3.08554 3.48507 3.27867 3.48683 3.45386 3.5533L4.47445 3.93545C4.74757 4.0378 5.03993 4.07844 5.3306 4.05442C5.62128 4.0304 5.90304 3.94232 6.15564 3.79651C6.40825 3.65071 6.62546 3.45078 6.79165 3.2111C6.95785 2.97141 7.06892 2.69791 7.11689 2.41022L7.2956 1.33457C7.32583 1.14976 7.42099 0.981797 7.56397 0.860861C7.70695 0.739925 7.88838 0.673962 8.07564 0.674813H11.3992C11.5865 0.673962 11.7679 0.739925 11.9109 0.860861C12.0539 0.981797 12.149 1.14976 12.1793 1.33457L12.358 2.41022C12.406 2.69791 12.5171 2.97141 12.6833 3.2111C12.8495 3.45078 13.0666 3.65071 13.3192 3.79651C13.5718 3.94232 13.8536 4.0304 14.1443 4.05442C14.4349 4.07844 14.7273 4.0378 15.0005 3.93545L16.021 3.5533C16.1962 3.48683 16.3894 3.48507 16.5657 3.54833C16.7421 3.61158 16.8901 3.73571 16.9832 3.89837L18.6455 6.77685C18.7393 6.939 18.7721 7.12928 18.7381 7.31347C18.7041 7.49767 18.6055 7.6637 18.4601 7.7817H18.4634Z" stroke="#F8F7FB" stroke-width="1.2" stroke-miterlimit="10" stroke-linecap="round" stroke-linejoin="round"/>
</g>
<defs>
<clipPath id="clip0_1328_440">
<rect width="19.4695" height="20" fill="white"/>
</clipPath>
</defs>
</svg>
