<svg width="20" height="20" viewBox="0 0 20 20" fill="none" xmlns="http://www.w3.org/2000/svg">
<g clip-path="url(#clip0_1_953)">
<path d="M9.738 6.89114C8.91347 6.89114 8.12272 7.21869 7.53969 7.80173C6.95665 8.38476 6.6291 9.17552 6.6291 10.0001C6.6291 10.8246 6.95665 11.6154 7.53969 12.1984C8.12272 12.7814 8.91347 13.109 9.738 13.109C10.5625 13.109 11.3533 12.7814 11.9364 12.1984C12.5194 11.6154 12.8469 10.8246 12.8469 10.0001C12.8469 9.17552 12.5194 8.38476 11.9364 7.80173C11.3533 7.21869 10.5625 6.89114 9.738 6.89114ZM18.4634 7.78133L17.6216 8.4737C17.3965 8.65907 17.2152 8.89197 17.0908 9.15567C16.9664 9.41937 16.9018 9.70734 16.9018 9.99893C16.9018 10.2905 16.9664 10.5785 17.0908 10.8422C17.2152 11.1059 17.3965 11.3388 17.6216 11.5242L18.4634 12.2165C18.6083 12.335 18.7063 12.5012 18.7396 12.6854C18.773 12.8696 18.7396 13.0596 18.6455 13.2214L16.9832 16.0999C16.8901 16.2625 16.7421 16.3867 16.5657 16.4499C16.3894 16.5132 16.1962 16.5114 16.021 16.4449L15.0005 16.0628C14.7273 15.9604 14.4349 15.9198 14.1443 15.9438C13.8536 15.9678 13.5718 16.0559 13.3192 16.2017C13.0666 16.3475 12.8495 16.5474 12.6833 16.7871C12.5171 17.0268 12.406 17.3003 12.358 17.588L12.1793 18.6636C12.1493 18.8487 12.0542 19.0169 11.9112 19.1381C11.7682 19.2592 11.5867 19.3253 11.3992 19.3245H8.07564C7.88821 19.3253 7.70667 19.2592 7.56367 19.1381C7.42066 19.0169 7.32559 18.8487 7.2956 18.6636L7.11689 17.588C7.06892 17.3003 6.95785 17.0268 6.79165 16.7871C6.62546 16.5474 6.40825 16.3475 6.15564 16.2017C5.90304 16.0559 5.62128 15.9678 5.3306 15.9438C5.03993 15.9198 4.74757 15.9604 4.47445 16.0628L3.45386 16.4449C3.27867 16.5114 3.08554 16.5132 2.90916 16.4499C2.73278 16.3867 2.58476 16.2625 2.49175 16.0999L0.829389 13.2214C0.735261 13.0596 0.701895 12.8696 0.735267 12.6854C0.76864 12.5012 0.86655 12.335 1.01146 12.2165L1.85334 11.5242C2.07842 11.3388 2.25968 11.1059 2.38411 10.8422C2.50855 10.5785 2.57308 10.2905 2.57308 9.99893C2.57308 9.70734 2.50855 9.41937 2.38411 9.15567C2.25968 8.89197 2.07842 8.65907 1.85334 8.4737L1.01146 7.78133C0.86655 7.66288 0.76864 7.49664 0.735267 7.31247C0.701895 7.12831 0.735261 6.93826 0.829389 6.77649L2.49175 3.898C2.58476 3.73534 2.73278 3.61122 2.90916 3.54796C3.08554 3.4847 3.27867 3.48646 3.45386 3.55293L4.47445 3.93508C4.74757 4.03744 5.03993 4.07808 5.3306 4.05405C5.62128 4.03003 5.90304 3.94195 6.15564 3.79614C6.40825 3.65034 6.62546 3.45041 6.79165 3.21073C6.95785 2.97105 7.06892 2.69755 7.11689 2.40985L7.2956 1.33421C7.32583 1.1494 7.42099 0.981431 7.56397 0.860495C7.70695 0.739559 7.88838 0.673596 8.07564 0.674447H11.3992C11.5865 0.673596 11.7679 0.739559 11.9109 0.860495C12.0539 0.981431 12.149 1.1494 12.1793 1.33421L12.358 2.40985C12.406 2.69755 12.5171 2.97105 12.6833 3.21073C12.8495 3.45041 13.0666 3.65034 13.3192 3.79614C13.5718 3.94195 13.8536 4.03003 14.1443 4.05405C14.4349 4.07808 14.7273 4.03744 15.0005 3.93508L16.021 3.55293C16.1962 3.48646 16.3894 3.4847 16.5657 3.54796C16.7421 3.61122 16.8901 3.73534 16.9832 3.898L18.6455 6.77649C18.7393 6.93864 18.7721 7.12892 18.7381 7.31311C18.7041 7.4973 18.6055 7.66333 18.4601 7.78133H18.4634Z" stroke="#909090" stroke-width="1.2" stroke-miterlimit="10" stroke-linecap="round" stroke-linejoin="round"/>
</g>
<defs>
<clipPath id="clip0_1_953">
<rect width="19.4695" height="20" fill="white"/>
</clipPath>
</defs>
</svg>
