<svg width="18" height="18" viewBox="0 0 18 18" fill="none" xmlns="http://www.w3.org/2000/svg">
<path d="M8.66402 6.13097C7.93043 6.13097 7.22691 6.4224 6.70818 6.94112C6.18945 7.45985 5.89803 8.16339 5.89803 8.89698C5.89803 9.63057 6.18945 10.3341 6.70818 10.8528C7.22691 11.3716 7.93043 11.663 8.66402 11.663C9.39761 11.663 10.1012 11.3716 10.6199 10.8528C11.1386 10.3341 11.43 9.63057 11.43 8.89698C11.43 8.16339 11.1386 7.45985 10.6199 6.94112C10.1012 6.4224 9.39761 6.13097 8.66402 6.13097ZM16.427 6.92298L15.678 7.53898C15.4778 7.70391 15.3165 7.91111 15.2058 8.14573C15.0951 8.38034 15.0377 8.63655 15.0377 8.89597C15.0377 9.1554 15.0951 9.41162 15.2058 9.64623C15.3165 9.88085 15.4778 10.0881 15.678 10.253L16.427 10.869C16.5559 10.9744 16.6431 11.1223 16.6728 11.2861C16.7025 11.45 16.6728 11.619 16.589 11.763L15.11 14.324C15.0273 14.4687 14.8956 14.5791 14.7387 14.6354C14.5817 14.6917 14.4099 14.6901 14.254 14.631L13.346 14.291C13.103 14.1999 12.8429 14.1638 12.5843 14.1851C12.3257 14.2065 12.075 14.2849 11.8502 14.4146C11.6255 14.5443 11.4323 14.7222 11.2844 14.9354C11.1365 15.1487 11.0377 15.392 10.995 15.648L10.836 16.605C10.8093 16.7696 10.7248 16.9193 10.5976 17.0271C10.4703 17.1349 10.3088 17.1937 10.142 17.193H7.18502C7.01826 17.1937 6.85674 17.1349 6.72951 17.0271C6.60228 16.9193 6.5177 16.7696 6.49102 16.605L6.33202 15.648C6.28933 15.392 6.19052 15.1487 6.04265 14.9354C5.89479 14.7222 5.70154 14.5443 5.4768 14.4146C5.25205 14.2849 5.00137 14.2065 4.74276 14.1851C4.48414 14.1638 4.22403 14.1999 3.98104 14.291L3.07302 14.631C2.91715 14.6901 2.74532 14.6917 2.5884 14.6354C2.43148 14.5791 2.29978 14.4687 2.21703 14.324L0.738027 11.763C0.654281 11.619 0.624595 11.45 0.654286 11.2861C0.683978 11.1223 0.771089 10.9744 0.900014 10.869L1.64904 10.253C1.84929 10.0881 2.01055 9.88085 2.12127 9.64623C2.23198 9.41162 2.28939 9.1554 2.28939 8.89597C2.28939 8.63655 2.23198 8.38034 2.12127 8.14573C2.01055 7.91111 1.84929 7.70391 1.64904 7.53898L0.900014 6.92298C0.771089 6.81759 0.683978 6.66969 0.654286 6.50584C0.624595 6.34198 0.654281 6.1729 0.738027 6.02897L2.21703 3.46798C2.29978 3.32326 2.43148 3.21283 2.5884 3.15655C2.74532 3.10027 2.91715 3.10183 3.07302 3.16097L3.98104 3.50097C4.22403 3.59204 4.48414 3.62819 4.74276 3.60682C5.00137 3.58545 5.25205 3.50708 5.4768 3.37736C5.70154 3.24763 5.89479 3.06976 6.04265 2.85651C6.19052 2.64327 6.28933 2.39993 6.33202 2.14397L6.49102 1.18697C6.51791 1.02255 6.60258 0.873107 6.72979 0.76551C6.857 0.657914 7.01841 0.599226 7.18502 0.599983H10.142C10.3086 0.599226 10.47 0.657914 10.5972 0.76551C10.7245 0.873107 10.8091 1.02255 10.836 1.18697L10.995 2.14397C11.0377 2.39993 11.1365 2.64327 11.2844 2.85651C11.4323 3.06976 11.6255 3.24763 11.8502 3.37736C12.075 3.50708 12.3257 3.58545 12.5843 3.60682C12.8429 3.62819 13.103 3.59204 13.346 3.50097L14.254 3.16097C14.4099 3.10183 14.5817 3.10027 14.7387 3.15655C14.8956 3.21283 15.0273 3.32326 15.11 3.46798L16.589 6.02897C16.6725 6.17323 16.7017 6.34253 16.6714 6.5064C16.6412 6.67028 16.5534 6.818 16.424 6.92298H16.427Z" stroke="#131819" stroke-width="1.2" stroke-miterlimit="10" stroke-linecap="round" stroke-linejoin="round"/>
</svg>
