<svg width="100" height="16" viewBox="0 0 100 16" fill="none" xmlns="http://www.w3.org/2000/svg">
<path d="M21.8333 11.5687C21.8355 12.4988 21.3998 12.8031 20.6664 12.6575C18.9887 12.3239 17.3099 11.974 15.6149 11.7502C15.0694 11.6785 14.4381 11.9001 13.9112 12.1316C13.1712 12.4576 12.4791 12.8987 11.7902 13.3279C11.2045 13.693 10.6612 13.7169 10.0701 13.3431C9.50621 12.9867 8.88904 12.7118 8.33706 12.3391C7.42108 11.7209 6.43013 11.622 5.38594 11.8208C3.88104 12.1077 2.37941 12.4097 0.877768 12.7129C0.41815 12.8053 0.208442 12.6542 0.0541492 12.0457C-0.0403823 11.6709 -0.0675465 11.3221 0.458353 11.2297C2.46199 10.8777 4.45149 10.3942 6.46925 10.191C8.61957 9.97474 10.7992 9.91498 12.9604 9.97475C15.7942 10.053 18.5997 10.4615 21.3379 11.2363C21.5519 11.2971 21.7268 11.4927 21.8344 11.5677L21.8333 11.5687Z" fill="#0770E3"/>
<path d="M31.042 5.65132C30.6378 4.80923 29.9902 4.45392 29.0938 4.5528C28.5679 4.61039 28.1484 4.7875 27.9898 5.34056C27.8366 5.87081 28.0637 6.29457 28.4853 6.54448C28.959 6.8259 29.5034 6.98997 30.0152 7.20946C30.478 7.4083 30.9637 7.5702 31.3951 7.82446C32.3176 8.36666 32.8685 9.17941 32.7805 10.2703C32.6838 11.4677 31.9884 12.2609 30.8442 12.6173C29.2546 13.1117 27.7671 12.9476 26.5023 11.7774C26.235 11.5307 26.0568 11.1885 25.8069 10.8484C26.2643 10.5713 26.6359 10.316 27.0369 10.1225C27.1412 10.0726 27.4313 10.1725 27.4802 10.2758C27.9659 11.3134 29.0959 11.3873 30.1792 11.1591C30.6704 11.0559 30.9561 10.6941 31.005 10.2008C31.0518 9.72704 30.829 9.33696 30.4063 9.13812C29.837 8.87082 29.2339 8.67633 28.6504 8.43837C28.2332 8.26886 27.7997 8.11892 27.4172 7.88965C26.4512 7.31051 26.0698 6.41083 26.1796 5.31883C26.2828 4.29202 26.8848 3.60531 27.8203 3.21306C29.4328 2.53721 31.231 2.98705 32.1622 4.26051C32.436 4.63429 32.5056 4.91463 31.9916 5.13303C31.682 5.2645 31.3973 5.45356 31.0441 5.64915L31.042 5.65132Z" fill="#0770E3"/>
<path d="M35.9109 8.56431C36.0196 8.43501 36.1358 8.31223 36.2358 8.1764C36.74 7.49621 37.2528 6.82145 37.7342 6.12496C37.9297 5.84137 38.146 5.71098 38.4948 5.73054C38.9576 5.75553 39.4238 5.73706 40.0518 5.73706C39.8139 6.06086 39.6693 6.27165 39.5096 6.46941C38.9555 7.1572 38.4057 7.84826 37.8352 8.52302C37.6157 8.78271 37.581 9.00546 37.7841 9.28796C38.0156 9.6085 38.2144 9.95294 38.4317 10.2843C39.1087 11.3166 39.4987 11.4405 40.6994 10.97C40.8733 11.2405 41.0982 11.5057 41.2177 11.8121C41.2709 11.949 41.1699 12.2282 41.046 12.338C40.0225 13.2431 38.3242 13.0127 37.5136 11.8577C37.0692 11.2242 36.6748 10.556 36.251 9.90731C36.1521 9.75519 36.025 9.62154 35.7859 9.52375C35.7707 9.69217 35.7436 9.86059 35.7425 10.0301C35.7371 10.5516 35.7457 11.0743 35.7392 11.5958C35.724 12.9041 35.9392 12.7487 34.4886 12.7682C34.1094 12.7737 33.9703 12.615 33.9844 12.25C34.0007 11.8186 33.9877 11.3861 33.9877 10.9537C33.9877 8.43392 33.9985 5.91417 33.9779 3.39442C33.9735 2.89351 34.0963 2.68271 34.6407 2.70119C35.8805 2.74356 35.7284 2.58601 35.7338 3.81492C35.7392 5.18291 35.7349 6.5509 35.7349 7.91889C35.7349 8.1123 35.7349 8.30462 35.7349 8.49803C35.7936 8.51976 35.8522 8.54149 35.9109 8.56322V8.56431Z" fill="#0770E3"/>
<path d="M67.5441 6.62701C67.7658 5.73059 67.7658 5.75341 68.7274 5.72733C69.2109 5.71429 69.4 5.84142 69.3924 6.35971C69.3652 8.28511 69.3663 10.2105 69.3924 12.1359C69.3989 12.6488 69.2109 12.7857 68.7263 12.7737C67.7462 12.7498 67.7462 12.7716 67.5637 11.7687C65.66 13.3811 63.8389 13.3703 62.3536 11.309C61.3442 9.90953 61.6147 7.63534 62.7371 6.54986C63.401 5.9077 64.1997 5.5839 65.1395 5.60998C65.9034 5.63062 65.9034 5.61759 67.5463 6.62701H67.5441ZM67.6387 9.31301C67.6387 7.9222 66.8183 6.99753 65.5698 6.98232C64.354 6.96819 63.5184 7.87222 63.5206 9.2C63.5227 10.5484 64.3963 11.4688 65.6676 11.4612C66.8596 11.4546 67.6376 10.606 67.6387 9.31192V9.31301Z" fill="#0770E3"/>
<path d="M94.1837 11.4612C93.7741 12.0382 93.2025 12.3848 92.5462 12.614C90.7523 13.2421 88.7487 12.7792 87.7078 11.4416C86.8363 10.3225 86.7125 9.05661 87.2786 7.77881C87.8479 6.49557 88.8975 5.77518 90.3025 5.63283C91.5651 5.50571 92.7081 5.78278 93.6089 6.752C94.2576 7.44958 94.4619 8.31557 94.564 9.22068C94.6096 9.62271 94.3467 9.64119 94.0468 9.6401C92.4919 9.63467 90.937 9.63358 89.3832 9.64336C89.179 9.64445 88.9758 9.72051 88.7715 9.76179C88.8291 9.99541 88.8345 10.2605 88.954 10.4572C89.5506 11.4329 91.1913 11.7524 92.3648 11.1461C93.1786 10.7256 93.3872 10.7593 94.1848 11.4623L94.1837 11.4612ZM92.7081 8.62198C92.7396 7.95483 92.3919 7.52998 91.8965 7.24422C91.1511 6.81611 90.3709 6.82045 89.6386 7.29311C89.18 7.58975 88.8367 7.98526 88.8356 8.62198H92.7081Z" fill="#0770E3"/>
<path d="M72.7988 6.61618C73.3269 6.30216 73.805 5.88057 74.3602 5.71541C76.002 5.22646 77.3537 6.0968 77.5058 7.78967C77.6416 9.30652 77.6025 10.8397 77.621 12.3652C77.6221 12.4902 77.4841 12.7183 77.3961 12.726C76.9669 12.7629 76.529 12.7683 76.1031 12.7151C76.0129 12.7042 75.8999 12.4032 75.8966 12.2337C75.8781 11.1548 75.8934 10.0747 75.8814 8.99577C75.8781 8.71108 75.8336 8.42423 75.7803 8.1439C75.675 7.5854 75.3696 7.16164 74.7905 7.06059C74.1331 6.9465 73.4866 7.05733 73.1356 7.69188C72.927 8.07001 72.7847 8.52854 72.764 8.95774C72.7119 10.0345 72.7336 11.1157 72.7532 12.1946C72.7608 12.6075 72.6271 12.7781 72.1936 12.7694C70.8191 12.7444 71.0071 12.8889 71.0016 11.5905C70.994 9.84546 71.0179 8.10043 70.9886 6.35649C70.9799 5.84254 71.157 5.71216 71.6438 5.72519C72.6467 5.75344 72.6478 5.73063 72.7977 6.61401L72.7988 6.61618Z" fill="#0770E3"/>
<path d="M81.0045 6.73997C81.1197 6.64978 81.199 6.60849 81.2511 6.54439C82.0715 5.53388 83.1592 5.39262 84.2903 5.77184C85.3486 6.12714 85.6985 7.09419 85.7528 8.09709C85.8278 9.49551 85.7789 10.9015 85.7919 12.3032C85.7952 12.6607 85.6224 12.7574 85.291 12.7693C84.0295 12.8139 84.0306 12.8226 84.0306 11.5795C84.0306 10.6082 84.036 9.63785 84.0284 8.66645C84.0219 7.76786 83.571 7.12244 82.9136 7.04203C81.9259 6.92251 81.1707 7.39843 81.023 8.38286C80.8958 9.2293 80.9328 10.0996 80.9034 10.9591C80.8926 11.2644 80.9024 11.5709 80.9013 11.8762C80.9013 12.468 80.6068 12.7639 80.0179 12.7639C79.429 12.7639 79.1381 12.4742 79.1454 11.8946C79.1454 10.0605 79.1628 8.22639 79.1345 6.39227C79.1269 5.86202 79.3073 5.70773 79.8223 5.72511C80.7481 5.75662 80.7481 5.73055 81.0034 6.73779L81.0045 6.73997Z" fill="#0770E3"/>
<path d="M42.2434 15.9161C42.6519 14.9599 42.9692 14.0809 43.3962 13.2595C43.7483 12.5825 43.7005 12.0208 43.3669 11.3471C42.5444 9.68683 41.8055 7.98743 41.034 6.30216C40.9678 6.15765 40.9189 6.00662 40.8232 5.75779C41.4535 5.75779 42.0206 5.73063 42.5813 5.77844C42.7052 5.7893 42.8443 6.04791 42.9138 6.2185C43.3843 7.38547 43.8363 8.56114 44.2981 9.73138C44.3752 9.92696 44.4709 10.1149 44.6186 10.4398C44.761 10.141 44.8609 9.96607 44.9316 9.77918C45.3792 8.60352 45.8302 7.42785 46.2572 6.24458C46.393 5.86754 46.5951 5.6926 47.0123 5.72846C47.4198 5.76214 47.8338 5.73606 48.3466 5.73606C48.2521 6.00445 48.201 6.18482 48.1261 6.35541C46.8211 9.33804 45.502 12.3141 44.2166 15.3055C44.0134 15.7792 43.7581 15.9857 43.2474 15.9226C42.9518 15.8868 42.6487 15.9161 42.2434 15.9161Z" fill="#0770E3"/>
<path d="M60.614 7.66906C58.7657 6.90412 57.5607 7.00734 56.8316 7.95809C56.3275 8.61655 56.3231 9.76179 56.8229 10.4409C57.5401 11.4156 58.6571 11.5177 60.5662 10.7766C60.6042 10.8049 60.6585 10.8288 60.6857 10.8701C61.4235 11.9958 61.3746 12.1327 60.0805 12.589C58.0921 13.2899 56.0037 12.6455 55.1268 10.9755C53.8935 8.62416 55.3517 5.72954 58.1779 5.61871C59.1417 5.58068 60.0392 5.72845 60.878 6.22936C61.1986 6.42059 61.2822 6.59553 61.0671 6.90955C60.9063 7.14425 60.7737 7.39742 60.614 7.66906Z" fill="#0770E3"/>
<path d="M53.6242 6.85191C53.3113 7.03011 52.9983 7.23765 52.6593 7.38542C52.5594 7.42888 52.3442 7.34956 52.254 7.25612C51.9248 6.91493 51.5032 6.84431 51.1066 6.95948C50.8393 7.03663 50.5351 7.2898 50.4395 7.53754C50.3819 7.68857 50.6437 8.04388 50.848 8.18948C51.1186 8.3818 51.4739 8.45352 51.7901 8.5839C52.1399 8.72733 52.4953 8.86207 52.8354 9.02831C53.5514 9.37819 53.9904 9.89974 53.9947 10.7527C53.9991 11.6035 53.5731 12.1685 52.8636 12.5042C51.5738 13.1138 50.3058 12.9823 49.1182 12.2011C48.9291 12.0772 48.7933 11.8686 48.6466 11.6882C48.4206 11.4112 48.4152 11.1873 48.7955 11.0233C49.0726 10.9037 49.329 10.7364 49.4561 10.6669C49.9918 10.983 50.4199 11.246 50.8611 11.4872C50.9632 11.5426 51.1121 11.5513 51.2305 11.5318C51.6705 11.4557 52.2062 11.4448 52.3008 10.8896C52.3953 10.3387 51.9009 10.1888 51.5043 10.0214C51.0892 9.8465 50.6666 9.69003 50.2461 9.52596C49.1399 9.09242 48.6488 8.38289 48.7509 7.36477C48.8346 6.5292 49.6028 5.79577 50.6655 5.6556C51.6684 5.52304 52.6648 5.54912 53.4091 6.40859C53.4677 6.47596 53.5188 6.55093 53.5623 6.62808C53.5873 6.67263 53.5916 6.72913 53.6253 6.85191H53.6242Z" fill="#0770E3"/>
<path d="M97.6454 7.09965C97.7334 6.93123 97.7867 6.72696 97.9171 6.602C98.2463 6.28581 98.5669 5.91094 98.9689 5.73057C99.7697 5.36983 99.9989 5.55998 100 6.4238C100 6.69001 100 6.95514 100 7.26155C99.8023 7.26155 99.6643 7.2659 99.5274 7.26155C98.2278 7.21483 97.5433 7.84395 97.5129 9.15652C97.4901 10.1627 97.4911 11.1699 97.5129 12.175C97.5227 12.6162 97.3771 12.7824 96.9218 12.7726C95.5994 12.7444 95.7592 12.8867 95.7559 11.6209C95.7505 9.87801 95.7733 8.13406 95.7439 6.39121C95.7352 5.8577 95.9221 5.7121 96.4339 5.72623C97.6367 5.75991 97.4977 5.64474 97.5009 6.75629C97.5009 6.86061 97.5227 6.96492 97.5335 7.06923C97.5716 7.07901 97.6085 7.08878 97.6465 7.09965H97.6454Z" fill="#0770E3"/>
<path d="M16.3299 8.76976C16.0974 8.53397 15.7899 8.33513 15.6508 8.05371C15.4531 7.65385 15.6324 7.27247 16.0148 7.03994C16.645 6.65638 17.2894 6.29564 17.9294 5.9273C18.4596 5.62197 18.9964 5.32751 19.519 5.00914C19.8287 4.82117 20.0732 4.87224 20.2601 5.15692C20.4165 5.39488 20.586 5.64261 20.6577 5.90991C20.7001 6.06964 20.6251 6.37388 20.5024 6.44776C19.2832 7.17794 18.0435 7.87443 16.8059 8.57418C16.7005 8.63394 16.569 8.6448 16.4484 8.67849C16.4093 8.70891 16.3691 8.73933 16.3299 8.76867V8.76976Z" fill="#0770E3"/>
<path d="M6.22262 7.7571C6.20306 8.44598 5.61414 8.873 5.05673 8.57637C3.79849 7.90596 2.56632 7.18665 1.34502 6.45213C1.21463 6.37389 1.16899 6.06096 1.1842 5.86429C1.19833 5.68175 1.33741 5.50573 1.43629 5.33405C1.68511 4.90159 1.985 4.78968 2.45658 5.07871C3.51924 5.72847 4.60689 6.33586 5.68803 6.95412C6.02487 7.14644 6.26934 7.38549 6.22371 7.7571H6.22262Z" fill="#0770E3"/>
<path d="M7.47983 6.28796C7.38204 6.20864 7.08975 6.06956 6.94959 5.83812C6.25527 4.70157 5.60659 3.53677 4.92965 2.38935C4.74602 2.07859 4.7884 1.84498 5.08503 1.65701C5.298 1.52227 5.51749 1.3984 5.74132 1.28105C6.03035 1.12893 6.25853 1.1963 6.42477 1.48424C7.09953 2.65339 7.79602 3.81167 8.44905 4.99277C8.82392 5.67079 8.41754 6.32164 7.47983 6.28687V6.28796Z" fill="#0770E3"/>
<path d="M14.122 6.29777C13.381 6.28474 13.0322 5.63171 13.3995 4.96673C13.9743 3.92688 14.5882 2.90985 15.1847 1.88196C15.2032 1.85045 15.2206 1.81894 15.239 1.78851C15.6508 1.09311 15.7747 1.06051 16.4625 1.46254C17.1014 1.83524 17.1373 1.95802 16.7711 2.59692C16.1713 3.64329 15.565 4.68531 14.9674 5.73276C14.7664 6.08372 14.5176 6.34558 14.122 6.29886V6.29777Z" fill="#0770E3"/>
<path d="M11.7533 2.59042C11.7533 3.25649 11.7652 3.92255 11.75 4.58753C11.737 5.1482 11.436 5.44592 10.9275 5.44918C10.394 5.45244 10.0952 5.18841 10.0865 4.61361C10.0658 3.24671 10.0778 1.87872 10.0745 0.511816C10.0745 0.17498 10.2527 0.0196004 10.5743 0.00656154C10.7732 -0.00104444 10.972 0.0011287 11.1709 4.21277e-05C11.5718 -0.00321758 11.7674 0.182586 11.7609 0.594395C11.75 1.25938 11.7576 1.92544 11.7576 2.59151C11.7576 2.59151 11.7554 2.59151 11.7544 2.59151L11.7533 2.59042Z" fill="#0770E3"/>
</svg>
