<svg width="690" height="475" viewBox="0 0 690 475" fill="none" xmlns="http://www.w3.org/2000/svg">
<path d="M82.036 242.881C79.54 242.881 77.284 242.341 75.268 241.261C73.252 240.157 71.668 238.609 70.516 236.617C69.364 234.625 68.788 232.345 68.788 229.777C68.788 227.209 69.364 224.929 70.516 222.937C71.668 220.945 73.252 219.397 75.268 218.293C77.284 217.189 79.54 216.637 82.036 216.637C84.532 216.637 86.788 217.189 88.804 218.293C90.82 219.397 92.404 220.945 93.556 222.937C94.708 224.929 95.284 227.209 95.284 229.777C95.284 232.345 94.708 234.625 93.556 236.617C92.404 238.609 90.82 240.157 88.804 241.261C86.788 242.341 84.532 242.881 82.036 242.881ZM82.036 239.569C83.812 239.569 85.42 239.173 86.86 238.381C88.324 237.565 89.476 236.425 90.316 234.961C91.156 233.473 91.576 231.745 91.576 229.777C91.576 227.833 91.156 226.129 90.316 224.665C89.5 223.177 88.372 222.037 86.932 221.245C85.492 220.429 83.884 220.021 82.108 220.021C80.308 220.021 78.676 220.417 77.212 221.209C75.772 222.001 74.62 223.141 73.756 224.629C72.916 226.117 72.496 227.833 72.496 229.777C72.496 231.745 72.916 233.473 73.756 234.961C74.596 236.425 75.736 237.565 77.176 238.381C78.64 239.173 80.26 239.569 82.036 239.569ZM107.831 242.881C105.887 242.881 104.171 242.521 102.683 241.801C101.219 241.057 100.067 240.001 99.2268 238.633C98.4108 237.241 98.0028 235.609 98.0028 233.737C98.0028 231.889 98.4108 230.269 99.2268 228.877C100.043 227.485 101.195 226.417 102.683 225.673C104.171 224.905 105.887 224.521 107.831 224.521C109.775 224.521 111.491 224.905 112.979 225.673C114.467 226.417 115.619 227.485 116.435 228.877C117.275 230.269 117.695 231.889 117.695 233.737C117.695 235.609 117.275 237.241 116.435 238.633C115.619 240.001 114.467 241.057 112.979 241.801C111.491 242.521 109.775 242.881 107.831 242.881ZM107.831 240.001C109.703 240.001 111.191 239.425 112.295 238.273C113.399 237.121 113.951 235.609 113.951 233.737C113.951 231.793 113.399 230.257 112.295 229.129C111.191 228.001 109.703 227.437 107.831 227.437C105.959 227.437 104.471 228.001 103.367 229.129C102.263 230.257 101.711 231.793 101.711 233.737C101.711 235.609 102.263 237.121 103.367 238.273C104.471 239.425 105.959 240.001 107.831 240.001ZM121.645 225.061H125.173V227.617C126.949 225.553 129.349 224.521 132.373 224.521C134.101 224.521 135.649 224.905 137.017 225.673C138.409 226.441 139.489 227.521 140.257 228.913C141.049 230.281 141.445 231.877 141.445 233.701C141.445 235.501 141.049 237.097 140.257 238.489C139.489 239.881 138.421 240.961 137.053 241.729C135.685 242.497 134.125 242.881 132.373 242.881C130.933 242.881 129.589 242.641 128.341 242.161C127.093 241.681 126.073 240.973 125.281 240.037V250.225H121.645V225.061ZM131.545 240.001C132.721 240.001 133.777 239.749 134.713 239.245C135.673 238.717 136.417 237.973 136.945 237.013C137.497 236.053 137.773 234.949 137.773 233.701C137.773 232.453 137.497 231.361 136.945 230.425C136.417 229.465 135.673 228.733 134.713 228.229C133.777 227.701 132.721 227.437 131.545 227.437C130.081 227.437 128.785 227.821 127.657 228.589C126.553 229.357 125.761 230.413 125.281 231.757V235.645C125.689 236.965 126.469 238.021 127.621 238.813C128.773 239.605 130.081 240.001 131.545 240.001ZM151.255 242.881C150.055 242.881 148.783 242.725 147.439 242.413C146.095 242.125 145.039 241.729 144.271 241.225V238.129C145.207 238.681 146.287 239.137 147.511 239.497C148.735 239.833 149.923 240.001 151.075 240.001C152.371 240.001 153.319 239.845 153.919 239.533C154.519 239.221 154.819 238.717 154.819 238.021C154.819 237.493 154.675 237.073 154.387 236.761C154.123 236.425 153.655 236.125 152.983 235.861C152.335 235.597 151.351 235.285 150.031 234.925C148.615 234.517 147.487 234.109 146.647 233.701C145.831 233.269 145.207 232.729 144.775 232.081C144.367 231.433 144.163 230.593 144.163 229.561C144.163 227.905 144.811 226.657 146.107 225.817C147.427 224.953 149.191 224.521 151.399 224.521C152.551 224.521 153.679 224.629 154.783 224.845C155.887 225.061 156.775 225.361 157.447 225.745V228.769C156.751 228.361 155.887 228.037 154.855 227.797C153.847 227.557 152.815 227.437 151.759 227.437C150.487 227.437 149.515 227.593 148.843 227.905C148.171 228.217 147.835 228.769 147.835 229.561C147.835 230.065 147.979 230.473 148.267 230.785C148.555 231.097 149.011 231.373 149.635 231.613C150.283 231.829 151.303 232.117 152.695 232.477C154.879 233.077 156.391 233.785 157.231 234.601C158.095 235.417 158.527 236.545 158.527 237.985C158.527 239.473 157.915 240.661 156.691 241.549C155.467 242.437 153.655 242.881 151.255 242.881ZM162.172 217.177H165.7V235.141H162.172V217.177ZM163.9 242.881C163.3 242.881 162.796 242.677 162.388 242.269C161.98 241.861 161.776 241.357 161.776 240.757C161.776 240.157 161.98 239.653 162.388 239.245C162.796 238.837 163.3 238.633 163.9 238.633C164.5 238.633 165.004 238.837 165.412 239.245C165.844 239.653 166.06 240.157 166.06 240.757C166.06 241.357 165.844 241.861 165.412 242.269C165.004 242.677 164.5 242.881 163.9 242.881ZM190.328 242.881C188.888 242.881 187.46 242.749 186.044 242.485C184.652 242.245 183.512 241.909 182.624 241.477V238.165C184.928 239.245 187.412 239.785 190.076 239.785C193.82 239.785 195.692 238.525 195.692 236.005C195.692 235.141 195.488 234.445 195.08 233.917C194.672 233.389 194.084 232.933 193.316 232.549C192.548 232.141 191.3 231.589 189.572 230.893C187.196 229.933 185.48 228.877 184.424 227.725C183.368 226.573 182.84 225.121 182.84 223.369C182.84 222.049 183.2 220.885 183.92 219.877C184.64 218.845 185.648 218.053 186.944 217.501C188.24 216.925 189.728 216.637 191.408 216.637C192.776 216.637 194.012 216.745 195.116 216.961C196.22 217.177 197.3 217.525 198.356 218.005V221.173C196.268 220.237 194.156 219.769 192.02 219.769C190.292 219.769 188.972 220.081 188.06 220.705C187.148 221.329 186.692 222.217 186.692 223.369C186.692 224.161 186.884 224.833 187.268 225.385C187.676 225.913 188.264 226.393 189.032 226.825C189.824 227.233 190.988 227.749 192.524 228.373C194.228 229.069 195.572 229.729 196.556 230.353C197.54 230.977 198.284 231.745 198.788 232.657C199.316 233.545 199.58 234.661 199.58 236.005C199.58 238.189 198.8 239.881 197.24 241.081C195.68 242.281 193.376 242.881 190.328 242.881ZM212.104 242.881C210.16 242.881 208.444 242.521 206.956 241.801C205.492 241.057 204.34 240.001 203.5 238.633C202.684 237.241 202.276 235.609 202.276 233.737C202.276 231.889 202.684 230.269 203.5 228.877C204.316 227.485 205.468 226.417 206.956 225.673C208.444 224.905 210.16 224.521 212.104 224.521C214.048 224.521 215.764 224.905 217.252 225.673C218.74 226.417 219.892 227.485 220.708 228.877C221.548 230.269 221.968 231.889 221.968 233.737C221.968 235.609 221.548 237.241 220.708 238.633C219.892 240.001 218.74 241.057 217.252 241.801C215.764 242.521 214.048 242.881 212.104 242.881ZM212.104 240.001C213.976 240.001 215.464 239.425 216.568 238.273C217.672 237.121 218.224 235.609 218.224 233.737C218.224 231.793 217.672 230.257 216.568 229.129C215.464 228.001 213.976 227.437 212.104 227.437C210.232 227.437 208.744 228.001 207.64 229.129C206.536 230.257 205.984 231.793 205.984 233.737C205.984 235.609 206.536 237.121 207.64 238.273C208.744 239.425 210.232 240.001 212.104 240.001ZM225.918 225.061H229.374V227.545C230.19 226.537 231.114 225.781 232.146 225.277C233.178 224.773 234.246 224.521 235.35 224.521C236.742 224.521 237.846 224.761 238.662 225.241C239.478 225.697 240.078 226.405 240.462 227.365C241.23 226.429 242.166 225.721 243.27 225.241C244.398 224.761 245.526 224.521 246.654 224.521C248.766 224.521 250.29 225.061 251.226 226.141C252.162 227.197 252.63 228.769 252.63 230.857V242.341H249.102V231.325C249.102 229.909 248.838 228.913 248.31 228.337C247.782 227.737 246.882 227.437 245.61 227.437C243.786 227.437 242.298 228.229 241.146 229.813C241.194 230.173 241.218 230.761 241.218 231.577V242.341H237.69V231.325C237.69 229.909 237.45 228.913 236.97 228.337C236.49 227.737 235.626 227.437 234.378 227.437C232.554 227.437 230.922 228.469 229.482 230.533V242.341H225.918V225.061ZM266.641 242.881C263.449 242.881 260.941 242.089 259.117 240.505C257.317 238.897 256.417 236.641 256.417 233.737C256.417 230.905 257.221 228.661 258.829 227.005C260.461 225.349 262.777 224.521 265.777 224.521C267.769 224.521 269.461 224.905 270.853 225.673C272.245 226.417 273.289 227.461 273.985 228.805C274.705 230.125 275.065 231.637 275.065 233.341V235.141H259.873C259.993 236.773 260.677 237.997 261.925 238.813C263.197 239.605 264.913 240.001 267.073 240.001C268.177 240.001 269.293 239.905 270.421 239.713C271.549 239.497 272.545 239.221 273.409 238.885V241.801C272.641 242.113 271.621 242.365 270.349 242.557C269.101 242.773 267.865 242.881 266.641 242.881ZM271.645 232.585C271.597 230.953 271.057 229.693 270.025 228.805C269.017 227.893 267.577 227.437 265.705 227.437C263.881 227.437 262.465 227.905 261.457 228.841C260.449 229.777 259.921 231.025 259.873 232.585H271.645ZM285.699 242.881C283.947 242.881 282.591 242.377 281.631 241.369C280.695 240.361 280.227 238.933 280.227 237.085V227.869H277.599V225.061H280.227V219.877H283.899V225.061H288.147V227.869H283.899V236.833C283.899 237.985 284.115 238.801 284.547 239.281C285.003 239.761 285.819 240.001 286.995 240.001C287.691 240.001 288.387 239.845 289.083 239.533V242.413C288.171 242.725 287.043 242.881 285.699 242.881ZM292.504 215.737H296.14V227.437C297.796 225.493 300.004 224.521 302.764 224.521C305.068 224.521 306.784 225.133 307.912 226.357C309.04 227.581 309.604 229.225 309.604 231.289V242.341H305.968V231.649C305.968 228.841 304.624 227.437 301.936 227.437C300.784 227.437 299.704 227.713 298.696 228.265C297.712 228.793 296.86 229.609 296.14 230.713V242.341H292.504V215.737ZM316.214 221.677C315.614 221.677 315.11 221.473 314.702 221.065C314.294 220.657 314.09 220.153 314.09 219.553C314.09 218.953 314.294 218.449 314.702 218.041C315.11 217.633 315.614 217.429 316.214 217.429C316.838 217.429 317.354 217.633 317.762 218.041C318.194 218.449 318.41 218.953 318.41 219.553C318.41 220.153 318.194 220.657 317.762 221.065C317.354 221.473 316.838 221.677 316.214 221.677ZM314.378 225.061H318.086V242.341H314.378V225.061ZM323.09 225.061H326.618V227.545C327.434 226.513 328.43 225.757 329.606 225.277C330.806 224.773 332.054 224.521 333.35 224.521C335.654 224.521 337.37 225.133 338.498 226.357C339.626 227.581 340.19 229.225 340.19 231.289V242.341H336.554V231.649C336.554 228.841 335.21 227.437 332.522 227.437C331.37 227.437 330.29 227.713 329.282 228.265C328.298 228.793 327.446 229.609 326.726 230.713V242.341H323.09V225.061ZM353.712 250.621C352.536 250.621 351.384 250.525 350.256 250.333C349.152 250.141 348.216 249.865 347.448 249.505V246.517C349.248 247.333 351.336 247.741 353.712 247.741C355.944 247.741 357.564 247.249 358.572 246.265C359.604 245.305 360.12 243.841 360.12 241.873V240.037C358.536 241.933 356.208 242.881 353.136 242.881C351.384 242.881 349.812 242.497 348.42 241.729C347.028 240.961 345.936 239.881 345.144 238.489C344.352 237.097 343.956 235.501 343.956 233.701C343.956 231.877 344.34 230.281 345.108 228.913C345.9 227.521 346.98 226.441 348.348 225.673C349.74 224.905 351.3 224.521 353.028 224.521C354.636 224.521 355.992 224.761 357.096 225.241C358.224 225.697 359.268 226.465 360.228 227.545V225.061H363.756V241.477C363.756 244.429 362.928 246.685 361.272 248.245C359.64 249.829 357.12 250.621 353.712 250.621ZM353.856 240.001C355.344 240.001 356.652 239.605 357.78 238.813C358.932 238.021 359.712 236.965 360.12 235.645V231.757C359.664 230.413 358.872 229.357 357.744 228.589C356.64 227.821 355.344 227.437 353.856 227.437C352.68 227.437 351.612 227.701 350.652 228.229C349.716 228.733 348.972 229.465 348.42 230.425C347.892 231.385 347.628 232.477 347.628 233.701C347.628 234.949 347.892 236.053 348.42 237.013C348.972 237.949 349.716 238.681 350.652 239.209C351.612 239.737 352.68 240.001 353.856 240.001ZM374.814 242.881C373.614 242.881 372.342 242.725 370.998 242.413C369.654 242.125 368.598 241.729 367.83 241.225V238.129C368.766 238.681 369.846 239.137 371.07 239.497C372.294 239.833 373.482 240.001 374.634 240.001C375.93 240.001 376.878 239.845 377.478 239.533C378.078 239.221 378.378 238.717 378.378 238.021C378.378 237.493 378.234 237.073 377.946 236.761C377.682 236.425 377.214 236.125 376.542 235.861C375.894 235.597 374.91 235.285 373.59 234.925C372.174 234.517 371.046 234.109 370.206 233.701C369.39 233.269 368.766 232.729 368.334 232.081C367.926 231.433 367.722 230.593 367.722 229.561C367.722 227.905 368.37 226.657 369.666 225.817C370.986 224.953 372.75 224.521 374.958 224.521C376.11 224.521 377.238 224.629 378.342 224.845C379.446 225.061 380.334 225.361 381.006 225.745V228.769C380.31 228.361 379.446 228.037 378.414 227.797C377.406 227.557 376.374 227.437 375.318 227.437C374.046 227.437 373.074 227.593 372.402 227.905C371.73 228.217 371.394 228.769 371.394 229.561C371.394 230.065 371.538 230.473 371.826 230.785C372.114 231.097 372.57 231.373 373.194 231.613C373.842 231.829 374.862 232.117 376.254 232.477C378.438 233.077 379.95 233.785 380.79 234.601C381.654 235.417 382.086 236.545 382.086 237.985C382.086 239.473 381.474 240.661 380.25 241.549C379.026 242.437 377.214 242.881 374.814 242.881ZM398.659 217.177H402.475L408.091 236.293L413.635 217.177H416.515L422.023 236.293L427.639 217.177H431.455L424.111 242.341H420.619L415.039 223.333L409.495 242.341H406.003L398.659 217.177ZM442.211 242.881C439.019 242.881 436.511 242.089 434.687 240.505C432.887 238.897 431.987 236.641 431.987 233.737C431.987 230.905 432.791 228.661 434.399 227.005C436.031 225.349 438.347 224.521 441.347 224.521C443.339 224.521 445.031 224.905 446.423 225.673C447.815 226.417 448.859 227.461 449.555 228.805C450.275 230.125 450.635 231.637 450.635 233.341V235.141H435.443C435.563 236.773 436.247 237.997 437.495 238.813C438.767 239.605 440.483 240.001 442.643 240.001C443.747 240.001 444.863 239.905 445.991 239.713C447.119 239.497 448.115 239.221 448.979 238.885V241.801C448.211 242.113 447.191 242.365 445.919 242.557C444.671 242.773 443.435 242.881 442.211 242.881ZM447.215 232.585C447.167 230.953 446.627 229.693 445.595 228.805C444.587 227.893 443.147 227.437 441.275 227.437C439.451 227.437 438.035 227.905 437.027 228.841C436.019 229.777 435.491 231.025 435.443 232.585H447.215ZM454.61 225.061H458.138V227.545C458.954 226.513 459.95 225.757 461.126 225.277C462.326 224.773 463.574 224.521 464.87 224.521C467.174 224.521 468.89 225.133 470.018 226.357C471.146 227.581 471.71 229.225 471.71 231.289V242.341H468.074V231.649C468.074 228.841 466.73 227.437 464.042 227.437C462.89 227.437 461.81 227.713 460.802 228.265C459.818 228.793 458.966 229.609 458.246 230.713V242.341H454.61V225.061ZM482.855 242.881C481.103 242.881 479.747 242.377 478.787 241.369C477.851 240.361 477.383 238.933 477.383 237.085V227.869H474.755V225.061H477.383V219.877H481.055V225.061H485.303V227.869H481.055V236.833C481.055 237.985 481.271 238.801 481.703 239.281C482.159 239.761 482.975 240.001 484.151 240.001C484.847 240.001 485.543 239.845 486.239 239.533V242.413C485.327 242.725 484.199 242.881 482.855 242.881ZM502.265 217.177H506.081L511.697 236.293L517.241 217.177H520.121L525.629 236.293L531.245 217.177H535.061L527.717 242.341H524.225L518.645 223.333L513.101 242.341H509.609L502.265 217.177ZM537.403 225.061H540.931V228.157C541.651 227.101 542.659 226.321 543.955 225.817C545.275 225.313 546.799 225.061 548.527 225.061V227.905C546.679 227.905 545.095 228.205 543.775 228.805C542.455 229.405 541.543 230.353 541.039 231.649V242.341H537.403V225.061ZM560.362 242.881C558.418 242.881 556.702 242.521 555.214 241.801C553.75 241.057 552.598 240.001 551.758 238.633C550.942 237.241 550.534 235.609 550.534 233.737C550.534 231.889 550.942 230.269 551.758 228.877C552.574 227.485 553.726 226.417 555.214 225.673C556.702 224.905 558.418 224.521 560.362 224.521C562.306 224.521 564.022 224.905 565.51 225.673C566.998 226.417 568.15 227.485 568.966 228.877C569.806 230.269 570.226 231.889 570.226 233.737C570.226 235.609 569.806 237.241 568.966 238.633C568.15 240.001 566.998 241.057 565.51 241.801C564.022 242.521 562.306 242.881 560.362 242.881ZM560.362 240.001C562.234 240.001 563.722 239.425 564.826 238.273C565.93 237.121 566.482 235.609 566.482 233.737C566.482 231.793 565.93 230.257 564.826 229.129C563.722 228.001 562.234 227.437 560.362 227.437C558.49 227.437 557.002 228.001 555.898 229.129C554.794 230.257 554.242 231.793 554.242 233.737C554.242 235.609 554.794 237.121 555.898 238.273C557.002 239.425 558.49 240.001 560.362 240.001ZM574.176 225.061H577.704V227.545C578.52 226.513 579.516 225.757 580.692 225.277C581.892 224.773 583.14 224.521 584.436 224.521C586.74 224.521 588.456 225.133 589.584 226.357C590.712 227.581 591.276 229.225 591.276 231.289V242.341H587.64V231.649C587.64 228.841 586.296 227.437 583.608 227.437C582.456 227.437 581.376 227.713 580.368 228.265C579.384 228.793 578.532 229.609 577.812 230.713V242.341H574.176V225.061ZM604.798 250.621C603.622 250.621 602.47 250.525 601.342 250.333C600.238 250.141 599.302 249.865 598.534 249.505V246.517C600.334 247.333 602.422 247.741 604.798 247.741C607.03 247.741 608.65 247.249 609.658 246.265C610.69 245.305 611.206 243.841 611.206 241.873V240.037C609.622 241.933 607.294 242.881 604.222 242.881C602.47 242.881 600.898 242.497 599.506 241.729C598.114 240.961 597.022 239.881 596.23 238.489C595.438 237.097 595.042 235.501 595.042 233.701C595.042 231.877 595.426 230.281 596.194 228.913C596.986 227.521 598.066 226.441 599.434 225.673C600.826 224.905 602.386 224.521 604.114 224.521C605.722 224.521 607.078 224.761 608.182 225.241C609.31 225.697 610.354 226.465 611.314 227.545V225.061H614.842V241.477C614.842 244.429 614.014 246.685 612.358 248.245C610.726 249.829 608.206 250.621 604.798 250.621ZM604.942 240.001C606.43 240.001 607.738 239.605 608.866 238.813C610.018 238.021 610.798 236.965 611.206 235.645V231.757C610.75 230.413 609.958 229.357 608.83 228.589C607.726 227.821 606.43 227.437 604.942 227.437C603.766 227.437 602.698 227.701 601.738 228.229C600.802 228.733 600.058 229.465 599.506 230.425C598.978 231.385 598.714 232.477 598.714 233.701C598.714 234.949 598.978 236.053 599.506 237.013C600.058 237.949 600.802 238.681 601.738 239.209C602.698 239.737 603.766 240.001 604.942 240.001ZM620.5 242.341C620.02 242.341 619.612 242.185 619.276 241.873C618.964 241.537 618.808 241.129 618.808 240.649C618.808 240.169 618.964 239.761 619.276 239.425C619.612 239.089 620.02 238.921 620.5 238.921C620.98 238.921 621.388 239.089 621.724 239.425C622.06 239.761 622.228 240.169 622.228 240.649C622.228 241.129 622.06 241.537 621.724 241.873C621.388 242.185 620.98 242.341 620.5 242.341Z" fill="#B41239"/>
<path d="M1.52531 296.565H4.06931L7.81331 309.309L11.5093 296.565H13.4293L17.1013 309.309L20.8453 296.565H23.3893L18.4933 313.341H16.1653L12.4453 300.669L8.74931 313.341H6.42131L1.52531 296.565ZM30.5601 313.701C28.4321 313.701 26.7601 313.173 25.5441 312.117C24.3441 311.045 23.7441 309.541 23.7441 307.605C23.7441 305.717 24.2801 304.221 25.3521 303.117C26.4401 302.013 27.9841 301.461 29.9841 301.461C31.3121 301.461 32.4401 301.717 33.3681 302.229C34.2961 302.725 34.9921 303.421 35.4561 304.317C35.9361 305.197 36.1761 306.205 36.1761 307.341V308.541H26.0481C26.1281 309.629 26.5841 310.445 27.4161 310.989C28.2641 311.517 29.4081 311.781 30.8481 311.781C31.5841 311.781 32.3281 311.717 33.0801 311.589C33.8321 311.445 34.4961 311.261 35.0721 311.037V312.981C34.5601 313.189 33.8801 313.357 33.0321 313.485C32.2001 313.629 31.3761 313.701 30.5601 313.701ZM33.8961 306.837C33.8641 305.749 33.5041 304.909 32.8161 304.317C32.1441 303.709 31.1841 303.405 29.9361 303.405C28.7201 303.405 27.7761 303.717 27.1041 304.341C26.4321 304.965 26.0801 305.797 26.0481 306.837H33.8961ZM51.8364 313.701C50.4444 313.701 49.3244 313.349 48.4764 312.645C47.6444 311.925 47.2284 310.957 47.2284 309.741C47.2284 308.461 47.6284 307.477 48.4284 306.789C49.2444 306.085 50.3964 305.733 51.8844 305.733C53.4684 305.733 54.8124 306.053 55.9164 306.693V306.093C55.9164 305.181 55.6364 304.509 55.0764 304.077C54.5324 303.629 53.6684 303.405 52.4844 303.405C51.7804 303.405 51.0924 303.477 50.4204 303.621C49.7644 303.749 49.1724 303.933 48.6444 304.173V302.205C49.1244 301.981 49.7484 301.805 50.5164 301.677C51.2844 301.533 52.0284 301.461 52.7484 301.461C54.6524 301.461 56.0604 301.885 56.9724 302.733C57.9004 303.565 58.3644 304.725 58.3644 306.213V313.341H56.0844V312.045C55.5884 312.589 54.9964 313.005 54.3084 313.293C53.6364 313.565 52.8124 313.701 51.8364 313.701ZM52.4364 311.853C53.2044 311.853 53.9004 311.701 54.5244 311.397C55.1484 311.093 55.6124 310.669 55.9164 310.125V308.565C54.8764 307.893 53.7164 307.557 52.4364 307.557C51.5084 307.557 50.8124 307.741 50.3484 308.109C49.9004 308.461 49.6764 309.005 49.6764 309.741C49.6764 311.149 50.5964 311.853 52.4364 311.853ZM61.3725 301.821H63.7245V303.525C64.9085 302.149 66.5085 301.461 68.5245 301.461C69.6765 301.461 70.7085 301.717 71.6205 302.229C72.5485 302.741 73.2685 303.461 73.7805 304.389C74.3085 305.301 74.5725 306.365 74.5725 307.581C74.5725 308.781 74.3085 309.845 73.7805 310.773C73.2685 311.701 72.5565 312.421 71.6445 312.933C70.7325 313.445 69.6925 313.701 68.5245 313.701C67.5645 313.701 66.6685 313.541 65.8365 313.221C65.0045 312.901 64.3245 312.429 63.7965 311.805V318.597H61.3725V301.821ZM67.9725 311.781C68.7565 311.781 69.4605 311.613 70.0845 311.277C70.7245 310.925 71.2205 310.429 71.5725 309.789C71.9405 309.149 72.1245 308.413 72.1245 307.581C72.1245 306.749 71.9405 306.021 71.5725 305.397C71.2205 304.757 70.7245 304.269 70.0845 303.933C69.4605 303.581 68.7565 303.405 67.9725 303.405C66.9965 303.405 66.1325 303.661 65.3805 304.173C64.6445 304.685 64.1165 305.389 63.7965 306.285V308.877C64.0685 309.757 64.5885 310.461 65.3565 310.989C66.1245 311.517 66.9965 311.781 67.9725 311.781ZM82.6789 313.701C81.3829 313.701 80.2389 313.461 79.2469 312.981C78.2709 312.485 77.5029 311.781 76.9429 310.869C76.3989 309.941 76.1269 308.853 76.1269 307.605C76.1269 306.373 76.3989 305.293 76.9429 304.365C77.4869 303.437 78.2549 302.725 79.2469 302.229C80.2389 301.717 81.3829 301.461 82.6789 301.461C83.9749 301.461 85.1189 301.717 86.1109 302.229C87.1029 302.725 87.8709 303.437 88.4149 304.365C88.9749 305.293 89.2549 306.373 89.2549 307.605C89.2549 308.853 88.9749 309.941 88.4149 310.869C87.8709 311.781 87.1029 312.485 86.1109 312.981C85.1189 313.461 83.9749 313.701 82.6789 313.701ZM82.6789 311.781C83.9269 311.781 84.9189 311.397 85.6549 310.629C86.3909 309.861 86.7589 308.853 86.7589 307.605C86.7589 306.309 86.3909 305.285 85.6549 304.533C84.9189 303.781 83.9269 303.405 82.6789 303.405C81.4309 303.405 80.4389 303.781 79.7029 304.533C78.9669 305.285 78.5989 306.309 78.5989 307.605C78.5989 308.853 78.9669 309.861 79.7029 310.629C80.4389 311.397 81.4309 311.781 82.6789 311.781ZM91.8881 295.605H94.3121V313.341H91.8881V295.605ZM103.515 313.701C102.219 313.701 101.075 313.461 100.083 312.981C99.1068 312.485 98.3388 311.781 97.7788 310.869C97.2348 309.941 96.9628 308.853 96.9628 307.605C96.9628 306.373 97.2348 305.293 97.7788 304.365C98.3228 303.437 99.0908 302.725 100.083 302.229C101.075 301.717 102.219 301.461 103.515 301.461C104.811 301.461 105.955 301.717 106.947 302.229C107.939 302.725 108.707 303.437 109.251 304.365C109.811 305.293 110.091 306.373 110.091 307.605C110.091 308.853 109.811 309.941 109.251 310.869C108.707 311.781 107.939 312.485 106.947 312.981C105.955 313.461 104.811 313.701 103.515 313.701ZM103.515 311.781C104.763 311.781 105.755 311.397 106.491 310.629C107.227 309.861 107.595 308.853 107.595 307.605C107.595 306.309 107.227 305.285 106.491 304.533C105.755 303.781 104.763 303.405 103.515 303.405C102.267 303.405 101.275 303.781 100.539 304.533C99.8028 305.285 99.4348 306.309 99.4348 307.605C99.4348 308.853 99.8028 309.861 100.539 310.629C101.275 311.397 102.267 311.781 103.515 311.781ZM118.748 318.861C117.964 318.861 117.196 318.797 116.444 318.669C115.708 318.541 115.084 318.357 114.572 318.117V316.125C115.772 316.669 117.164 316.941 118.748 316.941C120.236 316.941 121.316 316.613 121.988 315.957C122.676 315.317 123.02 314.341 123.02 313.029V311.805C121.964 313.069 120.412 313.701 118.364 313.701C117.196 313.701 116.148 313.445 115.22 312.933C114.292 312.421 113.564 311.701 113.036 310.773C112.508 309.845 112.244 308.781 112.244 307.581C112.244 306.365 112.5 305.301 113.012 304.389C113.54 303.461 114.26 302.741 115.172 302.229C116.1 301.717 117.14 301.461 118.292 301.461C119.364 301.461 120.268 301.621 121.004 301.941C121.756 302.245 122.452 302.757 123.092 303.477V301.821H125.444V312.765C125.444 314.733 124.892 316.237 123.788 317.277C122.7 318.333 121.02 318.861 118.748 318.861ZM118.844 311.781C119.836 311.781 120.708 311.517 121.46 310.989C122.228 310.461 122.748 309.757 123.02 308.877V306.285C122.716 305.389 122.188 304.685 121.436 304.173C120.7 303.661 119.836 303.405 118.844 303.405C118.06 303.405 117.348 303.581 116.708 303.933C116.084 304.269 115.588 304.757 115.22 305.397C114.868 306.037 114.692 306.765 114.692 307.581C114.692 308.413 114.868 309.149 115.22 309.789C115.588 310.413 116.084 310.901 116.708 311.253C117.348 311.605 118.06 311.781 118.844 311.781ZM129.984 299.565C129.584 299.565 129.248 299.429 128.976 299.157C128.704 298.885 128.568 298.549 128.568 298.149C128.568 297.749 128.704 297.413 128.976 297.141C129.248 296.869 129.584 296.733 129.984 296.733C130.4 296.733 130.744 296.869 131.016 297.141C131.304 297.413 131.448 297.749 131.448 298.149C131.448 298.549 131.304 298.885 131.016 299.157C130.744 299.429 130.4 299.565 129.984 299.565ZM128.76 301.821H131.232V313.341H128.76V301.821ZM134.088 311.781L140.64 303.693H134.232V301.821H143.664V303.405L137.112 311.469H143.904V313.341H134.088V311.781ZM152.88 313.701C150.752 313.701 149.08 313.173 147.864 312.117C146.664 311.045 146.064 309.541 146.064 307.605C146.064 305.717 146.6 304.221 147.672 303.117C148.76 302.013 150.304 301.461 152.304 301.461C153.632 301.461 154.76 301.717 155.688 302.229C156.616 302.725 157.312 303.421 157.776 304.317C158.256 305.197 158.496 306.205 158.496 307.341V308.541H148.368C148.448 309.629 148.904 310.445 149.736 310.989C150.584 311.517 151.728 311.781 153.168 311.781C153.904 311.781 154.648 311.717 155.4 311.589C156.152 311.445 156.816 311.261 157.392 311.037V312.981C156.88 313.189 156.2 313.357 155.352 313.485C154.52 313.629 153.696 313.701 152.88 313.701ZM156.216 306.837C156.184 305.749 155.824 304.909 155.136 304.317C154.464 303.709 153.504 303.405 152.256 303.405C151.04 303.405 150.096 303.717 149.424 304.341C148.752 304.965 148.4 305.797 148.368 306.837H156.216ZM170.821 303.693H169.069V301.821H170.821V299.565C170.821 298.237 171.197 297.229 171.949 296.541C172.701 295.837 173.709 295.485 174.973 295.485C175.629 295.485 176.245 295.581 176.821 295.773V297.789C176.373 297.581 175.909 297.477 175.429 297.477C174.677 297.477 174.125 297.661 173.773 298.029C173.421 298.381 173.245 298.941 173.245 299.709V301.821H176.125V303.693H173.245V313.341H170.821V303.693ZM183.718 313.701C182.422 313.701 181.278 313.461 180.286 312.981C179.31 312.485 178.542 311.781 177.982 310.869C177.438 309.941 177.166 308.853 177.166 307.605C177.166 306.373 177.438 305.293 177.982 304.365C178.526 303.437 179.294 302.725 180.286 302.229C181.278 301.717 182.422 301.461 183.718 301.461C185.014 301.461 186.158 301.717 187.15 302.229C188.142 302.725 188.91 303.437 189.454 304.365C190.014 305.293 190.294 306.373 190.294 307.605C190.294 308.853 190.014 309.941 189.454 310.869C188.91 311.781 188.142 312.485 187.15 312.981C186.158 313.461 185.014 313.701 183.718 313.701ZM183.718 311.781C184.966 311.781 185.958 311.397 186.694 310.629C187.43 309.861 187.798 308.853 187.798 307.605C187.798 306.309 187.43 305.285 186.694 304.533C185.958 303.781 184.966 303.405 183.718 303.405C182.47 303.405 181.478 303.781 180.742 304.533C180.006 305.285 179.638 306.309 179.638 307.605C179.638 308.853 180.006 309.861 180.742 310.629C181.478 311.397 182.47 311.781 183.718 311.781ZM192.927 301.821H195.279V303.885C195.759 303.181 196.431 302.661 197.295 302.325C198.175 301.989 199.191 301.821 200.343 301.821V303.717C199.111 303.717 198.055 303.917 197.175 304.317C196.295 304.717 195.687 305.349 195.351 306.213V313.341H192.927V301.821ZM215.836 313.701C214.668 313.701 213.764 313.365 213.124 312.693C212.5 312.021 212.188 311.069 212.188 309.837V303.693H210.436V301.821H212.188V298.365H214.636V301.821H217.468V303.693H214.636V309.669C214.636 310.437 214.78 310.981 215.068 311.301C215.372 311.621 215.916 311.781 216.7 311.781C217.164 311.781 217.628 311.677 218.092 311.469V313.389C217.484 313.597 216.732 313.701 215.836 313.701ZM220.373 295.605H222.797V303.405C223.901 302.109 225.373 301.461 227.213 301.461C228.749 301.461 229.893 301.869 230.645 302.685C231.397 303.501 231.773 304.597 231.773 305.973V313.341H229.349V306.213C229.349 304.341 228.453 303.405 226.661 303.405C225.893 303.405 225.173 303.589 224.501 303.957C223.845 304.309 223.277 304.853 222.797 305.589V313.341H220.373V295.605ZM241.099 313.701C238.971 313.701 237.299 313.173 236.083 312.117C234.883 311.045 234.283 309.541 234.283 307.605C234.283 305.717 234.819 304.221 235.891 303.117C236.979 302.013 238.523 301.461 240.523 301.461C241.851 301.461 242.979 301.717 243.907 302.229C244.835 302.725 245.531 303.421 245.995 304.317C246.475 305.197 246.715 306.205 246.715 307.341V308.541H236.587C236.667 309.629 237.123 310.445 237.955 310.989C238.803 311.517 239.947 311.781 241.387 311.781C242.123 311.781 242.867 311.717 243.619 311.589C244.371 311.445 245.035 311.261 245.611 311.037V312.981C245.099 313.189 244.419 313.357 243.571 313.485C242.739 313.629 241.915 313.701 241.099 313.701ZM244.435 306.837C244.403 305.749 244.043 304.909 243.355 304.317C242.683 303.709 241.723 303.405 240.475 303.405C239.259 303.405 238.315 303.717 237.643 304.341C236.971 304.965 236.619 305.797 236.587 306.837H244.435ZM259.664 299.565C259.264 299.565 258.928 299.429 258.656 299.157C258.384 298.885 258.248 298.549 258.248 298.149C258.248 297.749 258.384 297.413 258.656 297.141C258.928 296.869 259.264 296.733 259.664 296.733C260.08 296.733 260.424 296.869 260.696 297.141C260.984 297.413 261.128 297.749 261.128 298.149C261.128 298.549 260.984 298.885 260.696 299.157C260.424 299.429 260.08 299.565 259.664 299.565ZM258.44 301.821H260.912V313.341H258.44V301.821ZM264.248 301.821H266.6V303.477C267.144 302.789 267.808 302.285 268.592 301.965C269.392 301.629 270.224 301.461 271.088 301.461C272.624 301.461 273.768 301.869 274.52 302.685C275.272 303.501 275.648 304.597 275.648 305.973V313.341H273.224V306.213C273.224 304.341 272.328 303.405 270.536 303.405C269.768 303.405 269.048 303.589 268.376 303.957C267.72 304.309 267.152 304.853 266.672 305.589V313.341H264.248V301.821ZM284.71 313.701C283.43 313.701 282.294 313.461 281.302 312.981C280.31 312.501 279.534 311.805 278.974 310.893C278.43 309.965 278.158 308.869 278.158 307.605C278.158 306.341 278.43 305.253 278.974 304.341C279.534 303.413 280.31 302.701 281.302 302.205C282.31 301.709 283.462 301.461 284.758 301.461C286.518 301.461 287.926 301.805 288.982 302.493V304.485C287.942 303.765 286.614 303.405 284.998 303.405C283.686 303.405 282.622 303.765 281.806 304.485C281.006 305.189 280.606 306.229 280.606 307.605C280.606 308.981 281.006 310.021 281.806 310.725C282.606 311.429 283.654 311.781 284.95 311.781C286.566 311.781 287.958 311.397 289.126 310.629V312.597C288.566 312.981 287.926 313.261 287.206 313.437C286.502 313.613 285.67 313.701 284.71 313.701ZM297.484 313.701C296.188 313.701 295.044 313.461 294.052 312.981C293.076 312.485 292.308 311.781 291.748 310.869C291.204 309.941 290.932 308.853 290.932 307.605C290.932 306.373 291.204 305.293 291.748 304.365C292.292 303.437 293.06 302.725 294.052 302.229C295.044 301.717 296.188 301.461 297.484 301.461C298.78 301.461 299.924 301.717 300.916 302.229C301.908 302.725 302.676 303.437 303.22 304.365C303.78 305.293 304.06 306.373 304.06 307.605C304.06 308.853 303.78 309.941 303.22 310.869C302.676 311.781 301.908 312.485 300.916 312.981C299.924 313.461 298.78 313.701 297.484 313.701ZM297.484 311.781C298.732 311.781 299.724 311.397 300.46 310.629C301.196 309.861 301.564 308.853 301.564 307.605C301.564 306.309 301.196 305.285 300.46 304.533C299.724 303.781 298.732 303.405 297.484 303.405C296.236 303.405 295.244 303.781 294.508 304.533C293.772 305.285 293.404 306.309 293.404 307.605C293.404 308.853 293.772 309.861 294.508 310.629C295.244 311.397 296.236 311.781 297.484 311.781ZM306.693 301.821H309.045V303.477C309.589 302.789 310.253 302.285 311.037 301.965C311.837 301.629 312.669 301.461 313.533 301.461C315.069 301.461 316.213 301.869 316.965 302.685C317.717 303.501 318.093 304.597 318.093 305.973V313.341H315.669V306.213C315.669 304.341 314.773 303.405 312.981 303.405C312.213 303.405 311.493 303.589 310.821 303.957C310.165 304.309 309.597 304.853 309.117 305.589V313.341H306.693V301.821ZM319.525 301.821H322.093L325.477 310.101L328.861 301.821H331.429L326.533 313.341H324.421L319.525 301.821ZM339.443 313.701C337.315 313.701 335.643 313.173 334.427 312.117C333.227 311.045 332.627 309.541 332.627 307.605C332.627 305.717 333.163 304.221 334.235 303.117C335.323 302.013 336.867 301.461 338.867 301.461C340.195 301.461 341.323 301.717 342.251 302.229C343.179 302.725 343.875 303.421 344.339 304.317C344.819 305.197 345.059 306.205 345.059 307.341V308.541H334.931C335.011 309.629 335.467 310.445 336.299 310.989C337.147 311.517 338.291 311.781 339.731 311.781C340.467 311.781 341.211 311.717 341.963 311.589C342.715 311.445 343.379 311.261 343.955 311.037V312.981C343.443 313.189 342.763 313.357 341.915 313.485C341.083 313.629 340.259 313.701 339.443 313.701ZM342.779 306.837C342.747 305.749 342.387 304.909 341.699 304.317C341.027 303.709 340.067 303.405 338.819 303.405C337.603 303.405 336.659 303.717 335.987 304.341C335.315 304.965 334.963 305.797 334.931 306.837H342.779ZM347.708 301.821H350.06V303.477C350.604 302.789 351.268 302.285 352.052 301.965C352.852 301.629 353.684 301.461 354.548 301.461C356.084 301.461 357.228 301.869 357.98 302.685C358.732 303.501 359.108 304.597 359.108 305.973V313.341H356.684V306.213C356.684 304.341 355.788 303.405 353.996 303.405C353.228 303.405 352.508 303.589 351.836 303.957C351.18 304.309 350.612 304.853 350.132 305.589V313.341H347.708V301.821ZM363.515 299.565C363.115 299.565 362.779 299.429 362.507 299.157C362.235 298.885 362.099 298.549 362.099 298.149C362.099 297.749 362.235 297.413 362.507 297.141C362.779 296.869 363.115 296.733 363.515 296.733C363.931 296.733 364.275 296.869 364.547 297.141C364.835 297.413 364.979 297.749 364.979 298.149C364.979 298.549 364.835 298.885 364.547 299.157C364.275 299.429 363.931 299.565 363.515 299.565ZM362.291 301.821H364.763V313.341H362.291V301.821ZM374.435 313.701C372.307 313.701 370.635 313.173 369.419 312.117C368.219 311.045 367.619 309.541 367.619 307.605C367.619 305.717 368.155 304.221 369.227 303.117C370.315 302.013 371.859 301.461 373.859 301.461C375.187 301.461 376.315 301.717 377.243 302.229C378.171 302.725 378.867 303.421 379.331 304.317C379.811 305.197 380.051 306.205 380.051 307.341V308.541H369.923C370.003 309.629 370.459 310.445 371.291 310.989C372.139 311.517 373.283 311.781 374.723 311.781C375.459 311.781 376.203 311.717 376.955 311.589C377.707 311.445 378.371 311.261 378.947 311.037V312.981C378.435 313.189 377.755 313.357 376.907 313.485C376.075 313.629 375.251 313.701 374.435 313.701ZM377.771 306.837C377.739 305.749 377.379 304.909 376.691 304.317C376.019 303.709 375.059 303.405 373.811 303.405C372.595 303.405 371.651 303.717 370.979 304.341C370.307 304.965 369.955 305.797 369.923 306.837H377.771ZM382.701 301.821H385.053V303.477C385.597 302.789 386.261 302.285 387.045 301.965C387.845 301.629 388.677 301.461 389.541 301.461C391.077 301.461 392.221 301.869 392.973 302.685C393.725 303.501 394.101 304.597 394.101 305.973V313.341H391.677V306.213C391.677 304.341 390.781 303.405 388.989 303.405C388.221 303.405 387.501 303.589 386.829 303.957C386.173 304.309 385.605 304.853 385.125 305.589V313.341H382.701V301.821ZM403.163 313.701C401.883 313.701 400.747 313.461 399.755 312.981C398.763 312.501 397.987 311.805 397.427 310.893C396.883 309.965 396.611 308.869 396.611 307.605C396.611 306.341 396.883 305.253 397.427 304.341C397.987 303.413 398.763 302.701 399.755 302.205C400.763 301.709 401.915 301.461 403.211 301.461C404.971 301.461 406.379 301.805 407.435 302.493V304.485C406.395 303.765 405.067 303.405 403.451 303.405C402.139 303.405 401.075 303.765 400.259 304.485C399.459 305.189 399.059 306.229 399.059 307.605C399.059 308.981 399.459 310.021 400.259 310.725C401.059 311.429 402.107 311.781 403.403 311.781C405.019 311.781 406.411 311.397 407.579 310.629V312.597C407.019 312.981 406.379 313.261 405.659 313.437C404.955 313.613 404.123 313.701 403.163 313.701ZM416.552 313.701C414.424 313.701 412.752 313.173 411.536 312.117C410.336 311.045 409.736 309.541 409.736 307.605C409.736 305.717 410.272 304.221 411.344 303.117C412.432 302.013 413.976 301.461 415.976 301.461C417.304 301.461 418.432 301.717 419.36 302.229C420.288 302.725 420.984 303.421 421.448 304.317C421.928 305.197 422.168 306.205 422.168 307.341V308.541H412.04C412.12 309.629 412.576 310.445 413.408 310.989C414.256 311.517 415.4 311.781 416.84 311.781C417.576 311.781 418.32 311.717 419.072 311.589C419.824 311.445 420.488 311.261 421.064 311.037V312.981C420.552 313.189 419.872 313.357 419.024 313.485C418.192 313.629 417.368 313.701 416.552 313.701ZM419.888 306.837C419.856 305.749 419.496 304.909 418.808 304.317C418.136 303.709 417.176 303.405 415.928 303.405C414.712 303.405 413.768 303.717 413.096 304.341C412.424 304.965 412.072 305.797 412.04 306.837H419.888ZM425.466 313.341C425.146 313.341 424.874 313.237 424.65 313.029C424.442 312.805 424.338 312.533 424.338 312.213C424.338 311.893 424.442 311.621 424.65 311.397C424.874 311.173 425.146 311.061 425.466 311.061C425.786 311.061 426.058 311.173 426.282 311.397C426.506 311.621 426.618 311.893 426.618 312.213C426.618 312.533 426.506 312.805 426.282 313.029C426.058 313.237 425.786 313.341 425.466 313.341ZM438.13 296.565H444.586C446.394 296.565 447.818 297.021 448.858 297.933C449.914 298.829 450.442 300.109 450.442 301.773C450.442 303.469 449.922 304.757 448.882 305.637C447.842 306.501 446.41 306.933 444.586 306.933H440.578V313.341H438.13V296.565ZM444.322 304.893C445.442 304.893 446.33 304.661 446.986 304.197C447.642 303.733 447.97 302.925 447.97 301.773C447.97 300.621 447.642 299.813 446.986 299.349C446.33 298.869 445.442 298.629 444.322 298.629H440.578V304.893H444.322ZM452.591 295.605H455.015V313.341H452.591V295.605ZM464.482 313.701C462.354 313.701 460.682 313.173 459.466 312.117C458.266 311.045 457.666 309.541 457.666 307.605C457.666 305.717 458.202 304.221 459.274 303.117C460.362 302.013 461.906 301.461 463.906 301.461C465.234 301.461 466.362 301.717 467.29 302.229C468.218 302.725 468.914 303.421 469.378 304.317C469.858 305.197 470.098 306.205 470.098 307.341V308.541H459.97C460.05 309.629 460.506 310.445 461.338 310.989C462.186 311.517 463.33 311.781 464.77 311.781C465.506 311.781 466.25 311.717 467.002 311.589C467.754 311.445 468.418 311.261 468.994 311.037V312.981C468.482 313.189 467.802 313.357 466.954 313.485C466.122 313.629 465.298 313.701 464.482 313.701ZM467.818 306.837C467.786 305.749 467.426 304.909 466.738 304.317C466.066 303.709 465.106 303.405 463.858 303.405C462.642 303.405 461.698 303.717 461.026 304.341C460.354 304.965 460.002 305.797 459.97 306.837H467.818ZM476.876 313.701C475.484 313.701 474.364 313.349 473.516 312.645C472.684 311.925 472.268 310.957 472.268 309.741C472.268 308.461 472.668 307.477 473.468 306.789C474.284 306.085 475.436 305.733 476.924 305.733C478.508 305.733 479.852 306.053 480.956 306.693V306.093C480.956 305.181 480.676 304.509 480.116 304.077C479.572 303.629 478.708 303.405 477.523 303.405C476.82 303.405 476.132 303.477 475.46 303.621C474.804 303.749 474.212 303.933 473.684 304.173V302.205C474.164 301.981 474.788 301.805 475.556 301.677C476.324 301.533 477.068 301.461 477.788 301.461C479.692 301.461 481.1 301.885 482.012 302.733C482.94 303.565 483.404 304.725 483.404 306.213V313.341H481.124V312.045C480.628 312.589 480.036 313.005 479.348 313.293C478.676 313.565 477.852 313.701 476.876 313.701ZM477.476 311.853C478.244 311.853 478.94 311.701 479.564 311.397C480.188 311.093 480.652 310.669 480.956 310.125V308.565C479.916 307.893 478.756 307.557 477.476 307.557C476.548 307.557 475.852 307.741 475.388 308.109C474.94 308.461 474.715 309.005 474.715 309.741C474.715 311.149 475.636 311.853 477.476 311.853ZM490.308 313.701C489.508 313.701 488.66 313.597 487.764 313.389C486.868 313.197 486.164 312.933 485.652 312.597V310.533C486.276 310.901 486.996 311.205 487.812 311.445C488.628 311.669 489.42 311.781 490.188 311.781C491.052 311.781 491.684 311.677 492.084 311.469C492.484 311.261 492.684 310.925 492.684 310.461C492.684 310.109 492.588 309.829 492.396 309.621C492.22 309.397 491.908 309.197 491.46 309.021C491.028 308.845 490.372 308.637 489.492 308.397C488.548 308.125 487.796 307.853 487.236 307.581C486.692 307.293 486.276 306.933 485.988 306.501C485.716 306.069 485.58 305.509 485.58 304.821C485.58 303.717 486.012 302.885 486.876 302.325C487.756 301.749 488.932 301.461 490.404 301.461C491.172 301.461 491.924 301.533 492.66 301.677C493.396 301.821 493.988 302.021 494.436 302.277V304.293C493.972 304.021 493.396 303.805 492.708 303.645C492.036 303.485 491.348 303.405 490.644 303.405C489.796 303.405 489.148 303.509 488.7 303.717C488.252 303.925 488.028 304.293 488.028 304.821C488.028 305.157 488.124 305.429 488.316 305.637C488.508 305.845 488.812 306.029 489.228 306.189C489.66 306.333 490.34 306.525 491.268 306.765C492.724 307.165 493.732 307.637 494.292 308.181C494.868 308.725 495.156 309.477 495.156 310.437C495.156 311.429 494.748 312.221 493.932 312.813C493.116 313.405 491.908 313.701 490.308 313.701ZM504.138 313.701C502.01 313.701 500.338 313.173 499.122 312.117C497.922 311.045 497.322 309.541 497.322 307.605C497.322 305.717 497.858 304.221 498.93 303.117C500.018 302.013 501.562 301.461 503.562 301.461C504.89 301.461 506.018 301.717 506.946 302.229C507.874 302.725 508.57 303.421 509.034 304.317C509.514 305.197 509.754 306.205 509.754 307.341V308.541H499.626C499.706 309.629 500.162 310.445 500.994 310.989C501.842 311.517 502.986 311.781 504.426 311.781C505.162 311.781 505.906 311.717 506.658 311.589C507.41 311.445 508.074 311.261 508.65 311.037V312.981C508.138 313.189 507.458 313.357 506.61 313.485C505.778 313.629 504.954 313.701 504.138 313.701ZM507.474 306.837C507.442 305.749 507.082 304.909 506.394 304.317C505.722 303.709 504.762 303.405 503.514 303.405C502.298 303.405 501.354 303.717 500.682 304.341C500.01 304.965 499.658 305.797 499.626 306.837H507.474ZM525.727 313.701C524.559 313.701 523.655 313.365 523.015 312.693C522.391 312.021 522.079 311.069 522.079 309.837V303.693H520.327V301.821H522.079V298.365H524.527V301.821H527.359V303.693H524.527V309.669C524.527 310.437 524.671 310.981 524.959 311.301C525.263 311.621 525.807 311.781 526.591 311.781C527.055 311.781 527.519 311.677 527.983 311.469V313.389C527.375 313.597 526.623 313.701 525.727 313.701ZM530.263 301.821H532.615V303.885C533.095 303.181 533.767 302.661 534.631 302.325C535.511 301.989 536.527 301.821 537.679 301.821V303.717C536.447 303.717 535.391 303.917 534.511 304.317C533.631 304.717 533.023 305.349 532.687 306.213V313.341H530.263V301.821ZM541.946 318.093C541.082 318.093 540.362 318.005 539.786 317.829V315.933C540.202 316.093 540.714 316.173 541.322 316.173C541.882 316.173 542.322 316.029 542.642 315.741C542.962 315.469 543.25 315.021 543.506 314.397L544.058 313.053L539.018 301.821H541.514L545.354 310.677L548.93 301.821H551.426L546.242 314.637C545.762 315.837 545.186 316.709 544.514 317.253C543.858 317.813 543.002 318.093 541.946 318.093ZM566.594 313.701C565.202 313.701 564.082 313.349 563.234 312.645C562.402 311.925 561.986 310.957 561.986 309.741C561.986 308.461 562.386 307.477 563.186 306.789C564.002 306.085 565.154 305.733 566.642 305.733C568.226 305.733 569.57 306.053 570.674 306.693V306.093C570.674 305.181 570.394 304.509 569.834 304.077C569.29 303.629 568.426 303.405 567.242 303.405C566.538 303.405 565.85 303.477 565.178 303.621C564.522 303.749 563.93 303.933 563.402 304.173V302.205C563.882 301.981 564.506 301.805 565.274 301.677C566.042 301.533 566.786 301.461 567.506 301.461C569.41 301.461 570.818 301.885 571.73 302.733C572.658 303.565 573.122 304.725 573.122 306.213V313.341H570.842V312.045C570.346 312.589 569.754 313.005 569.066 313.293C568.394 313.565 567.57 313.701 566.594 313.701ZM567.194 311.853C567.962 311.853 568.658 311.701 569.282 311.397C569.906 311.093 570.37 310.669 570.674 310.125V308.565C569.634 307.893 568.474 307.557 567.194 307.557C566.266 307.557 565.57 307.741 565.106 308.109C564.658 308.461 564.434 309.005 564.434 309.741C564.434 311.149 565.354 311.853 567.194 311.853ZM582.154 318.861C581.37 318.861 580.602 318.797 579.85 318.669C579.114 318.541 578.49 318.357 577.978 318.117V316.125C579.178 316.669 580.57 316.941 582.154 316.941C583.642 316.941 584.722 316.613 585.394 315.957C586.082 315.317 586.426 314.341 586.426 313.029V311.805C585.37 313.069 583.818 313.701 581.77 313.701C580.602 313.701 579.554 313.445 578.626 312.933C577.698 312.421 576.97 311.701 576.442 310.773C575.914 309.845 575.65 308.781 575.65 307.581C575.65 306.365 575.906 305.301 576.418 304.389C576.946 303.461 577.666 302.741 578.578 302.229C579.506 301.717 580.546 301.461 581.698 301.461C582.77 301.461 583.674 301.621 584.41 301.941C585.162 302.245 585.858 302.757 586.498 303.477V301.821H588.85V312.765C588.85 314.733 588.298 316.237 587.194 317.277C586.106 318.333 584.426 318.861 582.154 318.861ZM582.25 311.781C583.242 311.781 584.114 311.517 584.866 310.989C585.634 310.461 586.154 309.757 586.426 308.877V306.285C586.122 305.389 585.594 304.685 584.842 304.173C584.106 303.661 583.242 303.405 582.25 303.405C581.466 303.405 580.754 303.581 580.114 303.933C579.49 304.269 578.994 304.757 578.626 305.397C578.274 306.037 578.098 306.765 578.098 307.581C578.098 308.413 578.274 309.149 578.626 309.789C578.994 310.413 579.49 310.901 580.114 311.253C580.754 311.605 581.466 311.781 582.25 311.781ZM596.102 313.701C594.71 313.701 593.59 313.349 592.742 312.645C591.91 311.925 591.494 310.957 591.494 309.741C591.494 308.461 591.894 307.477 592.694 306.789C593.51 306.085 594.662 305.733 596.15 305.733C597.734 305.733 599.078 306.053 600.182 306.693V306.093C600.182 305.181 599.902 304.509 599.342 304.077C598.798 303.629 597.934 303.405 596.75 303.405C596.046 303.405 595.358 303.477 594.686 303.621C594.03 303.749 593.438 303.933 592.91 304.173V302.205C593.39 301.981 594.014 301.805 594.782 301.677C595.55 301.533 596.294 301.461 597.014 301.461C598.918 301.461 600.326 301.885 601.238 302.733C602.166 303.565 602.63 304.725 602.63 306.213V313.341H600.35V312.045C599.854 312.589 599.262 313.005 598.574 313.293C597.902 313.565 597.078 313.701 596.102 313.701ZM596.702 311.853C597.47 311.853 598.166 311.701 598.79 311.397C599.414 311.093 599.878 310.669 600.182 310.125V308.565C599.142 307.893 597.982 307.557 596.702 307.557C595.774 307.557 595.078 307.741 594.614 308.109C594.166 308.461 593.942 309.005 593.942 309.741C593.942 311.149 594.862 311.853 596.702 311.853ZM607.054 299.565C606.654 299.565 606.318 299.429 606.046 299.157C605.774 298.885 605.638 298.549 605.638 298.149C605.638 297.749 605.774 297.413 606.046 297.141C606.318 296.869 606.654 296.733 607.054 296.733C607.47 296.733 607.814 296.869 608.086 297.141C608.374 297.413 608.518 297.749 608.518 298.149C608.518 298.549 608.374 298.885 608.086 299.157C607.814 299.429 607.47 299.565 607.054 299.565ZM605.83 301.821H608.302V313.341H605.83V301.821ZM611.638 301.821H613.99V303.477C614.534 302.789 615.198 302.285 615.982 301.965C616.782 301.629 617.614 301.461 618.478 301.461C620.014 301.461 621.158 301.869 621.91 302.685C622.662 303.501 623.038 304.597 623.038 305.973V313.341H620.614V306.213C620.614 304.341 619.718 303.405 617.926 303.405C617.158 303.405 616.438 303.589 615.766 303.957C615.11 304.309 614.542 304.853 614.062 305.589V313.341H611.638V301.821ZM634.912 295.605H637.336V313.341H634.912V295.605ZM644.594 313.701C643.202 313.701 642.082 313.349 641.234 312.645C640.402 311.925 639.986 310.957 639.986 309.741C639.986 308.461 640.386 307.477 641.186 306.789C642.002 306.085 643.154 305.733 644.642 305.733C646.226 305.733 647.57 306.053 648.674 306.693V306.093C648.674 305.181 648.394 304.509 647.834 304.077C647.29 303.629 646.426 303.405 645.242 303.405C644.538 303.405 643.85 303.477 643.178 303.621C642.522 303.749 641.93 303.933 641.402 304.173V302.205C641.882 301.981 642.506 301.805 643.274 301.677C644.042 301.533 644.786 301.461 645.506 301.461C647.41 301.461 648.818 301.885 649.73 302.733C650.658 303.565 651.122 304.725 651.122 306.213V313.341H648.842V312.045C648.346 312.589 647.754 313.005 647.066 313.293C646.394 313.565 645.57 313.701 644.594 313.701ZM645.194 311.853C645.962 311.853 646.658 311.701 647.282 311.397C647.906 311.093 648.37 310.669 648.674 310.125V308.565C647.634 307.893 646.474 307.557 645.194 307.557C644.266 307.557 643.57 307.741 643.106 308.109C642.658 308.461 642.434 309.005 642.434 309.741C642.434 311.149 643.354 311.853 645.194 311.853ZM657.961 313.701C656.793 313.701 655.889 313.365 655.249 312.693C654.625 312.021 654.313 311.069 654.313 309.837V303.693H652.561V301.821H654.313V298.365H656.761V301.821H659.593V303.693H656.761V309.669C656.761 310.437 656.905 310.981 657.193 311.301C657.497 311.621 658.041 311.781 658.825 311.781C659.289 311.781 659.753 311.677 660.217 311.469V313.389C659.609 313.597 658.857 313.701 657.961 313.701ZM668.834 313.701C666.706 313.701 665.034 313.173 663.818 312.117C662.618 311.045 662.018 309.541 662.018 307.605C662.018 305.717 662.554 304.221 663.626 303.117C664.714 302.013 666.258 301.461 668.258 301.461C669.586 301.461 670.714 301.717 671.642 302.229C672.57 302.725 673.266 303.421 673.73 304.317C674.21 305.197 674.45 306.205 674.45 307.341V308.541H664.322C664.402 309.629 664.858 310.445 665.69 310.989C666.538 311.517 667.682 311.781 669.122 311.781C669.858 311.781 670.602 311.717 671.354 311.589C672.106 311.445 672.77 311.261 673.346 311.037V312.981C672.834 313.189 672.154 313.357 671.306 313.485C670.474 313.629 669.65 313.701 668.834 313.701ZM672.17 306.837C672.138 305.749 671.778 304.909 671.09 304.317C670.418 303.709 669.458 303.405 668.21 303.405C666.994 303.405 666.05 303.717 665.378 304.341C664.706 304.965 664.354 305.797 664.322 306.837H672.17ZM677.099 301.821H679.451V303.885C679.931 303.181 680.603 302.661 681.467 302.325C682.347 301.989 683.363 301.821 684.515 301.821V303.717C683.283 303.717 682.227 303.917 681.347 304.317C680.467 304.717 679.859 305.349 679.523 306.213V313.341H677.099V301.821ZM687.333 313.341C687.013 313.341 686.741 313.237 686.517 313.029C686.309 312.805 686.205 312.533 686.205 312.213C686.205 311.893 686.309 311.621 686.517 311.397C686.741 311.173 687.013 311.061 687.333 311.061C687.653 311.061 687.925 311.173 688.149 311.397C688.373 311.621 688.485 311.893 688.485 312.213C688.485 312.533 688.373 312.805 688.149 313.029C687.925 313.237 687.653 313.341 687.333 313.341Z" fill="#04121E"/>
<path d="M71.3293 352.02H73.3893V366H71.3293V352.02ZM76.6573 357.96H75.1973V356.4H76.6573V354.52C76.6573 353.413 76.9706 352.573 77.5973 352C78.2239 351.413 79.0639 351.12 80.1173 351.12C80.6639 351.12 81.1773 351.2 81.6573 351.36V353.04C81.2839 352.867 80.8973 352.78 80.4973 352.78C79.8706 352.78 79.4106 352.933 79.1173 353.24C78.8239 353.533 78.6773 354 78.6773 354.64V356.4H81.0773V357.96H78.6773V366H76.6573V357.96ZM94.1504 366.3C93.1771 366.3 92.4237 366.02 91.8904 365.46C91.3704 364.9 91.1104 364.107 91.1104 363.08V357.96H89.6504V356.4H91.1104V353.52H93.1504V356.4H95.5104V357.96H93.1504V362.94C93.1504 363.58 93.2704 364.033 93.5104 364.3C93.7637 364.567 94.2171 364.7 94.8704 364.7C95.2571 364.7 95.6437 364.613 96.0304 364.44V366.04C95.5237 366.213 94.8971 366.3 94.1504 366.3ZM97.9309 351.22H99.9509V357.72C100.871 356.64 102.098 356.1 103.631 356.1C104.911 356.1 105.864 356.44 106.491 357.12C107.118 357.8 107.431 358.713 107.431 359.86V366H105.411V360.06C105.411 358.5 104.664 357.72 103.171 357.72C102.531 357.72 101.931 357.873 101.371 358.18C100.824 358.473 100.351 358.927 99.9509 359.54V366H97.9309V351.22ZM115.203 366.3C113.43 366.3 112.036 365.86 111.023 364.98C110.023 364.087 109.523 362.833 109.523 361.22C109.523 359.647 109.97 358.4 110.863 357.48C111.77 356.56 113.056 356.1 114.723 356.1C115.83 356.1 116.77 356.313 117.543 356.74C118.316 357.153 118.896 357.733 119.283 358.48C119.683 359.213 119.883 360.053 119.883 361V362H111.443C111.51 362.907 111.89 363.587 112.583 364.04C113.29 364.48 114.243 364.7 115.443 364.7C116.056 364.7 116.676 364.647 117.303 364.54C117.93 364.42 118.483 364.267 118.963 364.08V365.7C118.536 365.873 117.97 366.013 117.263 366.12C116.57 366.24 115.883 366.3 115.203 366.3ZM117.983 360.58C117.956 359.673 117.656 358.973 117.083 358.48C116.523 357.973 115.723 357.72 114.683 357.72C113.67 357.72 112.883 357.98 112.323 358.5C111.763 359.02 111.47 359.713 111.443 360.58H117.983ZM129.493 356.4H131.453V357.82C132.44 356.673 133.773 356.1 135.453 356.1C136.413 356.1 137.273 356.313 138.033 356.74C138.807 357.167 139.407 357.767 139.833 358.54C140.273 359.3 140.493 360.187 140.493 361.2C140.493 362.2 140.273 363.087 139.833 363.86C139.407 364.633 138.813 365.233 138.053 365.66C137.293 366.087 136.427 366.3 135.453 366.3C134.653 366.3 133.907 366.167 133.213 365.9C132.52 365.633 131.953 365.24 131.513 364.72V370.38H129.493V356.4ZM134.993 364.7C135.647 364.7 136.233 364.56 136.753 364.28C137.287 363.987 137.7 363.573 137.993 363.04C138.3 362.507 138.453 361.893 138.453 361.2C138.453 360.507 138.3 359.9 137.993 359.38C137.7 358.847 137.287 358.44 136.753 358.16C136.233 357.867 135.647 357.72 134.993 357.72C134.18 357.72 133.46 357.933 132.833 358.36C132.22 358.787 131.78 359.373 131.513 360.12V362.28C131.74 363.013 132.173 363.6 132.813 364.04C133.453 364.48 134.18 364.7 134.993 364.7ZM142.696 356.4H144.656V358.12C145.056 357.533 145.616 357.1 146.336 356.82C147.07 356.54 147.916 356.4 148.876 356.4V357.98C147.85 357.98 146.97 358.147 146.236 358.48C145.503 358.813 144.996 359.34 144.716 360.06V366H142.696V356.4ZM155.452 366.3C154.372 366.3 153.418 366.1 152.592 365.7C151.778 365.287 151.138 364.7 150.672 363.94C150.218 363.167 149.992 362.26 149.992 361.22C149.992 360.193 150.218 359.293 150.672 358.52C151.125 357.747 151.765 357.153 152.592 356.74C153.418 356.313 154.372 356.1 155.452 356.1C156.532 356.1 157.485 356.313 158.312 356.74C159.138 357.153 159.778 357.747 160.232 358.52C160.698 359.293 160.932 360.193 160.932 361.22C160.932 362.26 160.698 363.167 160.232 363.94C159.778 364.7 159.138 365.287 158.312 365.7C157.485 366.1 156.532 366.3 155.452 366.3ZM155.452 364.7C156.492 364.7 157.318 364.38 157.932 363.74C158.545 363.1 158.852 362.26 158.852 361.22C158.852 360.14 158.545 359.287 157.932 358.66C157.318 358.033 156.492 357.72 155.452 357.72C154.412 357.72 153.585 358.033 152.972 358.66C152.358 359.287 152.052 360.14 152.052 361.22C152.052 362.26 152.358 363.1 152.972 363.74C153.585 364.38 154.412 364.7 155.452 364.7ZM168.793 366.3C167.927 366.3 167.173 366.167 166.533 365.9C165.907 365.62 165.327 365.187 164.793 364.6V366H162.833V351.22H164.853V357.68C165.293 357.16 165.86 356.767 166.553 356.5C167.247 356.233 167.993 356.1 168.793 356.1C169.753 356.1 170.613 356.32 171.373 356.76C172.147 357.187 172.747 357.787 173.173 358.56C173.613 359.333 173.833 360.22 173.833 361.22C173.833 362.233 173.613 363.127 173.173 363.9C172.747 364.66 172.147 365.253 171.373 365.68C170.613 366.093 169.753 366.3 168.793 366.3ZM168.333 364.7C168.987 364.7 169.573 364.56 170.093 364.28C170.627 363.987 171.04 363.573 171.333 363.04C171.64 362.507 171.793 361.9 171.793 361.22C171.793 360.54 171.64 359.933 171.333 359.4C171.04 358.867 170.627 358.453 170.093 358.16C169.573 357.867 168.987 357.72 168.333 357.72C167.52 357.72 166.793 357.94 166.153 358.38C165.513 358.82 165.08 359.407 164.853 360.14V362.3C165.107 363.033 165.54 363.62 166.153 364.06C166.78 364.487 167.507 364.7 168.333 364.7ZM176.036 351.22H178.056V366H176.036V351.22ZM185.945 366.3C184.172 366.3 182.779 365.86 181.765 364.98C180.765 364.087 180.265 362.833 180.265 361.22C180.265 359.647 180.712 358.4 181.605 357.48C182.512 356.56 183.799 356.1 185.465 356.1C186.572 356.1 187.512 356.313 188.285 356.74C189.059 357.153 189.639 357.733 190.025 358.48C190.425 359.213 190.625 360.053 190.625 361V362H182.185C182.252 362.907 182.632 363.587 183.325 364.04C184.032 364.48 184.985 364.7 186.185 364.7C186.799 364.7 187.419 364.647 188.045 364.54C188.672 364.42 189.225 364.267 189.705 364.08V365.7C189.279 365.873 188.712 366.013 188.005 366.12C187.312 366.24 186.625 366.3 185.945 366.3ZM188.725 360.58C188.699 359.673 188.399 358.973 187.825 358.48C187.265 357.973 186.465 357.72 185.425 357.72C184.412 357.72 183.625 357.98 183.065 358.5C182.505 359.02 182.212 359.713 182.185 360.58H188.725ZM192.833 356.4H194.753V357.78C195.207 357.22 195.72 356.8 196.293 356.52C196.867 356.24 197.46 356.1 198.073 356.1C198.847 356.1 199.46 356.233 199.913 356.5C200.367 356.753 200.7 357.147 200.913 357.68C201.34 357.16 201.86 356.767 202.473 356.5C203.1 356.233 203.727 356.1 204.353 356.1C205.527 356.1 206.373 356.4 206.893 357C207.413 357.587 207.673 358.46 207.673 359.62V366H205.713V359.88C205.713 359.093 205.567 358.54 205.273 358.22C204.98 357.887 204.48 357.72 203.773 357.72C202.76 357.72 201.933 358.16 201.293 359.04C201.32 359.24 201.333 359.567 201.333 360.02V366H199.373V359.88C199.373 359.093 199.24 358.54 198.973 358.22C198.707 357.887 198.227 357.72 197.533 357.72C196.52 357.72 195.613 358.293 194.813 359.44V366H192.833V356.4ZM217.579 356.4H219.539V357.82C220.526 356.673 221.859 356.1 223.539 356.1C224.499 356.1 225.359 356.313 226.119 356.74C226.893 357.167 227.493 357.767 227.919 358.54C228.359 359.3 228.579 360.187 228.579 361.2C228.579 362.2 228.359 363.087 227.919 363.86C227.493 364.633 226.899 365.233 226.139 365.66C225.379 366.087 224.513 366.3 223.539 366.3C222.739 366.3 221.993 366.167 221.299 365.9C220.606 365.633 220.039 365.24 219.599 364.72V370.38H217.579V356.4ZM223.079 364.7C223.733 364.7 224.319 364.56 224.839 364.28C225.373 363.987 225.786 363.573 226.079 363.04C226.386 362.507 226.539 361.893 226.539 361.2C226.539 360.507 226.386 359.9 226.079 359.38C225.786 358.847 225.373 358.44 224.839 358.16C224.319 357.867 223.733 357.72 223.079 357.72C222.266 357.72 221.546 357.933 220.919 358.36C220.306 358.787 219.866 359.373 219.599 360.12V362.28C219.826 363.013 220.259 363.6 220.899 364.04C221.539 364.48 222.266 364.7 223.079 364.7ZM236.062 366.3C234.289 366.3 232.896 365.86 231.882 364.98C230.882 364.087 230.382 362.833 230.382 361.22C230.382 359.647 230.829 358.4 231.722 357.48C232.629 356.56 233.916 356.1 235.582 356.1C236.689 356.1 237.629 356.313 238.402 356.74C239.176 357.153 239.756 357.733 240.142 358.48C240.542 359.213 240.742 360.053 240.742 361V362H232.302C232.369 362.907 232.749 363.587 233.442 364.04C234.149 364.48 235.102 364.7 236.302 364.7C236.916 364.7 237.536 364.647 238.162 364.54C238.789 364.42 239.342 364.267 239.822 364.08V365.7C239.396 365.873 238.829 366.013 238.122 366.12C237.429 366.24 236.742 366.3 236.062 366.3ZM238.842 360.58C238.816 359.673 238.516 358.973 237.942 358.48C237.382 357.973 236.582 357.72 235.542 357.72C234.529 357.72 233.742 357.98 233.182 358.5C232.622 359.02 232.329 359.713 232.302 360.58H238.842ZM242.95 356.4H244.91V358.12C245.31 357.533 245.87 357.1 246.59 356.82C247.324 356.54 248.17 356.4 249.13 356.4V357.98C248.104 357.98 247.224 358.147 246.49 358.48C245.757 358.813 245.25 359.34 244.97 360.06V366H242.95V356.4ZM254.186 366.3C253.519 366.3 252.812 366.213 252.066 366.04C251.319 365.88 250.732 365.66 250.306 365.38V363.66C250.826 363.967 251.426 364.22 252.106 364.42C252.786 364.607 253.446 364.7 254.086 364.7C254.806 364.7 255.332 364.613 255.666 364.44C255.999 364.267 256.166 363.987 256.166 363.6C256.166 363.307 256.086 363.073 255.926 362.9C255.779 362.713 255.519 362.547 255.146 362.4C254.786 362.253 254.239 362.08 253.506 361.88C252.719 361.653 252.092 361.427 251.626 361.2C251.172 360.96 250.826 360.66 250.586 360.3C250.359 359.94 250.246 359.473 250.246 358.9C250.246 357.98 250.606 357.287 251.326 356.82C252.059 356.34 253.039 356.1 254.266 356.1C254.906 356.1 255.532 356.16 256.146 356.28C256.759 356.4 257.252 356.567 257.626 356.78V358.46C257.239 358.233 256.759 358.053 256.186 357.92C255.626 357.787 255.052 357.72 254.466 357.72C253.759 357.72 253.219 357.807 252.846 357.98C252.472 358.153 252.286 358.46 252.286 358.9C252.286 359.18 252.366 359.407 252.526 359.58C252.686 359.753 252.939 359.907 253.286 360.04C253.646 360.16 254.212 360.32 254.986 360.52C256.199 360.853 257.039 361.247 257.506 361.7C257.986 362.153 258.226 362.78 258.226 363.58C258.226 364.407 257.886 365.067 257.206 365.56C256.526 366.053 255.519 366.3 254.186 366.3ZM261.611 354.52C261.278 354.52 260.998 354.407 260.771 354.18C260.544 353.953 260.431 353.673 260.431 353.34C260.431 353.007 260.544 352.727 260.771 352.5C260.998 352.273 261.278 352.16 261.611 352.16C261.958 352.16 262.244 352.273 262.471 352.5C262.711 352.727 262.831 353.007 262.831 353.34C262.831 353.673 262.711 353.953 262.471 354.18C262.244 354.407 261.958 354.52 261.611 354.52ZM260.591 356.4H262.651V366H260.591V356.4ZM268.971 366.3C268.304 366.3 267.598 366.213 266.851 366.04C266.104 365.88 265.518 365.66 265.091 365.38V363.66C265.611 363.967 266.211 364.22 266.891 364.42C267.571 364.607 268.231 364.7 268.871 364.7C269.591 364.7 270.118 364.613 270.451 364.44C270.784 364.267 270.951 363.987 270.951 363.6C270.951 363.307 270.871 363.073 270.711 362.9C270.564 362.713 270.304 362.547 269.931 362.4C269.571 362.253 269.024 362.08 268.291 361.88C267.504 361.653 266.878 361.427 266.411 361.2C265.958 360.96 265.611 360.66 265.371 360.3C265.144 359.94 265.031 359.473 265.031 358.9C265.031 357.98 265.391 357.287 266.111 356.82C266.844 356.34 267.824 356.1 269.051 356.1C269.691 356.1 270.318 356.16 270.931 356.28C271.544 356.4 272.038 356.567 272.411 356.78V358.46C272.024 358.233 271.544 358.053 270.971 357.92C270.411 357.787 269.838 357.72 269.251 357.72C268.544 357.72 268.004 357.807 267.631 357.98C267.258 358.153 267.071 358.46 267.071 358.9C267.071 359.18 267.151 359.407 267.311 359.58C267.471 359.753 267.724 359.907 268.071 360.04C268.431 360.16 268.998 360.32 269.771 360.52C270.984 360.853 271.824 361.247 272.291 361.7C272.771 362.153 273.011 362.78 273.011 363.58C273.011 364.407 272.671 365.067 271.991 365.56C271.311 366.053 270.304 366.3 268.971 366.3ZM278.623 366.3C277.65 366.3 276.896 366.02 276.363 365.46C275.843 364.9 275.583 364.107 275.583 363.08V357.96H274.123V356.4H275.583V353.52H277.623V356.4H279.983V357.96H277.623V362.94C277.623 363.58 277.743 364.033 277.983 364.3C278.236 364.567 278.69 364.7 279.343 364.7C279.73 364.7 280.116 364.613 280.503 364.44V366.04C279.996 366.213 279.37 366.3 278.623 366.3ZM285.553 366.3C284.886 366.3 284.18 366.213 283.433 366.04C282.686 365.88 282.1 365.66 281.673 365.38V363.66C282.193 363.967 282.793 364.22 283.473 364.42C284.153 364.607 284.813 364.7 285.453 364.7C286.173 364.7 286.7 364.613 287.033 364.44C287.366 364.267 287.533 363.987 287.533 363.6C287.533 363.307 287.453 363.073 287.293 362.9C287.146 362.713 286.886 362.547 286.513 362.4C286.153 362.253 285.606 362.08 284.873 361.88C284.086 361.653 283.46 361.427 282.993 361.2C282.54 360.96 282.193 360.66 281.953 360.3C281.726 359.94 281.613 359.473 281.613 358.9C281.613 357.98 281.973 357.287 282.693 356.82C283.426 356.34 284.406 356.1 285.633 356.1C286.273 356.1 286.9 356.16 287.513 356.28C288.126 356.4 288.62 356.567 288.993 356.78V358.46C288.606 358.233 288.126 358.053 287.553 357.92C286.993 357.787 286.42 357.72 285.833 357.72C285.126 357.72 284.586 357.807 284.213 357.98C283.84 358.153 283.653 358.46 283.653 358.9C283.653 359.18 283.733 359.407 283.893 359.58C284.053 359.753 284.306 359.907 284.653 360.04C285.013 360.16 285.58 360.32 286.353 360.52C287.566 360.853 288.406 361.247 288.873 361.7C289.353 362.153 289.593 362.78 289.593 363.58C289.593 364.407 289.253 365.067 288.573 365.56C287.893 366.053 286.886 366.3 285.553 366.3ZM292.338 366C292.071 366 291.845 365.913 291.658 365.74C291.485 365.553 291.398 365.327 291.398 365.06C291.398 364.793 291.485 364.567 291.658 364.38C291.845 364.193 292.071 364.1 292.338 364.1C292.605 364.1 292.831 364.193 293.018 364.38C293.205 364.567 293.298 364.793 293.298 365.06C293.298 365.327 293.205 365.553 293.018 365.74C292.831 365.913 292.605 366 292.338 366ZM302.892 352.02H308.272C309.778 352.02 310.965 352.4 311.832 353.16C312.712 353.907 313.152 354.973 313.152 356.36C313.152 357.773 312.718 358.847 311.852 359.58C310.985 360.3 309.792 360.66 308.272 360.66H304.932V366H302.892V352.02ZM308.052 358.96C308.985 358.96 309.725 358.767 310.272 358.38C310.818 357.993 311.092 357.32 311.092 356.36C311.092 355.4 310.818 354.727 310.272 354.34C309.725 353.94 308.985 353.74 308.052 353.74H304.932V358.96H308.052ZM314.943 351.22H316.963V366H314.943V351.22ZM324.851 366.3C323.078 366.3 321.685 365.86 320.671 364.98C319.671 364.087 319.171 362.833 319.171 361.22C319.171 359.647 319.618 358.4 320.511 357.48C321.418 356.56 322.705 356.1 324.371 356.1C325.478 356.1 326.418 356.313 327.191 356.74C327.965 357.153 328.545 357.733 328.931 358.48C329.331 359.213 329.531 360.053 329.531 361V362H321.091C321.158 362.907 321.538 363.587 322.231 364.04C322.938 364.48 323.891 364.7 325.091 364.7C325.705 364.7 326.325 364.647 326.951 364.54C327.578 364.42 328.131 364.267 328.611 364.08V365.7C328.185 365.873 327.618 366.013 326.911 366.12C326.218 366.24 325.531 366.3 324.851 366.3ZM327.631 360.58C327.605 359.673 327.305 358.973 326.731 358.48C326.171 357.973 325.371 357.72 324.331 357.72C323.318 357.72 322.531 357.98 321.971 358.5C321.411 359.02 321.118 359.713 321.091 360.58H327.631ZM335.179 366.3C334.019 366.3 333.086 366.007 332.379 365.42C331.686 364.82 331.339 364.013 331.339 363C331.339 361.933 331.673 361.113 332.339 360.54C333.019 359.953 333.979 359.66 335.219 359.66C336.539 359.66 337.659 359.927 338.579 360.46V359.96C338.579 359.2 338.346 358.64 337.879 358.28C337.426 357.907 336.706 357.72 335.719 357.72C335.133 357.72 334.559 357.78 333.999 357.9C333.453 358.007 332.959 358.16 332.519 358.36V356.72C332.919 356.533 333.439 356.387 334.079 356.28C334.719 356.16 335.339 356.1 335.939 356.1C337.526 356.1 338.699 356.453 339.459 357.16C340.233 357.853 340.619 358.82 340.619 360.06V366H338.719V364.92C338.306 365.373 337.813 365.72 337.239 365.96C336.679 366.187 335.993 366.3 335.179 366.3ZM335.679 364.76C336.319 364.76 336.899 364.633 337.419 364.38C337.939 364.127 338.326 363.773 338.579 363.32V362.02C337.713 361.46 336.746 361.18 335.679 361.18C334.906 361.18 334.326 361.333 333.939 361.64C333.566 361.933 333.379 362.387 333.379 363C333.379 364.173 334.146 364.76 335.679 364.76ZM346.373 366.3C345.707 366.3 345 366.213 344.253 366.04C343.507 365.88 342.92 365.66 342.493 365.38V363.66C343.013 363.967 343.613 364.22 344.293 364.42C344.973 364.607 345.633 364.7 346.273 364.7C346.993 364.7 347.52 364.613 347.853 364.44C348.187 364.267 348.353 363.987 348.353 363.6C348.353 363.307 348.273 363.073 348.113 362.9C347.967 362.713 347.707 362.547 347.333 362.4C346.973 362.253 346.427 362.08 345.693 361.88C344.907 361.653 344.28 361.427 343.813 361.2C343.36 360.96 343.013 360.66 342.773 360.3C342.547 359.94 342.433 359.473 342.433 358.9C342.433 357.98 342.793 357.287 343.513 356.82C344.247 356.34 345.227 356.1 346.453 356.1C347.093 356.1 347.72 356.16 348.333 356.28C348.947 356.4 349.44 356.567 349.813 356.78V358.46C349.427 358.233 348.947 358.053 348.373 357.92C347.813 357.787 347.24 357.72 346.653 357.72C345.947 357.72 345.407 357.807 345.033 357.98C344.66 358.153 344.473 358.46 344.473 358.9C344.473 359.18 344.553 359.407 344.713 359.58C344.873 359.753 345.127 359.907 345.473 360.04C345.833 360.16 346.4 360.32 347.173 360.52C348.387 360.853 349.227 361.247 349.693 361.7C350.173 362.153 350.413 362.78 350.413 363.58C350.413 364.407 350.073 365.067 349.393 365.56C348.713 366.053 347.707 366.3 346.373 366.3ZM357.898 366.3C356.125 366.3 354.732 365.86 353.718 364.98C352.718 364.087 352.218 362.833 352.218 361.22C352.218 359.647 352.665 358.4 353.558 357.48C354.465 356.56 355.752 356.1 357.418 356.1C358.525 356.1 359.465 356.313 360.238 356.74C361.012 357.153 361.592 357.733 361.978 358.48C362.378 359.213 362.578 360.053 362.578 361V362H354.138C354.205 362.907 354.585 363.587 355.278 364.04C355.985 364.48 356.938 364.7 358.138 364.7C358.752 364.7 359.372 364.647 359.998 364.54C360.625 364.42 361.178 364.267 361.658 364.08V365.7C361.232 365.873 360.665 366.013 359.958 366.12C359.265 366.24 358.578 366.3 357.898 366.3ZM360.678 360.58C360.652 359.673 360.352 358.973 359.778 358.48C359.218 357.973 358.418 357.72 357.378 357.72C356.365 357.72 355.578 357.98 355.018 358.5C354.458 359.02 354.165 359.713 354.138 360.58H360.678ZM377.249 366.3C376.182 366.3 375.235 366.1 374.409 365.7C373.582 365.3 372.935 364.72 372.469 363.96C372.015 363.187 371.789 362.273 371.789 361.22C371.789 360.167 372.015 359.26 372.469 358.5C372.935 357.727 373.582 357.133 374.409 356.72C375.249 356.307 376.209 356.1 377.289 356.1C378.755 356.1 379.929 356.387 380.809 356.96V358.62C379.942 358.02 378.835 357.72 377.489 357.72C376.395 357.72 375.509 358.02 374.829 358.62C374.162 359.207 373.829 360.073 373.829 361.22C373.829 362.367 374.162 363.233 374.829 363.82C375.495 364.407 376.369 364.7 377.449 364.7C378.795 364.7 379.955 364.38 380.929 363.74V365.38C380.462 365.7 379.929 365.933 379.329 366.08C378.742 366.227 378.049 366.3 377.249 366.3ZM387.893 366.3C386.813 366.3 385.86 366.1 385.033 365.7C384.22 365.287 383.58 364.7 383.113 363.94C382.66 363.167 382.433 362.26 382.433 361.22C382.433 360.193 382.66 359.293 383.113 358.52C383.567 357.747 384.207 357.153 385.033 356.74C385.86 356.313 386.813 356.1 387.893 356.1C388.973 356.1 389.927 356.313 390.753 356.74C391.58 357.153 392.22 357.747 392.673 358.52C393.14 359.293 393.373 360.193 393.373 361.22C393.373 362.26 393.14 363.167 392.673 363.94C392.22 364.7 391.58 365.287 390.753 365.7C389.927 366.1 388.973 366.3 387.893 366.3ZM387.893 364.7C388.933 364.7 389.76 364.38 390.373 363.74C390.987 363.1 391.293 362.26 391.293 361.22C391.293 360.14 390.987 359.287 390.373 358.66C389.76 358.033 388.933 357.72 387.893 357.72C386.853 357.72 386.027 358.033 385.413 358.66C384.8 359.287 384.493 360.14 384.493 361.22C384.493 362.26 384.8 363.1 385.413 363.74C386.027 364.38 386.853 364.7 387.893 364.7ZM395.568 356.4H397.528V357.78C397.981 357.207 398.534 356.787 399.188 356.52C399.854 356.24 400.548 356.1 401.268 356.1C402.548 356.1 403.501 356.44 404.128 357.12C404.754 357.8 405.068 358.713 405.068 359.86V366H403.048V360.06C403.048 358.5 402.301 357.72 400.808 357.72C400.168 357.72 399.568 357.873 399.008 358.18C398.461 358.473 397.988 358.927 397.588 359.54V366H395.568V356.4ZM411.26 366.3C410.286 366.3 409.533 366.02 409 365.46C408.48 364.9 408.22 364.107 408.22 363.08V357.96H406.76V356.4H408.22V353.52H410.26V356.4H412.62V357.96H410.26V362.94C410.26 363.58 410.38 364.033 410.62 364.3C410.873 364.567 411.326 364.7 411.98 364.7C412.366 364.7 412.753 364.613 413.14 364.44V366.04C412.633 366.213 412.006 366.3 411.26 366.3ZM418.187 366.3C417.027 366.3 416.094 366.007 415.387 365.42C414.694 364.82 414.347 364.013 414.347 363C414.347 361.933 414.681 361.113 415.347 360.54C416.027 359.953 416.987 359.66 418.227 359.66C419.547 359.66 420.667 359.927 421.587 360.46V359.96C421.587 359.2 421.354 358.64 420.887 358.28C420.434 357.907 419.714 357.72 418.727 357.72C418.141 357.72 417.567 357.78 417.007 357.9C416.461 358.007 415.967 358.16 415.527 358.36V356.72C415.927 356.533 416.447 356.387 417.087 356.28C417.727 356.16 418.347 356.1 418.947 356.1C420.534 356.1 421.707 356.453 422.467 357.16C423.241 357.853 423.627 358.82 423.627 360.06V366H421.727V364.92C421.314 365.373 420.821 365.72 420.247 365.96C419.687 366.187 419.001 366.3 418.187 366.3ZM418.687 364.76C419.327 364.76 419.907 364.633 420.427 364.38C420.947 364.127 421.334 363.773 421.587 363.32V362.02C420.721 361.46 419.754 361.18 418.687 361.18C417.914 361.18 417.334 361.333 416.947 361.64C416.574 361.933 416.387 362.387 416.387 363C416.387 364.173 417.154 364.76 418.687 364.76ZM430.803 366.3C429.737 366.3 428.79 366.1 427.963 365.7C427.137 365.3 426.49 364.72 426.023 363.96C425.57 363.187 425.343 362.273 425.343 361.22C425.343 360.167 425.57 359.26 426.023 358.5C426.49 357.727 427.137 357.133 427.963 356.72C428.803 356.307 429.763 356.1 430.843 356.1C432.31 356.1 433.483 356.387 434.363 356.96V358.62C433.497 358.02 432.39 357.72 431.043 357.72C429.95 357.72 429.063 358.02 428.383 358.62C427.717 359.207 427.383 360.073 427.383 361.22C427.383 362.367 427.717 363.233 428.383 363.82C429.05 364.407 429.923 364.7 431.003 364.7C432.35 364.7 433.51 364.38 434.483 363.74V365.38C434.017 365.7 433.483 365.933 432.883 366.08C432.297 366.227 431.603 366.3 430.803 366.3ZM440.381 366.3C439.408 366.3 438.654 366.02 438.121 365.46C437.601 364.9 437.341 364.107 437.341 363.08V357.96H435.881V356.4H437.341V353.52H439.381V356.4H441.741V357.96H439.381V362.94C439.381 363.58 439.501 364.033 439.741 364.3C439.994 364.567 440.448 364.7 441.101 364.7C441.488 364.7 441.874 364.613 442.261 364.44V366.04C441.754 366.213 441.128 366.3 440.381 366.3ZM455.264 366.3C454.29 366.3 453.537 366.02 453.004 365.46C452.484 364.9 452.224 364.107 452.224 363.08V357.96H450.764V356.4H452.224V353.52H454.264V356.4H456.624V357.96H454.264V362.94C454.264 363.58 454.384 364.033 454.624 364.3C454.877 364.567 455.33 364.7 455.984 364.7C456.37 364.7 456.757 364.613 457.144 364.44V366.04C456.637 366.213 456.01 366.3 455.264 366.3ZM459.044 351.22H461.064V357.72C461.984 356.64 463.211 356.1 464.744 356.1C466.024 356.1 466.977 356.44 467.604 357.12C468.231 357.8 468.544 358.713 468.544 359.86V366H466.524V360.06C466.524 358.5 465.777 357.72 464.284 357.72C463.644 357.72 463.044 357.873 462.484 358.18C461.937 358.473 461.464 358.927 461.064 359.54V366H459.044V351.22ZM476.316 366.3C474.543 366.3 473.15 365.86 472.136 364.98C471.136 364.087 470.636 362.833 470.636 361.22C470.636 359.647 471.083 358.4 471.976 357.48C472.883 356.56 474.17 356.1 475.836 356.1C476.943 356.1 477.883 356.313 478.656 356.74C479.43 357.153 480.01 357.733 480.396 358.48C480.796 359.213 480.996 360.053 480.996 361V362H472.556C472.623 362.907 473.003 363.587 473.696 364.04C474.403 364.48 475.356 364.7 476.556 364.7C477.17 364.7 477.79 364.647 478.416 364.54C479.043 364.42 479.596 364.267 480.076 364.08V365.7C479.65 365.873 479.083 366.013 478.376 366.12C477.683 366.24 476.996 366.3 476.316 366.3ZM479.096 360.58C479.07 359.673 478.77 358.973 478.196 358.48C477.636 357.973 476.836 357.72 475.796 357.72C474.783 357.72 473.996 357.98 473.436 358.5C472.876 359.02 472.583 359.713 472.556 360.58H479.096ZM494.047 366.3C492.887 366.3 491.953 366.007 491.247 365.42C490.553 364.82 490.207 364.013 490.207 363C490.207 361.933 490.54 361.113 491.207 360.54C491.887 359.953 492.847 359.66 494.087 359.66C495.407 359.66 496.527 359.927 497.447 360.46V359.96C497.447 359.2 497.213 358.64 496.747 358.28C496.293 357.907 495.573 357.72 494.587 357.72C494 357.72 493.427 357.78 492.867 357.9C492.32 358.007 491.827 358.16 491.387 358.36V356.72C491.787 356.533 492.307 356.387 492.947 356.28C493.587 356.16 494.207 356.1 494.807 356.1C496.393 356.1 497.567 356.453 498.327 357.16C499.1 357.853 499.487 358.82 499.487 360.06V366H497.587V364.92C497.173 365.373 496.68 365.72 496.107 365.96C495.547 366.187 494.86 366.3 494.047 366.3ZM494.547 364.76C495.187 364.76 495.767 364.633 496.287 364.38C496.807 364.127 497.193 363.773 497.447 363.32V362.02C496.58 361.46 495.613 361.18 494.547 361.18C493.773 361.18 493.193 361.333 492.807 361.64C492.433 361.933 492.247 362.387 492.247 363C492.247 364.173 493.013 364.76 494.547 364.76ZM506.633 366.3C505.673 366.3 504.807 366.093 504.033 365.68C503.273 365.253 502.673 364.66 502.233 363.9C501.807 363.127 501.593 362.233 501.593 361.22C501.593 360.22 501.807 359.333 502.233 358.56C502.673 357.787 503.273 357.187 504.033 356.76C504.807 356.32 505.673 356.1 506.633 356.1C508.367 356.1 509.68 356.627 510.573 357.68V351.22H512.593V366H510.633V364.6C510.1 365.187 509.513 365.62 508.873 365.9C508.247 366.167 507.5 366.3 506.633 366.3ZM507.093 364.7C507.92 364.7 508.64 364.487 509.253 364.06C509.88 363.62 510.32 363.033 510.573 362.3V360.14C510.347 359.407 509.913 358.82 509.273 358.38C508.647 357.94 507.92 357.72 507.093 357.72C506.44 357.72 505.847 357.867 505.313 358.16C504.793 358.453 504.38 358.867 504.073 359.4C503.78 359.933 503.633 360.54 503.633 361.22C503.633 361.9 503.78 362.507 504.073 363.04C504.38 363.573 504.793 363.987 505.313 364.28C505.847 364.56 506.44 364.7 507.093 364.7ZM515.196 356.4H517.116V357.78C517.57 357.22 518.083 356.8 518.656 356.52C519.23 356.24 519.823 356.1 520.436 356.1C521.21 356.1 521.823 356.233 522.276 356.5C522.73 356.753 523.063 357.147 523.276 357.68C523.703 357.16 524.223 356.767 524.836 356.5C525.463 356.233 526.09 356.1 526.716 356.1C527.89 356.1 528.736 356.4 529.256 357C529.776 357.587 530.036 358.46 530.036 359.62V366H528.076V359.88C528.076 359.093 527.93 358.54 527.636 358.22C527.343 357.887 526.843 357.72 526.136 357.72C525.123 357.72 524.296 358.16 523.656 359.04C523.683 359.24 523.696 359.567 523.696 360.02V366H521.736V359.88C521.736 359.093 521.603 358.54 521.336 358.22C521.07 357.887 520.59 357.72 519.896 357.72C518.883 357.72 517.976 358.293 517.176 359.44V366H515.196V356.4ZM533.72 354.52C533.387 354.52 533.107 354.407 532.88 354.18C532.654 353.953 532.54 353.673 532.54 353.34C532.54 353.007 532.654 352.727 532.88 352.5C533.107 352.273 533.387 352.16 533.72 352.16C534.067 352.16 534.354 352.273 534.58 352.5C534.82 352.727 534.94 353.007 534.94 353.34C534.94 353.673 534.82 353.953 534.58 354.18C534.354 354.407 534.067 354.52 533.72 354.52ZM532.7 356.4H534.76V366H532.7V356.4ZM537.54 356.4H539.5V357.78C539.954 357.207 540.507 356.787 541.16 356.52C541.827 356.24 542.52 356.1 543.24 356.1C544.52 356.1 545.474 356.44 546.1 357.12C546.727 357.8 547.04 358.713 547.04 359.86V366H545.02V360.06C545.02 358.5 544.274 357.72 542.78 357.72C542.14 357.72 541.54 357.873 540.98 358.18C540.434 358.473 539.96 358.927 539.56 359.54V366H537.54V356.4ZM550.712 354.52C550.379 354.52 550.099 354.407 549.872 354.18C549.646 353.953 549.532 353.673 549.532 353.34C549.532 353.007 549.646 352.727 549.872 352.5C550.099 352.273 550.379 352.16 550.712 352.16C551.059 352.16 551.346 352.273 551.572 352.5C551.812 352.727 551.932 353.007 551.932 353.34C551.932 353.673 551.812 353.953 551.572 354.18C551.346 354.407 551.059 354.52 550.712 354.52ZM549.692 356.4H551.752V366H549.692V356.4ZM558.072 366.3C557.406 366.3 556.699 366.213 555.952 366.04C555.206 365.88 554.619 365.66 554.192 365.38V363.66C554.712 363.967 555.312 364.22 555.992 364.42C556.672 364.607 557.332 364.7 557.972 364.7C558.692 364.7 559.219 364.613 559.552 364.44C559.886 364.267 560.052 363.987 560.052 363.6C560.052 363.307 559.972 363.073 559.812 362.9C559.666 362.713 559.406 362.547 559.032 362.4C558.672 362.253 558.126 362.08 557.392 361.88C556.606 361.653 555.979 361.427 555.512 361.2C555.059 360.96 554.712 360.66 554.472 360.3C554.246 359.94 554.132 359.473 554.132 358.9C554.132 357.98 554.492 357.287 555.212 356.82C555.946 356.34 556.926 356.1 558.152 356.1C558.792 356.1 559.419 356.16 560.032 356.28C560.646 356.4 561.139 356.567 561.512 356.78V358.46C561.126 358.233 560.646 358.053 560.072 357.92C559.512 357.787 558.939 357.72 558.352 357.72C557.646 357.72 557.106 357.807 556.732 357.98C556.359 358.153 556.172 358.46 556.172 358.9C556.172 359.18 556.252 359.407 556.412 359.58C556.572 359.753 556.826 359.907 557.172 360.04C557.532 360.16 558.099 360.32 558.872 360.52C560.086 360.853 560.926 361.247 561.392 361.7C561.872 362.153 562.112 362.78 562.112 363.58C562.112 364.407 561.772 365.067 561.092 365.56C560.412 366.053 559.406 366.3 558.072 366.3ZM567.725 366.3C566.751 366.3 565.998 366.02 565.465 365.46C564.945 364.9 564.685 364.107 564.685 363.08V357.96H563.225V356.4H564.685V353.52H566.725V356.4H569.085V357.96H566.725V362.94C566.725 363.58 566.845 364.033 567.085 364.3C567.338 364.567 567.791 364.7 568.445 364.7C568.831 364.7 569.218 364.613 569.605 364.44V366.04C569.098 366.213 568.471 366.3 567.725 366.3ZM571.505 356.4H573.465V358.12C573.865 357.533 574.425 357.1 575.145 356.82C575.878 356.54 576.725 356.4 577.685 356.4V357.98C576.658 357.98 575.778 358.147 575.045 358.48C574.312 358.813 573.805 359.34 573.525 360.06V366H571.505V356.4ZM582.035 366.3C580.875 366.3 579.942 366.007 579.235 365.42C578.542 364.82 578.195 364.013 578.195 363C578.195 361.933 578.528 361.113 579.195 360.54C579.875 359.953 580.835 359.66 582.075 359.66C583.395 359.66 584.515 359.927 585.435 360.46V359.96C585.435 359.2 585.202 358.64 584.735 358.28C584.282 357.907 583.562 357.72 582.575 357.72C581.988 357.72 581.415 357.78 580.855 357.9C580.308 358.007 579.815 358.16 579.375 358.36V356.72C579.775 356.533 580.295 356.387 580.935 356.28C581.575 356.16 582.195 356.1 582.795 356.1C584.382 356.1 585.555 356.453 586.315 357.16C587.088 357.853 587.475 358.82 587.475 360.06V366H585.575V364.92C585.162 365.373 584.668 365.72 584.095 365.96C583.535 366.187 582.848 366.3 582.035 366.3ZM582.535 364.76C583.175 364.76 583.755 364.633 584.275 364.38C584.795 364.127 585.182 363.773 585.435 363.32V362.02C584.568 361.46 583.602 361.18 582.535 361.18C581.762 361.18 581.182 361.333 580.795 361.64C580.422 361.933 580.235 362.387 580.235 363C580.235 364.173 581.002 364.76 582.535 364.76ZM593.174 366.3C592.2 366.3 591.447 366.02 590.914 365.46C590.394 364.9 590.134 364.107 590.134 363.08V357.96H588.674V356.4H590.134V353.52H592.174V356.4H594.534V357.96H592.174V362.94C592.174 363.58 592.294 364.033 592.534 364.3C592.787 364.567 593.24 364.7 593.894 364.7C594.28 364.7 594.667 364.613 595.054 364.44V366.04C594.547 366.213 593.92 366.3 593.174 366.3ZM601.917 366.3C600.837 366.3 599.883 366.1 599.057 365.7C598.243 365.287 597.603 364.7 597.137 363.94C596.683 363.167 596.457 362.26 596.457 361.22C596.457 360.193 596.683 359.293 597.137 358.52C597.59 357.747 598.23 357.153 599.057 356.74C599.883 356.313 600.837 356.1 601.917 356.1C602.997 356.1 603.95 356.313 604.777 356.74C605.603 357.153 606.243 357.747 606.697 358.52C607.163 359.293 607.397 360.193 607.397 361.22C607.397 362.26 607.163 363.167 606.697 363.94C606.243 364.7 605.603 365.287 604.777 365.7C603.95 366.1 602.997 366.3 601.917 366.3ZM601.917 364.7C602.957 364.7 603.783 364.38 604.397 363.74C605.01 363.1 605.317 362.26 605.317 361.22C605.317 360.14 605.01 359.287 604.397 358.66C603.783 358.033 602.957 357.72 601.917 357.72C600.877 357.72 600.05 358.033 599.437 358.66C598.823 359.287 598.517 360.14 598.517 361.22C598.517 362.26 598.823 363.1 599.437 363.74C600.05 364.38 600.877 364.7 601.917 364.7ZM609.591 356.4H611.551V358.12C611.951 357.533 612.511 357.1 613.231 356.82C613.964 356.54 614.811 356.4 615.771 356.4V357.98C614.744 357.98 613.864 358.147 613.131 358.48C612.398 358.813 611.891 359.34 611.611 360.06V366H609.591V356.4ZM618.119 366C617.853 366 617.626 365.913 617.439 365.74C617.266 365.553 617.179 365.327 617.179 365.06C617.179 364.793 617.266 364.567 617.439 364.38C617.626 364.193 617.853 364.1 618.119 364.1C618.386 364.1 618.613 364.193 618.799 364.38C618.986 364.567 619.079 364.793 619.079 365.06C619.079 365.327 618.986 365.553 618.799 365.74C618.613 365.913 618.386 366 618.119 366Z" fill="#909090"/>

<path d="M412.012 142.719H277.342C276.69 141.818 275.642 141.888 274.725 141.628C267.509 139.592 263.74 133.087 265.38 125.811C266.352 121.51 268.654 117.878 270.799 114.164C287.295 85.5651 303.812 56.9772 320.341 28.4001C324.38 21.4174 328.284 14.3478 332.639 7.56056C337.075 0.653844 344.08 -1.70269 350.226 1.24569C354.168 3.13526 356.851 6.41487 359.001 10.1343C372.418 33.3521 385.992 56.4885 399.181 79.8367C407.923 95.3116 418.061 110.032 425 126.506V131.371C423.767 135.552 421.503 138.891 417.436 140.824C415.693 141.655 413.646 141.59 412.023 142.725L412.012 142.719ZM345.149 92.423C346.138 92.423 347.142 92.3198 348.119 92.4447C350.166 92.7107 351.024 92.0212 350.975 89.8384C350.932 87.8837 351.263 85.9018 351.578 83.9579C353.278 73.3372 355.075 62.7328 356.731 52.1012C357.317 48.3547 356.764 44.7384 354.304 41.6597C350.769 37.229 344.91 35.8987 339.796 38.2932C334.854 40.6063 332.031 46.4434 333.166 52.3401C335.392 63.8676 337.325 75.4331 338.927 87.0638C339.665 92.423 339.709 92.4175 345.149 92.4175V92.423ZM356.845 111.53C357.442 106.437 352.224 99.536 344.883 99.574C337.71 99.612 332.71 106.356 332.976 111.666C333.296 118.16 338.264 123.302 344.878 123.313C351.654 123.324 356.851 118.215 356.845 111.536V111.53Z" fill="#B41239"/>
</svg>
