<svg width="100" height="24" viewBox="0 0 100 24" fill="none" xmlns="http://www.w3.org/2000/svg">
<path d="M98.0014 19.7322C97.8342 19.6877 97.7289 19.5736 97.6106 19.4835C93.4489 16.3414 89.0451 13.5879 84.384 11.2503C79.7262 8.91381 74.886 7.04959 69.8535 5.69241C67.1631 4.96713 64.4389 4.3906 61.6833 3.97693C57.1742 3.30051 52.6391 3.06599 48.0833 3.23862C46.2028 3.31028 44.3288 3.47532 42.458 3.69246C39.0998 4.08225 35.7861 4.70981 32.5137 5.55234C25.9482 7.24176 19.7149 9.77155 13.7564 12.9962C10.1669 14.9397 6.72401 17.1144 3.42117 19.5118C3.343 19.5682 3.26808 19.6268 3.18883 19.6822C3.11608 19.7322 3.05311 19.7539 2.98253 19.6583C2.71653 19.3 2.30503 19.1567 1.92502 18.9721C1.51786 18.7756 1.10094 18.5997 0.689442 18.4119C0.47555 18.3142 0.276859 18.1915 0.11074 18.0243C-0.0445214 17.8679 -0.0390926 17.8028 0.143312 17.6649C0.527666 17.3772 0.915277 17.0927 1.30723 16.8137C8.22234 11.8811 15.6141 7.84327 23.5997 4.91827C26.7701 3.75761 29.9969 2.78587 33.2857 2.02585C35.8002 1.44497 38.3376 0.985704 40.8967 0.646952C44.7327 0.143166 48.5838 -0.0620394 52.449 0.0161342C54.4816 0.0563067 56.5097 0.188768 58.5346 0.391802C64.7212 1.01176 70.7362 2.395 76.5884 4.47854C84.7152 7.37205 92.1862 11.487 99.0796 16.6617C99.3434 16.8593 99.6029 17.0634 99.8733 17.2512C100.018 17.3511 100.032 17.4564 99.9504 17.5976C99.8613 17.7539 99.7517 17.8951 99.6214 18.0178C99.3293 18.2892 99.034 18.5552 98.7398 18.8245C98.4477 19.0905 98.1513 19.3532 98.0014 19.7343V19.7322Z" fill="#020202"/>
<path d="M65.5973 17.8767C66.4149 19.6106 67.2085 21.2924 68.0218 23.0166H65.7819C65.4247 23.0166 65.0664 22.9992 64.7102 23.0231C64.4714 23.0394 64.3802 22.9482 64.3042 22.731C63.8254 21.3586 63.3313 19.9917 62.8384 18.6247C62.7896 18.4879 62.7744 18.3327 62.6093 18.1752V18.5628C62.6093 19.9363 62.6093 21.3109 62.6093 22.6843C62.6093 23.0372 62.6397 23.0177 62.2782 23.0177C61.3846 23.0177 60.4921 23.0177 59.5986 23.0177C59.2598 23.0177 59.275 23.0372 59.275 22.7169C59.275 18.8006 59.275 14.8854 59.2761 10.9691C59.2761 10.6543 59.2815 10.6489 59.5855 10.6489C60.63 10.6467 61.6745 10.6315 62.7179 10.6554C63.5007 10.6727 64.2738 10.7791 65.0262 11.0267C66.5528 11.5305 67.4094 12.5728 67.6135 14.1623C67.721 15.0016 67.619 15.8061 67.2292 16.5629C66.8915 17.2187 66.4539 17.7648 65.5973 17.8756V17.8767ZM62.6104 14.8843C62.6104 15.31 62.6082 15.7345 62.6104 16.1601C62.6126 16.4739 62.6647 16.514 62.972 16.4652C63.5963 16.3664 64.0686 15.8897 64.2227 15.2035C64.441 14.2307 63.8438 13.4294 62.8645 13.3632C62.6647 13.3502 62.5996 13.4056 62.6061 13.6086C62.6202 14.0331 62.6104 14.4587 62.6104 14.8843Z" fill="#020202"/>
<path d="M78.0824 22.9981H74.4778C74.4007 22.567 74.3192 22.1501 74.2541 21.731C74.227 21.5562 74.1737 21.4661 73.9718 21.4704C73.3953 21.4835 72.8177 21.4791 72.2411 21.4726C72.0696 21.4704 72.0023 21.5334 71.9816 21.705C71.9371 22.0719 71.8687 22.4367 71.8133 22.8037C71.7927 22.9427 71.7428 23.022 71.5777 23.0198C70.4659 23.0089 69.3541 23.0068 68.2434 23.0013C68.2315 23.0013 68.2195 22.9894 68.2054 22.9818C68.1696 22.8265 68.2456 22.6886 68.2814 22.5453C69.2456 18.6888 70.2119 14.8322 71.1782 10.9767C71.2596 10.6521 71.2607 10.6488 71.5734 10.6488C72.6993 10.6477 73.8263 10.6564 74.9522 10.6423C75.1987 10.639 75.2703 10.7216 75.3225 10.9539C75.9913 13.9093 76.6753 16.8614 77.3539 19.8136C77.596 20.8678 77.837 21.9221 78.0835 22.9992L78.0824 22.9981ZM73.202 13.8637C73.1521 14.0743 73.113 14.2025 73.0923 14.3327C72.9718 15.1036 72.8567 15.8756 72.7395 16.6465C72.6428 17.2827 72.5473 17.919 72.4442 18.5541C72.4235 18.6833 72.4257 18.7713 72.5875 18.7702C72.9436 18.7702 73.2997 18.768 73.6558 18.7702C73.784 18.7702 73.8241 18.7061 73.8089 18.59C73.7818 18.3728 73.7536 18.1557 73.7264 17.9385C73.5549 16.6085 73.3844 15.2773 73.202 13.8637Z" fill="#020202"/>
<path d="M25.3977 16.8376C25.3977 14.9418 25.3977 13.0461 25.3977 11.1504C25.3977 11.0538 25.402 10.9582 25.3977 10.8616C25.389 10.7107 25.4378 10.6412 25.6072 10.6445C26.9796 10.6705 28.3552 10.5815 29.7244 10.7313C30.2857 10.7921 30.8351 10.9268 31.3519 11.1526C32.5126 11.6575 33.2541 12.5228 33.5017 13.7768C33.6971 14.7638 33.6624 15.742 33.3399 16.7018C32.9545 17.8484 32.1857 18.5682 30.9925 18.8332C30.3443 18.9765 29.6907 19.0286 29.0306 19.0405C28.7396 19.046 28.7342 19.0492 28.7342 19.3348C28.732 20.4335 28.7342 21.5323 28.732 22.6311C28.732 23.0752 28.7852 23.0144 28.3303 23.0165C27.479 23.0198 26.6267 23.0187 25.7755 23.0165C25.3553 23.0165 25.3977 23.061 25.3977 22.6485C25.3977 20.7115 25.3977 18.7745 25.3977 16.8376ZM28.7526 13.3849C28.745 13.4565 28.7331 13.5228 28.7331 13.5901C28.732 14.399 28.7309 15.2079 28.7331 16.0156C28.7342 16.3349 28.7678 16.3577 29.0936 16.3055C29.7396 16.2013 30.1619 15.7822 30.2575 15.1503C30.3595 14.4728 30.0403 13.8029 29.4714 13.5228C29.251 13.4142 29.023 13.3219 28.7526 13.3838V13.3849Z" fill="#020202"/>
<path d="M38.1314 20.047C38.962 20.047 39.7437 20.0448 40.5254 20.047C41.0422 20.0492 40.9782 19.9905 40.9804 20.5128C40.9836 21.2543 40.9738 21.997 40.9858 22.7385C40.989 22.9535 40.9272 23.0208 40.71 23.0197C38.8273 23.0121 36.9446 23.0154 35.062 23.0165C34.758 23.0165 34.7949 23.0165 34.7949 22.6604C34.7949 19.8157 34.7949 16.9711 34.7949 14.1275C34.7949 13.083 34.7949 12.0385 34.7949 10.994C34.7949 10.652 34.758 10.6466 35.1184 10.6466C36.9598 10.6488 38.8013 10.6466 40.6427 10.6488C40.9749 10.6488 40.9782 10.6531 40.9782 10.9864C40.9804 11.715 40.9804 12.4435 40.9782 13.171C40.9771 13.488 40.9728 13.4923 40.6666 13.4945C39.938 13.4978 39.2095 13.4945 38.4821 13.4967C38.1335 13.4978 38.1314 13.501 38.1303 13.8604C38.1281 14.2176 38.1303 14.5748 38.1303 14.932C38.1303 15.2567 38.0825 15.2762 38.4593 15.2762C39.0912 15.2751 39.7231 15.2751 40.356 15.2762C40.7133 15.2762 40.7165 15.2795 40.7176 15.6345C40.7198 16.3631 40.7198 17.0916 40.7176 17.819C40.7165 18.1263 40.7111 18.1306 40.3962 18.1317C39.7502 18.1339 39.1042 18.1317 38.4593 18.1328C38.139 18.1339 38.1357 18.1372 38.1335 18.4347C38.1303 18.9569 38.1335 19.4781 38.1335 20.0481L38.1314 20.047Z" fill="#020202"/>
<path d="M23.3771 14.5499C23.1827 14.3729 22.9906 14.184 22.7843 14.0114C22.452 13.7345 22.0829 13.5326 21.6399 13.4967C21.5986 13.4935 21.5585 13.4848 21.5172 13.4837C21.1285 13.4728 20.7485 13.6563 20.6519 13.9267C20.5238 14.285 20.6736 14.5857 20.9298 14.8137C21.299 15.1406 21.7007 15.4315 22.0872 15.7399C22.2805 15.8941 22.4792 16.0417 22.6605 16.2089C24.4303 17.8451 24.0774 20.9048 22.5226 22.2207C21.7854 22.845 20.9353 23.1295 19.9896 23.1544C19.1307 23.1772 18.3001 22.997 17.4869 22.7299C17.3284 22.6778 17.2437 22.6083 17.2459 22.414C17.2567 21.2609 17.2513 20.1067 17.2535 18.9526C17.2535 18.9298 17.2719 18.907 17.2958 18.8484C17.4446 18.9982 17.5814 19.1426 17.7236 19.2794C18.1449 19.6833 18.6085 20.0188 19.1937 20.1426C19.3131 20.1675 19.4391 20.1925 19.5596 20.1827C19.9364 20.1534 20.2534 20.0188 20.4065 19.6366C20.5542 19.2707 20.4402 18.9645 20.1828 18.6975C19.8669 18.3706 19.4945 18.109 19.147 17.8191C18.7572 17.4934 18.3707 17.1676 18.0385 16.7768C17.4782 16.1166 17.2187 15.362 17.2513 14.501C17.2991 13.2394 17.6997 12.133 18.691 11.3003C19.9385 10.2514 21.7941 10.1233 23.2913 10.9311C23.3988 10.9887 23.4563 11.0538 23.4553 11.1841C23.4433 12.2959 23.4368 13.4077 23.427 14.5206C23.427 14.5271 23.4064 14.5336 23.3782 14.5499H23.3771Z" fill="#020202"/>
<path d="M49.7335 14.2393C49.5153 14.0917 49.3622 13.9809 49.2026 13.881C48.2037 13.2633 47.2081 13.4902 46.5718 14.4804C46.2993 14.9027 46.1451 15.3718 46.0734 15.8625C45.9345 16.8093 45.9518 17.7495 46.2689 18.667C46.3492 18.9004 46.4513 19.1252 46.5859 19.3337C47.1874 20.2674 48.1733 20.4911 49.1168 19.9102C49.3633 19.7582 49.5771 19.5682 49.8182 19.3413C49.8779 19.5269 49.8204 19.6822 49.8225 19.8331C49.8247 19.984 49.8117 20.1349 49.8008 20.2858C49.7476 21.0252 49.6694 21.7635 49.6466 22.504C49.6358 22.846 49.4762 22.9861 49.1928 23.0882C48.0039 23.5159 46.84 23.4226 45.7184 22.8808C44.1376 22.1153 43.2027 20.8016 42.8455 19.1274C42.4177 17.122 42.5795 15.1372 43.4622 13.2567C44.358 11.3502 46.1885 10.3317 48.2884 10.5261C48.6988 10.5641 49.1038 10.6249 49.5044 10.7215C49.6879 10.766 49.7389 10.8562 49.7378 11.0375C49.7302 12.0809 49.7346 13.1232 49.7346 14.2404L49.7335 14.2393Z" fill="#020202"/>
<path d="M56.3068 18.3858C56.3068 19.8005 56.3068 21.2142 56.3068 22.6289C56.3068 23.01 56.3676 23.0198 55.9409 23.0187C55.0212 23.0165 54.1005 23.0165 53.1809 23.0187C52.7661 23.0187 52.815 23.0209 52.815 22.6278C52.815 21.0904 52.815 19.5519 52.815 18.0145C52.815 16.7235 52.8161 15.4337 52.815 14.1427C52.815 13.6997 52.8584 13.7584 52.4122 13.7551C52.0278 13.7519 51.6435 13.7464 51.2591 13.7584C51.0637 13.7638 50.9931 13.7008 50.9953 13.5011C51.0029 12.6357 51.0062 11.7715 50.9942 10.9061C50.991 10.6651 51.1028 10.6445 51.295 10.6455C52.6684 10.651 54.0408 10.6488 55.4143 10.6488C56.2514 10.6488 57.0896 10.6466 57.9267 10.6488C58.2231 10.6488 58.2296 10.6542 58.2307 10.9333C58.234 11.7845 58.2253 12.6357 58.2361 13.4869C58.2394 13.7128 58.1514 13.7638 57.9473 13.7584C57.5217 13.7464 57.0961 13.754 56.6705 13.7551C56.284 13.7551 56.31 13.716 56.31 14.1026C56.31 15.5303 56.31 16.9581 56.31 18.3869L56.3068 18.3858Z" fill="#050404"/>
<path d="M84.7835 20.2218C84.7835 20.6887 84.7835 21.1675 84.7835 21.6453C84.7835 21.9884 84.7835 22.3314 84.7835 22.6756C84.7835 23.048 84.8171 23.0176 84.4187 23.0176C83.9789 23.0176 83.5392 23.0176 83.1006 23.0176C81.8096 23.0176 80.5187 23.0176 79.2277 23.0176C78.8651 23.0176 78.8618 23.0155 78.8618 22.6702C78.8618 18.7832 78.8618 14.8974 78.8618 11.0104C78.8618 10.651 78.8651 10.6488 79.2158 10.6478C80.1354 10.6467 81.0561 10.6467 81.9757 10.6478C82.3275 10.6478 82.3514 10.5783 82.3514 11.031C82.3503 13.8192 82.3492 16.6063 82.3525 19.3945C82.3525 19.6388 82.2493 19.9472 82.4024 20.1133C82.574 20.3 82.8932 20.1719 83.1472 20.1795C83.6554 20.1947 84.1635 20.186 84.6716 20.1893C84.6977 20.1893 84.7237 20.2045 84.7835 20.2229V20.2218Z" fill="#050404"/>
<path d="M88.9756 0.384231C90.6846 0.364688 92.1872 1.79353 92.21 3.46015C92.2394 5.59146 90.6107 6.64789 89.1244 6.67286C87.4686 6.70109 85.9366 5.16476 85.9225 3.4938C85.9073 1.77398 87.2525 0.403775 88.9756 0.384231ZM89.0668 6.27657C90.4696 6.28308 91.754 4.98562 91.7692 3.547C91.7844 2.10622 90.5174 0.815272 89.0744 0.835901C87.8443 0.854359 86.3926 1.74901 86.3698 3.52963C86.3514 4.92807 87.6836 6.27005 89.0668 6.27657Z" fill="#050404"/>
<path d="M89.6325 3.72066C89.9365 4.20056 90.2481 4.69348 90.5608 5.1875C90.1884 5.3319 90.133 5.31779 89.9311 5.01921C89.6933 4.66634 89.462 4.31022 89.2231 3.95952C89.1569 3.8618 89.12 3.72174 88.968 3.71849C88.7899 3.71523 88.6097 3.70654 88.4349 3.73151C88.3361 3.74563 88.3611 3.86289 88.3611 3.94106C88.3589 4.3113 88.3524 4.68263 88.3622 5.05178C88.3676 5.24613 88.272 5.2711 88.1103 5.27327C87.9398 5.27544 87.904 5.19835 87.9051 5.05069C87.9083 4.00838 87.9083 2.96498 87.9051 1.92266C87.9051 1.78477 87.9474 1.72506 88.0929 1.72723C88.6553 1.73483 89.2188 1.71529 89.7801 1.74243C90.2828 1.7674 90.6303 2.0725 90.7291 2.51005C90.8452 3.02578 90.5315 3.51654 90.0147 3.62294C89.9484 3.63705 89.8778 3.63488 89.8105 3.64357C89.7595 3.65008 89.702 3.63705 89.6314 3.72066H89.6325ZM89.0885 3.31676V3.29939C89.2937 3.29939 89.5011 3.32002 89.7041 3.29504C90.0255 3.25487 90.2405 3.00732 90.2394 2.7196C90.2394 2.42645 90.0277 2.16696 89.7096 2.1409C89.3143 2.10941 88.9159 2.12353 88.5185 2.1181C88.4208 2.11701 88.3654 2.16153 88.3643 2.26359C88.3643 2.56542 88.3643 2.86618 88.3643 3.16801C88.3643 3.26899 88.4132 3.31676 88.5131 3.31567C88.7052 3.31567 88.8963 3.31567 89.0885 3.31567V3.31676Z" fill="#050404"/>
</svg>
