<svg width="9" height="16" viewBox="0 0 9 16" fill="none" xmlns="http://www.w3.org/2000/svg">
<path d="M7.1945 10.4225L1.9493 15.6677C1.73519 15.8805 1.44556 16 1.14366 16C0.841761 16 0.55213 15.8805 0.338022 15.6677C0.230915 15.5615 0.145901 15.4351 0.0878854 15.2958C0.0298697 15.1566 0 15.0072 0 14.8563C0 14.7055 0.0298697 14.5561 0.0878854 14.4169C0.145901 14.2776 0.230915 14.1512 0.338022 14.045L5.59466 8.81122C5.70176 8.70499 5.78678 8.5786 5.84479 8.43934C5.90281 8.30009 5.93268 8.15073 5.93268 7.99987C5.93268 7.84901 5.90281 7.69965 5.84479 7.5604C5.78678 7.42114 5.70176 7.29475 5.59466 7.18852L0.338022 1.95474C0.122839 1.74107 0.00134834 1.45068 0.000276811 1.14743C-0.000794721 0.844188 0.118642 0.552938 0.33231 0.337754C0.545978 0.122571 0.836375 0.00107956 1.13962 7.62939e-06C1.44286 -0.0010643 1.73411 0.118374 1.9493 0.332042L7.1945 5.57725C7.8365 6.22004 8.1971 7.09138 8.1971 7.99987C8.1971 8.90836 7.8365 9.7797 7.1945 10.4225Z" fill="#04121E"/>
</svg>
