<svg width="8" height="14" viewBox="0 0 8 14" fill="none" xmlns="http://www.w3.org/2000/svg">
<path d="M6.29519 9.11968L1.70563 13.7092C1.51829 13.8955 1.26486 14 1.0007 14C0.736541 14 0.483114 13.8955 0.29577 13.7092C0.20205 13.6163 0.127663 13.5057 0.0768997 13.3838C0.0261359 13.262 0 13.1313 0 12.9993C0 12.8673 0.0261359 12.7366 0.0768997 12.6148C0.127663 12.4929 0.20205 12.3823 0.29577 12.2894L4.89532 7.70982C4.98904 7.61686 5.06343 7.50627 5.11419 7.38443C5.16496 7.26258 5.19109 7.13188 5.19109 6.99989C5.19109 6.86789 5.16496 6.73719 5.11419 6.61535C5.06343 6.4935 4.98904 6.38291 4.89532 6.28995L0.29577 1.7104C0.107484 1.52344 0.0011798 1.26934 0.00024221 1.004C-0.000695381 0.738665 0.103811 0.483821 0.290771 0.295535C0.47773 0.107249 0.731828 0.000944138 0.997166 6.67572e-06C1.2625 -0.000930786 1.51735 0.103577 1.70563 0.290537L6.29519 4.88009C6.85694 5.44254 7.17246 6.20496 7.17246 6.99989C7.17246 7.79481 6.85694 8.55723 6.29519 9.11968Z" fill="#909090"/>
</svg>
