<svg width="18" height="20" viewBox="0 0 18 20" fill="none" xmlns="http://www.w3.org/2000/svg">
<path d="M7.61539 2.76923H10.3846C10.3846 2.40201 10.2387 2.04983 9.97907 1.79016C9.71941 1.53049 9.36722 1.38462 9 1.38462C8.63278 1.38462 8.28059 1.53049 8.02093 1.79016C7.76126 2.04983 7.61539 2.40201 7.61539 2.76923ZM6.23077 2.76923C6.23077 2.03479 6.52253 1.33042 7.04186 0.811089C7.56119 0.291757 8.26555 0 9 0C9.73445 0 10.4388 0.291757 10.9581 0.811089C11.4775 1.33042 11.7692 2.03479 11.7692 2.76923H17.3077C17.4913 2.76923 17.6674 2.84217 17.7972 2.972C17.9271 3.10184 18 3.27793 18 3.46154C18 3.64515 17.9271 3.82124 17.7972 3.95107C17.6674 4.08091 17.4913 4.15385 17.3077 4.15385H16.5268L14.8583 16.3911C14.7451 17.2204 14.3354 17.9806 13.7048 18.531C13.0742 19.0813 12.2656 19.3846 11.4286 19.3846H6.57138C5.73441 19.3846 4.92578 19.0813 4.29522 18.531C3.66465 17.9806 3.25485 17.2204 3.14169 16.3911L1.47323 4.15385H0.692308C0.508696 4.15385 0.332605 4.08091 0.202772 3.95107C0.0729393 3.82124 0 3.64515 0 3.46154C0 3.27793 0.0729393 3.10184 0.202772 2.972C0.332605 2.84217 0.508696 2.76923 0.692308 2.76923H6.23077ZM7.61539 7.61538C7.61539 7.43177 7.54245 7.25568 7.41261 7.12585C7.28278 6.99602 7.10669 6.92308 6.92308 6.92308C6.73947 6.92308 6.56337 6.99602 6.43354 7.12585C6.30371 7.25568 6.23077 7.43177 6.23077 7.61538V14.5385C6.23077 14.7221 6.30371 14.8982 6.43354 15.028C6.56337 15.1578 6.73947 15.2308 6.92308 15.2308C7.10669 15.2308 7.28278 15.1578 7.41261 15.028C7.54245 14.8982 7.61539 14.7221 7.61539 14.5385V7.61538ZM11.0769 6.92308C11.2605 6.92308 11.4366 6.99602 11.5665 7.12585C11.6963 7.25568 11.7692 7.43177 11.7692 7.61538V14.5385C11.7692 14.7221 11.6963 14.8982 11.5665 15.028C11.4366 15.1578 11.2605 15.2308 11.0769 15.2308C10.8933 15.2308 10.7172 15.1578 10.5874 15.028C10.4576 14.8982 10.3846 14.7221 10.3846 14.5385V7.61538C10.3846 7.43177 10.4576 7.25568 10.5874 7.12585C10.7172 6.99602 10.8933 6.92308 11.0769 6.92308ZM4.51385 16.2042C4.5818 16.7016 4.82766 17.1576 5.20594 17.4878C5.58421 17.818 6.06929 17.9999 6.57138 18H11.4286C11.931 18.0003 12.4164 17.8185 12.7949 17.4883C13.1735 17.1581 13.4196 16.7019 13.4875 16.2042L15.1297 4.15385H2.87031L4.51385 16.2042Z" fill="#F71E1E"/>
</svg>
