<?xml version="1.0" encoding="UTF-8"?>
<svg id="Layer_1" data-name="Layer 1" xmlns="http://www.w3.org/2000/svg" version="1.1" viewBox="0 0 584.75 1000">
  <defs>
    <style>
      .cls-1 {
        fill: #16323b;
      }

      .cls-1, .cls-2, .cls-3, .cls-4, .cls-5, .cls-6, .cls-7, .cls-8, .cls-9, .cls-10, .cls-11, .cls-12, .cls-13, .cls-14 {
        stroke-width: 0px;
      }

      .cls-2 {
        fill: #0c2831;
      }

      .cls-3 {
        fill: #1904d9;
      }

      .cls-4 {
        fill: #fe445f;
      }

      .cls-5 {
        fill: #0b2831;
      }

      .cls-6 {
        fill: #09262f;
      }

      .cls-7 {
        fill: #0d2a33;
      }

      .cls-8 {
        fill: #102d36;
      }

      .cls-9 {
        fill: #0a2730;
      }

      .cls-10 {
        fill: #fec800;
      }

      .cls-11 {
        fill: #08b0d4;
      }

      .cls-12 {
        fill: #1c3740;
      }

      .cls-13 {
        fill: #fff;
      }

      .cls-14 {
        fill: #143038;
      }
    </style>
  </defs>
  <g>
    <g>
      <path class="cls-3" d="M284.44,652.88c-1.02,0-2.05-.26-2.96-.8l-13.19-7.66c-19.06-11.07-37.09-21.54-55.06-32.05-19.13-11.19-38.24-22.39-57.36-33.59-42.88-25.12-87.22-51.1-130.9-76.53-6.32-3.69-13.04-8.63-13-20.75.3-77.99.27-154.45.25-235.4v-66.85c-.01-2.1,1.1-4.04,2.92-5.1.91-.53,1.93-.79,2.96-.79s2.02.26,2.93.78c6.37,3.64,12.55,7.19,18.6,10.67,14.74,8.46,28.66,16.46,42.68,24.33,9.36,5.25,7.43,13.35,6.5,17.25-31.66,131,48.16,270.47,185.66,324.44,10.06,3.93,16.66,9.42,16.13,23.4-.6,16.28-.48,32.69-.36,50.06.05,7.37.1,14.91.1,22.71,0,2.11-1.13,4.06-2.95,5.11-.91.52-1.92.79-2.94.79Z"/>
      <path class="cls-13" d="M18.09,179.24c21.82,12.49,41.5,23.89,61.32,35.02,4.83,2.71,4.86,5.68,3.65,10.75-33.16,137.22,52.43,277.59,189.24,331.29,9.19,3.59,12.78,7.57,12.4,17.7-.85,23.33-.26,46.74-.26,72.98-24.03-13.96-46.18-26.8-68.24-39.7-62.76-36.73-125.44-73.54-188.26-110.12-6.3-3.68-10.1-7.22-10.07-15.64.38-99.76.24-199.49.24-302.28h0ZM18.09,167.46c-2.04,0-4.08.53-5.91,1.59-3.63,2.11-5.87,5.99-5.87,10.19,0,22.46,0,44.77.01,66.97.03,80.91.05,157.32-.25,235.26-.05,14.57,8.02,21.24,15.91,25.86,43.74,25.47,88.14,51.48,131.08,76.64,19.06,11.16,38.11,22.33,57.18,33.48,18.05,10.55,36.16,21.07,55.3,32.19l12.97,7.53c1.83,1.06,3.87,1.59,5.92,1.59s4.06-.52,5.88-1.57c3.65-2.1,5.9-6,5.9-10.21,0-7.81-.05-15.38-.1-22.76-.12-17.3-.23-33.64.36-49.79.7-18.63-10.26-25.34-19.88-29.1-134.76-52.89-213.04-189.41-182.07-317.55.97-4.07,3.9-16.36-9.34-23.79-13.97-7.85-27.86-15.82-42.56-24.26-6.08-3.49-12.28-7.05-18.67-10.71-1.81-1.04-3.83-1.56-5.85-1.56h0Z"/>
    </g>
    <g>
      <path class="cls-11" d="M302.57,650.2c-8.58,0-8.6-8.93-8.62-18.37-.02-6.25.03-12.51.08-18.77.1-13.04.2-26.51-.34-39.67-.56-13.84,7.03-19,15.31-22.51,91.03-38.79,152.1-102.94,181.5-190.67,14.31-42.68,16.49-86.34,6.47-129.75-2.59-11.29.47-18.14,10.57-23.67,13.24-7.24,26.53-15.05,39.38-22.62,4.88-2.86,9.75-5.74,14.64-8.59.93-.54,1.95-.8,2.96-.8,1.96,0,3.87.98,4.99,2.75,3.65,5.78,3.33,10.96,3.1,14.74-.05.78-.1,1.55-.1,2.3.03,31.51.03,63.02.03,94.54,0,61.79,0,125.7.24,188.54.07,12.37-4.14,19.88-14.54,25.92-63.75,36.75-128.39,74.46-190.89,110.91l-50.9,29.68c-6.88,4.01-10.33,6.02-13.88,6.02Z"/>
      <path class="cls-13" d="M564.53,180.69c3.33,5.27,2.09,9.72,2.09,13.9.09,94.37-.09,188.74.26,283.1.06,9.93-2.77,15.67-11.6,20.79-80.76,46.57-161.26,93.66-241.81,140.61-5.67,3.3-8.98,5.22-10.91,5.22-2.68,0-2.71-3.69-2.73-12.5-.06-19.56.53-39.14-.26-58.67-.38-9.51,3.39-13.31,11.72-16.85,89.45-38.11,153.48-100.79,184.79-194.21,14.61-43.56,16.96-88.15,6.63-132.95-2.09-9.1.12-13.05,7.66-17.17,18.26-9.98,36.11-20.76,54.16-31.28h0ZM564.53,168.9c-2.02,0-4.06.52-5.92,1.6-4.91,2.86-9.81,5.74-14.7,8.62-12.8,7.53-26.04,15.32-39.18,22.5-12.54,6.86-16.7,16.16-13.49,30.15,9.77,42.35,7.65,84.93-6.31,126.57-14.73,43.94-37.57,82.1-67.88,113.4-29.22,30.17-66.35,54.97-110.35,73.72-9.15,3.88-19.58,10.6-18.88,28.16.53,13.02.43,26.43.33,39.39-.05,6.17-.09,12.54-.08,18.84,0,4.91.02,8.47.53,11.49,1.6,9.41,8.53,12.75,13.98,12.75,5.13,0,9.29-2.42,16.84-6.82,16.86-9.83,33.73-19.66,50.59-29.5,62.61-36.52,127.35-74.28,191.18-111.08,12.2-7.07,17.59-16.65,17.5-31.07-.24-62.87-.24-126.83-.24-188.69,0-31.45,0-62.91-.03-94.36,0-.63.05-1.28.09-1.94.25-4.06.66-10.86-4-18.24-2.24-3.54-6.06-5.49-9.97-5.49h0Z"/>
    </g>
    <g>
      <path class="cls-10" d="M494.29,209.31c-6.85,0-9.46-6.05-10.72-8.96-.25-.59-.63-1.47-.82-1.74-25.73-37.84-58.35-65.37-96.96-81.84-28.73-12.27-59.19-18.49-90.51-18.49-76.1,0-147.74,37.04-191.62,99.09-3.83,5.41-8.32,10.43-15.27,10.43-3.62,0-7.33-1.35-12.02-4.37-11.53-7.44-23.6-14.35-36.38-21.66-5.7-3.26-11.57-6.62-17.65-10.16-1.81-1.06-2.93-3-2.92-5.1,0-2.1,1.13-4.04,2.95-5.09l22.2-12.8c25.89-14.93,50.87-29.33,75.84-43.77l26.34-15.22c43.32-25.03,88.11-50.91,132.06-76.57,4.14-2.42,8.72-4.66,14.14-4.66,3.87,0,7.72,1.15,11.77,3.51,58.99,34.44,119.1,69.23,177.23,102.88,23.28,13.47,46.56,26.95,69.83,40.43,2.07,1.19,4.01,2.48,6.47,4.12,1.16.78,2.46,1.64,3.95,2.61,1.71,1.12,2.72,3.04,2.67,5.09-.05,2.05-1.16,3.91-2.93,4.94-6.82,3.96-13.51,7.81-20.09,11.6-13.83,7.96-26.9,15.49-39.98,23.32-2.71,1.63-5.2,2.42-7.58,2.42Z"/>
      <path class="cls-13" d="M292.96,14.28c2.7,0,5.54.8,8.8,2.71,82.23,48.01,164.7,95.58,247.08,143.32,2.89,1.65,5.6,3.59,10.16,6.57-21,12.19-40.7,23.33-60.14,34.96-1.87,1.12-3.36,1.59-4.56,1.59-4.17,0-4.91-5.57-6.69-8.15-25.36-37.29-57.88-66.15-99.49-83.91-30-12.81-61.57-18.96-92.83-18.96-76.01,0-150.28,36.34-196.43,101.58-3.7,5.24-6.67,7.94-10.46,7.94-2.45,0-5.26-1.13-8.83-3.43-16.79-10.84-34.43-20.38-54.25-31.96,33.96-19.59,66-38.05,98.05-56.58,52.84-30.54,105.71-61.03,158.43-91.81,3.95-2.31,7.43-3.85,11.17-3.85h0ZM292.96,2.5h0c-6.84,0-12.49,2.76-17.11,5.46-43.9,25.63-88.66,51.49-131.94,76.5l-26.44,15.28c-25.46,14.72-50.93,29.41-77.35,44.64l-20.69,11.93c-3.64,2.1-5.88,5.97-5.9,10.17-.01,4.2,2.21,8.09,5.84,10.21,6.09,3.56,11.98,6.93,17.7,10.2,12.71,7.27,24.71,14.13,36.1,21.48,3.55,2.29,8.98,5.32,15.22,5.32,10.95,0,17.12-8.73,20.08-12.92,42.78-60.48,112.61-96.6,186.79-96.6,30.56,0,60.23,6.06,88.22,18.02,38.02,16.23,68.85,42.24,94.25,79.51.15.3.28.64.43.98,1.34,3.1,5.41,12.52,16.13,12.52,3.48,0,6.96-1.07,10.62-3.26,13.03-7.8,26.08-15.31,39.89-23.26,6.59-3.79,13.28-7.65,20.11-11.61,3.54-2.05,5.76-5.8,5.86-9.89s-1.92-7.94-5.35-10.17c-1.48-.97-2.76-1.82-3.92-2.59-2.44-1.63-4.55-3.04-6.83-4.34-23.21-13.45-46.5-26.93-69.78-40.4-58.12-33.64-118.23-68.43-177.21-102.86-4.98-2.9-9.8-4.31-14.74-4.31h0Z"/>
    </g>
    <g>
      <path class="cls-10" d="M426.47,248.36c-5.8,0-9.34-4.2-11.77-7.85-27.84-41.94-69.69-65.03-117.84-65.03s-93.11,23.18-123.07,62.01c-3.93,5.08-8.72,10.49-15.93,10.49-3.88,0-7.92-1.58-12.71-4.98-10.04-7.13-21.35-13.18-32.29-19.03l-3.72-2c-2.69-1.44-7.69-4.12-8.88-9.3-1.06-4.64,1.4-8.7,3.34-11.35,48.43-66.28,112.87-99.88,191.52-99.88,3.64,0,7.36.07,11.06.22,76.33,3.01,136.88,39.06,179.96,107.15.86,1.35,1.13,3,.74,4.56s-1.38,2.89-2.77,3.69c-5.15,2.98-10.24,5.9-15.29,8.79-11.57,6.63-22.5,12.89-33.45,19.51-3.43,2.09-6.19,3.02-8.93,3.02Z"/>
      <path class="cls-13" d="M295.13,107.31c3.58,0,7.19.07,10.84.21,76.22,3,134.16,39.53,175.22,104.41-16.79,9.72-32.96,18.76-48.83,28.36-2.34,1.42-4.22,2.17-5.88,2.17-2.5,0-4.5-1.67-6.87-5.23-30.75-46.32-76.6-67.65-122.74-67.66-47.69,0-95.69,22.77-127.73,64.3-4.03,5.22-7.23,8.2-11.27,8.2-2.6,0-5.55-1.23-9.29-3.9-11.49-8.16-24.18-14.73-36.64-21.41-5.83-3.12-8.22-5.63-3.56-11.99,46.76-63.99,109.22-97.47,186.76-97.47h0ZM295.13,95.53h0c-80.64,0-146.67,34.42-196.28,102.3-1.51,2.06-6.1,8.34-4.33,16.13,1.78,7.8,8.58,11.44,11.85,13.19l3.68,1.97c10.79,5.77,21.95,11.74,31.7,18.66,3.67,2.61,9.33,6.07,16.11,6.07,10.71,0,17.13-8.31,20.59-12.77,28.85-37.4,73.11-59.72,118.4-59.72,46.13,0,86.23,22.16,112.94,62.39,1.74,2.61,7,10.49,16.69,10.49,5.04,0,9.26-2.22,12-3.88,10.86-6.57,21.74-12.8,33.26-19.41,5.06-2.9,10.18-5.83,15.35-8.83,2.77-1.61,4.77-4.27,5.54-7.38s.23-6.4-1.49-9.11c-44.18-69.82-106.33-106.79-184.71-109.88-3.78-.15-7.58-.22-11.3-.22h0Z"/>
    </g>
    <g>
      <path class="cls-3" d="M284.44,551.74c-.72,0-1.45-.13-2.14-.4-82.43-32.19-139.08-82.95-173.19-155.16-24.25-51.35-30.9-105.45-19.74-160.78.75-3.73,2.75-13.65,11.49-13.65,3.85,0,7.53,2.25,10.62,4.44.47.35,1.11.68,1.79,1.04.52.28,1.05.56,1.56.85,3.93,2.28,8.08,4.33,12.47,6.49,10.27,5.07,20.89,10.32,28.65,18.72,8.74,9.43,7.28,21.57,5.98,32.29-.67,5.58-1.31,10.84-.65,15.54,10.1,71.8,48.14,123.82,113.06,154.61,12.23,5.79,16.77,13.1,16.2,26.05-.61,14.37-.48,28.73-.35,43.94.06,6.58.12,13.28.12,20.13,0,1.95-.96,3.77-2.57,4.86-.99.68-2.15,1.03-3.32,1.03Z"/>
      <path class="cls-13" d="M100.86,227.64c1.87,0,4.21,1.22,7.21,3.36,1.18.85,2.53,1.44,3.8,2.18,13.49,7.8,29.66,13.19,39.76,24.12,10.81,11.66,1.71,29.57,3.83,44.65,10.4,73.93,49.1,127.21,116.37,159.11,10.13,4.8,13.31,9.78,12.84,20.47-.88,20.82-.24,41.71-.24,64.33-76.93-30.04-135.13-78.35-170-152.18-23.62-50.01-30.31-102.47-19.29-157.1,1.26-6.28,2.97-8.92,5.72-8.92h0ZM100.86,215.86h0c-6.19,0-14.21,3.19-17.27,18.38-11.41,56.6-4.62,111.93,20.19,164.46,34.78,73.64,92.47,125.36,176.37,158.13,1.39.54,2.84.81,4.28.81,2.34,0,4.66-.7,6.65-2.05,3.21-2.2,5.14-5.84,5.14-9.73,0-6.87-.06-13.59-.12-20.19-.13-15.12-.26-29.41.34-43.64.68-15.34-5.18-24.8-19.57-31.62-31.63-15-56.88-35.22-75.04-60.09-18.12-24.82-29.8-55.1-34.71-90.01-.55-3.94.04-8.83.66-14.02,1.37-11.39,3.09-25.56-7.52-37-8.49-9.19-19.61-14.68-30.36-19.99-4.31-2.13-8.37-4.14-12.15-6.32-.56-.33-1.16-.65-1.76-.96-.38-.2-.89-.47-1.06-.58-3.91-2.78-8.59-5.58-14.09-5.58h0Z"/>
    </g>
    <g>
      <path class="cls-11" d="M303.84,549.25c-3.67,0-5.94-1.63-7.2-3-3.21-3.48-3.24-8.79-2.85-13.53.5-6.07.38-12.17.25-18.63-.05-2.68-.11-5.36-.12-8.03-7.52-32.34,8.49-47.56,34.85-60.42,70.66-34.49,102.88-92.37,95.74-172.04-1.21-13.68,3.13-21.59,14.98-27.28,12.54-5.97,24.5-13.5,33.53-19.39,4.61-3.03,7.93-4.32,11.1-4.32,9.28,0,11.15,10.47,11.85,14.41,10.75,60.72.37,119.56-30.86,174.87-33.64,59.65-84.47,104.91-151.06,134.52-4.46,1.98-7.51,2.83-10.2,2.83Z"/>
      <path class="cls-13" d="M484.12,228.51c3.18,0,4.88,3.01,6.05,9.55,10.75,60.73-.15,117.72-30.19,170.95-34.28,60.79-84.8,103.79-148.33,132.04-3.33,1.48-5.91,2.32-7.81,2.32-3.58,0-4.78-2.96-4.18-10.15.77-9.22.15-18.56.15-27.83-6.83-28.33,5.27-41.62,31.54-54.43,72.78-35.52,106.33-96.34,99.02-177.87-.97-10.96,1.91-16.76,11.66-21.44,11.87-5.65,23.18-12.58,34.19-19.76,3.35-2.2,5.91-3.36,7.88-3.36h0ZM484.12,216.73h0c-5.57,0-10.59,2.83-14.35,5.3-8.85,5.77-20.6,13.17-32.8,18.98-14.12,6.78-19.76,16.99-18.33,33.12,6.9,77-24.21,132.93-92.45,166.24-24.87,12.13-46.66,28.58-38.15,66.39.01,2.49.07,4.98.12,7.48.13,6.3.25,12.25-.23,18.01-.47,5.66-.39,12.82,4.38,18.01,2.91,3.16,7.01,4.9,11.54,4.9,3.57,0,7.34-1,12.59-3.34,67.77-30.13,119.52-76.23,153.8-137.02,31.91-56.53,42.52-116.69,31.53-178.79-2.83-15.93-11.16-19.28-17.65-19.28h0Z"/>
    </g>
    <g>
      <path class="cls-10" d="M350.12,292.48c-5.24,0-8.88-3.3-12.02-6.87-12.64-14.36-28.68-22.28-45.16-22.28s-31.89,7.58-44.55,21.34c-3.45,3.75-7.62,7.75-13.54,7.75-3.24,0-6.6-1.19-10.57-3.76-14.25-9.19-29.48-17.58-44.21-25.69l-2.33-1.28c-3.09-1.71-6.77-4.24-7.75-8.68-.98-4.46,1.3-8.3,3.4-11.16,29.02-39.68,75.15-63.38,123.39-63.38s88.41,22.46,114.66,61.62c.96,1.44,1.83,2.93,2.64,4.34.38.65.74,1.28,1.1,1.87.36.59.61,1.23.74,1.9,1.62,8.1-4.78,11.28-6.88,12.32-.3.15-.6.3-.88.45-6.39,3.75-12.83,7.44-19.28,11.12-9.91,5.68-20.17,11.55-30.07,17.55-3.19,1.94-5.96,2.84-8.71,2.84Z"/>
      <path class="cls-13" d="M296.79,184.36c41.62,0,82.76,18.71,109.76,59,1.35,2.03,2.5,4.18,3.59,5.98.88,4.42-2.68,5.21-4.95,6.54-16.43,9.63-33.13,18.85-49.42,28.72-2.24,1.36-4.05,1.99-5.66,1.99-2.72,0-4.88-1.79-7.6-4.88-14.22-16.16-31.87-24.27-49.58-24.28-17.28,0-34.61,7.72-48.88,23.25-3.43,3.73-6.01,5.85-9.2,5.85-2.07,0-4.4-.89-7.38-2.82-15.17-9.78-31.07-18.47-46.89-27.19-5.71-3.15-6.36-5.86-2.44-11.19,28.86-39.47,74.03-60.98,118.64-60.98h0ZM296.79,172.58v11.78-11.78h0c-50.12,0-98.02,24.6-128.15,65.8-1.49,2.03-6.07,8.26-4.39,15.89,1.68,7.62,8.43,11.35,10.65,12.57l2.36,1.3c14.63,8.06,29.76,16.4,43.84,25.47,3.12,2.01,7.94,4.7,13.76,4.7,9,0,14.78-6.29,17.88-9.66,11.52-12.53,25.8-19.43,40.2-19.43,14.77,0,29.23,7.2,40.74,20.28,2.54,2.88,7.81,8.87,16.44,8.87,3.83,0,7.68-1.21,11.78-3.7,9.8-5.94,20-11.78,29.87-17.43,6.36-3.64,12.94-7.41,19.39-11.19.14-.08.33-.16.51-.26,10.9-5.43,10.96-14.08,10.03-18.76-.27-1.34-.77-2.63-1.48-3.8-.34-.56-.68-1.15-1.04-1.76-.81-1.41-1.74-3-2.83-4.64-27.37-40.84-70.94-64.25-119.56-64.25h0Z"/>
    </g>
    <g>
      <path class="cls-11" d="M299.84,456.04c-1.21,0-2.4-.37-3.41-1.09-1.55-1.1-2.48-2.89-2.48-4.8,0-5.93.01-11.75.03-17.48.03-15.09.07-29.34-.14-43.72-.13-8.85,5.51-12.6,9.62-15.34l.94-.63c25.82-17.39,38.97-37.5,41.41-63.28.25-2.56.92-9.31,7.46-13.13,19.36-11.1,38.68-22.2,58.47-33.6.91-.52,1.92-.79,2.94-.79.84,0,1.69.18,2.48.55,1.74.81,2.97,2.4,3.32,4.29,14.86,81.59-33.95,159.18-118.7,188.7-.63.22-1.29.33-1.94.33Z"/>
      <path class="cls-13" d="M414.68,268.07c14.34,78.76-32.63,153.45-114.84,182.08,0-21.38.18-41.32-.12-61.29-.09-6.13,3.86-8.22,7.98-11.02,24.18-16.29,41.12-37.41,43.97-67.59.35-3.59,1.24-6.66,4.57-8.6,19.32-11.07,38.64-22.18,58.43-33.58h0ZM414.68,256.29c-2.04,0-4.07.53-5.88,1.57-19.79,11.39-39.1,22.49-58.41,33.56-9.22,5.39-10.13,14.63-10.43,17.67-2.26,23.93-14.6,42.66-38.83,58.98l-.95.63c-4.34,2.89-12.41,8.28-12.23,20.32.21,14.35.18,28.59.14,43.66-.01,5.73-.03,11.54-.03,17.46,0,3.81,1.85,7.39,4.96,9.6,2.02,1.44,4.41,2.18,6.83,2.18,1.3,0,2.61-.22,3.87-.66,87.55-30.49,137.94-110.81,122.55-195.32-.69-3.77-3.16-6.97-6.64-8.58-1.58-.73-3.27-1.09-4.95-1.09h0Z"/>
    </g>
    <g>
      <path class="cls-3" d="M284.44,454.98c-.56,0-1.12-.08-1.66-.24-31.38-9.24-63.56-34.31-86.06-67.06-25.17-36.62-36.55-79.53-32.05-120.81.22-1.97,1.41-3.7,3.17-4.6.84-.43,1.76-.65,2.68-.65,1,0,2.01.26,2.91.77l17.92,10.15c14.09,7.97,27.93,15.81,41.74,23.73,6.46,3.73,6.67,10.19,6.8,14.06.03.79.04,1.57.13,2.32,2.93,25.84,15.81,45.94,38.28,59.72,8.92,5.49,12.45,12.06,12.18,22.7-.35,12.59-.28,25.5-.21,37.98.03,5.32.06,10.67.06,16.04,0,1.86-.88,3.6-2.36,4.72-1.03.77-2.27,1.17-3.53,1.17Z"/>
      <path class="cls-13" d="M170.51,267.51c20.35,11.55,40.03,22.62,59.64,33.87,4.59,2.65,3.53,7.72,4.01,11.93,3.18,28.1,17.29,49.51,41.06,64.09,7.42,4.57,9.57,9.45,9.37,17.52-.5,17.94-.15,35.9-.15,54.16-59.61-17.55-123.41-94.57-113.92-181.58h0ZM170.51,255.73c-1.84,0-3.68.43-5.37,1.29-3.53,1.81-5.91,5.27-6.34,9.21-4.65,42.68,7.09,87,33.05,124.78,23.6,34.33,56.13,59.62,89.26,69.37,1.09.32,2.21.48,3.33.48,2.52,0,5-.81,7.06-2.35,2.97-2.22,4.72-5.72,4.72-9.43,0-5.39-.03-10.75-.06-16.09-.07-13-.14-25.28.2-37.75.33-12.73-4.29-21.32-14.97-27.89-21.16-12.98-32.77-31.09-35.52-55.38-.05-.42-.07-1.12-.09-1.85-.13-4.07-.45-13.6-9.73-18.96-13.89-7.97-27.49-15.67-41.89-23.82-5.89-3.34-11.83-6.69-17.82-10.1-1.8-1.02-3.81-1.53-5.81-1.53h0Z"/>
    </g>
    <g>
      <path class="cls-4" d="M291.62,376c-4.33,0-8.02-1.9-11.06-3.76-22.77-13.86-36.13-35.47-39.7-64.23-.61-5.16.46-10.16,3.19-14.87,9.57-16.44,28.31-26.65,48.94-26.65,18.69,0,35.77,8.45,45.67,22.6,3.49,4.96,5.83,11.59,5.34,15.08-3.07,30.77-17,52.86-43.81,69.28-2.77,1.69-5.65,2.55-8.55,2.55Z"/>
      <path class="cls-13" d="M292.99,272.37c15.73,0,31.41,6.61,40.84,20.09,3.27,4.65,4.51,9.63,4.33,10.87-3.18,31.84-18.11,51.04-41.06,65.09-1.96,1.2-3.76,1.69-5.48,1.69-2.76,0-5.32-1.26-7.98-2.9-22.5-13.7-33.75-34.34-36.93-59.94-.47-3.98.38-7.63,2.44-11.19,9.13-15.69,26.51-23.71,43.84-23.71h0ZM292.99,260.59h0c-22.71,0-43.41,11.33-54.02,29.57-3.39,5.87-4.72,12.08-3.96,18.5,3.82,30.7,18.11,53.77,42.51,68.61,3.71,2.27,8.32,4.61,14.11,4.61,4.01,0,7.92-1.15,11.63-3.43,28.51-17.46,43.33-40.96,46.63-73.97.58-5.82-2.87-13.77-6.41-18.81-10.99-15.71-29.86-25.1-50.48-25.1h0Z"/>
    </g>
  </g>
  <path class="cls-9" d="M458.8,951.68c-2,36.55-41.62,57.23-72.04,39.2-2.83-1.68-10.22-2.71-5.95-8.57,2.77-3.8,5.33-9.63,12.31-8.42,39.56,6.92,48.66-.8,48.36-40.82-.03-2.83-.03-5.66-.03-10.19-45.65,21.68-79.85.12-79.97-48.01-.03-10.28.35-20.56-.15-30.81-.32-7.13,2.39-9.25,9.31-9.31,7.19-.09,9.25,2.59,8.98,9.42-.44,11.72-.29,23.47-.06,35.23.44,21.27,13.02,35.26,31.16,35.08,18.14-.18,30.25-14.11,30.66-35.64.24-11.72.29-23.47,0-35.2-.18-5.95,1.21-9.13,7.98-8.84,5.86.27,10.31.15,10.22,8.31-.38,36.2,1.21,72.45-.8,108.56Z"/>
  <path class="cls-5" d="M154.67,928.12c-1.3,7.89-7.6,3.42-11.58,2.42-21.74-5.36-36.11-23.44-37.05-47.01-.53-13.19-.09-26.42-.12-39.61,0-13.7.35-27.42-.15-41.09-.29-8.01,4.01-8.13,10.01-8.39,7.1-.32,8.25,3.12,7.81,8.84-.21,2.41-.03,4.89-.03,7.33.03,22.74.03,23,23.3,24.18,6.16.29,8.72,1.59,8.42,8.25-.29,5.92-.26,9.63-8.31,10.04-23.92,1.21-23.89,1.65-23.42,25.33.41,19.7,6.01,29.01,24.8,34.9,9.87,3.09,7.16,9.63,6.3,14.81Z"/>
  <path class="cls-6" d="M351.59,839.29c-14.9,30.13-29.84,60.2-46.12,92.98-16.58-33.05-32.25-64.33-48.01-95.75,14.14-4.86,21.56.21,26.68,12.55,5.77,13.84,13.22,26.98,21.12,42.77,8.04-15.85,15.14-29.75,22.15-43.68q7.27-14.49,24.21-11.69c0,.97.35,2.06-.03,2.83Z"/>
  <path class="cls-9" d="M217.31,848.3c-.06,4.92-4.33,4.12-7.39,5.21-15.85,5.65-22.62,14.96-22.91,31.69-.21,12.69-.38,25.42.09,38.11.24,6.98-2.03,9.19-9.1,9.28-7.36.06-9.07-2.68-8.87-9.4.41-13.17.12-26.36.12-39.56s.85-25.48-.24-38.08c-1.18-13.49,11.6-13.52,13.99-9.84,8.07,12.64,14.37,1.56,21.29.77,4.15-.44,9.22-3.74,12.13.5,1.86,2.71.94,7.48.88,11.31Z"/>
  <path class="cls-2" d="M246.5,923.43c.26,6.98-2,9.16-9.07,9.16s-8.98-2.77-8.92-9.48c.29-26.42.35-52.84-.03-79.26-.09-7.27,2.47-8.98,9.31-9.16,7.48-.18,8.92,2.89,8.72,9.48-.38,13.2-.12,26.42-.12,39.61s-.32,26.45.12,39.64Z"/>
  <path class="cls-1" d="M212.36,785.24c.09,2.83-2.15,4.24-4.98,3.98-3.86-.38-4.33-3.27-4.33-6.36,0-13.67.06-27.36-.06-41.03-.03-4.39.12-8.89-.88-13.11-1.8-7.69-7.39-11.28-15.14-10.9-7.89.38-12.66,5.07-14.05,12.55-1.44,7.78,2.44,13.49,9.42,16.32,3.89,1.59,8.57,1.33,13.78,2.03-5.15,9.69-11.81,9.78-19.14,5.92-10.81-5.68-15.49-14.96-13.08-26.8,2.27-11.13,9.57-18,21.15-19.23,12.22-1.33,22.27,3.92,25.27,15.37,5.27,20,1.59,40.79,2.03,61.26Z"/>
  <path class="cls-8" d="M324.91,743.06c-.03-23.44-8.01-34.28-24.21-34.58-14.4-.24-25.36,10.31-25.33,24.42.06,16.41,11.31,23.53,34.19,24.74,13.31.71,17.97-3.45,15.35-14.58ZM305.73,748.31c-10.99-.24-20.2-2.47-20.91-14.96-.53-9.6,5.6-15.88,15.49-15.55,11.75.38,15.4,8.54,15.29,20.26,1.24,6.57-.77,10.46-9.87,10.25Z"/>
  <path class="cls-7" d="M156.35,740.09c-.44-5.01-.29-9.48-1.27-13.67-3-12.93-15.58-20.23-29.19-17.38-12.46,2.62-20.18,13.93-18.56,27.16,1.97,16.14,14.31,22.21,39.91,21.27,15.7-.59,5.6-12.22,9.1-17.38ZM135.14,748.22c-10.81-.15-18.41-3.71-18.64-15.49-.18-9.22,5.27-14.93,14.43-14.9,12.61.06,16.55,8.25,15.61,20.35,2.65,9.75-3.48,10.16-11.4,10.04Z"/>
  <path class="cls-12" d="M268.09,735.14c-1.56,14.11-12.34,23-25.95,22.18-12.87-.79-21.82-10.22-22.71-24.03-.21-2.92-.03-5.86-.03-8.78-.03-1.94-.35-3.98.06-5.83.8-3.65-2.74-10.07,4.51-9.96,7.1.12,3.95,6.42,4.33,10.16.53,4.83-.21,9.78.29,14.61.94,8.92,5.8,14.43,15.14,14.52,9.4.09,14.31-5.57,15.26-14.4.65-6.27.27-12.66.32-19,.03-3.15.62-6.07,4.51-6.01,3.74.06,4.59,2.89,4.57,6.1-.03,6.8.47,13.7-.29,20.44Z"/>
  <path class="cls-14" d="M246.18,802.29c1.24,7.13-.44,10.54-8.13,10.25-6.24-.26-9.96-.82-9.69-8.6.24-6.39,1.15-10.07,8.75-9.57,5.89.41,11.43-.06,9.07,7.92Z"/>
</svg>