<svg width="100" height="92" viewBox="0 0 100 92" fill="none" xmlns="http://www.w3.org/2000/svg">
<g clip-path="url(#clip0_1727_6080)">
<path d="M99.7549 47.9458C99.7236 47.779 99.6975 47.6121 99.6714 47.4557C99.3586 45.584 97.5442 45.8029 96.9446 45.8759C96.783 45.8968 96.6162 45.9177 96.5067 45.9124H96.4233C95.6516 45.8968 94.8539 45.8759 94.5776 45.7925C94.5046 45.4901 94.5515 44.6351 94.5776 44.1085C94.6193 43.2795 94.5828 42.0855 93.759 41.3295C93.1542 40.7821 92.294 40.5944 91.1209 40.7665C91.0427 40.7769 90.9071 40.7665 90.7663 40.7612C90.5943 40.7508 90.4274 40.7404 90.2554 40.7456C89.8539 40.7612 89.5463 40.7091 89.442 40.5996C89.3951 40.5579 89.2595 40.365 89.2856 39.7289C89.3221 38.7956 89.3065 37.8572 89.2908 36.95C89.2752 35.7665 89.2543 34.6559 89.343 33.5402C89.4003 32.805 89.4003 31.7414 88.6965 31.0063C87.9926 30.2764 86.929 30.219 86.0792 30.2503C85.4952 30.2711 84.5411 30.3076 84.2335 30.219C84.1448 29.9114 84.1761 28.9729 84.1918 28.3942C84.223 27.5496 84.1553 26.3348 83.3054 25.5735C82.6902 25.0209 81.8247 24.8332 80.6777 25C80.5578 25.0157 80.3961 25.0105 80.2241 25.0052C80.026 24.9948 79.8018 24.9896 79.5672 25.0052C79.1396 25.0417 78.9676 24.974 78.9363 24.9479C78.9363 24.9479 78.8216 24.8228 78.832 24.2805C78.8789 22.5287 78.8685 20.7508 78.8529 19.0355C78.8529 18.4359 78.8529 17.8363 78.8529 17.2367V17.0178C78.8737 16.4234 78.905 15.1773 77.4817 14.6455C75.8028 14.0146 74.27 14.1137 73.149 14.9218C72.1167 15.6674 71.5849 16.9343 71.6474 18.4828C71.6839 19.3587 71.5328 19.609 71.465 19.6768C71.4024 19.7393 71.1521 19.8905 70.3023 19.8749C67.2731 19.8019 64.197 19.8123 61.2199 19.8176C59.3013 19.8228 57.3774 19.828 55.4535 19.8123C54.9217 19.8123 54.4577 19.8228 54.0562 19.8384C53.5609 19.8488 53.0135 19.8645 52.7997 19.8176C52.6433 19.4057 52.7111 17.8363 52.7371 17.3097C52.7788 16.4234 52.5755 15.756 52.1115 15.2711C51.6527 14.7915 51.0062 14.5569 50.125 14.5517C50.0103 14.5517 49.8956 14.5569 49.7757 14.5569C49.4629 14.5621 49.1657 14.5621 48.9102 14.5256C47.7476 14.3535 46.8873 14.536 46.2825 15.0835C45.6725 15.6413 45.4014 16.5016 45.4535 17.7268C45.5421 19.6194 45.5213 21.5589 45.5056 23.4359C45.4952 24.244 45.4848 25.0522 45.4848 25.8603V27.5079C45.4848 29.2336 45.4796 30.9594 45.4848 32.6799V32.951C45.4848 34.0407 45.4952 35.073 45.3961 35.4276C45.1459 35.4693 44.5515 35.4432 44.0249 35.4276C43.66 35.4119 43.2481 35.3963 42.7788 35.3859C42.2053 35.3754 41.3763 35.4276 40.782 36.0219C40.1876 36.6163 40.1355 37.4453 40.1459 38.0188C40.1824 39.9323 40.1824 41.8822 40.1876 43.7696C40.1928 45.4849 40.198 47.2002 40.2189 48.9103C40.2762 52.7164 40.7559 53.2013 44.515 53.2117C45.5004 53.2169 45.5004 53.2795 45.5004 54.0303C45.5056 57.5391 45.9488 58.024 49.4681 58.3421C49.6193 58.3525 49.7653 58.3785 49.9165 58.3942C50.1667 58.4307 50.4222 58.4672 50.6725 58.4776C50.7246 58.4828 50.7611 58.488 50.7872 58.4933C50.8028 58.535 50.8341 58.6392 50.8602 58.8321C50.8915 59.1085 50.8497 59.463 50.808 59.8436C50.6985 60.8134 50.5526 62.1481 51.7204 63.0449C52.7163 63.8061 53.9206 63.6966 54.8904 63.608C55.3179 63.5662 55.7246 63.5297 56.0687 63.561C56.9968 63.6444 57.7684 63.6914 58.4879 63.6966C62.7371 63.7279 63.1907 63.3056 63.3315 59.0459C63.3367 58.9208 63.3315 58.7852 63.3315 58.6549C63.3263 58.5454 63.3263 58.3994 63.3315 58.3108C63.3471 58.3003 63.368 58.2951 63.3941 58.2899C64.5515 57.951 65.3857 57.9354 65.808 58.2482C66.3138 58.6288 66.4285 59.6351 66.4337 60.4119V60.5266C66.4337 60.5788 66.4389 60.6309 66.4337 60.683C66.3398 61.5902 66.5275 62.3045 66.9863 62.8102C67.4712 63.3368 68.1803 63.5923 69.1657 63.5715C70.1667 63.5558 71.1991 63.5975 72.2001 63.634C72.9352 63.6653 73.6652 63.6914 74.4003 63.7018H74.8331C78.1959 63.7018 78.6495 63.1231 78.7225 59.4943V59.4422C78.7225 59.2336 78.7121 59.0355 78.6912 58.8478C78.6808 58.7644 78.6704 58.6653 78.6652 58.5767C79.8696 58.342 81.1 58.1804 82.0281 58.6549C82.1115 58.8009 82.0333 59.3692 81.9863 59.6716C81.9551 59.9166 81.9238 60.1512 81.9081 60.365C81.8351 61.5746 82.0906 62.4296 82.6902 62.9823C83.2741 63.5193 84.0927 63.707 85.1928 63.5506C85.5526 63.4985 85.9697 63.4985 86.5067 63.5506C87.4191 63.6392 88.1073 63.4568 88.6078 62.9927C89.369 62.2889 89.3534 61.1731 89.343 60.8082C89.3013 58.3212 89.3065 55.7821 89.3169 53.3316C89.3169 52.3879 89.3169 51.4442 89.3169 50.5005C89.3169 49.5621 89.3169 48.1387 89.5098 47.9093C89.7548 47.7373 91.1417 47.8259 92.148 47.8937C92.4139 47.9145 92.5442 47.9458 92.6068 47.9667C92.6068 48.0084 92.6172 48.0762 92.6068 48.1804V48.3994C92.5755 48.9521 92.5546 49.5256 92.6433 50.1252C92.6537 50.1982 92.6276 50.4015 92.612 50.537C92.5494 51.0741 92.3617 52.6955 94.0823 52.9979C94.2387 53.024 94.3951 53.0501 94.5567 53.0814C95.9592 53.3473 97.8727 53.707 99.1136 52.4766C100.354 51.2513 100.01 49.3431 99.7549 47.9458Z" fill="#9B5856"/>
<path d="M92.4974 43.999C92.4557 44.7028 92.4244 45.3076 92.4766 45.829C92.414 45.8238 92.3514 45.8186 92.2837 45.8134C90.193 45.6726 88.9364 45.5892 88.0814 46.3869C87.2263 47.1846 87.2263 48.5037 87.2263 50.5005C87.2263 51.4442 87.2263 52.3827 87.2263 53.3264C87.2159 55.7873 87.2107 58.3368 87.2576 60.8446C87.2576 61.2982 87.1898 61.4494 87.195 61.4547C87.1742 61.4651 87.0438 61.5068 86.6997 61.4755C85.9959 61.4077 85.4224 61.4129 84.8958 61.4859C84.3587 61.5641 84.1398 61.4859 84.1033 61.4494C84.1033 61.4494 83.9364 61.2878 83.9834 60.4953C83.9938 60.3285 84.0251 60.146 84.0511 59.9635C84.1658 59.1137 84.39 57.5287 82.9562 56.7936C81.4025 55.9958 79.6924 56.2461 78.0657 56.5694C76.3921 56.903 76.559 58.5245 76.6111 59.0563C76.6215 59.1762 76.6372 59.2962 76.6372 59.4004V59.4526C76.6163 60.3493 76.5955 61.2722 76.486 61.5329C76.2201 61.6371 75.2659 61.6267 74.4213 61.6163C73.707 61.6059 72.9927 61.5798 72.2785 61.5537C71.4078 61.5172 70.5162 61.4807 69.6194 61.4807C69.4578 61.4807 69.291 61.4859 69.1293 61.4859H69.0511C68.6549 61.4859 68.535 61.4129 68.5298 61.4129C68.5245 61.4025 68.462 61.2722 68.5037 60.902C68.5193 60.7612 68.5193 60.6205 68.5141 60.4745V60.3963C68.4985 58.5454 68.0188 57.2993 67.0438 56.5746C66.0532 55.8394 64.6664 55.7456 62.805 56.2878C61.194 56.7571 61.2253 58.1231 61.2409 58.707C61.2409 58.7956 61.2461 58.8895 61.2409 58.999C61.2044 60.1147 61.1679 61.267 61.0011 61.4703C60.7873 61.6319 59.6247 61.6215 58.5037 61.6111C57.8415 61.6059 57.1273 61.5641 56.2513 61.4807C55.7195 61.4338 55.1982 61.4807 54.6924 61.5277C53.9625 61.5954 53.3316 61.6528 52.9875 61.3921C52.7842 61.2357 52.7842 60.9124 52.878 60.073C52.9302 59.6142 52.9875 59.0928 52.925 58.5767C52.7112 56.8509 51.6372 56.439 50.7717 56.3973C50.584 56.3869 50.3911 56.3556 50.1982 56.3295C50.0157 56.3087 49.8332 56.2826 49.6299 56.2617C48.7696 56.1835 47.878 56.1053 47.7112 55.9854C47.5861 55.7821 47.5809 54.7289 47.5809 54.0303C47.5756 51.439 45.8342 51.1314 44.5204 51.1262C43.6862 51.1262 42.6486 51.121 42.4609 51.0167C42.3306 50.8029 42.315 49.781 42.2993 48.8843C42.2785 47.1794 42.2732 45.4693 42.268 43.7644C42.2628 41.8718 42.2628 39.9114 42.2263 37.9823C42.2263 37.7112 42.2472 37.5704 42.2628 37.5078C42.3254 37.4922 42.4662 37.4661 42.7321 37.4713C43.1857 37.4766 43.5871 37.4974 43.9364 37.5078C45.292 37.5652 46.1836 37.6017 46.8509 36.9604C47.5809 36.2565 47.5756 35.219 47.5652 32.9458V32.6747C47.56 30.9541 47.5652 29.2336 47.5652 27.5131V25.8603C47.5652 25.0626 47.5756 24.2597 47.5861 23.4567C47.6017 21.5537 47.6226 19.5829 47.5339 17.633C47.4974 16.804 47.6695 16.6371 47.6799 16.6319C47.6851 16.6215 47.852 16.4807 48.6028 16.5902C49.0251 16.6528 49.437 16.6476 49.8019 16.6424H50.1147C50.4745 16.6371 50.5892 16.7049 50.5944 16.7049C50.5996 16.7153 50.6674 16.8301 50.6465 17.2159C50.5579 19.244 50.5527 20.5318 51.3087 21.2982C51.9813 21.9812 52.8728 21.9552 54.1085 21.9187C54.4943 21.9083 54.9323 21.8978 55.4328 21.8978C57.3619 21.9135 59.291 21.9083 61.2253 21.903C64.1815 21.8978 67.242 21.8874 70.2451 21.9604C71.0428 21.9865 72.1846 21.9135 72.951 21.1366C73.707 20.3702 73.7592 19.2701 73.7279 18.3994C73.7018 17.8102 73.7957 17.0282 74.3692 16.6111C74.8906 16.2305 75.756 16.2253 76.7414 16.5954C76.7519 16.6006 76.7571 16.6006 76.7623 16.6059C76.7727 16.6945 76.7623 16.8509 76.7623 16.9604C76.7623 17.0542 76.7623 17.1481 76.7623 17.2419C76.7623 17.8467 76.7623 18.4463 76.7623 19.0511C76.7779 20.7508 76.7884 22.5078 76.7467 24.2232C76.7206 25.2294 76.9656 25.9594 77.5026 26.4651C78.0344 26.9656 78.7644 27.1689 79.7341 27.0855C79.8697 27.0751 80.0053 27.0803 80.1408 27.0855C80.3859 27.096 80.6622 27.1064 80.9646 27.0647C81.6789 26.9604 81.877 27.096 81.9083 27.1272C81.9448 27.1585 82.1325 27.3775 82.1064 28.3316C82.0543 29.9322 82.023 30.9906 82.7477 31.7101C83.4724 32.4348 84.536 32.3931 86.1523 32.3306C87.0334 32.2993 87.1846 32.4453 87.1846 32.4505C87.1846 32.4505 87.3202 32.6121 87.2576 33.3733C87.1638 34.5881 87.1846 35.8082 87.2003 36.9865C87.2159 37.8624 87.2315 38.7696 87.195 39.6455C87.1533 40.7195 87.4036 41.512 87.9562 42.0699C88.5089 42.6225 89.2805 42.8728 90.3337 42.8311C90.4328 42.8311 90.5318 42.8363 90.6361 42.8415C90.8551 42.8519 91.121 42.8676 91.413 42.8259C92.169 42.7216 92.3358 42.8624 92.3462 42.8728C92.3514 42.878 92.5391 43.0605 92.4922 43.999H92.4974Z" fill="#E68A82"/>
<path d="M97.7061 48.3212C97.68 48.1804 97.6539 48.0396 97.6278 47.9041C97.4975 47.9093 97.3202 47.9301 97.1951 47.9458C96.9605 47.977 96.7102 48.0031 96.4652 47.9979H96.3765C95.7092 47.9823 95.1565 47.9718 94.6873 47.9197C94.6977 48.0344 94.6977 48.1491 94.6873 48.2638L94.6769 48.488C94.656 48.9624 94.6404 49.416 94.6977 49.8175C94.7499 50.1616 94.7134 50.4901 94.6769 50.7821C94.6716 50.8394 94.6612 50.9124 94.656 50.9802C94.7551 51.001 94.8489 51.0167 94.9428 51.0323C95.9386 51.22 97.1795 51.4546 97.6435 50.9958C98.1023 50.5422 97.8781 49.3118 97.7008 48.3212H97.7061Z" fill="#E68A82"/>
<path d="M97.6486 50.9958C97.1846 51.4546 95.9437 51.22 94.9479 51.0323C94.854 51.0167 94.7602 51.001 94.6611 50.9802C94.6663 50.9124 94.6768 50.8394 94.682 50.7821C94.7185 50.4901 94.755 50.1616 94.7028 49.8175C94.6455 49.416 94.6611 48.9624 94.682 48.488L94.6924 48.2638C94.6976 48.1491 94.6976 48.0344 94.6924 47.9197C95.1617 47.9718 95.7143 47.9823 96.3817 47.9979H96.4703C96.7154 48.0031 96.9656 47.977 97.2002 47.9458C97.3254 47.9301 97.5026 47.9093 97.633 47.9041C97.659 48.0396 97.6851 48.1804 97.7112 48.3212C97.8885 49.3118 98.1126 50.5422 97.6538 50.9958H97.6486Z" fill="#E68A82"/>
<path d="M22.8729 41.7571C20.8551 41.7571 18.8374 41.6945 16.8249 41.7779C15.5215 41.8301 14.974 41.486 14.9949 40.047C15.047 36.632 14.974 36.5694 11.4652 36.5538C10.1461 36.5485 9.81239 36.0897 9.83846 34.8489C9.8906 32.4505 9.81239 30.047 9.73418 27.6434C9.69769 26.5381 9.98444 25.8551 11.2514 26.0063C11.4443 26.0272 11.6424 26.0063 11.8353 26.0063C15.0209 25.9698 15.1148 25.9646 14.9844 22.8416C14.9167 21.1367 15.4068 20.5684 17.1586 20.6413C20.1774 20.7717 20.1878 20.6674 20.1878 17.6904C20.1878 12.4974 20.2295 7.29933 20.1669 2.10642C20.1461 0.526646 20.6362 -0.0937921 22.2941 0.00526944C24.6299 0.140827 26.9761 0.104331 29.3171 0.015697C30.5423 -0.0312269 30.9907 0.401516 30.8447 1.5694C30.8186 1.76231 30.8447 1.96043 30.8447 2.15334C30.8604 5.14604 30.8604 5.2451 27.9042 5.1669C25.8708 5.11476 25.5527 6.16272 25.5423 7.84156C25.5319 9.47868 25.8969 10.3911 27.8103 10.3546C30.8499 10.2972 30.7404 10.3963 30.8812 13.4985C30.9646 15.3442 30.339 15.8238 28.5767 15.7352C25.803 15.5996 24.8697 17.0126 25.6049 19.7811C25.8656 20.7717 26.5851 20.6413 27.2837 20.6726C30.6831 20.8343 30.7404 20.829 30.8082 24.3171C30.8343 25.6205 31.3609 25.9646 32.56 26.0063C36.2722 26.121 36.2514 26.1575 36.0741 30.0313C35.9959 31.7154 35.9855 33.4099 36.0481 35.0939C36.0898 36.2253 35.6414 36.5173 34.5621 36.5381C30.9907 36.6059 30.9386 36.6424 30.8551 40.2451C30.8291 41.4286 30.4954 41.8353 29.2962 41.7884C27.1534 41.705 25.0053 41.7623 22.8572 41.7623V41.7519L22.8729 41.7571ZM23.0918 36.486C23.0918 36.486 23.0918 36.4651 23.0918 36.4547C25.1721 36.4547 27.2524 36.413 29.3327 36.4703C30.4068 36.5016 30.8604 36.1367 30.8395 35.0261C30.7926 32.4975 30.7978 29.9636 30.8395 27.4349C30.8551 26.4443 30.4798 26.0428 29.4683 26.048C25.2451 26.0793 21.0168 26.0741 16.7936 26.048C15.7613 26.0428 15.2243 26.3817 15.2347 27.5027C15.266 29.9688 15.2556 32.4349 15.2086 34.901C15.1878 36.0793 15.7092 36.5173 16.851 36.4964C18.9313 36.4547 21.0116 36.486 23.0918 36.486Z" fill="#AB8B61"/>
<path d="M46.1835 51.4077C43.66 51.4077 41.1366 51.3608 38.6131 51.4234C37.2263 51.4599 36.5902 50.7821 36.6215 48.9625C36.6788 45.1616 36.6892 41.3556 36.6527 37.5548C36.6371 35.829 37.294 35.3024 38.5401 35.3128C43.6653 35.3441 48.7956 35.3545 53.9207 35.3076C55.146 35.2972 55.5996 35.9176 55.5839 37.4453C55.5422 41.3452 55.5318 45.2503 55.5839 49.1554C55.61 50.8707 55.0625 51.4286 53.7539 51.3869C51.2304 51.2982 48.707 51.3608 46.1835 51.3608C46.1835 51.3764 46.1835 51.3921 46.1835 51.4077Z" fill="#C86C66"/>
<path d="M51.8301 42.5547C51.837 44.3899 51.0393 45.3093 49.437 45.3128C46.5902 45.3128 46.4182 45.1147 46.4286 41.9655C46.4286 40.8915 46.5642 40.0208 47.9719 40.0521C51.8197 40.1303 51.8197 40.1147 51.8301 42.5547Z" fill="#955B58"/>
<path d="M42.3201 42.5547C42.327 44.3899 41.5293 45.3093 39.927 45.3128C37.0802 45.3128 36.9082 45.1147 36.9186 41.9655C36.9186 40.8915 37.0542 40.0208 38.4619 40.0521C42.3096 40.1303 42.3096 40.1147 42.3201 42.5547Z" fill="#955B58"/>
<path d="M56.9863 31.1784C56.9933 33.0136 56.1956 33.933 54.5932 33.9364C51.7465 33.9364 51.5744 33.7383 51.5849 30.5892C51.5849 29.5152 51.7204 28.6445 53.1281 28.6757C56.9759 28.754 56.9759 28.7383 56.9863 31.1784Z" fill="#212121"/>
<path d="M69.734 28.6705C71.684 28.6774 72.6555 29.6003 72.6485 31.439C72.6451 33.024 71.6666 33.8113 69.7132 33.8008C67.5026 33.7904 67.659 33.78 67.4608 30.7508C67.3096 28.4724 68.5453 28.5245 69.734 28.6705Z" fill="#212121"/>
<path d="M94.1242 86.0584C91.1941 87.2628 89.484 87.0595 88.1544 85.3546C86.8249 83.6549 86.8093 80.3024 88.1232 78.3733C89.2546 76.7101 91.3401 76.1523 93.071 77.1898C93.7801 77.6121 94.0669 77.8467 94.6352 76.9604C94.9793 76.4286 95.9855 76.6945 96.6685 76.8457C97.4871 77.023 97.216 77.7737 97.216 78.3108C97.2316 81.1627 97.1951 84.0146 97.2108 86.8665C97.2212 88.8843 96.2775 90.1877 94.364 90.7717C91.924 91.5172 89.1294 90.8968 88.045 89.4317C87.4454 88.6236 87.5288 88.1439 88.608 88.024C89.3901 87.9354 90.0888 87.9145 90.777 88.5089C91.5903 89.2127 92.6487 89.1397 93.509 88.6079C94.4631 88.0188 94.5257 87.0595 94.1138 86.0532L94.1242 86.0584ZM90.1096 81.9083C90.3234 83.2065 90.4224 84.5881 92.2055 84.6663C93.5715 84.7289 94.4944 83.5662 94.364 81.804C94.2702 80.511 94.0981 79.0928 92.2994 79.0615C90.3286 79.025 90.3547 80.5735 90.1148 81.9083H90.1096Z" fill="#212121"/>
<path d="M73.7956 80.3128C73.7956 82.0646 73.7122 83.8216 73.8217 85.563C73.8999 86.8456 73.342 87.0437 72.2315 87.0437C71.1209 87.0437 70.8342 86.6788 70.8133 85.5891C70.7299 81.2617 70.6882 81.2982 66.3556 81.4077C65.3545 81.4337 64.9374 81.6579 65.0365 82.7111C65.1251 83.6131 65 84.5307 65.0678 85.4327C65.146 86.4911 65.0052 87.1115 63.66 87.0646C62.4817 87.0229 62.0959 86.6996 62.1168 85.5005C62.1898 81.9343 62.1689 78.368 62.122 74.8018C62.1063 73.7382 62.4244 73.3472 63.5558 73.3315C64.7862 73.3107 65.073 73.7382 65.0834 74.9009C65.1251 79.2022 65.1668 79.1605 69.3743 79.0458C70.4588 79.0145 70.928 78.7069 70.8498 77.6016C70.7925 76.7622 70.8967 75.9124 70.8237 75.0729C70.7195 73.879 71.0271 73.3159 72.4035 73.3315C73.7852 73.342 73.8164 74.0615 73.7956 75.0677C73.7591 76.8195 73.7852 78.5714 73.7852 80.3232H73.7956V80.3128Z" fill="#212121"/>
<path d="M29.0928 82.023C29.0928 83.1908 29.1084 84.3535 29.0876 85.5214C29.0771 86.0584 29.3691 86.8092 28.5245 86.9552C27.8467 87.0699 26.8352 87.3566 26.5328 86.7049C25.9958 85.5527 25.5995 86.3295 25.1147 86.5902C22.4504 88.0188 19.88 86.658 19.6976 83.6392C19.5829 81.7675 19.7288 79.8801 19.635 78.0031C19.5776 76.877 20.1199 76.7206 21.0323 76.7362C21.8821 76.7518 22.586 76.7623 22.5443 77.9302C22.4921 79.4161 22.4974 80.9124 22.5443 82.3983C22.5808 83.5558 22.8102 84.682 24.3378 84.6559C25.7768 84.6298 26.1783 83.6705 26.1835 82.4244C26.1835 80.9333 26.2513 79.4422 26.1678 77.9562C26.1001 76.7727 26.7831 76.7727 27.6277 76.7414C28.5193 76.7049 29.1449 76.7883 29.0876 77.9406C29.0198 79.2962 29.0719 80.6622 29.0719 82.023C29.0823 82.023 29.0876 82.023 29.098 82.023H29.0928Z" fill="#212121"/>
<path d="M50.4797 82.1011C50.5214 78.9155 52.315 76.8613 54.9688 76.7048C57.9094 76.5328 59.8072 78.0813 60.266 80.9489C60.4589 82.1532 60.2451 82.7997 58.8322 82.7007C57.4766 82.6068 56.1106 82.6694 54.7498 82.7007C54.2858 82.7111 53.6236 82.4661 53.4985 83.2064C53.4047 83.7539 53.7383 84.2127 54.1554 84.5359C54.9427 85.1459 55.8134 85.2346 56.705 84.7862C56.9865 84.6454 57.2003 84.3795 57.4662 84.197C58.2743 83.6496 59.3692 83.7747 59.8124 84.2857C60.4328 85 59.4996 85.7038 58.9417 86.1313C57.1273 87.5182 55.0574 87.586 53.0553 86.684C51.0324 85.7716 50.5006 83.8946 50.4797 82.1011ZM55.4693 81.0323C55.949 80.3388 57.2785 81.5902 57.3358 80.1876C57.3723 79.2805 56.4078 78.8321 55.5162 78.8581C54.5778 78.8894 53.5141 79.2961 53.5506 80.3024C53.5976 81.4859 54.7863 80.5161 55.4693 81.0323Z" fill="#212121"/>
<path d="M85.7611 82.0698C85.7559 85.1407 83.6652 87.2575 80.6777 87.221C77.6381 87.1845 75.6829 85.1459 75.662 81.9968C75.6412 78.7278 77.6016 76.684 80.7507 76.6892C83.8633 76.6892 85.7663 78.7382 85.7611 82.0698ZM82.8257 82.0177C82.7058 80.6048 82.6224 79.1449 80.8132 78.9259C79.5098 78.7643 78.6391 79.9791 78.613 81.7935C78.5817 83.7487 79.4003 85.0417 80.7142 84.9582C82.5755 84.8383 82.6954 83.3993 82.8257 82.0229V82.0177Z" fill="#212121"/>
<path d="M4.23888 81.4286C4.23888 80.2607 4.12939 79.0824 4.26495 77.9302C4.46307 76.2096 3.84263 75.6048 2.10645 75.7612C1.34002 75.829 0.00530058 76.4077 -0.00512695 74.6611C-0.00512695 73.7748 0.234706 73.3473 1.19404 73.3577C4.18153 73.389 7.1638 73.3994 10.1513 73.3525C11.2253 73.3368 11.2305 73.9416 11.267 74.7133C11.3035 75.5787 10.9438 75.7821 10.1252 75.8186C7.09081 75.9646 7.09602 76.0011 7.09602 78.9625C7.09602 81.1679 7.04388 83.3681 7.11688 85.5735C7.15337 86.6111 6.95003 87.0542 5.77694 87.0595C4.5882 87.0595 4.13982 86.7206 4.21802 85.511C4.30666 84.1554 4.23888 82.7894 4.23888 81.4286Z" fill="#212121"/>
<path d="M31.9603 83.0553C31.9603 82.2107 31.9603 81.3713 31.9603 80.5266C31.9603 79.8228 32.0437 79.2284 31.0375 78.9208C30.0677 78.6236 30.2867 77.1585 30.7298 77.0334C32.0229 76.6684 31.9029 75.7091 32.1741 74.8332C32.6902 73.1544 34.9999 72.2159 36.6892 72.9041C37.1376 73.0866 37.3409 73.3108 37.1793 73.7539C36.9759 74.3066 37.1271 75.1564 36.1261 75.0939C35.4483 75.0522 34.9738 75.2764 34.9269 76.0272C34.88 76.8509 35.5161 76.7414 36.0062 76.7519C36.8195 76.7727 36.9238 77.2576 36.9134 77.9197C36.8977 78.6184 36.6683 79.0616 35.9019 79.0094C34.8122 78.9312 34.8331 79.6403 34.8435 80.4015C34.8591 82.1533 34.7757 83.9051 34.8696 85.6518C34.9321 86.8561 34.3795 87.0073 33.368 87.0334C32.247 87.0647 31.8404 86.6841 31.9446 85.5788C32.0229 84.7446 31.9603 83.8947 31.9603 83.0501V83.0553Z" fill="#212121"/>
<path d="M42.6903 72.7424C43.2273 72.9666 44.2232 72.487 44.39 73.488C44.5464 74.416 44.2075 75.1408 43.0344 75.1303C42.4348 75.1303 42.0959 75.5005 42.0907 76.1314C42.0907 76.8509 42.6225 76.7466 43.0501 76.7414C43.7956 76.7362 44.0824 77.0751 44.0667 77.8154C44.0511 78.5662 43.8999 79.098 42.9823 79.0146C41.9708 78.9207 42.049 79.635 42.049 80.3024C42.0542 82.122 41.9708 83.9416 42.0803 85.7508C42.1585 87.0542 41.4494 87.0125 40.5318 87.0386C39.5881 87.0646 39.1032 86.8874 39.1814 85.7768C39.2857 84.2909 39.2492 82.7894 39.1919 81.3034C39.1554 80.3806 39.682 79.2284 38.1126 78.8321C37.5339 78.6861 37.6642 77.3723 37.8467 77.3097C39.5412 76.7362 39.0355 74.9531 39.8384 73.926C40.5527 73.0188 41.5589 72.8311 42.6903 72.7424Z" fill="#212121"/>
<path d="M48.6548 80.464C48.6548 82.2158 48.5818 83.9728 48.6809 85.7195C48.7539 86.9551 48.1543 87.0646 47.1689 87.049C46.2721 87.0333 45.7508 86.9603 45.7716 85.8133C45.8446 82.1167 45.8446 78.415 45.7716 74.7184C45.7508 73.5192 46.2461 73.368 47.2732 73.342C48.4359 73.3107 48.707 73.7591 48.6705 74.8227C48.6027 76.6996 48.6496 78.587 48.6548 80.4692V80.464Z" fill="#212121"/>
<path d="M12.0176 81.7779C12.0176 80.4848 12.0645 79.1918 12.002 77.904C11.9603 77.0594 12.2887 76.6267 13.0969 76.7726C14.515 77.0385 15.8706 77.3514 17.32 76.7309C18.0187 76.4338 18.3158 77.1011 18.2376 77.7841C18.1699 78.3472 18.5557 79.1918 17.4295 79.1501C15.3023 79.0667 14.8018 80.3597 14.8539 82.1533C14.8852 83.2481 14.7966 84.3535 14.88 85.4483C14.9634 86.5432 14.7601 87.0803 13.4514 87.0646C12.1949 87.049 11.9081 86.5954 11.9968 85.4588C12.0906 84.2388 12.0176 83.0031 12.0228 81.7779H12.0176Z" fill="#212121"/>
</g>
<defs>
<clipPath id="clip0_1727_6080">
<rect width="100" height="91.0897" fill="white"/>
</clipPath>
</defs>
</svg>
