<svg width="100" height="29" viewBox="0 0 100 29" fill="none" xmlns="http://www.w3.org/2000/svg">
<g clip-path="url(#clip0_1726_6047)">
<path d="M14.2413 19.0725V28.1313C14.153 28.1896 14.0665 28.2478 13.9781 28.3061C12.557 26.8267 11.1603 25.321 9.70723 23.8735C6.60555 20.7794 3.47943 17.7096 0.351437 14.6437C-0.00760626 14.2903 -0.184308 14.0779 0.281884 13.6229C4.84229 9.15653 9.38014 4.66756 13.9255 0.186101C13.9838 0.129707 14.0684 0.0996297 14.2376 0V6.32367L14.2601 6.29923C14.0233 6.32554 14.0007 6.55112 13.9255 6.69963C11.9047 10.6641 9.89333 14.6324 7.8857 18.6026C7.8199 18.7304 7.80298 18.8826 7.74283 19.0913H14.2639L14.2413 19.0687V19.0725Z" fill="#00C1E9"/>
<path d="M14.2394 6.32363C14.5026 6.27476 14.527 6.51537 14.5985 6.6526C16.6512 10.6378 18.6983 14.6267 20.7417 18.6157C20.7962 18.7228 20.8244 18.8413 20.9052 19.0706C18.6363 19.0706 16.4388 19.0706 14.2413 19.0706L14.2639 19.0931C14.2639 14.8279 14.262 10.5645 14.2601 6.29919L14.2375 6.32363H14.2394Z" fill="#00C1E9"/>
<path d="M53.4411 10.6923C53.4298 10.0663 53.552 9.82008 54.2457 9.83699C55.7476 9.87459 55.7495 9.83323 55.7495 11.3728V14.2809C55.7495 15.4369 55.7232 16.5949 55.7589 17.751C55.7758 18.3112 55.695 18.5706 55.0201 18.5536C53.4562 18.5142 53.4562 18.5574 53.4562 16.9765C53.4562 14.8805 53.4787 12.7864 53.4411 10.6923Z" fill="#FEFEFE"/>
<path d="M46.7866 15.4501C48.5348 14.7188 49.1815 13.8259 49.0292 12.4349C48.8713 10.9987 48.1401 10.2524 46.3054 9.99302C44.3542 9.71668 42.3728 9.96294 40.4085 9.87647C39.7975 9.85015 39.6904 10.0682 39.6998 10.619C39.7298 12.7413 39.711 14.8636 39.711 16.9859C39.711 18.6326 39.711 18.6119 41.3408 18.5555C41.8145 18.5405 42.0063 18.4296 41.9706 17.9258C41.9273 17.3055 41.9612 16.6776 41.9612 16.0535C41.9612 15.8016 41.9349 15.5328 42.3146 15.5328C43.3767 15.5384 44.5271 15.2546 45.17 16.5122C45.3091 16.7829 45.6212 16.9615 45.764 17.2303C46.5611 18.7285 47.8807 18.6608 49.392 18.4521C48.5048 17.4295 47.6777 16.4783 46.7866 15.4501ZM46.6776 12.7563C46.625 13.5383 46.0761 13.7996 45.3956 13.8466C44.8993 13.8805 44.3955 13.8541 43.8955 13.8541V13.8729H43.2394C41.9574 13.8729 42.0044 13.8692 41.9405 12.6003C41.901 11.8164 42.0589 11.4611 42.9405 11.5627C43.7752 11.6604 44.6324 11.5533 45.4708 11.6284C46.1137 11.6848 46.7359 11.9123 46.6776 12.7563Z" fill="#141414"/>
<path d="M55.0201 18.5536C53.4562 18.5142 53.4562 18.5574 53.4562 16.9765C53.4562 14.8805 53.4787 12.7864 53.4411 10.6923C53.4298 10.0663 53.552 9.82008 54.2457 9.83699C55.7476 9.87459 55.7495 9.83323 55.7495 11.3728V14.2809C55.7495 15.4369 55.7232 16.5949 55.7589 17.751C55.7758 18.3112 55.695 18.5706 55.0201 18.5536Z" fill="#141414"/>
<path d="M85.2248 10.275C85.2229 12.9444 85.221 15.6156 85.2173 18.2849C85.2173 18.4259 85.1327 18.5048 84.9842 18.4973H83.2867C83.001 18.5011 83.0348 18.2849 83.0348 18.1119C83.0442 16.2002 83.0593 14.2884 83.0743 12.3785C82.6382 12.3767 82.6532 12.7846 82.5235 13.0271C81.6457 14.6738 80.7659 16.3205 79.9538 17.9992C79.6925 18.5387 79.3354 18.5857 78.841 18.5857C78.3522 18.5838 77.9838 18.5556 77.7187 18.0123C76.792 16.1269 75.7957 14.2753 74.6528 12.4406C74.6528 14.1023 74.5813 15.7678 74.681 17.4221C74.7393 18.4052 74.4122 18.689 73.5099 18.5368C73.2674 18.4954 73.0136 18.5086 72.7655 18.4973C72.3801 18.3996 72.57 18.0856 72.5681 17.8845C72.553 15.452 72.5737 13.0214 72.5455 10.589C72.5399 10.0438 72.632 9.79756 73.2486 9.85208C74.0832 9.92539 74.9254 9.90847 75.7656 9.93103C76.8803 11.6379 77.6492 13.529 78.6173 15.3148C78.6906 15.4483 78.7639 15.5817 78.888 15.8054C79.9087 13.8391 80.89 11.9499 81.8731 10.0589C82.5292 9.78629 83.204 9.82388 83.8789 9.86336C83.8995 9.86524 83.9183 9.86524 83.939 9.86712C84.283 9.8878 84.6289 9.90471 84.971 9.8784C85.238 9.85584 85.2248 10.0889 85.2248 10.275Z" fill="#141414"/>
<path d="M67.6055 17.9352C66.2107 18.7228 64.6899 18.7867 63.1466 18.657C62.6823 18.6176 62.2123 18.548 61.7649 18.4221C59.4772 17.7735 60.0148 18.157 60.0054 15.9783C60.8626 16.2377 61.701 16.5084 62.5488 16.7434C63.5921 17.0348 64.6486 17.0554 65.6994 16.7735C66.0678 16.6757 66.4457 16.5009 66.4663 16.0592C66.4889 15.5873 66.081 15.4407 65.7163 15.3617C64.7426 15.1493 63.7613 14.967 62.7782 14.7903C62.1296 14.6719 61.4999 14.497 60.919 14.1831C59.605 13.4688 59.387 11.8371 60.4754 10.7957C61.1258 10.1735 61.9285 9.85391 62.8176 9.74301C63.8139 9.51367 64.8121 9.58698 65.8084 9.73737C66.4663 9.81444 67.1167 9.91971 67.7032 10.2618C68.3837 10.7807 67.9796 11.4931 67.9476 12.0984C67.9363 12.2845 67.4138 12.0195 67.1374 11.9067C66.0058 11.5138 64.8516 11.2732 63.6447 11.3972C63.3703 11.4236 63.0902 11.4762 62.8289 11.5645C62.5319 11.666 62.2499 11.8127 62.2443 12.2056C62.2387 12.6003 62.5112 12.7582 62.8101 12.8578C63.4041 13.0552 64.0094 13.1962 64.6373 13.2526C65.5415 13.3334 66.4231 13.5421 67.2784 13.8466C68.16 14.1624 68.786 14.7113 68.8687 15.7189C68.9514 16.749 68.4589 17.454 67.6055 17.9352Z" fill="#141414"/>
<path d="M32.5526 9.90652C30.9586 9.89336 29.3645 9.9084 27.7723 9.84825C27.167 9.82569 27.0542 10.0268 27.0599 10.5833C27.0899 13.0195 27.0674 15.4557 27.0824 17.8919C27.0843 18.0931 26.8963 18.4108 27.2911 18.4972H28.9885C29.0468 18.486 29.107 18.4747 29.1671 18.4634C29.4303 17.8055 29.2667 17.1212 29.2743 16.452C29.2799 15.9689 29.4134 15.8072 29.9115 15.811C30.9398 15.8185 31.9737 15.9087 32.9982 15.7339C34.6806 15.4463 35.6957 14.4632 35.7728 13.0514C35.878 11.1434 34.6881 9.98171 32.5526 9.90652ZM32.1616 14.044C31.7612 14.0853 31.3533 14.0515 30.9492 14.0515C29.2573 14.0628 29.2874 14.0628 29.2743 12.3465C29.2686 11.7393 29.4265 11.5175 30.0506 11.5701C30.7612 11.6303 31.483 11.557 32.1936 11.6209C32.923 11.6848 33.5489 11.9724 33.5433 12.8522C33.5377 13.7488 32.8854 13.9688 32.1616 14.044Z" fill="#141414"/>
<path d="M99.9943 18.2961C98.8232 15.9877 97.5619 13.7206 96.5129 11.3577C95.9546 10.102 95.2403 9.62643 93.9038 9.79186C93.3699 9.85953 93.0785 9.98736 92.8398 10.4686C91.7063 12.7619 90.5314 15.0328 89.3847 17.3186C89.1967 17.6927 88.8941 18.031 88.8997 18.533C89.2043 18.533 89.4881 18.4972 89.7626 18.5386C90.7006 18.6796 91.4149 18.469 91.6743 17.4427C91.7702 17.0648 92.0484 17.0122 92.3962 17.0159C93.7102 17.031 95.026 17.0404 96.3419 17.0122C96.7517 17.0028 97.0186 17.1287 97.1164 17.5085C97.3551 18.4521 97.9905 18.6645 98.8665 18.5405C99.2293 18.4897 99.6033 18.533 99.9962 18.533C99.9962 18.3544 100.008 18.3205 99.9943 18.2961ZM92.7045 15.4426C93.2252 14.3335 93.7459 13.2263 94.338 11.9687C95.0091 13.1849 95.59 14.279 96.0486 15.4369L92.7045 15.4426Z" fill="#141414"/>
</g>
<defs>
<clipPath id="clip0_1726_6047">
<rect width="100" height="28.3061" fill="white"/>
</clipPath>
</defs>
</svg>
