<svg width="10" height="19" viewBox="0 0 10 19" fill="none" xmlns="http://www.w3.org/2000/svg">
<path d="M1.16981 6.50772L7.28981 0.387723C7.53963 0.139389 7.87756 0 8.22981 0C8.58206 0 8.91999 0.139389 9.16981 0.387723C9.29478 0.511674 9.39397 0.659142 9.46167 0.821621C9.52936 0.9841 9.56421 1.15837 9.56421 1.33439C9.56421 1.51041 9.52936 1.68468 9.46167 1.84716C9.39397 2.00964 9.29478 2.15711 9.16981 2.28106L3.03648 8.38772C2.91151 8.51167 2.81231 8.65914 2.74462 8.82162C2.67693 8.9841 2.64208 9.15837 2.64208 9.33439C2.64208 9.51041 2.67693 9.68468 2.74462 9.84716C2.81231 10.0096 2.91151 10.1571 3.03648 10.2811L9.16981 16.3877C9.42088 16.637 9.56264 16.9759 9.56389 17.3297C9.56514 17.6835 9.42578 18.0233 9.17648 18.2744C8.92717 18.5255 8.58834 18.6672 8.23453 18.6685C7.88071 18.6697 7.54088 18.5304 7.28981 18.2811L1.16981 12.1611C0.420743 11.4111 -2.86102e-06 10.3944 -2.86102e-06 9.33439C-2.86102e-06 8.27439 0.420743 7.25773 1.16981 6.50772Z" fill="#04121E"/>
</svg>
