<svg width="16" height="9" viewBox="0 0 16 9" fill="none" xmlns="http://www.w3.org/2000/svg">
<path d="M5.57751 7.1945L0.332302 1.9493C0.119464 1.73519 -6.31873e-08 1.44556 -4.99909e-08 1.14366C-3.67946e-08 0.841761 0.119464 0.55213 0.332302 0.338022C0.438535 0.230915 0.564924 0.145901 0.704178 0.0878854C0.843433 0.0298697 0.992796 4.33965e-08 1.14365 4.99906e-08C1.29451 5.65848e-08 1.44387 0.0298697 1.58313 0.0878854C1.72238 0.145901 1.84877 0.230915 1.955 0.338022L7.18878 5.59466C7.29501 5.70176 7.4214 5.78678 7.56066 5.84479C7.69991 5.90281 7.84927 5.93268 8.00013 5.93268C8.15099 5.93268 8.30035 5.90281 8.4396 5.84479C8.57886 5.78678 8.70525 5.70176 8.81148 5.59466L14.0453 0.338023C14.2589 0.12284 14.5493 0.00134898 14.8526 0.00027746C15.1558 -0.000794059 15.4471 0.118642 15.6622 0.33231C15.8774 0.545978 15.9989 0.836376 16 1.13962C16.0011 1.44286 15.8816 1.73411 15.668 1.9493L10.4228 7.1945C9.77996 7.8365 8.90862 8.1971 8.00013 8.1971C7.09164 8.1971 6.2203 7.8365 5.57751 7.1945Z" fill="#909090"/>
</svg>
