<svg width="11" height="19" viewBox="0 0 11 19" fill="none" xmlns="http://www.w3.org/2000/svg">
<path opacity="1" d="M9.23986 6.50772L3.11986 0.387723C2.87004 0.139389 2.5321 0 2.17986 0C1.82761 0 1.48967 0.139389 1.23986 0.387723C1.11489 0.511674 1.01569 0.659142 0.948002 0.821621C0.88031 0.9841 0.845459 1.15837 0.845459 1.33439C0.845459 1.51041 0.88031 1.68468 0.948002 1.84716C1.01569 2.00964 1.11489 2.15711 1.23986 2.28106L7.37319 8.38772C7.49816 8.51167 7.59735 8.65914 7.66504 8.82162C7.73274 8.9841 7.76759 9.15837 7.76759 9.33439C7.76759 9.51041 7.73274 9.68468 7.66504 9.84716C7.59735 10.0096 7.49816 10.1571 7.37319 10.2811L1.23986 16.3877C0.988785 16.637 0.847032 16.9759 0.845782 17.3297C0.844532 17.6835 0.983888 18.0233 1.23319 18.2744C1.48249 18.5255 1.82132 18.6672 2.17514 18.6685C2.52896 18.6697 2.86879 18.5304 3.11986 18.2811L9.23986 12.1611C9.98892 11.4111 10.4097 10.3944 10.4097 9.33439C10.4097 8.27439 9.98892 7.25773 9.23986 6.50772Z" fill="#04121E"/>
</svg>
