<?xml version="1.0" standalone="no"?>
<!DOCTYPE svg PUBLIC "-//W3C//DTD SVG 20010904//EN"
 "http://www.w3.org/TR/2001/REC-SVG-20010904/DTD/svg10.dtd">
<svg version="1.0" xmlns="http://www.w3.org/2000/svg"
 width="1865.000000pt" height="724.000000pt" viewBox="0 0 1865.000000 724.000000"
 preserveAspectRatio="xMidYMid meet">

<g transform="translate(0.000000,724.000000) scale(0.100000,-0.100000)"
fill="#000000" stroke="none">
<path d="M2915 7219 c-27 -11 -401 -169 -485 -206 -19 -9 -53 -24 -75 -33
-149 -67 -274 -120 -279 -120 -3 0 -33 -13 -68 -29 -35 -17 -128 -58 -208 -92
-80 -34 -170 -73 -200 -86 -30 -14 -86 -38 -125 -53 -38 -15 -100 -42 -138
-59 -37 -17 -69 -31 -72 -31 -2 0 -48 -20 -101 -45 -53 -25 -98 -45 -101 -45
-6 0 -243 -100 -323 -137 -30 -14 -129 -57 -220 -95 -340 -144 -374 -161 -433
-221 -55 -57 -72 -103 -72 -202 0 -79 3 -96 28 -144 34 -64 49 -78 197 -183
63 -45 120 -86 125 -90 6 -5 75 -54 155 -111 231 -164 254 -181 268 -194 7 -7
16 -13 20 -13 4 0 15 -7 25 -14 16 -13 14 -20 -31 -112 -99 -200 -167 -374
-217 -559 -14 -55 -31 -108 -36 -117 -5 -10 -9 -31 -9 -48 0 -17 -4 -38 -9
-48 -21 -40 -67 -355 -78 -536 -11 -175 -6 -407 12 -541 3 -22 8 -65 11 -95 3
-30 11 -91 19 -135 55 -311 121 -530 248 -815 56 -126 167 -335 224 -420 17
-25 51 -77 76 -117 39 -59 141 -194 182 -239 5 -6 30 -36 55 -65 244 -294 646
-608 1025 -801 76 -39 286 -131 350 -154 317 -113 533 -161 882 -199 310 -33
683 -10 1013 62 297 65 567 160 819 288 101 52 130 68 253 142 29 18 67 40 83
50 17 10 32 20 35 23 3 3 22 18 42 33 l37 27 56 -35 c30 -20 63 -39 73 -42 9
-4 51 -27 92 -53 204 -125 289 -142 412 -81 76 37 110 72 146 151 59 128 36
225 -95 389 -25 31 -50 63 -56 71 -7 8 -24 30 -39 48 -33 39 -34 51 -10 78 32
34 147 178 172 214 13 19 27 37 30 40 9 8 160 239 160 245 0 3 11 24 25 46 29
45 120 224 157 309 115 259 194 519 239 780 33 195 41 314 40 615 -1 171 -3
324 -6 340 -16 124 -52 328 -75 430 -5 22 -12 54 -15 70 -4 17 -10 39 -15 50
-5 11 -23 67 -40 125 -75 248 -167 447 -360 780 -8 14 -17 27 -20 30 -3 3 -37
50 -75 105 -59 85 -110 152 -210 274 -55 67 -325 328 -411 398 -218 175 -387
285 -629 408 -274 139 -610 254 -875 300 -47 8 -96 17 -110 20 -197 39 -580
56 -780 34 -115 -12 -111 -14 -164 64 -188 277 -221 316 -288 350 -64 32 -181
45 -233 26z m127 -278 c12 -15 40 -52 61 -82 21 -30 103 -146 182 -259 79
-113 153 -218 165 -235 12 -16 54 -77 95 -135 41 -58 84 -118 95 -135 12 -16
38 -55 60 -85 47 -67 46 -64 225 -320 79 -113 183 -261 232 -329 48 -68 96
-136 105 -150 10 -14 45 -64 78 -111 131 -185 160 -230 160 -249 0 -22 -29
-45 -70 -56 -101 -27 -348 -111 -362 -123 -32 -27 -20 -56 73 -173 50 -63 136
-170 190 -239 55 -69 126 -159 160 -200 33 -41 85 -106 115 -145 29 -38 72
-92 94 -120 22 -27 62 -77 88 -111 26 -34 81 -103 123 -155 217 -271 292 -366
302 -386 19 -41 -12 -59 -156 -93 -309 -73 -373 -91 -391 -109 -26 -27 -17
-53 50 -136 31 -38 69 -86 84 -105 34 -42 70 -89 129 -167 24 -32 49 -62 56
-68 6 -5 25 -28 41 -50 16 -22 65 -85 108 -140 44 -55 121 -152 171 -215 50
-63 115 -146 145 -185 45 -58 314 -398 423 -535 15 -19 48 -62 73 -95 25 -33
49 -62 53 -65 4 -3 50 -61 103 -130 53 -69 133 -170 177 -225 66 -81 80 -106
78 -130 -3 -45 -34 -43 -119 6 -40 23 -102 59 -138 79 -36 21 -103 60 -150 88
-47 27 -108 62 -135 78 -28 15 -88 50 -135 77 -47 27 -105 61 -129 74 -25 13
-97 55 -160 92 -64 38 -177 103 -251 146 -74 43 -223 128 -330 190 -107 62
-211 122 -230 133 -19 11 -91 52 -160 92 -167 98 -556 322 -600 346 -19 10
-37 21 -40 24 -3 3 -16 11 -30 17 -14 7 -43 24 -65 37 -22 14 -51 31 -65 39
-14 7 -117 67 -230 132 -113 65 -236 136 -275 158 -38 22 -150 86 -247 143
-97 57 -179 104 -182 104 -2 0 -41 23 -85 50 -44 28 -85 50 -89 50 -5 0 -17 9
-27 20 -24 26 -13 64 22 78 16 6 114 44 218 85 105 42 200 78 213 82 30 9 55
49 47 75 -4 11 -19 28 -33 38 -15 9 -33 23 -41 30 -8 7 -26 21 -40 30 -14 9
-116 82 -226 162 -110 80 -210 152 -221 160 -19 13 -53 37 -174 125 -16 11
-63 45 -107 77 -43 31 -125 90 -183 131 -58 42 -109 80 -115 84 -5 5 -46 35
-90 66 -370 263 -385 277 -332 311 22 15 119 59 281 127 82 35 106 54 106 85
0 25 -33 53 -198 169 -50 35 -115 81 -317 225 -81 58 -161 115 -178 127 -18
13 -69 49 -113 80 -45 32 -148 105 -229 163 -81 58 -180 127 -219 154 -39 28
-80 58 -90 68 -11 10 -23 18 -27 18 -4 0 -14 6 -21 13 -7 7 -41 32 -75 55 -71
48 -77 55 -69 86 6 24 2 23 286 144 278 119 610 262 655 282 22 10 69 30 105
45 36 15 83 35 105 45 53 24 333 145 415 180 36 15 86 36 111 48 25 12 70 31
100 42 29 12 77 32 107 46 29 13 54 24 57 24 2 0 36 15 77 34 40 18 127 56
193 84 66 29 208 90 315 136 107 47 200 85 207 85 6 1 22 -12 35 -28z"/>
<path d="M13286 5725 c-46 -16 -91 -57 -116 -105 -27 -53 -1561 -3788 -1576
-3837 -17 -55 -3 -143 28 -189 71 -104 243 -112 337 -15 40 42 61 88 250 551
l207 505 954 0 953 0 169 -405 c92 -223 187 -450 210 -505 51 -122 98 -177
170 -201 163 -54 325 76 305 244 -3 30 -282 715 -785 1932 -428 1037 -782
1895 -786 1907 -4 12 -25 40 -48 62 -64 65 -181 89 -272 56z m469 -1723 c202
-486 365 -885 363 -888 -3 -2 -342 -3 -755 -2 l-750 3 363 885 c200 487 369
896 375 910 l11 25 13 -25 c7 -14 178 -422 380 -908z"/>
<path d="M8198 5705 c-95 -35 -148 -109 -148 -208 0 -32 6 -72 14 -90 18 -44
71 -96 121 -118 38 -18 97 -19 1158 -19 663 0 1117 -4 1115 -9 -1 -5 -577
-763 -1278 -1685 -701 -922 -1283 -1691 -1293 -1711 -26 -49 -32 -107 -16
-162 18 -68 106 -155 171 -171 35 -9 410 -12 1466 -12 1589 0 1485 -5 1568 72
97 90 93 256 -8 331 -74 55 8 52 -1281 57 l-1198 5 1280 1685 c704 927 1288
1701 1297 1720 58 120 -2 261 -132 310 -54 20 -70 20 -1427 19 -1138 0 -1378
-3 -1409 -14z"/>
<path d="M15980 5699 c-56 -25 -86 -53 -113 -104 l-22 -40 -3 -1910 c-2 -1442
0 -1921 9 -1953 48 -173 266 -229 387 -98 74 80 72 57 72 882 l0 733 683 3
c660 3 684 4 757 25 324 91 555 269 723 556 231 397 232 964 2 1357 -162 275
-405 459 -716 542 -83 22 -94 22 -909 25 -815 3 -826 3 -870 -18z m1642 -453
c245 -52 461 -289 519 -568 21 -104 25 -270 8 -364 -44 -252 -195 -477 -390
-579 -122 -64 -134 -65 -826 -65 l-623 0 0 795 0 795 623 0 c497 0 635 -3 689
-14z"/>
</g>
</svg>
